<?xml version="1.0" encoding="UTF-8"?>

<!DOCTYPE svg PUBLIC '-//W3C//DTD SVG 1.0//EN' 'http://www.w3.org/TR/2001/REC-SVG-20010904/DTD/svg10.dtd'>
<svg style="fill-opacity:1; color-rendering:auto; color-interpolation:auto; stroke:black; text-rendering:auto; stroke-linecap:square; stroke-miterlimit:10; stroke-opacity:1; shape-rendering:auto; fill:black; stroke-dasharray:none; font-weight:normal; stroke-width:1; font-family:&apos;Dialog&apos;; font-style:normal; stroke-linejoin:miter; font-size:12; stroke-dashoffset:0; image-rendering:auto;" xmlns="http://www.w3.org/2000/svg" width="496" xmlns:xlink="http://www.w3.org/1999/xlink" height="316">
  <!--Generated by the Batik Graphics2D SVG Generator-->
  <defs id="genericDefs" />
  <g>
    <defs id="defs1">
      <clipPath clipPathUnits="userSpaceOnUse" id="clipPath1">
        <path d="M-3 -3 L77 -3 L77 317 L-3 317 L-3 -3 Z" />
      </clipPath>
      <clipPath clipPathUnits="userSpaceOnUse" id="clipPath2">
        <path d="M-3 -3 L67 -3 L67 317 L-3 317 L-3 -3 Z" />
      </clipPath>
      <clipPath clipPathUnits="userSpaceOnUse" id="clipPath3">
        <path d="M-3 -3 L15 -3 L15 94 L-3 94 L-3 -3 Z" />
      </clipPath>
      <clipPath clipPathUnits="userSpaceOnUse" id="clipPath4">
        <path d="M-3 -3 L15 -3 L15 84 L-3 84 L-3 -3 Z" />
      </clipPath>
      <clipPath clipPathUnits="userSpaceOnUse" id="clipPath5">
        <path d="M-3 -3 L15 -3 L15 69 L-3 69 L-3 -3 Z" />
      </clipPath>
      <clipPath clipPathUnits="userSpaceOnUse" id="clipPath6">
        <path d="M-3 -3 L15 -3 L15 87 L-3 87 L-3 -3 Z" />
      </clipPath>
      <clipPath clipPathUnits="userSpaceOnUse" id="clipPath7">
        <path d="M0 0 L60 0 L60 21 L0 21 L0 0 Z" />
      </clipPath>
      <clipPath clipPathUnits="userSpaceOnUse" id="clipPath8">
        <path d="M0 0 L60 0 L60 42 L0 42 L0 0 Z" />
      </clipPath>
      <clipPath clipPathUnits="userSpaceOnUse" id="clipPath9">
        <path d="M0 0 L48 0 L48 21 L0 21 L0 0 Z" />
      </clipPath>
      <clipPath clipPathUnits="userSpaceOnUse" id="clipPath10">
        <path d="M0 0 L339 0 L339 87 L0 87 L0 0 Z" />
      </clipPath>
      <clipPath clipPathUnits="userSpaceOnUse" id="clipPath11">
        <path d="M0 0 L244 0 L244 87 L0 87 L0 0 Z" />
      </clipPath>
      <clipPath clipPathUnits="userSpaceOnUse" id="clipPath12">
        <path d="M0 0 L249 0 L249 87 L0 87 L0 0 Z" />
      </clipPath>
      <clipPath clipPathUnits="userSpaceOnUse" id="clipPath13">
        <path d="M0 0 L414 0 L414 87 L0 87 L0 0 Z" />
      </clipPath>
      <clipPath clipPathUnits="userSpaceOnUse" id="clipPath14">
        <path d="M0 0 L92 0 L92 21 L0 21 L0 0 Z" />
      </clipPath>
      <clipPath clipPathUnits="userSpaceOnUse" id="clipPath15">
        <path d="M0 0 L143 0 L143 21 L0 21 L0 0 Z" />
      </clipPath>
      <clipPath clipPathUnits="userSpaceOnUse" id="clipPath16">
        <path d="M0 0 L113 0 L113 21 L0 21 L0 0 Z" />
      </clipPath>
      <clipPath clipPathUnits="userSpaceOnUse" id="clipPath17">
        <path d="M0 0 L120 0 L120 21 L0 21 L0 0 Z" />
      </clipPath>
      <clipPath clipPathUnits="userSpaceOnUse" id="clipPath18">
        <path d="M0 0 L127 0 L127 21 L0 21 L0 0 Z" />
      </clipPath>
    </defs>
    <g style="fill:white; text-rendering:geometricPrecision; stroke:white;">
      <rect x="0" y="0" width="496" style="stroke:none;" height="316" />
    </g>
    <g transform="translate(2,2)" style="font-size:14; fill:rgb(122,207,245); text-rendering:geometricPrecision; font-family:sans-serif; stroke:rgb(122,207,245);">
      <circle style="clip-path:url(#clipPath1); stroke:none;" r="5" cx="35" cy="5" />
      <rect x="31" y="56" width="8" style="clip-path:url(#clipPath1); stroke:none;" height="253" />
    </g>
    <g transform="translate(2,2)" style="font-size:14; stroke-linecap:butt; text-rendering:geometricPrecision; font-family:sans-serif; stroke-linejoin:round; stroke-miterlimit:0;">
      <circle style="fill:none; clip-path:url(#clipPath1);" r="5" cx="35" cy="5" />
      <rect x="31" y="56" width="8" style="clip-path:url(#clipPath1); fill:none;" height="253" />
      <line x1="35" x2="35" y1="10" style="clip-path:url(#clipPath1); fill:none;" y2="25" />
      <line x1="35" x2="26" y1="25" style="clip-path:url(#clipPath1); fill:none;" y2="36" />
      <line x1="35" x2="44" y1="25" style="clip-path:url(#clipPath1); fill:none;" y2="36" />
      <line x1="26" x2="44" y1="16" style="clip-path:url(#clipPath1); fill:none;" y2="16" />
    </g>
    <g transform="translate(172,2)" style="font-size:14; fill:rgb(122,207,245); text-rendering:geometricPrecision; font-family:sans-serif; stroke:rgb(122,207,245);">
      <rect x="0" y="0" width="59" style="clip-path:url(#clipPath2); stroke:none;" height="35" />
    </g>
    <g transform="translate(172,2)" style="font-size:14; stroke-linecap:butt; text-rendering:geometricPrecision; font-family:sans-serif; stroke-linejoin:round; stroke-miterlimit:0;">
      <rect x="0" y="0" width="59" style="clip-path:url(#clipPath2); fill:none;" height="35" />
      <line x1="29" x2="29" y1="35" style="clip-path:url(#clipPath2); fill:none; stroke-linejoin:bevel; stroke-dasharray:8,3;" y2="310" />
    </g>
    <g transform="translate(198,172)" style="font-size:14; fill:rgb(122,207,245); text-rendering:geometricPrecision; font-family:sans-serif; stroke:rgb(122,207,245);">
      <rect x="0" y="0" width="8" style="clip-path:url(#clipPath3); stroke:none;" height="87" />
    </g>
    <g transform="translate(198,172)" style="font-size:14; stroke-linecap:butt; text-rendering:geometricPrecision; font-family:sans-serif; stroke-linejoin:round; stroke-miterlimit:0;">
      <rect x="0" y="0" width="8" style="clip-path:url(#clipPath3); fill:none;" height="87" />
    </g>
    <g transform="translate(432,2)" style="font-size:14; fill:rgb(122,207,245); text-rendering:geometricPrecision; font-family:sans-serif; stroke:rgb(122,207,245);">
      <rect x="0" y="0" width="59" style="clip-path:url(#clipPath2); stroke:none;" height="42" />
    </g>
    <g transform="translate(432,2)" style="font-size:14; stroke-linecap:butt; text-rendering:geometricPrecision; font-family:sans-serif; stroke-linejoin:round; stroke-miterlimit:0;">
      <rect x="0" y="0" width="59" style="clip-path:url(#clipPath2); fill:none;" height="42" />
      <line x1="29" x2="29" y1="35" style="clip-path:url(#clipPath2); fill:none; stroke-linejoin:bevel; stroke-dasharray:8,3;" y2="310" />
    </g>
    <g transform="translate(458,212)" style="font-size:14; fill:rgb(122,207,245); text-rendering:geometricPrecision; font-family:sans-serif; stroke:rgb(122,207,245);">
      <rect x="0" y="0" width="8" style="clip-path:url(#clipPath4); stroke:none;" height="77" />
    </g>
    <g transform="translate(458,212)" style="font-size:14; stroke-linecap:butt; text-rendering:geometricPrecision; font-family:sans-serif; stroke-linejoin:round; stroke-miterlimit:0;">
      <rect x="0" y="0" width="8" style="clip-path:url(#clipPath4); fill:none;" height="77" />
    </g>
    <g transform="translate(342,2)" style="font-size:14; fill:rgb(122,207,245); text-rendering:geometricPrecision; font-family:sans-serif; stroke:rgb(122,207,245);">
      <rect x="0" y="0" width="59" style="clip-path:url(#clipPath2); stroke:none;" height="35" />
    </g>
    <g transform="translate(342,2)" style="font-size:14; stroke-linecap:butt; text-rendering:geometricPrecision; font-family:sans-serif; stroke-linejoin:round; stroke-miterlimit:0;">
      <rect x="0" y="0" width="59" style="clip-path:url(#clipPath2); fill:none;" height="35" />
      <line x1="29" x2="29" y1="35" style="clip-path:url(#clipPath2); fill:none; stroke-linejoin:bevel; stroke-dasharray:8,3;" y2="310" />
    </g>
    <g transform="translate(198,72)" style="font-size:14; fill:rgb(122,207,245); text-rendering:geometricPrecision; font-family:sans-serif; stroke:rgb(122,207,245);">
      <rect x="0" y="0" width="8" style="clip-path:url(#clipPath5); stroke:none;" height="62" />
    </g>
    <g transform="translate(198,72)" style="font-size:14; stroke-linecap:butt; text-rendering:geometricPrecision; font-family:sans-serif; stroke-linejoin:round; stroke-miterlimit:0;">
      <rect x="0" y="0" width="8" style="clip-path:url(#clipPath5); fill:none;" height="62" />
    </g>
    <g transform="translate(368,82)" style="font-size:14; fill:rgb(122,207,245); text-rendering:geometricPrecision; font-family:sans-serif; stroke:rgb(122,207,245);">
      <rect x="0" y="0" width="8" style="clip-path:url(#clipPath6); stroke:none;" height="80" />
    </g>
    <g transform="translate(368,82)" style="font-size:14; stroke-linecap:butt; text-rendering:geometricPrecision; font-family:sans-serif; stroke-linejoin:round; stroke-miterlimit:0;">
      <rect x="0" y="0" width="8" style="clip-path:url(#clipPath6); fill:none;" height="80" />
    </g>
    <g style="text-rendering:geometricPrecision; font-size:14; font-family:sans-serif;" transform="translate(342,2)">
      <text x="12" y="17" style="clip-path:url(#clipPath7); stroke:none;" xml:space="preserve">: 物品</text>
    </g>
    <g style="text-rendering:geometricPrecision; font-size:14; font-family:sans-serif;" transform="translate(432,2)">
      <text x="28" y="17" style="clip-path:url(#clipPath8); stroke:none;" xml:space="preserve">:</text>
      <text x="9" y="38" style="clip-path:url(#clipPath8); stroke:none;" xml:space="preserve">購物車</text>
    </g>
    <g style="text-rendering:geometricPrecision; font-size:14; font-family:sans-serif;" transform="translate(172,2)">
      <text x="16" y="17" style="clip-path:url(#clipPath7); stroke:none;" xml:space="preserve">系統</text>
    </g>
    <g style="text-rendering:geometricPrecision; font-size:14; font-family:sans-serif;" transform="translate(13,37)">
      <text x="10" y="17" style="clip-path:url(#clipPath9); stroke:none;" xml:space="preserve">會員</text>
    </g>
    <g transform="translate(164,190)" style="font-size:14; stroke-linecap:butt; text-rendering:geometricPrecision; font-family:sans-serif; stroke-linejoin:round;">
      <line x1="42" x2="293" y1="42" style="clip-path:url(#clipPath10); fill:none;" y2="42" />
      <polygon style="clip-path:url(#clipPath10); stroke:none;" points=" 293 42 281 36 281 48" />
      <polygon style="fill:none; clip-path:url(#clipPath10);" points=" 293 42 281 36 281 48" />
    </g>
    <g transform="translate(0,40)" style="font-size:14; stroke-linecap:butt; text-rendering:geometricPrecision; font-family:sans-serif; stroke-linejoin:round;">
      <line x1="42" x2="198" y1="42" style="clip-path:url(#clipPath11); fill:none;" y2="42" />
      <polygon style="clip-path:url(#clipPath11); stroke:none;" points=" 198 42 186 36 186 48" />
      <polygon style="fill:none; clip-path:url(#clipPath11);" points=" 198 42 186 36 186 48" />
    </g>
    <g transform="translate(164,70)" style="font-size:14; stroke-linecap:butt; text-rendering:geometricPrecision; font-family:sans-serif; stroke-linejoin:round;">
      <line x1="42" x2="203" y1="42" style="clip-path:url(#clipPath12); fill:none;" y2="42" />
      <polygon style="clip-path:url(#clipPath12); stroke:none;" points=" 203 42 191 36 191 48" />
      <polygon style="fill:none; clip-path:url(#clipPath12);" points=" 203 42 191 36 191 48" />
    </g>
    <g transform="translate(0,110)" style="font-size:14; stroke-linecap:butt; text-rendering:geometricPrecision; font-family:sans-serif; stroke-linejoin:round;">
      <line x1="368" x2="42" y1="42" style="clip-path:url(#clipPath13); fill:none;" y2="42" />
      <polygon style="clip-path:url(#clipPath13); stroke:none;" points=" 42 42 54 48 54 36" />
      <polygon style="fill:none; clip-path:url(#clipPath13);" points=" 42 42 54 48 54 36" />
    </g>
    <g transform="translate(0,150)" style="font-size:14; stroke-linecap:butt; text-rendering:geometricPrecision; font-family:sans-serif; stroke-linejoin:round;">
      <line x1="42" x2="198" y1="42" style="clip-path:url(#clipPath11); fill:none;" y2="42" />
      <polygon style="clip-path:url(#clipPath11); stroke:none;" points=" 198 42 186 36 186 48" />
      <polygon style="fill:none; clip-path:url(#clipPath11);" points=" 198 42 186 36 186 48" />
    </g>
    <g style="text-rendering:geometricPrecision; font-size:14; font-family:sans-serif;" transform="translate(74,167)">
      <text x="10" y="17" style="clip-path:url(#clipPath14); stroke:none;" xml:space="preserve">2: 點選物品</text>
    </g>
    <g style="text-rendering:geometricPrecision; font-size:14; font-family:sans-serif;" transform="translate(222,122)">
      <text x="9" y="17" style="clip-path:url(#clipPath15); stroke:none;" xml:space="preserve">1.1.1: 回傳物品資料</text>
    </g>
    <g style="text-rendering:geometricPrecision; font-size:14; font-family:sans-serif;" transform="translate(230,87)">
      <text x="9" y="17" style="clip-path:url(#clipPath16); stroke:none;" xml:space="preserve">1.1: 查詢物品()</text>
    </g>
    <g style="text-rendering:geometricPrecision; font-size:14; font-family:sans-serif;" transform="translate(60,57)">
      <text x="10" y="17" style="clip-path:url(#clipPath17); stroke:none;" xml:space="preserve">1: 開啟物品頁面</text>
    </g>
    <g style="text-rendering:geometricPrecision; font-size:14; font-family:sans-serif;" transform="translate(242,202)">
      <text x="9" y="17" style="clip-path:url(#clipPath18); stroke:none;" xml:space="preserve">2.1: 新增購物車()</text>
    </g>
  </g>
</svg>
