<?xml version="1.0" encoding="UTF-8"?>

<!DOCTYPE svg PUBLIC '-//W3C//DTD SVG 1.0//EN' 'http://www.w3.org/TR/2001/REC-SVG-20010904/DTD/svg10.dtd'>
<svg style="fill-opacity:1; color-rendering:auto; color-interpolation:auto; stroke:black; text-rendering:auto; stroke-linecap:square; stroke-miterlimit:10; stroke-opacity:1; shape-rendering:auto; fill:black; stroke-dasharray:none; font-weight:normal; stroke-width:1; font-family:&apos;Dialog&apos;; font-style:normal; stroke-linejoin:miter; font-size:12; stroke-dashoffset:0; image-rendering:auto;" xmlns="http://www.w3.org/2000/svg" width="571" xmlns:xlink="http://www.w3.org/1999/xlink" height="316">
  <!--Generated by the Batik Graphics2D SVG Generator-->
  <defs id="genericDefs" />
  <g>
    <defs id="defs1">
      <clipPath clipPathUnits="userSpaceOnUse" id="clipPath1">
        <path d="M-3 -3 L67 -3 L67 317 L-3 317 L-3 -3 Z" />
      </clipPath>
      <clipPath clipPathUnits="userSpaceOnUse" id="clipPath2">
        <path d="M-3 -3 L77 -3 L77 317 L-3 317 L-3 -3 Z" />
      </clipPath>
      <clipPath clipPathUnits="userSpaceOnUse" id="clipPath3">
        <path d="M-3 -3 L14 -3 L14 87 L-3 87 L-3 -3 Z" />
      </clipPath>
      <clipPath clipPathUnits="userSpaceOnUse" id="clipPath4">
        <path d="M-3 -3 L14 -3 L14 177 L-3 177 L-3 -3 Z" />
      </clipPath>
      <clipPath clipPathUnits="userSpaceOnUse" id="clipPath5">
        <path d="M-3 -3 L14 -3 L14 109 L-3 109 L-3 -3 Z" />
      </clipPath>
      <clipPath clipPathUnits="userSpaceOnUse" id="clipPath6">
        <path d="M0 0 L70 0 L70 21 L0 21 L0 0 Z" />
      </clipPath>
      <clipPath clipPathUnits="userSpaceOnUse" id="clipPath7">
        <path d="M0 0 L60 0 L60 21 L0 21 L0 0 Z" />
      </clipPath>
      <clipPath clipPathUnits="userSpaceOnUse" id="clipPath8">
        <path d="M0 0 L48 0 L48 21 L0 21 L0 0 Z" />
      </clipPath>
      <clipPath clipPathUnits="userSpaceOnUse" id="clipPath9">
        <path d="M0 0 L220 0 L220 87 L0 87 L0 0 Z" />
      </clipPath>
      <clipPath clipPathUnits="userSpaceOnUse" id="clipPath10">
        <path d="M0 0 L285 0 L285 87 L0 87 L0 0 Z" />
      </clipPath>
      <clipPath clipPathUnits="userSpaceOnUse" id="clipPath11">
        <path d="M0 0 L109 0 L109 107 L0 107 L0 0 Z" />
      </clipPath>
      <clipPath clipPathUnits="userSpaceOnUse" id="clipPath12">
        <path d="M0 0 L425 0 L425 87 L0 87 L0 0 Z" />
      </clipPath>
      <clipPath clipPathUnits="userSpaceOnUse" id="clipPath13">
        <path d="M0 0 L120 0 L120 21 L0 21 L0 0 Z" />
      </clipPath>
      <clipPath clipPathUnits="userSpaceOnUse" id="clipPath14">
        <path d="M0 0 L157 0 L157 20 L0 20 L0 0 Z" />
      </clipPath>
      <clipPath clipPathUnits="userSpaceOnUse" id="clipPath15">
        <path d="M0 0 L127 0 L127 21 L0 21 L0 0 Z" />
      </clipPath>
      <clipPath clipPathUnits="userSpaceOnUse" id="clipPath16">
        <path d="M0 0 L166 0 L166 21 L0 21 L0 0 Z" />
      </clipPath>
      <clipPath clipPathUnits="userSpaceOnUse" id="clipPath17">
        <path d="M0 0 L113 0 L113 21 L0 21 L0 0 Z" />
      </clipPath>
      <clipPath clipPathUnits="userSpaceOnUse" id="clipPath18">
        <path d="M0 0 L134 0 L134 21 L0 21 L0 0 Z" />
      </clipPath>
    </defs>
    <g style="fill:white; text-rendering:geometricPrecision; stroke:white;">
      <rect x="0" y="0" width="571" style="stroke:none;" height="316" />
    </g>
    <g transform="translate(2,2)" style="font-size:14; fill:rgb(122,207,245); text-rendering:geometricPrecision; font-family:sans-serif; stroke:rgb(122,207,245);">
      <circle style="clip-path:url(#clipPath1); stroke:none;" r="5" cx="30" cy="5" />
      <rect x="26" y="56" width="8" style="clip-path:url(#clipPath1); stroke:none;" height="253" />
    </g>
    <g transform="translate(2,2)" style="font-size:14; stroke-linecap:butt; text-rendering:geometricPrecision; font-family:sans-serif; stroke-linejoin:round; stroke-miterlimit:0;">
      <circle style="fill:none; clip-path:url(#clipPath1);" r="5" cx="30" cy="5" />
      <rect x="26" y="56" width="8" style="clip-path:url(#clipPath1); fill:none;" height="253" />
      <line x1="30" x2="30" y1="10" style="clip-path:url(#clipPath1); fill:none;" y2="25" />
      <line x1="30" x2="21" y1="25" style="clip-path:url(#clipPath1); fill:none;" y2="36" />
      <line x1="30" x2="39" y1="25" style="clip-path:url(#clipPath1); fill:none;" y2="36" />
      <line x1="21" x2="39" y1="16" style="clip-path:url(#clipPath1); fill:none;" y2="16" />
    </g>
    <g transform="translate(142,2)" style="font-size:14; fill:rgb(122,207,245); text-rendering:geometricPrecision; font-family:sans-serif; stroke:rgb(122,207,245);">
      <rect x="0" y="0" width="59" style="clip-path:url(#clipPath1); stroke:none;" height="35" />
    </g>
    <g transform="translate(142,2)" style="font-size:14; stroke-linecap:butt; text-rendering:geometricPrecision; font-family:sans-serif; stroke-linejoin:round; stroke-miterlimit:0;">
      <rect x="0" y="0" width="59" style="clip-path:url(#clipPath1); fill:none;" height="35" />
      <line x1="29" x2="29" y1="35" style="clip-path:url(#clipPath1); fill:none; stroke-linejoin:bevel; stroke-dasharray:8,3;" y2="310" />
    </g>
    <g transform="translate(342,2)" style="font-size:14; fill:rgb(122,207,245); text-rendering:geometricPrecision; font-family:sans-serif; stroke:rgb(122,207,245);">
      <rect x="0" y="0" width="69" style="clip-path:url(#clipPath2); stroke:none;" height="35" />
    </g>
    <g transform="translate(342,2)" style="font-size:14; stroke-linecap:butt; text-rendering:geometricPrecision; font-family:sans-serif; stroke-linejoin:round; stroke-miterlimit:0;">
      <rect x="0" y="0" width="69" style="clip-path:url(#clipPath2); fill:none;" height="35" />
      <line x1="34" x2="34" y1="35" style="clip-path:url(#clipPath2); fill:none; stroke-linejoin:bevel; stroke-dasharray:8,3;" y2="310" />
    </g>
    <g transform="translate(374,78)" style="font-size:14; fill:rgb(122,207,245); text-rendering:geometricPrecision; font-family:sans-serif; stroke:rgb(122,207,245);">
      <rect x="0" y="0" width="7" style="clip-path:url(#clipPath3); stroke:none;" height="80" />
    </g>
    <g transform="translate(374,78)" style="font-size:14; stroke-linecap:butt; text-rendering:geometricPrecision; font-family:sans-serif; stroke-linejoin:round; stroke-miterlimit:0;">
      <rect x="0" y="0" width="7" style="clip-path:url(#clipPath3); fill:none;" height="80" />
    </g>
    <g transform="translate(169,82)" style="font-size:14; fill:rgb(122,207,245); text-rendering:geometricPrecision; font-family:sans-serif; stroke:rgb(122,207,245);">
      <rect x="0" y="0" width="7" style="clip-path:url(#clipPath4); stroke:none;" height="170" />
    </g>
    <g transform="translate(169,82)" style="font-size:14; stroke-linecap:butt; text-rendering:geometricPrecision; font-family:sans-serif; stroke-linejoin:round; stroke-miterlimit:0;">
      <rect x="0" y="0" width="7" style="clip-path:url(#clipPath4); fill:none;" height="170" />
    </g>
    <g transform="translate(374,184)" style="font-size:14; fill:rgb(122,207,245); text-rendering:geometricPrecision; font-family:sans-serif; stroke:rgb(122,207,245);">
      <rect x="0" y="0" width="7" style="clip-path:url(#clipPath5); stroke:none;" height="102" />
    </g>
    <g transform="translate(374,184)" style="font-size:14; stroke-linecap:butt; text-rendering:geometricPrecision; font-family:sans-serif; stroke-linejoin:round; stroke-miterlimit:0;">
      <rect x="0" y="0" width="7" style="clip-path:url(#clipPath5); fill:none;" height="102" />
    </g>
    <g style="text-rendering:geometricPrecision; font-size:14; font-family:sans-serif;" transform="translate(342,2)">
      <text x="10" y="17" style="clip-path:url(#clipPath6); stroke:none;" xml:space="preserve">: 購物車</text>
    </g>
    <g style="text-rendering:geometricPrecision; font-size:14; font-family:sans-serif;" transform="translate(142,2)">
      <text x="16" y="17" style="clip-path:url(#clipPath7); stroke:none;" xml:space="preserve">系統</text>
    </g>
    <g style="text-rendering:geometricPrecision; font-size:14; font-family:sans-serif;" transform="translate(8,37)">
      <text x="10" y="17" style="clip-path:url(#clipPath8); stroke:none;" xml:space="preserve">會員</text>
    </g>
    <g transform="translate(-6,40)" style="font-size:14; stroke-linecap:butt; text-rendering:geometricPrecision; font-family:sans-serif; stroke-linejoin:round;">
      <line x1="42" x2="174" y1="42" style="clip-path:url(#clipPath9); fill:none;" y2="42" />
      <polygon style="clip-path:url(#clipPath9); stroke:none;" points=" 174 42 162 36 162 48" />
      <polygon style="fill:none; clip-path:url(#clipPath9);" points=" 174 42 162 36 162 48" />
    </g>
    <g transform="translate(134,200)" style="font-size:14; stroke-linecap:butt; text-rendering:geometricPrecision; font-family:sans-serif; stroke-linejoin:round;">
      <line x1="42" x2="239" y1="42" style="clip-path:url(#clipPath10); fill:none;" y2="42" />
      <polygon style="clip-path:url(#clipPath10); stroke:none;" points=" 239 42 227 36 227 48" />
      <polygon style="fill:none; clip-path:url(#clipPath10);" points=" 239 42 227 36 227 48" />
    </g>
    <g transform="translate(339,210)" style="font-size:14; stroke-linecap:butt; text-rendering:geometricPrecision; font-family:sans-serif; stroke-linejoin:round;">
      <line x1="42" x2="63" y1="42" style="clip-path:url(#clipPath11); fill:none;" y2="42" />
      <line x1="63" x2="63" y1="42" style="clip-path:url(#clipPath11); fill:none;" y2="62" />
      <line x1="63" x2="42" y1="62" style="clip-path:url(#clipPath11); fill:none;" y2="62" />
      <polygon style="clip-path:url(#clipPath11); stroke:none;" points=" 42 62 54 68 54 56" />
      <polygon style="fill:none; clip-path:url(#clipPath11);" points=" 42 62 54 68 54 56" />
    </g>
    <g transform="translate(134,70)" style="font-size:14; stroke-linecap:butt; text-rendering:geometricPrecision; font-family:sans-serif; stroke-linejoin:round;">
      <line x1="42" x2="239" y1="42" style="clip-path:url(#clipPath10); fill:none;" y2="42" />
      <polygon style="clip-path:url(#clipPath10); stroke:none;" points=" 239 42 227 36 227 48" />
      <polygon style="fill:none; clip-path:url(#clipPath10);" points=" 239 42 227 36 227 48" />
    </g>
    <g transform="translate(-6,110)" style="font-size:14; stroke-linecap:butt; text-rendering:geometricPrecision; font-family:sans-serif; stroke-linejoin:round;">
      <line x1="379" x2="42" y1="42" style="clip-path:url(#clipPath12); fill:none;" y2="42" />
      <polygon style="clip-path:url(#clipPath12); stroke:none;" points=" 42 42 54 48 54 36" />
      <polygon style="fill:none; clip-path:url(#clipPath12);" points=" 42 42 54 48 54 36" />
    </g>
    <g transform="translate(-6,170)" style="font-size:14; stroke-linecap:butt; text-rendering:geometricPrecision; font-family:sans-serif; stroke-linejoin:round;">
      <line x1="42" x2="174" y1="42" style="clip-path:url(#clipPath9); fill:none;" y2="42" />
      <polygon style="clip-path:url(#clipPath9); stroke:none;" points=" 174 42 162 36 162 48" />
      <polygon style="fill:none; clip-path:url(#clipPath9);" points=" 174 42 162 36 162 48" />
    </g>
    <g style="text-rendering:geometricPrecision; font-size:14; font-family:sans-serif;" transform="translate(42,187)">
      <text x="10" y="17" style="clip-path:url(#clipPath13); stroke:none;" xml:space="preserve">2: 輸入修改內容</text>
    </g>
    <g style="text-rendering:geometricPrecision; font-size:14; font-family:sans-serif;" transform="translate(202,132)">
      <text x="9" y="17" style="clip-path:url(#clipPath14); stroke:none;" xml:space="preserve">1.1.1: 回傳購物車資訊</text>
    </g>
    <g style="text-rendering:geometricPrecision; font-size:14; font-family:sans-serif;" transform="translate(211,87)">
      <text x="9" y="17" style="clip-path:url(#clipPath15); stroke:none;" xml:space="preserve">1.1: 查詢購物車()</text>
    </g>
    <g style="text-rendering:geometricPrecision; font-size:14; font-family:sans-serif;" transform="translate(402,252)">
      <text x="9" y="17" style="clip-path:url(#clipPath16); stroke:none;" xml:space="preserve">2.1.1: 修改購物車資訊()</text>
    </g>
    <g style="text-rendering:geometricPrecision; font-size:14; font-family:sans-serif;" transform="translate(218,217)">
      <text x="9" y="17" style="clip-path:url(#clipPath17); stroke:none;" xml:space="preserve">2.1: 判斷庫存()</text>
    </g>
    <g style="text-rendering:geometricPrecision; font-size:14; font-family:sans-serif;" transform="translate(34,57)">
      <text x="10" y="17" style="clip-path:url(#clipPath18); stroke:none;" xml:space="preserve">1: 開啟購物車頁面</text>
    </g>
  </g>
</svg>
