<?xml version="1.0" encoding="UTF-8"?>

<!DOCTYPE svg PUBLIC '-//W3C//DTD SVG 1.0//EN' 'http://www.w3.org/TR/2001/REC-SVG-20010904/DTD/svg10.dtd'>
<svg style="fill-opacity:1; color-rendering:auto; color-interpolation:auto; stroke:black; text-rendering:auto; stroke-linecap:square; stroke-miterlimit:10; stroke-opacity:1; shape-rendering:auto; fill:black; stroke-dasharray:none; font-weight:normal; stroke-width:1; font-family:&apos;Dialog&apos;; font-style:normal; stroke-linejoin:miter; font-size:12; stroke-dashoffset:0; image-rendering:auto;" xmlns="http://www.w3.org/2000/svg" width="396" xmlns:xlink="http://www.w3.org/1999/xlink" height="266">
  <!--Generated by the Batik Graphics2D SVG Generator-->
  <defs id="genericDefs" />
  <g>
    <defs id="defs1">
      <clipPath clipPathUnits="userSpaceOnUse" id="clipPath1">
        <path d="M-3 -3 L87 -3 L87 267 L-3 267 L-3 -3 Z" />
      </clipPath>
      <clipPath clipPathUnits="userSpaceOnUse" id="clipPath2">
        <path d="M-3 -3 L67 -3 L67 267 L-3 267 L-3 -3 Z" />
      </clipPath>
      <clipPath clipPathUnits="userSpaceOnUse" id="clipPath3">
        <path d="M-3 -3 L15 -3 L15 158 L-3 158 L-3 -3 Z" />
      </clipPath>
      <clipPath clipPathUnits="userSpaceOnUse" id="clipPath4">
        <path d="M-3 -3 L15 -3 L15 107 L-3 107 L-3 -3 Z" />
      </clipPath>
      <clipPath clipPathUnits="userSpaceOnUse" id="clipPath5">
        <path d="M0 0 L60 0 L60 21 L0 21 L0 0 Z" />
      </clipPath>
      <clipPath clipPathUnits="userSpaceOnUse" id="clipPath6">
        <path d="M0 0 L62 0 L62 21 L0 21 L0 0 Z" />
      </clipPath>
      <clipPath clipPathUnits="userSpaceOnUse" id="clipPath7">
        <path d="M0 0 L228 0 L228 95 L0 95 L0 0 Z" />
      </clipPath>
      <clipPath clipPathUnits="userSpaceOnUse" id="clipPath8">
        <path d="M0 0 L268 0 L268 95 L0 95 L0 0 Z" />
      </clipPath>
      <clipPath clipPathUnits="userSpaceOnUse" id="clipPath9">
        <path d="M0 0 L121 0 L121 115 L0 115 L0 0 Z" />
      </clipPath>
      <clipPath clipPathUnits="userSpaceOnUse" id="clipPath10">
        <path d="M0 0 L126 0 L126 21 L0 21 L0 0 Z" />
      </clipPath>
      <clipPath clipPathUnits="userSpaceOnUse" id="clipPath11">
        <path d="M0 0 L144 0 L144 21 L0 21 L0 0 Z" />
      </clipPath>
      <clipPath clipPathUnits="userSpaceOnUse" id="clipPath12">
        <path d="M0 0 L141 0 L141 21 L0 21 L0 0 Z" />
      </clipPath>
      <clipPath clipPathUnits="userSpaceOnUse" id="clipPath13">
        <path d="M0 0 L135 0 L135 21 L0 21 L0 0 Z" />
      </clipPath>
    </defs>
    <g style="fill:white; text-rendering:geometricPrecision; stroke:white;">
      <rect x="0" y="0" width="396" style="stroke:none;" height="266" />
    </g>
    <g transform="translate(2,2)" style="font-size:14; fill:rgb(122,207,245); text-rendering:geometricPrecision; font-family:sans-serif; stroke:rgb(122,207,245);">
      <circle style="clip-path:url(#clipPath1); stroke:none;" r="5" cx="40" cy="5" />
      <rect x="36" y="56" width="8" style="clip-path:url(#clipPath1); stroke:none;" height="203" />
    </g>
    <g transform="translate(2,2)" style="font-size:14; stroke-linecap:butt; text-rendering:geometricPrecision; font-family:sans-serif; stroke-linejoin:round; stroke-miterlimit:0;">
      <circle style="fill:none; clip-path:url(#clipPath1);" r="5" cx="40" cy="5" />
      <rect x="36" y="56" width="8" style="clip-path:url(#clipPath1); fill:none;" height="203" />
      <line x1="40" x2="40" y1="10" style="clip-path:url(#clipPath1); fill:none;" y2="25" />
      <line x1="40" x2="31" y1="25" style="clip-path:url(#clipPath1); fill:none;" y2="36" />
      <line x1="40" x2="49" y1="25" style="clip-path:url(#clipPath1); fill:none;" y2="36" />
      <line x1="31" x2="49" y1="16" style="clip-path:url(#clipPath1); fill:none;" y2="16" />
    </g>
    <g transform="translate(152,2)" style="font-size:14; fill:rgb(122,207,245); text-rendering:geometricPrecision; font-family:sans-serif; stroke:rgb(122,207,245);">
      <rect x="0" y="0" width="59" style="clip-path:url(#clipPath2); stroke:none;" height="35" />
    </g>
    <g transform="translate(152,2)" style="font-size:14; stroke-linecap:butt; text-rendering:geometricPrecision; font-family:sans-serif; stroke-linejoin:round; stroke-miterlimit:0;">
      <rect x="0" y="0" width="59" style="clip-path:url(#clipPath2); fill:none;" height="35" />
      <line x1="29" x2="29" y1="35" style="clip-path:url(#clipPath2); fill:none; stroke-linejoin:bevel; stroke-dasharray:8,3;" y2="260" />
    </g>
    <g transform="translate(178,80)" style="font-size:14; fill:rgb(122,207,245); text-rendering:geometricPrecision; font-family:sans-serif; stroke:rgb(122,207,245);">
      <rect x="0" y="0" width="8" style="clip-path:url(#clipPath3); stroke:none;" height="151" />
    </g>
    <g transform="translate(178,80)" style="font-size:14; stroke-linecap:butt; text-rendering:geometricPrecision; font-family:sans-serif; stroke-linejoin:round; stroke-miterlimit:0;">
      <rect x="0" y="0" width="8" style="clip-path:url(#clipPath3); fill:none;" height="151" />
    </g>
    <g transform="translate(332,2)" style="font-size:14; fill:rgb(122,207,245); text-rendering:geometricPrecision; font-family:sans-serif; stroke:rgb(122,207,245);">
      <rect x="0" y="0" width="59" style="clip-path:url(#clipPath2); stroke:none;" height="35" />
    </g>
    <g transform="translate(332,2)" style="font-size:14; stroke-linecap:butt; text-rendering:geometricPrecision; font-family:sans-serif; stroke-linejoin:round; stroke-miterlimit:0;">
      <rect x="0" y="0" width="59" style="clip-path:url(#clipPath2); fill:none;" height="35" />
      <line x1="29" x2="29" y1="35" style="clip-path:url(#clipPath2); fill:none; stroke-linejoin:bevel; stroke-dasharray:8,3;" y2="260" />
    </g>
    <g transform="translate(358,87)" style="font-size:14; fill:rgb(122,207,245); text-rendering:geometricPrecision; font-family:sans-serif; stroke:rgb(122,207,245);">
      <rect x="0" y="0" width="8" style="clip-path:url(#clipPath4); stroke:none;" height="100" />
    </g>
    <g transform="translate(358,87)" style="font-size:14; stroke-linecap:butt; text-rendering:geometricPrecision; font-family:sans-serif; stroke-linejoin:round; stroke-miterlimit:0;">
      <rect x="0" y="0" width="8" style="clip-path:url(#clipPath4); fill:none;" height="100" />
    </g>
    <g style="text-rendering:geometricPrecision; font-size:14; font-family:sans-serif;" transform="translate(332,2)">
      <text x="12" y="17" style="clip-path:url(#clipPath5); stroke:none;" xml:space="preserve">: 會員</text>
    </g>
    <g style="text-rendering:geometricPrecision; font-size:14; font-family:sans-serif;" transform="translate(152,2)">
      <text x="16" y="17" style="clip-path:url(#clipPath5); stroke:none;" xml:space="preserve">系統</text>
    </g>
    <g style="text-rendering:geometricPrecision; font-size:14; font-family:sans-serif;" transform="translate(11,37)">
      <text x="10" y="17" style="clip-path:url(#clipPath6); stroke:none;" xml:space="preserve">管理者</text>
    </g>
    <g transform="translate(0,37)" style="font-size:14; stroke-linecap:butt; text-rendering:geometricPrecision; font-family:sans-serif; stroke-linejoin:round;">
      <line x1="45" x2="178" y1="45" style="clip-path:url(#clipPath7); fill:none;" y2="45" />
      <polygon style="clip-path:url(#clipPath7); stroke:none;" points=" 178 45 166 39 166 51" />
      <polygon style="fill:none; clip-path:url(#clipPath7);" points=" 178 45 166 39 166 51" />
    </g>
    <g transform="translate(140,47)" style="font-size:14; stroke-linecap:butt; text-rendering:geometricPrecision; font-family:sans-serif; stroke-linejoin:round;">
      <line x1="45" x2="218" y1="45" style="clip-path:url(#clipPath8); fill:none;" y2="45" />
      <polygon style="clip-path:url(#clipPath8); stroke:none;" points=" 218 45 206 39 206 51" />
      <polygon style="fill:none; clip-path:url(#clipPath8);" points=" 218 45 206 39 206 51" />
    </g>
    <g transform="translate(140,97)" style="font-size:14; stroke-linecap:butt; text-rendering:geometricPrecision; font-family:sans-serif; stroke-linejoin:round;">
      <line x1="218" x2="45" y1="45" style="clip-path:url(#clipPath8); fill:none;" y2="45" />
      <polygon style="clip-path:url(#clipPath8); stroke:none;" points=" 45 45 57 51 57 39" />
      <polygon style="fill:none; clip-path:url(#clipPath8);" points=" 45 45 57 51 57 39" />
    </g>
    <g transform="translate(140,127)" style="font-size:14; stroke-linecap:butt; text-rendering:geometricPrecision; font-family:sans-serif; stroke-linejoin:round;">
      <line x1="45" x2="72" y1="45" style="clip-path:url(#clipPath9); fill:none;" y2="45" />
      <line x1="72" x2="72" y1="45" style="clip-path:url(#clipPath9); fill:none;" y2="65" />
      <line x1="72" x2="45" y1="65" style="clip-path:url(#clipPath9); fill:none;" y2="65" />
      <polygon style="clip-path:url(#clipPath9); stroke:none;" points=" 45 65 57 71 57 59" />
      <polygon style="fill:none; clip-path:url(#clipPath9);" points=" 45 65 57 71 57 59" />
    </g>
    <g style="text-rendering:geometricPrecision; font-size:14; font-family:sans-serif;" transform="translate(212,172)">
      <text x="8" y="17" style="clip-path:url(#clipPath10); stroke:none;" xml:space="preserve">1.1.1.1: 進入系統</text>
    </g>
    <g style="text-rendering:geometricPrecision; font-size:14; font-family:sans-serif;" transform="translate(200,117)">
      <text x="9" y="17" style="clip-path:url(#clipPath11); stroke:none;" xml:space="preserve">1.1.1: 回傳會員資訊</text>
    </g>
    <g style="text-rendering:geometricPrecision; font-size:14; font-family:sans-serif;" transform="translate(201,67)">
      <text x="9" y="17" style="clip-path:url(#clipPath12); stroke:none;" xml:space="preserve">1.1: 查詢會員資訊()</text>
    </g>
    <g style="text-rendering:geometricPrecision; font-size:14; font-family:sans-serif;" transform="translate(45,57)">
      <text x="10" y="17" style="clip-path:url(#clipPath13); stroke:none;" xml:space="preserve">1: 輸入帳號和密碼</text>
    </g>
  </g>
</svg>
