<?xml version="1.0" encoding="UTF-8"?>

<!DOCTYPE svg PUBLIC '-//W3C//DTD SVG 1.0//EN' 'http://www.w3.org/TR/2001/REC-SVG-20010904/DTD/svg10.dtd'>
<svg style="fill-opacity:1; color-rendering:auto; color-interpolation:auto; stroke:black; text-rendering:auto; stroke-linecap:square; stroke-miterlimit:10; stroke-opacity:1; shape-rendering:auto; fill:black; stroke-dasharray:none; font-weight:normal; stroke-width:1; font-family:&apos;Dialog&apos;; font-style:normal; stroke-linejoin:miter; font-size:12; stroke-dashoffset:0; image-rendering:auto;" xmlns="http://www.w3.org/2000/svg" width="976" xmlns:xlink="http://www.w3.org/1999/xlink" height="646">
  <!--Generated by the Batik Graphics2D SVG Generator-->
  <defs id="genericDefs" />
  <g>
    <defs id="defs1">
      <clipPath clipPathUnits="userSpaceOnUse" id="clipPath1">
        <path d="M-3 -3 L637 -3 L637 647 L-3 647 L-3 -3 Z" />
      </clipPath>
      <clipPath clipPathUnits="userSpaceOnUse" id="clipPath2">
        <path d="M-3 -3 L47 -3 L47 67 L-3 67 L-3 -3 Z" />
      </clipPath>
      <clipPath clipPathUnits="userSpaceOnUse" id="clipPath3">
        <path d="M-3 -3 L37 -3 L37 67 L-3 67 L-3 -3 Z" />
      </clipPath>
      <clipPath clipPathUnits="userSpaceOnUse" id="clipPath4">
        <path d="M-3 -3 L147 -3 L147 87 L-3 87 L-3 -3 Z" />
      </clipPath>
      <clipPath clipPathUnits="userSpaceOnUse" id="clipPath5">
        <path d="M-3 -3 L135 -3 L135 67 L-3 67 L-3 -3 Z" />
      </clipPath>
      <clipPath clipPathUnits="userSpaceOnUse" id="clipPath6">
        <path d="M-3 -3 L147 -3 L147 76 L-3 76 L-3 -3 Z" />
      </clipPath>
      <clipPath clipPathUnits="userSpaceOnUse" id="clipPath7">
        <path d="M-3 -3 L147 -3 L147 77 L-3 77 L-3 -3 Z" />
      </clipPath>
      <clipPath clipPathUnits="userSpaceOnUse" id="clipPath8">
        <path d="M-3 -3 L135 -3 L135 76 L-3 76 L-3 -3 Z" />
      </clipPath>
      <clipPath clipPathUnits="userSpaceOnUse" id="clipPath9">
        <path d="M-3 -3 L177 -3 L177 87 L-3 87 L-3 -3 Z" />
      </clipPath>
      <clipPath clipPathUnits="userSpaceOnUse" id="clipPath10">
        <path d="M0 0 L0 52 L170 52 L170 0 Z" />
      </clipPath>
      <clipPath clipPathUnits="userSpaceOnUse" id="clipPath11">
        <path d="M0 0 L0 21 L148 21 L148 0 Z" />
      </clipPath>
      <clipPath clipPathUnits="userSpaceOnUse" id="clipPath12">
        <path d="M0 0 L0 25 L148 25 L148 0 Z" />
      </clipPath>
      <clipPath clipPathUnits="userSpaceOnUse" id="clipPath13">
        <path d="M-3 -3 L137 -3 L137 76 L-3 76 L-3 -3 Z" />
      </clipPath>
      <clipPath clipPathUnits="userSpaceOnUse" id="clipPath14">
        <path d="M-3 -3 L47 -3 L47 36 L-3 36 L-3 -3 Z" />
      </clipPath>
      <clipPath clipPathUnits="userSpaceOnUse" id="clipPath15">
        <path d="M-3 -3 L47 -3 L47 47 L-3 47 L-3 -3 Z" />
      </clipPath>
      <clipPath clipPathUnits="userSpaceOnUse" id="clipPath16">
        <path d="M-3 -3 L47 -3 L47 37 L-3 37 L-3 -3 Z" />
      </clipPath>
      <clipPath clipPathUnits="userSpaceOnUse" id="clipPath17">
        <path d="M-3 -3 L47 -3 L47 27 L-3 27 L-3 -3 Z" />
      </clipPath>
      <clipPath clipPathUnits="userSpaceOnUse" id="clipPath18">
        <path d="M-3 -3 L137 -3 L137 77 L-3 77 L-3 -3 Z" />
      </clipPath>
      <clipPath clipPathUnits="userSpaceOnUse" id="clipPath19">
        <path d="M0 0 L130 0 L130 70 L0 70 L0 0 Z" />
      </clipPath>
      <clipPath clipPathUnits="userSpaceOnUse" id="clipPath20">
        <path d="M0 0 L48 0 L48 21 L0 21 L0 0 Z" />
      </clipPath>
      <clipPath clipPathUnits="userSpaceOnUse" id="clipPath21">
        <path d="M0 0 L140 0 L140 80 L0 80 L0 0 Z" />
      </clipPath>
      <clipPath clipPathUnits="userSpaceOnUse" id="clipPath22">
        <path d="M0 0 L170 0 L170 37 L0 37 L0 0 Z" />
      </clipPath>
      <clipPath clipPathUnits="userSpaceOnUse" id="clipPath23">
        <path d="M0 0 L128 0 L128 69 L0 69 L0 0 Z" />
      </clipPath>
      <clipPath clipPathUnits="userSpaceOnUse" id="clipPath24">
        <path d="M0 0 L140 0 L140 70 L0 70 L0 0 Z" />
      </clipPath>
      <clipPath clipPathUnits="userSpaceOnUse" id="clipPath25">
        <path d="M0 0 L140 0 L140 69 L0 69 L0 0 Z" />
      </clipPath>
      <clipPath clipPathUnits="userSpaceOnUse" id="clipPath26">
        <path d="M0 -0 L129 -0 L129 60 L0 60 L0 -0 Z" />
      </clipPath>
      <clipPath clipPathUnits="userSpaceOnUse" id="clipPath27">
        <path d="M0 0 L129 0 L129 60 L0 60 L0 0 Z" />
      </clipPath>
      <clipPath clipPathUnits="userSpaceOnUse" id="clipPath28">
        <path d="M0 -0 L140 -0 L140 80 L0 80 L0 -0 Z" />
      </clipPath>
      <clipPath clipPathUnits="userSpaceOnUse" id="clipPath29">
        <path d="M0 0 L76 0 L76 21 L0 21 L0 0 Z" />
      </clipPath>
      <clipPath clipPathUnits="userSpaceOnUse" id="clipPath30">
        <path d="M0 0 L90 0 L90 21 L0 21 L0 0 Z" />
      </clipPath>
      <clipPath clipPathUnits="userSpaceOnUse" id="clipPath31">
        <path d="M0 -0 L48 -0 L48 21 L0 21 L0 -0 Z" />
      </clipPath>
      <clipPath clipPathUnits="userSpaceOnUse" id="clipPath32">
        <path d="M0 0 L630 0 L630 21 L0 21 L0 0 Z" />
      </clipPath>
      <clipPath clipPathUnits="userSpaceOnUse" id="clipPath33">
        <path d="M0 0 L313 0 L313 162 L0 162 L0 0 Z" />
      </clipPath>
      <clipPath clipPathUnits="userSpaceOnUse" id="clipPath34">
        <path d="M0 0 L400 0 L400 110 L0 110 L0 0 Z" />
      </clipPath>
      <clipPath clipPathUnits="userSpaceOnUse" id="clipPath35">
        <path d="M0 0 L525 0 L525 163 L0 163 L0 0 Z" />
      </clipPath>
      <clipPath clipPathUnits="userSpaceOnUse" id="clipPath36">
        <path d="M0 0 L279 0 L279 171 L0 171 L0 0 Z" />
      </clipPath>
      <clipPath clipPathUnits="userSpaceOnUse" id="clipPath37">
        <path d="M0 0 L238 0 L238 126 L0 126 L0 0 Z" />
      </clipPath>
      <clipPath clipPathUnits="userSpaceOnUse" id="clipPath38">
        <path d="M0 0 L470 0 L470 516 L0 516 L0 0 Z" />
      </clipPath>
      <clipPath clipPathUnits="userSpaceOnUse" id="clipPath39">
        <path d="M0 0 L519 0 L519 144 L0 144 L0 0 Z" />
      </clipPath>
      <clipPath clipPathUnits="userSpaceOnUse" id="clipPath40">
        <path d="M0 0 L339 0 L339 142 L0 142 L0 0 Z" />
      </clipPath>
      <clipPath clipPathUnits="userSpaceOnUse" id="clipPath41">
        <path d="M0 0 L652 0 L652 148 L0 148 L0 0 Z" />
      </clipPath>
      <clipPath clipPathUnits="userSpaceOnUse" id="clipPath42">
        <path d="M0 -0 L431 -0 L431 235 L0 235 L0 -0 Z" />
      </clipPath>
      <clipPath clipPathUnits="userSpaceOnUse" id="clipPath43">
        <path d="M0 0 L310 0 L310 99 L0 99 L0 0 Z" />
      </clipPath>
      <clipPath clipPathUnits="userSpaceOnUse" id="clipPath44">
        <path d="M0 0 L109 0 L109 261 L0 261 L0 0 Z" />
      </clipPath>
      <clipPath clipPathUnits="userSpaceOnUse" id="clipPath45">
        <path d="M0 0 L295 0 L295 108 L0 108 L0 0 Z" />
      </clipPath>
      <clipPath clipPathUnits="userSpaceOnUse" id="clipPath46">
        <path d="M0 0 L499 0 L499 123 L0 123 L0 0 Z" />
      </clipPath>
      <clipPath clipPathUnits="userSpaceOnUse" id="clipPath47">
        <path d="M0 0 L312 0 L312 99 L0 99 L0 0 Z" />
      </clipPath>
      <clipPath clipPathUnits="userSpaceOnUse" id="clipPath48">
        <path d="M0 0 L372 0 L372 99 L0 99 L0 0 Z" />
      </clipPath>
      <clipPath clipPathUnits="userSpaceOnUse" id="clipPath49">
        <path d="M0 0 L40 0 L40 20 L0 20 L0 0 Z" />
      </clipPath>
      <clipPath clipPathUnits="userSpaceOnUse" id="clipPath50">
        <path d="M0 0 L40 0 L40 40 L0 40 L0 0 Z" />
      </clipPath>
      <clipPath clipPathUnits="userSpaceOnUse" id="clipPath51">
        <path d="M0 0 L40 0 L40 30 L0 30 L0 0 Z" />
      </clipPath>
      <clipPath clipPathUnits="userSpaceOnUse" id="clipPath52">
        <path d="M0 -0 L40 -0 L40 20 L0 20 L0 -0 Z" />
      </clipPath>
      <clipPath clipPathUnits="userSpaceOnUse" id="clipPath53">
        <path d="M0 -0 L40 -0 L40 40 L0 40 L0 -0 Z" />
      </clipPath>
      <clipPath clipPathUnits="userSpaceOnUse" id="clipPath54">
        <path d="M0 -0 L40 -0 L40 30 L0 30 L0 -0 Z" />
      </clipPath>
      <clipPath clipPathUnits="userSpaceOnUse" id="clipPath55">
        <path d="M0 0 L96 0 L96 21 L0 21 L0 0 Z" />
      </clipPath>
    </defs>
    <g style="fill:white; text-rendering:geometricPrecision; stroke:white;">
      <rect x="0" y="0" width="976" style="stroke:none;" height="646" />
    </g>
    <g transform="translate(198.1905,2.4762)" style="font-size:14; fill:rgb(122,207,245); text-rendering:geometricPrecision; font-family:sans-serif; stroke:rgb(122,207,245);">
      <rect x="0" y="0" width="629" style="clip-path:url(#clipPath1); stroke:none;" height="639" />
    </g>
    <g transform="translate(198.1905,2.4762)" style="font-size:14; stroke-linecap:butt; text-rendering:geometricPrecision; font-family:sans-serif; stroke-linejoin:round; stroke-miterlimit:0;">
      <rect x="0" y="0" width="629" style="clip-path:url(#clipPath1); fill:none;" height="639" />
    </g>
    <g transform="translate(6.1905,32.4762)" style="font-size:14; fill:rgb(122,207,245); text-rendering:geometricPrecision; font-family:sans-serif; stroke:rgb(122,207,245);">
      <circle style="clip-path:url(#clipPath2); stroke:none;" r="7.5" cx="19.5" cy="7.5" />
    </g>
    <g transform="translate(6.1905,32.4762)" style="font-size:14; stroke-linecap:butt; text-rendering:geometricPrecision; font-family:sans-serif; stroke-linejoin:round; stroke-miterlimit:0;">
      <circle style="fill:none; clip-path:url(#clipPath2);" r="7.5" cx="19.5" cy="7.5" />
      <line x1="20" x2="20" y1="15" style="clip-path:url(#clipPath2); fill:none;" y2="40" />
      <line x1="5" x2="35" y1="24" style="clip-path:url(#clipPath2); fill:none;" y2="24" />
      <line x1="20" x2="5" y1="40" style="clip-path:url(#clipPath2); fill:none;" y2="60" />
      <line x1="20" x2="35" y1="40" style="clip-path:url(#clipPath2); fill:none;" y2="60" />
    </g>
    <g transform="translate(27.1905,301.4762)" style="font-size:14; fill:rgb(122,207,245); text-rendering:geometricPrecision; font-family:sans-serif; stroke:rgb(122,207,245);">
      <circle style="clip-path:url(#clipPath3); stroke:none;" r="7.5" cx="14.5" cy="7.5" />
    </g>
    <g transform="translate(27.1905,301.4762)" style="font-size:14; stroke-linecap:butt; text-rendering:geometricPrecision; font-family:sans-serif; stroke-linejoin:round; stroke-miterlimit:0;">
      <circle style="fill:none; clip-path:url(#clipPath3);" r="7.5" cx="14.5" cy="7.5" />
      <line x1="15" x2="15" y1="15" style="clip-path:url(#clipPath3); fill:none;" y2="40" />
      <line x1="0" x2="30" y1="24" style="clip-path:url(#clipPath3); fill:none;" y2="24" />
      <line x1="15" x2="0" y1="40" style="clip-path:url(#clipPath3); fill:none;" y2="60" />
      <line x1="15" x2="30" y1="40" style="clip-path:url(#clipPath3); fill:none;" y2="60" />
    </g>
    <g transform="translate(908.1905,72.4762)" style="font-size:14; fill:rgb(122,207,245); text-rendering:geometricPrecision; font-family:sans-serif; stroke:rgb(122,207,245);">
      <circle style="clip-path:url(#clipPath2); stroke:none;" r="7.5" cx="19.5" cy="7.5" />
    </g>
    <g transform="translate(908.1905,72.4762)" style="font-size:14; stroke-linecap:butt; text-rendering:geometricPrecision; font-family:sans-serif; stroke-linejoin:round; stroke-miterlimit:0;">
      <circle style="fill:none; clip-path:url(#clipPath2);" r="7.5" cx="19.5" cy="7.5" />
      <line x1="20" x2="20" y1="15" style="clip-path:url(#clipPath2); fill:none;" y2="40" />
      <line x1="5" x2="35" y1="24" style="clip-path:url(#clipPath2); fill:none;" y2="24" />
      <line x1="20" x2="5" y1="40" style="clip-path:url(#clipPath2); fill:none;" y2="60" />
      <line x1="20" x2="35" y1="40" style="clip-path:url(#clipPath2); fill:none;" y2="60" />
    </g>
    <g transform="translate(908.1905,292.4762)" style="font-size:14; fill:rgb(122,207,245); text-rendering:geometricPrecision; font-family:sans-serif; stroke:rgb(122,207,245);">
      <circle style="clip-path:url(#clipPath2); stroke:none;" r="7.5" cx="19.5" cy="7.5" />
    </g>
    <g transform="translate(908.1905,292.4762)" style="font-size:14; stroke-linecap:butt; text-rendering:geometricPrecision; font-family:sans-serif; stroke-linejoin:round; stroke-miterlimit:0;">
      <circle style="fill:none; clip-path:url(#clipPath2);" r="7.5" cx="19.5" cy="7.5" />
      <line x1="20" x2="20" y1="15" style="clip-path:url(#clipPath2); fill:none;" y2="40" />
      <line x1="5" x2="35" y1="24" style="clip-path:url(#clipPath2); fill:none;" y2="24" />
      <line x1="20" x2="5" y1="40" style="clip-path:url(#clipPath2); fill:none;" y2="60" />
      <line x1="20" x2="35" y1="40" style="clip-path:url(#clipPath2); fill:none;" y2="60" />
    </g>
    <g transform="translate(27.1905,532.4762)" style="font-size:14; fill:rgb(122,207,245); text-rendering:geometricPrecision; font-family:sans-serif; stroke:rgb(122,207,245);">
      <circle style="clip-path:url(#clipPath3); stroke:none;" r="7.5" cx="14.5" cy="7.5" />
    </g>
    <g transform="translate(27.1905,532.4762)" style="font-size:14; stroke-linecap:butt; text-rendering:geometricPrecision; font-family:sans-serif; stroke-linejoin:round; stroke-miterlimit:0;">
      <circle style="fill:none; clip-path:url(#clipPath3);" r="7.5" cx="14.5" cy="7.5" />
      <line x1="15" x2="15" y1="15" style="clip-path:url(#clipPath3); fill:none;" y2="40" />
      <line x1="0" x2="30" y1="24" style="clip-path:url(#clipPath3); fill:none;" y2="24" />
      <line x1="15" x2="0" y1="40" style="clip-path:url(#clipPath3); fill:none;" y2="60" />
      <line x1="15" x2="30" y1="40" style="clip-path:url(#clipPath3); fill:none;" y2="60" />
    </g>
    <g transform="translate(258.1905,61.4762)" style="font-size:14; fill:rgb(122,207,245); text-rendering:geometricPrecision; font-family:sans-serif; stroke:rgb(122,207,245);">
      <ellipse style="clip-path:url(#clipPath4); stroke:none;" rx="70" cx="70" ry="40" cy="40" />
    </g>
    <g transform="translate(258.1905,61.4762)" style="font-size:14; stroke-linecap:butt; text-rendering:geometricPrecision; font-family:sans-serif; stroke-linejoin:round; stroke-miterlimit:0;">
      <ellipse style="clip-path:url(#clipPath4); fill:none;" rx="70" cx="70" ry="40" cy="40" />
    </g>
    <g transform="translate(347.1905,12.4762)" style="font-size:14; fill:rgb(122,207,245); text-rendering:geometricPrecision; font-family:sans-serif; stroke:rgb(122,207,245);">
      <ellipse style="clip-path:url(#clipPath5); stroke:none;" rx="64" cx="64" ry="30" cy="30" />
    </g>
    <g transform="translate(347.1905,12.4762)" style="font-size:14; stroke-linecap:butt; text-rendering:geometricPrecision; font-family:sans-serif; stroke-linejoin:round; stroke-miterlimit:0;">
      <ellipse style="clip-path:url(#clipPath5); fill:none;" rx="64" cx="64" ry="30" cy="30" />
    </g>
    <g transform="translate(387.1905,132.4762)" style="font-size:14; fill:rgb(122,207,245); text-rendering:geometricPrecision; font-family:sans-serif; stroke:rgb(122,207,245);">
      <ellipse style="clip-path:url(#clipPath6); stroke:none;" rx="70" cx="70" ry="34.5" cy="34.5" />
    </g>
    <g transform="translate(387.1905,132.4762)" style="font-size:14; stroke-linecap:butt; text-rendering:geometricPrecision; font-family:sans-serif; stroke-linejoin:round; stroke-miterlimit:0;">
      <ellipse style="clip-path:url(#clipPath6); fill:none;" rx="70" cx="70" ry="34.5" cy="34.5" />
    </g>
    <g transform="translate(567.1905,32.4762)" style="font-size:14; fill:rgb(122,207,245); text-rendering:geometricPrecision; font-family:sans-serif; stroke:rgb(122,207,245);">
      <ellipse style="clip-path:url(#clipPath5); stroke:none;" rx="64" cx="64" ry="30" cy="30" />
    </g>
    <g transform="translate(567.1905,32.4762)" style="font-size:14; stroke-linecap:butt; text-rendering:geometricPrecision; font-family:sans-serif; stroke-linejoin:round; stroke-miterlimit:0;">
      <ellipse style="clip-path:url(#clipPath5); fill:none;" rx="64" cx="64" ry="30" cy="30" />
    </g>
    <g transform="translate(588.1905,192.4762)" style="font-size:14; fill:rgb(122,207,245); text-rendering:geometricPrecision; font-family:sans-serif; stroke:rgb(122,207,245);">
      <ellipse style="clip-path:url(#clipPath6); stroke:none;" rx="70" cx="70" ry="34.5" cy="34.5" />
    </g>
    <g transform="translate(588.1905,192.4762)" style="font-size:14; stroke-linecap:butt; text-rendering:geometricPrecision; font-family:sans-serif; stroke-linejoin:round; stroke-miterlimit:0;">
      <ellipse style="clip-path:url(#clipPath6); fill:none;" rx="70" cx="70" ry="34.5" cy="34.5" />
    </g>
    <g transform="translate(228.1905,462.4762)" style="font-size:14; fill:rgb(122,207,245); text-rendering:geometricPrecision; font-family:sans-serif; stroke:rgb(122,207,245);">
      <ellipse style="clip-path:url(#clipPath7); stroke:none;" rx="70" cx="70" ry="35" cy="35" />
    </g>
    <g transform="translate(228.1905,462.4762)" style="font-size:14; stroke-linecap:butt; text-rendering:geometricPrecision; font-family:sans-serif; stroke-linejoin:round; stroke-miterlimit:0;">
      <ellipse style="clip-path:url(#clipPath7); fill:none;" rx="70" cx="70" ry="35" cy="35" />
    </g>
    <g transform="translate(418.1905,472.4762)" style="font-size:14; fill:rgb(122,207,245); text-rendering:geometricPrecision; font-family:sans-serif; stroke:rgb(122,207,245);">
      <ellipse style="clip-path:url(#clipPath8); stroke:none;" rx="64" cx="64" ry="34.5" cy="34.5" />
    </g>
    <g transform="translate(418.1905,472.4762)" style="font-size:14; stroke-linecap:butt; text-rendering:geometricPrecision; font-family:sans-serif; stroke-linejoin:round; stroke-miterlimit:0;">
      <ellipse style="clip-path:url(#clipPath8); fill:none;" rx="64" cx="64" ry="34.5" cy="34.5" />
    </g>
    <g transform="translate(298.1905,212.4762)" style="font-size:14; fill:rgb(122,207,245); text-rendering:geometricPrecision; font-family:sans-serif; stroke:rgb(122,207,245);">
      <ellipse style="clip-path:url(#clipPath9); stroke:none;" rx="85" cx="85" ry="40" cy="40" />
    </g>
    <g transform="translate(298.1905,212.4762)" style="font-size:14; stroke-linecap:butt; text-rendering:geometricPrecision; font-family:sans-serif; stroke-linejoin:round; stroke-miterlimit:0;">
      <ellipse style="clip-path:url(#clipPath9); fill:none;" rx="85" cx="85" ry="40" cy="40" />
    </g>
    <g transform="translate(298.1905,240.4762)" style="font-size:14; stroke-linecap:butt; text-rendering:geometricPrecision; font-family:sans-serif; stroke-linejoin:round; stroke-miterlimit:0;">
      <line x1="3" x2="166" y1="0" style="clip-path:url(#clipPath10); fill:none;" y2="0" />
    </g>
    <g style="text-rendering:geometricPrecision; font-size:14; font-family:sans-serif;" transform="translate(320.1905,265.4762)">
      <text x="4" y="15" style="clip-path:url(#clipPath11); stroke:none;" xml:space="preserve">             結帳</text>
    </g>
    <g transform="translate(320.1905,240.4762)" style="text-rendering:geometricPrecision; font-size:14; font-weight:bold; font-family:sans-serif;">
      <text x="4" y="19" style="clip-path:url(#clipPath12); stroke:none;" xml:space="preserve">Extension Points</text>
    </g>
    <g transform="translate(458.1905,332.4762)" style="font-size:14; fill:rgb(122,207,245); text-rendering:geometricPrecision; font-family:sans-serif; stroke:rgb(122,207,245);">
      <ellipse style="clip-path:url(#clipPath4); stroke:none;" rx="70" cx="70" ry="40" cy="40" />
    </g>
    <g transform="translate(458.1905,332.4762)" style="font-size:14; stroke-linecap:butt; text-rendering:geometricPrecision; font-family:sans-serif; stroke-linejoin:round; stroke-miterlimit:0;">
      <ellipse style="clip-path:url(#clipPath4); fill:none;" rx="70" cx="70" ry="40" cy="40" />
    </g>
    <g transform="translate(268.1905,362.4762)" style="font-size:14; fill:rgb(122,207,245); text-rendering:geometricPrecision; font-family:sans-serif; stroke:rgb(122,207,245);">
      <ellipse style="clip-path:url(#clipPath13); stroke:none;" rx="65" cx="65" ry="34.5" cy="34.5" />
    </g>
    <g transform="translate(268.1905,362.4762)" style="font-size:14; stroke-linecap:butt; text-rendering:geometricPrecision; font-family:sans-serif; stroke-linejoin:round; stroke-miterlimit:0;">
      <ellipse style="clip-path:url(#clipPath13); fill:none;" rx="65" cx="65" ry="34.5" cy="34.5" />
    </g>
    <g transform="translate(338.1905,552.4762)" style="font-size:14; fill:rgb(122,207,245); text-rendering:geometricPrecision; font-family:sans-serif; stroke:rgb(122,207,245);">
      <ellipse style="clip-path:url(#clipPath18); stroke:none;" rx="65" cx="65" ry="35" cy="35" />
    </g>
    <g transform="translate(338.1905,552.4762)" style="font-size:14; stroke-linecap:butt; text-rendering:geometricPrecision; font-family:sans-serif; stroke-linejoin:round; stroke-miterlimit:0;">
      <ellipse style="clip-path:url(#clipPath18); fill:none;" rx="65" cx="65" ry="35" cy="35" />
    </g>
    <g style="text-rendering:geometricPrecision; font-size:14; font-family:sans-serif;" transform="translate(338.1905,552.4762)">
      <text x="37" y="41" style="clip-path:url(#clipPath19); stroke:none;" xml:space="preserve">申請展覽</text>
    </g>
    <g style="text-rendering:geometricPrecision; font-size:14; font-family:sans-serif;" transform="translate(18.1905,592.4762)">
      <text x="10" y="17" style="clip-path:url(#clipPath20); stroke:none;" xml:space="preserve">廠商</text>
    </g>
    <g style="text-rendering:geometricPrecision; font-size:14; font-family:sans-serif;" transform="translate(268.1905,362.4762)">
      <text x="37" y="41" style="clip-path:url(#clipPath19); stroke:none;" xml:space="preserve">修改密碼</text>
    </g>
    <g style="text-rendering:geometricPrecision; font-size:14; font-family:sans-serif;" transform="translate(458.1905,332.4762)">
      <text x="28" y="46" style="clip-path:url(#clipPath21); stroke:none;" xml:space="preserve">修改個人資料</text>
    </g>
    <g style="text-rendering:geometricPrecision; font-size:14; font-family:sans-serif;" transform="translate(298.1905,212.4762)">
      <text x="50" y="25" style="clip-path:url(#clipPath22); stroke:none;" xml:space="preserve">管理購物車</text>
    </g>
    <g style="text-rendering:geometricPrecision; font-size:14; font-family:sans-serif;" transform="translate(418.1905,472.4762)">
      <text x="36" y="41" style="clip-path:url(#clipPath23); stroke:none;" xml:space="preserve">管理展覽</text>
    </g>
    <g style="text-rendering:geometricPrecision; font-size:14; font-family:sans-serif;" transform="translate(228.1905,462.4762)">
      <text x="42" y="41" style="clip-path:url(#clipPath24); stroke:none;" xml:space="preserve">登入商店</text>
    </g>
    <g style="text-rendering:geometricPrecision; font-size:14; font-family:sans-serif;" transform="translate(588.1905,192.4762)">
      <text x="56" y="41" style="clip-path:url(#clipPath25); stroke:none;" xml:space="preserve">結帳</text>
    </g>
    <g style="text-rendering:geometricPrecision; font-size:14; font-family:sans-serif;" transform="translate(567.1905,32.4762)">
      <text x="36" y="36" style="clip-path:url(#clipPath26); stroke:none;" xml:space="preserve">審核展覽</text>
    </g>
    <g style="text-rendering:geometricPrecision; font-size:14; font-family:sans-serif;" transform="translate(387.1905,132.4762)">
      <text x="56" y="41" style="clip-path:url(#clipPath25); stroke:none;" xml:space="preserve">登入</text>
    </g>
    <g style="text-rendering:geometricPrecision; font-size:14; font-family:sans-serif;" transform="translate(347.1905,12.4762)">
      <text x="36" y="36" style="clip-path:url(#clipPath27); stroke:none;" xml:space="preserve">查找展覽</text>
    </g>
    <g style="text-rendering:geometricPrecision; font-size:14; font-family:sans-serif;" transform="translate(258.1905,61.4762)">
      <text x="42" y="46" style="clip-path:url(#clipPath28); stroke:none;" xml:space="preserve">加入會員</text>
    </g>
    <g style="text-rendering:geometricPrecision; font-size:14; font-family:sans-serif;" transform="translate(889.1905,352.4762)">
      <text x="10" y="17" style="clip-path:url(#clipPath29); stroke:none;" xml:space="preserve">付款服務</text>
    </g>
    <g style="text-rendering:geometricPrecision; font-size:14; font-family:sans-serif;" transform="translate(883.1905,132.4762)">
      <text x="10" y="17" style="clip-path:url(#clipPath30); stroke:none;" xml:space="preserve">系統管理者</text>
    </g>
    <g style="text-rendering:geometricPrecision; font-size:14; font-family:sans-serif;" transform="translate(18.1905,361.4762)">
      <text x="10" y="17" style="clip-path:url(#clipPath20); stroke:none;" xml:space="preserve">會員</text>
    </g>
    <g style="text-rendering:geometricPrecision; font-size:14; font-family:sans-serif;" transform="translate(2.1905,92.4762)">
      <text x="10" y="17" style="clip-path:url(#clipPath31); stroke:none;" xml:space="preserve">訪客</text>
    </g>
    <g style="text-rendering:geometricPrecision; font-size:14; font-family:sans-serif;" transform="translate(198.1905,2.4762)">
      <text x="273" y="17" style="clip-path:url(#clipPath32); stroke:none;" xml:space="preserve">VR exhibition</text>
    </g>
    <g transform="translate(-2.8095,-15.5238)" style="font-size:14; stroke-linecap:butt; text-rendering:geometricPrecision; font-family:sans-serif; stroke-linejoin:round;">
      <line x1="48" x2="261" y1="48" style="clip-path:url(#clipPath33); fill:none;" y2="110" />
    </g>
    <g transform="translate(-1.8095,-15.5238)" style="font-size:14; stroke-linecap:butt; text-rendering:geometricPrecision; font-family:sans-serif; stroke-linejoin:round;">
      <line x1="48" x2="349" y1="48" style="clip-path:url(#clipPath34); fill:none;" y2="58" />
    </g>
    <g transform="translate(432.1905,24.4762)" style="font-size:14; stroke-linecap:butt; text-rendering:geometricPrecision; font-family:sans-serif; stroke-linejoin:round;">
      <line x1="473" x2="48" y1="48" style="clip-path:url(#clipPath35); fill:none;" y2="111" />
    </g>
    <g transform="translate(680.1905,174.4762)" style="font-size:14; stroke-linecap:butt; text-rendering:geometricPrecision; font-family:sans-serif; stroke-linejoin:round;">
      <line x1="228" x2="48" y1="119" style="clip-path:url(#clipPath36); fill:none;" y2="48" />
    </g>
    <g transform="translate(407.1905,194.4762)" style="font-size:14; stroke-linecap:butt; text-rendering:geometricPrecision; font-family:sans-serif; stroke-linejoin:round; stroke-dasharray:4;">
      <line x1="48" x2="187" y1="74" style="clip-path:url(#clipPath37); fill:none;" y2="48" />
      <line x1="48" x2="59" y1="74" style="clip-path:url(#clipPath37); fill:none; stroke-dasharray:none;" y2="78" />
      <line x1="48" x2="58" y1="74" style="clip-path:url(#clipPath37); fill:none; stroke-dasharray:none;" y2="66" />
    </g>
    <g transform="translate(489.1905,24.4762)" style="font-size:14; stroke-linecap:butt; text-rendering:geometricPrecision; font-family:sans-serif; stroke-linejoin:round;">
      <line x1="418" x2="48" y1="48" style="clip-path:url(#clipPath38); fill:none;" y2="465" />
    </g>
    <g transform="translate(9.1905,253.4762)" style="font-size:14; stroke-linecap:butt; text-rendering:geometricPrecision; font-family:sans-serif; stroke-linejoin:round;">
      <line x1="468" x2="48" y1="92" style="clip-path:url(#clipPath39); fill:none;" y2="48" />
    </g>
    <g transform="translate(9.1905,210.4762)" style="font-size:14; stroke-linecap:butt; text-rendering:geometricPrecision; font-family:sans-serif; stroke-linejoin:round;">
      <line x1="48" x2="288" y1="90" style="clip-path:url(#clipPath40); fill:none;" y2="48" />
    </g>
    <g transform="translate(9.1905,204.4762)" style="font-size:14; stroke-linecap:butt; text-rendering:geometricPrecision; font-family:sans-serif; stroke-linejoin:round;">
      <line x1="48" x2="489" y1="96" style="clip-path:url(#clipPath41); fill:none;" y2="88" />
      <line x1="489" x2="600" y1="88" style="clip-path:url(#clipPath41); fill:none;" y2="48" />
    </g>
    <g transform="translate(9.1905,119.4762)" style="font-size:14; stroke-linecap:butt; text-rendering:geometricPrecision; font-family:sans-serif; stroke-linejoin:round;">
      <line x1="48" x2="379" y1="184" style="clip-path:url(#clipPath42); fill:none;" y2="48" />
    </g>
    <g transform="translate(18.1905,332.4762)" style="font-size:14; stroke-linecap:butt; text-rendering:geometricPrecision; font-family:sans-serif; stroke-linejoin:round;">
      <line x1="48" x2="258" y1="48" style="clip-path:url(#clipPath43); fill:none;" y2="48" />
    </g>
    <g transform="translate(-14.8095,325.4762)" style="font-size:14; stroke-linecap:butt; text-rendering:geometricPrecision; font-family:sans-serif; stroke-linejoin:round;">
      <line x1="53" x2="53" y1="53" style="clip-path:url(#clipPath44); fill:none;" y2="205" />
      <polygon style="fill:white; clip-path:url(#clipPath44); stroke:none;" points=" 53 53 47 65 59 65" />
      <polygon style="fill:none; clip-path:url(#clipPath44);" points=" 53 53 47 65 59 65" />
    </g>
    <g transform="translate(9.1905,477.4762)" style="font-size:14; stroke-linecap:butt; text-rendering:geometricPrecision; font-family:sans-serif; stroke-linejoin:round;">
      <line x1="48" x2="244" y1="56" style="clip-path:url(#clipPath45); fill:none;" y2="48" />
    </g>
    <g transform="translate(9.1905,490.4762)" style="font-size:14; stroke-linecap:butt; text-rendering:geometricPrecision; font-family:sans-serif; stroke-linejoin:round;">
      <line x1="48" x2="448" y1="71" style="clip-path:url(#clipPath46); fill:none;" y2="48" />
    </g>
    <g transform="translate(646.1905,24.4762)" style="font-size:14; stroke-linecap:butt; text-rendering:geometricPrecision; font-family:sans-serif; stroke-linejoin:round;">
      <line x1="260" x2="48" y1="48" style="clip-path:url(#clipPath47); fill:none;" y2="48" />
    </g>
    <g transform="translate(18.1905,544.4762)" style="font-size:14; stroke-linecap:butt; text-rendering:geometricPrecision; font-family:sans-serif; stroke-linejoin:round;">
      <line x1="48" x2="320" y1="48" style="clip-path:url(#clipPath48); fill:none;" y2="48" />
    </g>
    <g style="text-rendering:geometricPrecision; font-size:14; font-family:sans-serif;" transform="translate(68.1905,572.4762)">
      <text x="9" y="17" style="clip-path:url(#clipPath49); stroke:none;" xml:space="preserve">1..*</text>
    </g>
    <g style="text-rendering:geometricPrecision; font-size:14; font-family:sans-serif;" transform="translate(58.1905,292.4762)">
      <text x="9" y="26" style="clip-path:url(#clipPath50); stroke:none;" xml:space="preserve">1..*</text>
    </g>
    <g style="text-rendering:geometricPrecision; font-size:14; font-family:sans-serif;" transform="translate(158.1905,292.4762)">
      <text x="9" y="21" style="clip-path:url(#clipPath51); stroke:none;" xml:space="preserve">1..*</text>
    </g>
    <g style="text-rendering:geometricPrecision; font-size:14; font-family:sans-serif;" transform="translate(158.1905,252.4762)">
      <text x="9" y="21" style="clip-path:url(#clipPath51); stroke:none;" xml:space="preserve">1..*</text>
    </g>
    <g style="text-rendering:geometricPrecision; font-size:14; font-family:sans-serif;" transform="translate(58.1905,382.4762)">
      <text x="9" y="21" style="clip-path:url(#clipPath51); stroke:none;" xml:space="preserve">1..*</text>
    </g>
    <g style="text-rendering:geometricPrecision; font-size:14; font-family:sans-serif;" transform="translate(58.1905,492.4762)">
      <text x="9" y="26" style="clip-path:url(#clipPath50); stroke:none;" xml:space="preserve">1..*</text>
    </g>
    <g style="text-rendering:geometricPrecision; font-size:14; font-family:sans-serif;" transform="translate(58.1905,532.4762)">
      <text x="9" y="21" style="clip-path:url(#clipPath51); stroke:none;" xml:space="preserve">1..*</text>
    </g>
    <g style="text-rendering:geometricPrecision; font-size:14; font-family:sans-serif;" transform="translate(878.1905,252.4762)">
      <text x="9" y="26" style="clip-path:url(#clipPath50); stroke:none;" xml:space="preserve">1..*</text>
    </g>
    <g style="text-rendering:geometricPrecision; font-size:14; font-family:sans-serif;" transform="translate(868.1905,52.4762)">
      <text x="9" y="17" style="clip-path:url(#clipPath52); stroke:none;" xml:space="preserve">1..*</text>
    </g>
    <g style="text-rendering:geometricPrecision; font-size:14; font-family:sans-serif;" transform="translate(58.1905,252.4762)">
      <text x="16" y="21" style="clip-path:url(#clipPath51); stroke:none;" xml:space="preserve">1</text>
    </g>
    <g style="text-rendering:geometricPrecision; font-size:14; font-family:sans-serif;" transform="translate(848.1905,142.4762)">
      <text x="9" y="26" style="clip-path:url(#clipPath50); stroke:none;" xml:space="preserve">1..*</text>
    </g>
    <g style="text-rendering:geometricPrecision; font-size:14; font-family:sans-serif;" transform="translate(848.1905,72.4762)">
      <text x="16" y="26" style="clip-path:url(#clipPath53); stroke:none;" xml:space="preserve">1</text>
    </g>
    <g style="text-rendering:geometricPrecision; font-size:14; font-family:sans-serif;" transform="translate(218.1905,62.4762)">
      <text x="16" y="26" style="clip-path:url(#clipPath53); stroke:none;" xml:space="preserve">1</text>
    </g>
    <g style="text-rendering:geometricPrecision; font-size:14; font-family:sans-serif;" transform="translate(38.1905,42.4762)">
      <text x="16" y="21" style="clip-path:url(#clipPath54); stroke:none;" xml:space="preserve">1</text>
    </g>
    <g style="text-rendering:geometricPrecision; font-size:14; font-family:sans-serif;" transform="translate(58.1905,2.4762)">
      <text x="9" y="21" style="clip-path:url(#clipPath51); stroke:none;" xml:space="preserve">1..*</text>
    </g>
    <g style="text-rendering:geometricPrecision; font-size:14; font-family:sans-serif;" transform="translate(472.1905,221.4762)">
      <text x="10" y="17" style="clip-path:url(#clipPath55); stroke:none;" xml:space="preserve">&lt;&lt;Extend&gt;&gt;</text>
    </g>
  </g>
</svg>
