<?xml version="1.0" encoding="UTF-8"?>

<!DOCTYPE svg PUBLIC '-//W3C//DTD SVG 1.0//EN' 'http://www.w3.org/TR/2001/REC-SVG-20010904/DTD/svg10.dtd'>
<svg style="fill-opacity:1; color-rendering:auto; color-interpolation:auto; stroke:black; text-rendering:auto; stroke-linecap:square; stroke-miterlimit:10; stroke-opacity:1; shape-rendering:auto; fill:black; stroke-dasharray:none; font-weight:normal; stroke-width:1; font-family:&apos;Dialog&apos;; font-style:normal; stroke-linejoin:miter; font-size:12; stroke-dashoffset:0; image-rendering:auto;" xmlns="http://www.w3.org/2000/svg" width="786" xmlns:xlink="http://www.w3.org/1999/xlink" height="616">
  <!--Generated by the Batik Graphics2D SVG Generator-->
  <defs id="genericDefs" />
  <g>
    <defs id="defs1">
      <clipPath clipPathUnits="userSpaceOnUse" id="clipPath1">
        <path d="M-3 -3 L247 -3 L247 177 L-3 177 L-3 -3 Z" />
      </clipPath>
      <clipPath clipPathUnits="userSpaceOnUse" id="clipPath2">
        <path d="M0 0 L0 156 L240 156 L240 0 Z" />
      </clipPath>
      <clipPath clipPathUnits="userSpaceOnUse" id="clipPath3">
        <path d="M0 0 L240 0 L240 21 L0 21 L0 0 Z" />
      </clipPath>
      <clipPath clipPathUnits="userSpaceOnUse" id="clipPath4">
        <path d="M-3 -3 L167 -3 L167 97 L-3 97 L-3 -3 Z" />
      </clipPath>
      <clipPath clipPathUnits="userSpaceOnUse" id="clipPath5">
        <path d="M0 0 L0 76 L160 76 L160 0 Z" />
      </clipPath>
      <clipPath clipPathUnits="userSpaceOnUse" id="clipPath6">
        <path d="M0 0 L160 0 L160 21 L0 21 L0 0 Z" />
      </clipPath>
      <clipPath clipPathUnits="userSpaceOnUse" id="clipPath7">
        <path d="M-3 -3 L177 -3 L177 117 L-3 117 L-3 -3 Z" />
      </clipPath>
      <clipPath clipPathUnits="userSpaceOnUse" id="clipPath8">
        <path d="M0 0 L0 96 L170 96 L170 0 Z" />
      </clipPath>
      <clipPath clipPathUnits="userSpaceOnUse" id="clipPath9">
        <path d="M0 0 L170 0 L170 21 L0 21 L0 0 Z" />
      </clipPath>
      <clipPath clipPathUnits="userSpaceOnUse" id="clipPath10">
        <path d="M-3 -3 L187 -3 L187 227 L-3 227 L-3 -3 Z" />
      </clipPath>
      <clipPath clipPathUnits="userSpaceOnUse" id="clipPath11">
        <path d="M0 0 L0 206 L180 206 L180 0 Z" />
      </clipPath>
      <clipPath clipPathUnits="userSpaceOnUse" id="clipPath12">
        <path d="M0 0 L180 0 L180 21 L0 21 L0 0 Z" />
      </clipPath>
      <clipPath clipPathUnits="userSpaceOnUse" id="clipPath13">
        <path d="M-3 -3 L197 -3 L197 307 L-3 307 L-3 -3 Z" />
      </clipPath>
      <clipPath clipPathUnits="userSpaceOnUse" id="clipPath14">
        <path d="M0 0 L0 286 L190 286 L190 0 Z" />
      </clipPath>
      <clipPath clipPathUnits="userSpaceOnUse" id="clipPath15">
        <path d="M0 0 L190 0 L190 21 L0 21 L0 0 Z" />
      </clipPath>
      <clipPath clipPathUnits="userSpaceOnUse" id="clipPath16">
        <path d="M-3 -3 L167 -3 L167 177 L-3 177 L-3 -3 Z" />
      </clipPath>
      <clipPath clipPathUnits="userSpaceOnUse" id="clipPath17">
        <path d="M0 0 L0 156 L160 156 L160 0 Z" />
      </clipPath>
      <clipPath clipPathUnits="userSpaceOnUse" id="clipPath18">
        <path d="M-3 -3 L47 -3 L47 27 L-3 27 L-3 -3 Z" />
      </clipPath>
      <clipPath clipPathUnits="userSpaceOnUse" id="clipPath19">
        <path d="M0 0 L224 0 L224 115 L0 115 L0 0 Z" />
      </clipPath>
      <clipPath clipPathUnits="userSpaceOnUse" id="clipPath20">
        <path d="M0 0 L183 0 L183 104 L0 104 L0 0 Z" />
      </clipPath>
      <clipPath clipPathUnits="userSpaceOnUse" id="clipPath21">
        <path d="M0 0 L115 0 L115 314 L0 314 L0 0 Z" />
      </clipPath>
      <clipPath clipPathUnits="userSpaceOnUse" id="clipPath22">
        <path d="M0 0 L115 0 L115 204 L0 204 L0 0 Z" />
      </clipPath>
      <clipPath clipPathUnits="userSpaceOnUse" id="clipPath23">
        <path d="M0 0 L274 0 L274 115 L0 115 L0 0 Z" />
      </clipPath>
      <clipPath clipPathUnits="userSpaceOnUse" id="clipPath24">
        <path d="M0 0 L104 0 L104 293 L0 293 L0 0 Z" />
      </clipPath>
      <clipPath clipPathUnits="userSpaceOnUse" id="clipPath25">
        <path d="M0 0 L40 0 L40 20 L0 20 L0 0 Z" />
      </clipPath>
    </defs>
    <g style="fill:white; text-rendering:geometricPrecision; stroke:white;">
      <rect x="0" y="0" width="786" style="stroke:none;" height="616" />
    </g>
    <g transform="translate(242,72)" style="font-size:14; fill:rgb(122,207,245); text-rendering:geometricPrecision; font-family:sans-serif; stroke:rgb(122,207,245); font-weight:bold;">
      <rect x="0" y="0" width="240" style="clip-path:url(#clipPath1); stroke:none;" height="170" />
    </g>
    <g transform="translate(242,72)" style="font-size:14; stroke-linecap:butt; text-rendering:geometricPrecision; font-family:sans-serif; stroke-linejoin:round; font-weight:bold; stroke-miterlimit:0;">
      <rect x="0" y="0" width="240" style="clip-path:url(#clipPath1); fill:none;" height="170" />
      <line x1="0" x2="240" y1="21" style="clip-path:url(#clipPath1); fill:none;" y2="21" />
    </g>
    <g style="text-rendering:geometricPrecision; font-size:14; font-family:sans-serif;" transform="translate(242,93)">
      <text x="2" y="17" style="clip-path:url(#clipPath2); stroke:none;" xml:space="preserve">-memNo : varchar</text>
      <text x="2" y="36" style="clip-path:url(#clipPath2); stroke:none;" xml:space="preserve">-memPassword : varchar</text>
      <text x="2" y="55" style="clip-path:url(#clipPath2); stroke:none;" xml:space="preserve">-memName : varchar</text>
      <text x="2" y="74" style="clip-path:url(#clipPath2); stroke:none;" xml:space="preserve">-address : varchar</text>
      <text x="2" y="93" style="clip-path:url(#clipPath2); stroke:none;" xml:space="preserve">-phone : int</text>
      <text x="2" y="112" style="clip-path:url(#clipPath2); stroke:none;" xml:space="preserve">-level : int = 0</text>
      <text x="2" y="131" style="clip-path:url(#clipPath2); stroke:none;" xml:space="preserve">-memDelete : int = 0</text>
    </g>
    <g transform="translate(242,72)" style="text-rendering:geometricPrecision; font-size:14; font-weight:bold; font-family:sans-serif;">
      <text x="105" y="17" style="clip-path:url(#clipPath3); stroke:none;" xml:space="preserve">會員</text>
    </g>
    <g transform="translate(2,132)" style="font-size:14; fill:rgb(122,207,245); text-rendering:geometricPrecision; font-family:sans-serif; stroke:rgb(122,207,245); font-weight:bold;">
      <rect x="0" y="0" width="160" style="clip-path:url(#clipPath4); stroke:none;" height="90" />
    </g>
    <g transform="translate(2,132)" style="font-size:14; stroke-linecap:butt; text-rendering:geometricPrecision; font-family:sans-serif; stroke-linejoin:round; font-weight:bold; stroke-miterlimit:0;">
      <rect x="0" y="0" width="160" style="clip-path:url(#clipPath4); fill:none;" height="90" />
      <line x1="0" x2="160" y1="21" style="clip-path:url(#clipPath4); fill:none;" y2="21" />
    </g>
    <g style="text-rendering:geometricPrecision; font-size:14; font-family:sans-serif;" transform="translate(2,153)">
      <text x="2" y="17" style="clip-path:url(#clipPath5); stroke:none;" xml:space="preserve">-No : int</text>
      <text x="2" y="36" style="clip-path:url(#clipPath5); stroke:none;" xml:space="preserve">-orNo : int</text>
      <text x="2" y="55" style="clip-path:url(#clipPath5); stroke:none;" xml:space="preserve">-gNo : int</text>
    </g>
    <g transform="translate(2,132)" style="text-rendering:geometricPrecision; font-size:14; font-weight:bold; font-family:sans-serif;">
      <text x="49" y="17" style="clip-path:url(#clipPath6); stroke:none;" xml:space="preserve">訂單細項</text>
    </g>
    <g transform="translate(272,442)" style="font-size:14; fill:rgb(122,207,245); text-rendering:geometricPrecision; font-family:sans-serif; stroke:rgb(122,207,245); font-weight:bold;">
      <rect x="0" y="0" width="170" style="clip-path:url(#clipPath7); stroke:none;" height="110" />
    </g>
    <g transform="translate(272,442)" style="font-size:14; stroke-linecap:butt; text-rendering:geometricPrecision; font-family:sans-serif; stroke-linejoin:round; font-weight:bold; stroke-miterlimit:0;">
      <rect x="0" y="0" width="170" style="clip-path:url(#clipPath7); fill:none;" height="110" />
      <line x1="0" x2="170" y1="21" style="clip-path:url(#clipPath7); fill:none;" y2="21" />
    </g>
    <g style="text-rendering:geometricPrecision; font-size:14; font-family:sans-serif;" transform="translate(272,463)">
      <text x="2" y="17" style="clip-path:url(#clipPath8); stroke:none;" xml:space="preserve">-scNo : int</text>
      <text x="2" y="36" style="clip-path:url(#clipPath8); stroke:none;" xml:space="preserve">-memNo : varchar</text>
      <text x="2" y="55" style="clip-path:url(#clipPath8); stroke:none;" xml:space="preserve">-gNo : int</text>
      <text x="2" y="74" style="clip-path:url(#clipPath8); stroke:none;" xml:space="preserve">-gAmount : int</text>
    </g>
    <g transform="translate(272,442)" style="text-rendering:geometricPrecision; font-size:14; font-weight:bold; font-family:sans-serif;">
      <text x="62" y="17" style="clip-path:url(#clipPath9); stroke:none;" xml:space="preserve">購物車</text>
    </g>
    <g transform="translate(602,392)" style="font-size:14; fill:rgb(122,207,245); text-rendering:geometricPrecision; font-family:sans-serif; stroke:rgb(122,207,245); font-weight:bold;">
      <rect x="0" y="0" width="180" style="clip-path:url(#clipPath10); stroke:none;" height="220" />
    </g>
    <g transform="translate(602,392)" style="font-size:14; stroke-linecap:butt; text-rendering:geometricPrecision; font-family:sans-serif; stroke-linejoin:round; font-weight:bold; stroke-miterlimit:0;">
      <rect x="0" y="0" width="180" style="clip-path:url(#clipPath10); fill:none;" height="220" />
      <line x1="0" x2="180" y1="21" style="clip-path:url(#clipPath10); fill:none;" y2="21" />
    </g>
    <g style="text-rendering:geometricPrecision; font-size:14; font-family:sans-serif;" transform="translate(602,413)">
      <text x="2" y="17" style="clip-path:url(#clipPath11); stroke:none;" xml:space="preserve">-gNo : int</text>
      <text x="2" y="36" style="clip-path:url(#clipPath11); stroke:none;" xml:space="preserve">-eNo : int</text>
      <text x="2" y="55" style="clip-path:url(#clipPath11); stroke:none;" xml:space="preserve">-gName : varchar</text>
      <text x="2" y="74" style="clip-path:url(#clipPath11); stroke:none;" xml:space="preserve">-introdution : varchar</text>
      <text x="2" y="93" style="clip-path:url(#clipPath11); stroke:none;" xml:space="preserve">-gAmount : int</text>
      <text x="2" y="112" style="clip-path:url(#clipPath11); stroke:none;" xml:space="preserve">-price : int</text>
      <text x="2" y="131" style="clip-path:url(#clipPath11); stroke:none;" xml:space="preserve">-voice : text</text>
      <text x="2" y="150" style="clip-path:url(#clipPath11); stroke:none;" xml:space="preserve">-gImage2D : text</text>
      <text x="2" y="169" style="clip-path:url(#clipPath11); stroke:none;" xml:space="preserve">-gImage3D : text</text>
      <text x="2" y="188" style="clip-path:url(#clipPath11); stroke:none;" xml:space="preserve">-gDelete : int = 0</text>
    </g>
    <g transform="translate(602,392)" style="text-rendering:geometricPrecision; font-size:14; font-weight:bold; font-family:sans-serif;">
      <text x="75" y="17" style="clip-path:url(#clipPath12); stroke:none;" xml:space="preserve">物品</text>
    </g>
    <g transform="translate(592,2)" style="font-size:14; fill:rgb(122,207,245); text-rendering:geometricPrecision; font-family:sans-serif; stroke:rgb(122,207,245); font-weight:bold;">
      <rect x="0" y="0" width="190" style="clip-path:url(#clipPath13); stroke:none;" height="300" />
    </g>
    <g transform="translate(592,2)" style="font-size:14; stroke-linecap:butt; text-rendering:geometricPrecision; font-family:sans-serif; stroke-linejoin:round; font-weight:bold; stroke-miterlimit:0;">
      <rect x="0" y="0" width="190" style="clip-path:url(#clipPath13); fill:none;" height="300" />
      <line x1="0" x2="190" y1="21" style="clip-path:url(#clipPath13); fill:none;" y2="21" />
    </g>
    <g style="text-rendering:geometricPrecision; font-size:14; font-family:sans-serif;" transform="translate(592,23)">
      <text x="2" y="17" style="clip-path:url(#clipPath14); stroke:none;" xml:space="preserve">-eNo : int</text>
      <text x="2" y="36" style="clip-path:url(#clipPath14); stroke:none;" xml:space="preserve">-memNo : varchar</text>
      <text x="2" y="55" style="clip-path:url(#clipPath14); stroke:none;" xml:space="preserve">-eFile : text</text>
      <text x="2" y="74" style="clip-path:url(#clipPath14); stroke:none;" xml:space="preserve">-eName : varchar</text>
      <text x="2" y="93" style="clip-path:url(#clipPath14); stroke:none;" xml:space="preserve">-introdution : varchar</text>
      <text x="2" y="112" style="clip-path:url(#clipPath14); stroke:none;" xml:space="preserve">-startTime : date</text>
      <text x="2" y="131" style="clip-path:url(#clipPath14); stroke:none;" xml:space="preserve">-endTime : date</text>
      <text x="2" y="150" style="clip-path:url(#clipPath14); stroke:none;" xml:space="preserve">-eImage : text</text>
      <text x="2" y="169" style="clip-path:url(#clipPath14); stroke:none;" xml:space="preserve">-eType : varchar</text>
      <text x="2" y="188" style="clip-path:url(#clipPath14); stroke:none;" xml:space="preserve">-ePin : varchar</text>
      <text x="2" y="207" style="clip-path:url(#clipPath14); stroke:none;" xml:space="preserve">-eDelete : int = 0</text>
      <text x="2" y="226" style="clip-path:url(#clipPath14); stroke:none;" xml:space="preserve">-login : int = 0</text>
      <text x="2" y="245" style="clip-path:url(#clipPath14); stroke:none;" xml:space="preserve">-eCheck : int = 0</text>
      <text x="2" y="264" style="clip-path:url(#clipPath14); stroke:none;" xml:space="preserve">-style : varchar</text>
    </g>
    <g transform="translate(592,2)" style="text-rendering:geometricPrecision; font-size:14; font-weight:bold; font-family:sans-serif;">
      <text x="80" y="17" style="clip-path:url(#clipPath15); stroke:none;" xml:space="preserve">展覽</text>
    </g>
    <g transform="translate(2,412)" style="font-size:14; fill:rgb(122,207,245); text-rendering:geometricPrecision; font-family:sans-serif; stroke:rgb(122,207,245); font-weight:bold;">
      <rect x="0" y="0" width="160" style="clip-path:url(#clipPath16); stroke:none;" height="170" />
    </g>
    <g transform="translate(2,412)" style="font-size:14; stroke-linecap:butt; text-rendering:geometricPrecision; font-family:sans-serif; stroke-linejoin:round; font-weight:bold; stroke-miterlimit:0;">
      <rect x="0" y="0" width="160" style="clip-path:url(#clipPath16); fill:none;" height="170" />
      <line x1="0" x2="160" y1="21" style="clip-path:url(#clipPath16); fill:none;" y2="21" />
    </g>
    <g style="text-rendering:geometricPrecision; font-size:14; font-family:sans-serif;" transform="translate(2,433)">
      <text x="2" y="17" style="clip-path:url(#clipPath17); stroke:none;" xml:space="preserve">-No : int</text>
      <text x="2" y="36" style="clip-path:url(#clipPath17); stroke:none;" xml:space="preserve">-orNo : int</text>
      <text x="2" y="55" style="clip-path:url(#clipPath17); stroke:none;" xml:space="preserve">-gNo : int</text>
      <text x="2" y="74" style="clip-path:url(#clipPath17); stroke:none;" xml:space="preserve">-gAmount : int</text>
    </g>
    <g transform="translate(2,412)" style="text-rendering:geometricPrecision; font-size:14; font-weight:bold; font-family:sans-serif;">
      <text x="49" y="17" style="clip-path:url(#clipPath6); stroke:none;" xml:space="preserve">訂單細項</text>
    </g>
    <g transform="translate(426,96)" style="font-size:14; stroke-linecap:butt; text-rendering:geometricPrecision; font-family:sans-serif; stroke-linejoin:round;">
      <line x1="56" x2="164" y1="56" style="clip-path:url(#clipPath19); fill:none;" y2="56" />
    </g>
    <g transform="translate(112,102)" style="font-size:14; stroke-linecap:butt; text-rendering:geometricPrecision; font-family:sans-serif; stroke-linejoin:round;">
      <line x1="50" x2="129" y1="50" style="clip-path:url(#clipPath20); fill:none;" y2="50" />
    </g>
    <g transform="translate(296,186)" style="font-size:14; stroke-linecap:butt; text-rendering:geometricPrecision; font-family:sans-serif; stroke-linejoin:round;">
      <line x1="56" x2="56" y1="56" style="clip-path:url(#clipPath21); fill:none;" y2="254" />
    </g>
    <g transform="translate(626,246)" style="font-size:14; stroke-linecap:butt; text-rendering:geometricPrecision; font-family:sans-serif; stroke-linejoin:round;">
      <line x1="56" x2="56" y1="56" style="clip-path:url(#clipPath22); fill:none;" y2="144" />
    </g>
    <g transform="translate(386,456)" style="font-size:14; stroke-linecap:butt; text-rendering:geometricPrecision; font-family:sans-serif; stroke-linejoin:round;">
      <line x1="56" x2="214" y1="56" style="clip-path:url(#clipPath23); fill:none;" y2="56" />
    </g>
    <g transform="translate(32,172)" style="font-size:14; stroke-linecap:butt; text-rendering:geometricPrecision; font-family:sans-serif; stroke-linejoin:round;">
      <line x1="50" x2="50" y1="50" style="clip-path:url(#clipPath24); fill:none;" y2="239" />
    </g>
    <g style="text-rendering:geometricPrecision; font-size:14; font-family:sans-serif;" transform="translate(92,382)">
      <text x="9" y="17" style="clip-path:url(#clipPath25); stroke:none;" xml:space="preserve">1..*</text>
    </g>
    <g style="text-rendering:geometricPrecision; font-size:14; font-family:sans-serif;" transform="translate(82,222)">
      <text x="16" y="17" style="clip-path:url(#clipPath25); stroke:none;" xml:space="preserve">1</text>
    </g>
    <g style="text-rendering:geometricPrecision; font-size:14; font-family:sans-serif;" transform="translate(202,152)">
      <text x="16" y="17" style="clip-path:url(#clipPath25); stroke:none;" xml:space="preserve">1</text>
    </g>
    <g style="text-rendering:geometricPrecision; font-size:14; font-family:sans-serif;" transform="translate(162,132)">
      <text x="9" y="17" style="clip-path:url(#clipPath25); stroke:none;" xml:space="preserve">0..*</text>
    </g>
    <g style="text-rendering:geometricPrecision; font-size:14; font-family:sans-serif;" transform="translate(312,422)">
      <text x="9" y="17" style="clip-path:url(#clipPath25); stroke:none;" xml:space="preserve">0..*</text>
    </g>
    <g style="text-rendering:geometricPrecision; font-size:14; font-family:sans-serif;" transform="translate(352,242)">
      <text x="16" y="17" style="clip-path:url(#clipPath25); stroke:none;" xml:space="preserve">1</text>
    </g>
    <g style="text-rendering:geometricPrecision; font-size:14; font-family:sans-serif;" transform="translate(552,152)">
      <text x="9" y="17" style="clip-path:url(#clipPath25); stroke:none;" xml:space="preserve">0..*</text>
    </g>
    <g style="text-rendering:geometricPrecision; font-size:14; font-family:sans-serif;" transform="translate(482,132)">
      <text x="16" y="17" style="clip-path:url(#clipPath25); stroke:none;" xml:space="preserve">1</text>
    </g>
    <g style="text-rendering:geometricPrecision; font-size:14; font-family:sans-serif;" transform="translate(642,372)">
      <text x="9" y="17" style="clip-path:url(#clipPath25); stroke:none;" xml:space="preserve">1..*</text>
    </g>
    <g style="text-rendering:geometricPrecision; font-size:14; font-family:sans-serif;" transform="translate(682,302)">
      <text x="16" y="17" style="clip-path:url(#clipPath25); stroke:none;" xml:space="preserve">1</text>
    </g>
    <g style="text-rendering:geometricPrecision; font-size:14; font-family:sans-serif;" transform="translate(562,512)">
      <text x="9" y="17" style="clip-path:url(#clipPath25); stroke:none;" xml:space="preserve">0..*</text>
    </g>
    <g style="text-rendering:geometricPrecision; font-size:14; font-family:sans-serif;" transform="translate(442,492)">
      <text x="16" y="17" style="clip-path:url(#clipPath25); stroke:none;" xml:space="preserve">1</text>
    </g>
  </g>
</svg>
