<?xml version="1.0" encoding="UTF-8"?>

<!DOCTYPE svg PUBLIC '-//W3C//DTD SVG 1.0//EN' 'http://www.w3.org/TR/2001/REC-SVG-20010904/DTD/svg10.dtd'>
<svg style="fill-opacity:1; color-rendering:auto; color-interpolation:auto; stroke:black; text-rendering:auto; stroke-linecap:square; stroke-miterlimit:10; stroke-opacity:1; shape-rendering:auto; fill:black; stroke-dasharray:none; font-weight:normal; stroke-width:1; font-family:&apos;Dialog&apos;; font-style:normal; stroke-linejoin:miter; font-size:12; stroke-dashoffset:0; image-rendering:auto;" xmlns="http://www.w3.org/2000/svg" width="586" xmlns:xlink="http://www.w3.org/1999/xlink" height="356">
  <!--Generated by the Batik Graphics2D SVG Generator-->
  <defs id="genericDefs" />
  <g>
    <defs id="defs1">
      <clipPath clipPathUnits="userSpaceOnUse" id="clipPath1">
        <path d="M-3 -3 L187 -3 L187 67 L-3 67 L-3 -3 Z" />
      </clipPath>
      <clipPath clipPathUnits="userSpaceOnUse" id="clipPath2">
        <path d="M0 0 L164 0 L164 45 L0 45 L0 0 Z" />
      </clipPath>
      <clipPath clipPathUnits="userSpaceOnUse" id="clipPath3">
        <path d="M0 0 L160 0 L160 45 L0 45 L0 0 Z" />
      </clipPath>
      <clipPath clipPathUnits="userSpaceOnUse" id="clipPath4">
        <path d="M-3 -3 L27 -3 L27 27 L-3 27 L-3 -3 Z" />
      </clipPath>
      <clipPath clipPathUnits="userSpaceOnUse" id="clipPath5">
        <path d="M0 0 L78 0 L78 21 L0 21 L0 0 Z" />
      </clipPath>
      <clipPath clipPathUnits="userSpaceOnUse" id="clipPath6">
        <path d="M0 0 L64 0 L64 21 L0 21 L0 0 Z" />
      </clipPath>
      <clipPath clipPathUnits="userSpaceOnUse" id="clipPath7">
        <path d="M0 0 L87 0 L87 176 L0 176 L0 0 Z" />
      </clipPath>
      <clipPath clipPathUnits="userSpaceOnUse" id="clipPath8">
        <path d="M0 0 L280 0 L280 70 L0 70 L0 0 Z" />
      </clipPath>
      <clipPath clipPathUnits="userSpaceOnUse" id="clipPath9">
        <path d="M0 0 L151 0 L151 70 L0 70 L0 0 Z" />
      </clipPath>
      <clipPath clipPathUnits="userSpaceOnUse" id="clipPath10">
        <path d="M80 148 L80 -3 L150 -3 L150 148 L80 148 Z" />
      </clipPath>
      <clipPath clipPathUnits="userSpaceOnUse" id="clipPath11">
        <path d="M0 0 L70 0 L70 110 L0 110 L0 0 Z" />
      </clipPath>
      <clipPath clipPathUnits="userSpaceOnUse" id="clipPath12">
        <path d="M0 0 L70 0 L70 91 L0 91 L0 0 Z" />
      </clipPath>
      <clipPath clipPathUnits="userSpaceOnUse" id="clipPath13">
        <path d="M68 108 L-2 108 L-2 17 L68 17 L68 108 Z" />
      </clipPath>
      <clipPath clipPathUnits="userSpaceOnUse" id="clipPath14">
        <path d="M0 0 L181 0 L181 70 L0 70 L0 0 Z" />
      </clipPath>
      <clipPath clipPathUnits="userSpaceOnUse" id="clipPath15">
        <path d="M0 0 L87 0 L87 186 L0 186 L0 0 Z" />
      </clipPath>
      <clipPath clipPathUnits="userSpaceOnUse" id="clipPath16">
        <path d="M0 0 L296 0 L296 87 L0 87 L0 0 Z" />
      </clipPath>
      <clipPath clipPathUnits="userSpaceOnUse" id="clipPath17">
        <path d="M0 0 L370 0 L370 169 L0 169 L0 0 Z" />
      </clipPath>
      <clipPath clipPathUnits="userSpaceOnUse" id="clipPath18">
        <path d="M0 0 L87 0 L87 117 L0 117 L0 0 Z" />
      </clipPath>
      <clipPath clipPathUnits="userSpaceOnUse" id="clipPath19">
        <path d="M0 0 L87 0 L87 128 L0 128 L0 0 Z" />
      </clipPath>
      <clipPath clipPathUnits="userSpaceOnUse" id="clipPath20">
        <path d="M84 166 L-3 166 L-3 38 L84 38 L84 166 Z" />
      </clipPath>
      <clipPath clipPathUnits="userSpaceOnUse" id="clipPath21">
        <path d="M0 0 L87 0 L87 138 L0 138 L0 0 Z" />
      </clipPath>
      <clipPath clipPathUnits="userSpaceOnUse" id="clipPath22">
        <path d="M84 186 L-3 186 L-3 48 L84 48 L84 186 Z" />
      </clipPath>
    </defs>
    <g style="fill:white; text-rendering:geometricPrecision; stroke:white;">
      <rect x="0" y="0" width="586" style="stroke:none;" height="356" />
    </g>
    <g transform="translate(12,142)" style="font-size:14; fill:rgb(122,207,245); text-rendering:geometricPrecision; font-family:sans-serif; stroke:rgb(122,207,245); font-weight:bold;">
      <rect x="0" y="0" width="180" style="clip-path:url(#clipPath1); stroke:none;" height="60" />
    </g>
    <g transform="translate(12,142)" style="font-size:14; stroke-linecap:butt; text-rendering:geometricPrecision; font-family:sans-serif; stroke-linejoin:round; font-weight:bold; stroke-miterlimit:0;">
      <rect x="0" y="0" width="179" style="clip-path:url(#clipPath1); fill:none;" height="59" />
      <line x1="164" x2="174" y1="5" style="stroke-linecap:square; clip-path:url(#clipPath1); fill:none; stroke-linejoin:miter; stroke-miterlimit:10;" y2="5" />
      <line x1="174" x2="174" y1="5" style="stroke-linecap:square; clip-path:url(#clipPath1); fill:none; stroke-linejoin:miter; stroke-miterlimit:10;" y2="21" />
      <line x1="164" x2="174" y1="21" style="stroke-linecap:square; clip-path:url(#clipPath1); fill:none; stroke-linejoin:miter; stroke-miterlimit:10;" y2="21" />
      <line x1="164" x2="164" y1="5" style="stroke-linecap:square; clip-path:url(#clipPath1); fill:none; stroke-linejoin:miter; stroke-miterlimit:10;" y2="8" />
      <rect x="161" y="8" width="7" style="stroke-linecap:square; clip-path:url(#clipPath1); fill:none; stroke-linejoin:miter; stroke-miterlimit:10;" height="4" />
      <line x1="164" x2="164" y1="12" style="stroke-linecap:square; clip-path:url(#clipPath1); fill:none; stroke-linejoin:miter; stroke-miterlimit:10;" y2="14" />
      <rect x="161" y="14" width="7" style="stroke-linecap:square; clip-path:url(#clipPath1); fill:none; stroke-linejoin:miter; stroke-miterlimit:10;" height="4" />
      <line x1="164" x2="164" y1="18" style="stroke-linecap:square; clip-path:url(#clipPath1); fill:none; stroke-linejoin:miter; stroke-miterlimit:10;" y2="21" />
    </g>
    <g style="text-rendering:geometricPrecision; font-size:14; font-family:sans-serif;" transform="translate(12,142)">
      <text x="31" y="20" style="clip-path:url(#clipPath2); stroke:none;" xml:space="preserve">&lt;&lt;component&gt;&gt;</text>
      <text x="67" y="41" style="clip-path:url(#clipPath2); stroke:none; font-weight:bold;" xml:space="preserve">訂單</text>
    </g>
    <g transform="translate(402,132)" style="font-size:14; fill:rgb(122,207,245); text-rendering:geometricPrecision; font-family:sans-serif; stroke:rgb(122,207,245); font-weight:bold;">
      <rect x="0" y="0" width="180" style="clip-path:url(#clipPath1); stroke:none;" height="60" />
    </g>
    <g transform="translate(402,132)" style="font-size:14; stroke-linecap:butt; text-rendering:geometricPrecision; font-family:sans-serif; stroke-linejoin:round; font-weight:bold; stroke-miterlimit:0;">
      <rect x="0" y="0" width="179" style="clip-path:url(#clipPath1); fill:none;" height="59" />
      <line x1="164" x2="174" y1="5" style="stroke-linecap:square; clip-path:url(#clipPath1); fill:none; stroke-linejoin:miter; stroke-miterlimit:10;" y2="5" />
      <line x1="174" x2="174" y1="5" style="stroke-linecap:square; clip-path:url(#clipPath1); fill:none; stroke-linejoin:miter; stroke-miterlimit:10;" y2="21" />
      <line x1="164" x2="174" y1="21" style="stroke-linecap:square; clip-path:url(#clipPath1); fill:none; stroke-linejoin:miter; stroke-miterlimit:10;" y2="21" />
      <line x1="164" x2="164" y1="5" style="stroke-linecap:square; clip-path:url(#clipPath1); fill:none; stroke-linejoin:miter; stroke-miterlimit:10;" y2="8" />
      <rect x="161" y="8" width="7" style="stroke-linecap:square; clip-path:url(#clipPath1); fill:none; stroke-linejoin:miter; stroke-miterlimit:10;" height="4" />
      <line x1="164" x2="164" y1="12" style="stroke-linecap:square; clip-path:url(#clipPath1); fill:none; stroke-linejoin:miter; stroke-miterlimit:10;" y2="14" />
      <rect x="161" y="14" width="7" style="stroke-linecap:square; clip-path:url(#clipPath1); fill:none; stroke-linejoin:miter; stroke-miterlimit:10;" height="4" />
      <line x1="164" x2="164" y1="18" style="stroke-linecap:square; clip-path:url(#clipPath1); fill:none; stroke-linejoin:miter; stroke-miterlimit:10;" y2="21" />
    </g>
    <g style="text-rendering:geometricPrecision; font-size:14; font-family:sans-serif;" transform="translate(402,132)">
      <text x="31" y="20" style="clip-path:url(#clipPath2); stroke:none;" xml:space="preserve">&lt;&lt;component&gt;&gt;</text>
      <text x="67" y="41" style="clip-path:url(#clipPath2); stroke:none; font-weight:bold;" xml:space="preserve">帳號</text>
    </g>
    <g transform="translate(12,292)" style="font-size:14; fill:rgb(122,207,245); text-rendering:geometricPrecision; font-family:sans-serif; stroke:rgb(122,207,245); font-weight:bold;">
      <rect x="0" y="0" width="180" style="clip-path:url(#clipPath1); stroke:none;" height="60" />
    </g>
    <g transform="translate(12,292)" style="font-size:14; stroke-linecap:butt; text-rendering:geometricPrecision; font-family:sans-serif; stroke-linejoin:round; font-weight:bold; stroke-miterlimit:0;">
      <rect x="0" y="0" width="179" style="clip-path:url(#clipPath1); fill:none;" height="59" />
      <line x1="164" x2="174" y1="5" style="stroke-linecap:square; clip-path:url(#clipPath1); fill:none; stroke-linejoin:miter; stroke-miterlimit:10;" y2="5" />
      <line x1="174" x2="174" y1="5" style="stroke-linecap:square; clip-path:url(#clipPath1); fill:none; stroke-linejoin:miter; stroke-miterlimit:10;" y2="21" />
      <line x1="164" x2="174" y1="21" style="stroke-linecap:square; clip-path:url(#clipPath1); fill:none; stroke-linejoin:miter; stroke-miterlimit:10;" y2="21" />
      <line x1="164" x2="164" y1="5" style="stroke-linecap:square; clip-path:url(#clipPath1); fill:none; stroke-linejoin:miter; stroke-miterlimit:10;" y2="8" />
      <rect x="161" y="8" width="7" style="stroke-linecap:square; clip-path:url(#clipPath1); fill:none; stroke-linejoin:miter; stroke-miterlimit:10;" height="4" />
      <line x1="164" x2="164" y1="12" style="stroke-linecap:square; clip-path:url(#clipPath1); fill:none; stroke-linejoin:miter; stroke-miterlimit:10;" y2="14" />
      <rect x="161" y="14" width="7" style="stroke-linecap:square; clip-path:url(#clipPath1); fill:none; stroke-linejoin:miter; stroke-miterlimit:10;" height="4" />
      <line x1="164" x2="164" y1="18" style="stroke-linecap:square; clip-path:url(#clipPath1); fill:none; stroke-linejoin:miter; stroke-miterlimit:10;" y2="21" />
    </g>
    <g style="text-rendering:geometricPrecision; font-size:14; font-family:sans-serif;" transform="translate(12,292)">
      <text x="29" y="20" style="clip-path:url(#clipPath3); stroke:none;" xml:space="preserve">&lt;&lt;component&gt;&gt;</text>
      <text x="65" y="41" style="clip-path:url(#clipPath3); stroke:none; font-weight:bold;" xml:space="preserve">商品</text>
    </g>
    <g transform="translate(272,162)" style="font-size:14; fill:rgb(122,207,245); text-rendering:geometricPrecision; font-family:sans-serif; stroke:rgb(122,207,245); font-weight:bold;">
      <circle style="clip-path:url(#clipPath4); stroke:none;" r="9.5" cx="9.5" cy="9.5" />
    </g>
    <g transform="translate(272,162)" style="font-size:14; stroke-linecap:butt; text-rendering:geometricPrecision; font-family:sans-serif; stroke-linejoin:round; font-weight:bold; stroke-miterlimit:0;">
      <circle style="fill:none; clip-path:url(#clipPath4);" r="9.5" cx="9.5" cy="9.5" />
    </g>
    <g transform="translate(92,82)" style="font-size:14; fill:rgb(122,207,245); text-rendering:geometricPrecision; font-family:sans-serif; stroke:rgb(122,207,245); font-weight:bold;">
      <circle style="clip-path:url(#clipPath4); stroke:none;" r="9.5" cx="9.5" cy="9.5" />
    </g>
    <g transform="translate(92,82)" style="font-size:14; stroke-linecap:butt; text-rendering:geometricPrecision; font-family:sans-serif; stroke-linejoin:round; font-weight:bold; stroke-miterlimit:0;">
      <circle style="fill:none; clip-path:url(#clipPath4);" r="9.5" cx="9.5" cy="9.5" />
    </g>
    <g transform="translate(12,2)" style="font-size:14; fill:rgb(122,207,245); text-rendering:geometricPrecision; font-family:sans-serif; stroke:rgb(122,207,245); font-weight:bold;">
      <rect x="0" y="0" width="180" style="clip-path:url(#clipPath1); stroke:none;" height="60" />
    </g>
    <g transform="translate(12,2)" style="font-size:14; stroke-linecap:butt; text-rendering:geometricPrecision; font-family:sans-serif; stroke-linejoin:round; font-weight:bold; stroke-miterlimit:0;">
      <rect x="0" y="0" width="179" style="clip-path:url(#clipPath1); fill:none;" height="59" />
      <line x1="164" x2="174" y1="5" style="stroke-linecap:square; clip-path:url(#clipPath1); fill:none; stroke-linejoin:miter; stroke-miterlimit:10;" y2="5" />
      <line x1="174" x2="174" y1="5" style="stroke-linecap:square; clip-path:url(#clipPath1); fill:none; stroke-linejoin:miter; stroke-miterlimit:10;" y2="21" />
      <line x1="164" x2="174" y1="21" style="stroke-linecap:square; clip-path:url(#clipPath1); fill:none; stroke-linejoin:miter; stroke-miterlimit:10;" y2="21" />
      <line x1="164" x2="164" y1="5" style="stroke-linecap:square; clip-path:url(#clipPath1); fill:none; stroke-linejoin:miter; stroke-miterlimit:10;" y2="8" />
      <rect x="161" y="8" width="7" style="stroke-linecap:square; clip-path:url(#clipPath1); fill:none; stroke-linejoin:miter; stroke-miterlimit:10;" height="4" />
      <line x1="164" x2="164" y1="12" style="stroke-linecap:square; clip-path:url(#clipPath1); fill:none; stroke-linejoin:miter; stroke-miterlimit:10;" y2="14" />
      <rect x="161" y="14" width="7" style="stroke-linecap:square; clip-path:url(#clipPath1); fill:none; stroke-linejoin:miter; stroke-miterlimit:10;" height="4" />
      <line x1="164" x2="164" y1="18" style="stroke-linecap:square; clip-path:url(#clipPath1); fill:none; stroke-linejoin:miter; stroke-miterlimit:10;" y2="21" />
    </g>
    <g style="text-rendering:geometricPrecision; font-size:14; font-family:sans-serif;" transform="translate(12,2)">
      <text x="31" y="20" style="clip-path:url(#clipPath2); stroke:none;" xml:space="preserve">&lt;&lt;component&gt;&gt;</text>
      <text x="59" y="41" style="clip-path:url(#clipPath2); stroke:none; font-weight:bold;" xml:space="preserve">購物車</text>
    </g>
    <g transform="translate(402,292)" style="font-size:14; fill:rgb(122,207,245); text-rendering:geometricPrecision; font-family:sans-serif; stroke:rgb(122,207,245); font-weight:bold;">
      <rect x="0" y="0" width="180" style="clip-path:url(#clipPath1); stroke:none;" height="60" />
    </g>
    <g transform="translate(402,292)" style="font-size:14; stroke-linecap:butt; text-rendering:geometricPrecision; font-family:sans-serif; stroke-linejoin:round; font-weight:bold; stroke-miterlimit:0;">
      <rect x="0" y="0" width="179" style="clip-path:url(#clipPath1); fill:none;" height="59" />
      <line x1="164" x2="174" y1="5" style="stroke-linecap:square; clip-path:url(#clipPath1); fill:none; stroke-linejoin:miter; stroke-miterlimit:10;" y2="5" />
      <line x1="174" x2="174" y1="5" style="stroke-linecap:square; clip-path:url(#clipPath1); fill:none; stroke-linejoin:miter; stroke-miterlimit:10;" y2="21" />
      <line x1="164" x2="174" y1="21" style="stroke-linecap:square; clip-path:url(#clipPath1); fill:none; stroke-linejoin:miter; stroke-miterlimit:10;" y2="21" />
      <line x1="164" x2="164" y1="5" style="stroke-linecap:square; clip-path:url(#clipPath1); fill:none; stroke-linejoin:miter; stroke-miterlimit:10;" y2="8" />
      <rect x="161" y="8" width="7" style="stroke-linecap:square; clip-path:url(#clipPath1); fill:none; stroke-linejoin:miter; stroke-miterlimit:10;" height="4" />
      <line x1="164" x2="164" y1="12" style="stroke-linecap:square; clip-path:url(#clipPath1); fill:none; stroke-linejoin:miter; stroke-miterlimit:10;" y2="14" />
      <rect x="161" y="14" width="7" style="stroke-linecap:square; clip-path:url(#clipPath1); fill:none; stroke-linejoin:miter; stroke-miterlimit:10;" height="4" />
      <line x1="164" x2="164" y1="18" style="stroke-linecap:square; clip-path:url(#clipPath1); fill:none; stroke-linejoin:miter; stroke-miterlimit:10;" y2="21" />
    </g>
    <g style="text-rendering:geometricPrecision; font-size:14; font-family:sans-serif;" transform="translate(402,292)">
      <text x="29" y="20" style="clip-path:url(#clipPath3); stroke:none;" xml:space="preserve">&lt;&lt;component&gt;&gt;</text>
      <text x="65" y="41" style="clip-path:url(#clipPath3); stroke:none; font-weight:bold;" xml:space="preserve">展覽</text>
    </g>
    <g transform="translate(82,242)" style="font-size:14; fill:rgb(122,207,245); text-rendering:geometricPrecision; font-family:sans-serif; stroke:rgb(122,207,245); font-weight:bold;">
      <circle style="clip-path:url(#clipPath4); stroke:none;" r="9.5" cx="9.5" cy="9.5" />
    </g>
    <g transform="translate(82,242)" style="font-size:14; stroke-linecap:butt; text-rendering:geometricPrecision; font-family:sans-serif; stroke-linejoin:round; font-weight:bold; stroke-miterlimit:0;">
      <circle style="fill:none; clip-path:url(#clipPath4);" r="9.5" cx="9.5" cy="9.5" />
    </g>
    <g transform="translate(432,242)" style="font-size:14; fill:rgb(122,207,245); text-rendering:geometricPrecision; font-family:sans-serif; stroke:rgb(122,207,245); font-weight:bold;">
      <circle style="clip-path:url(#clipPath4); stroke:none;" r="9.5" cx="9.5" cy="9.5" />
    </g>
    <g transform="translate(432,242)" style="font-size:14; stroke-linecap:butt; text-rendering:geometricPrecision; font-family:sans-serif; stroke-linejoin:round; font-weight:bold; stroke-miterlimit:0;">
      <circle style="fill:none; clip-path:url(#clipPath4);" r="9.5" cx="9.5" cy="9.5" />
    </g>
    <g transform="translate(352,242)" style="text-rendering:geometricPrecision; font-size:14; font-weight:bold; font-family:sans-serif;">
      <text x="8" y="17" style="clip-path:url(#clipPath5); stroke:none;" xml:space="preserve">展覽清單</text>
    </g>
    <g transform="translate(2,242)" style="text-rendering:geometricPrecision; font-size:14; font-weight:bold; font-family:sans-serif;">
      <text x="8" y="17" style="clip-path:url(#clipPath5); stroke:none;" xml:space="preserve">商品清單</text>
    </g>
    <g transform="translate(2,82)" style="text-rendering:geometricPrecision; font-size:14; font-weight:bold; font-family:sans-serif;">
      <text x="8" y="17" style="clip-path:url(#clipPath5); stroke:none;" xml:space="preserve">訂單清單</text>
    </g>
    <g transform="translate(248,182)" style="text-rendering:geometricPrecision; font-size:14; font-weight:bold; font-family:sans-serif;">
      <text x="9" y="17" style="clip-path:url(#clipPath6); stroke:none;" xml:space="preserve">訂購者</text>
    </g>
    <g transform="translate(80,160)" style="font-size:14; stroke-linecap:butt; stroke-dashoffset:1; text-rendering:geometricPrecision; font-family:sans-serif; stroke-linejoin:round; stroke-dasharray:5;">
      <line x1="42" x2="42" y1="42" style="clip-path:url(#clipPath7); fill:none;" y2="131" />
      <line x1="42" x2="48" y1="131" style="stroke-dashoffset:0; clip-path:url(#clipPath7); fill:none; stroke-dasharray:none;" y2="119" />
      <line x1="42" x2="36" y1="131" style="stroke-dashoffset:0; clip-path:url(#clipPath7); fill:none; stroke-dasharray:none;" y2="119" />
    </g>
    <g transform="translate(158,118)" style="font-size:14; stroke-linecap:butt; stroke-dashoffset:1; text-rendering:geometricPrecision; font-family:sans-serif; stroke-linejoin:round; stroke-dasharray:5;">
      <line x1="33" x2="243" y1="34" style="clip-path:url(#clipPath8); fill:none;" y2="34" />
      <line x1="243" x2="231" y1="34" style="stroke-dashoffset:0; clip-path:url(#clipPath8); fill:none; stroke-dasharray:none;" y2="28" />
      <line x1="243" x2="231" y1="34" style="stroke-dashoffset:0; clip-path:url(#clipPath8); fill:none; stroke-dasharray:none;" y2="40" />
    </g>
    <g transform="translate(158,138)" style="font-size:14; stroke-linecap:butt; text-rendering:geometricPrecision; font-family:sans-serif; stroke-linejoin:round;">
      <line x1="33" x2="108" y1="34" style="clip-path:url(#clipPath9); fill:none;" y2="34" />
      <path d="M101 26.8571 A13 13 0 0 0 127 26.8571" style="fill:none; clip-path:url(#clipPath10);" transform="translate(114,34) rotate(90) translate(-114,-34)" />
    </g>
    <g style="text-rendering:geometricPrecision; font-size:14; font-family:sans-serif;" transform="translate(68,67)">
      <line x1="34" x2="34" y1="33" style="clip-path:url(#clipPath11); fill:none;" y2="73" />
    </g>
    <g transform="translate(68,28)" style="font-size:14; stroke-linecap:butt; text-rendering:geometricPrecision; font-family:sans-serif; stroke-linejoin:round;">
      <line x1="34" x2="34" y1="33" style="clip-path:url(#clipPath12); fill:none;" y2="48" />
      <path d="M21 46.8571 A13 13 0 0 0 47 46.8571" style="fill:none; clip-path:url(#clipPath13);" transform="translate(34,54) rotate(-180) translate(-34,-54)" />
    </g>
    <g style="text-rendering:geometricPrecision; font-size:14; font-family:sans-serif;" transform="translate(257,138)">
      <line x1="33" x2="144" y1="34" style="clip-path:url(#clipPath14); fill:none;" y2="34" />
    </g>
    <g transform="translate(450,150)" style="font-size:14; stroke-linecap:butt; stroke-dashoffset:1; text-rendering:geometricPrecision; font-family:sans-serif; stroke-linejoin:round; stroke-dasharray:5;">
      <line x1="42" x2="42" y1="141" style="clip-path:url(#clipPath15); fill:none;" y2="42" />
      <line x1="42" x2="36" y1="42" style="stroke-dashoffset:0; clip-path:url(#clipPath15); fill:none; stroke-dasharray:none;" y2="54" />
      <line x1="42" x2="48" y1="42" style="stroke-dashoffset:0; clip-path:url(#clipPath15); fill:none; stroke-dasharray:none;" y2="54" />
    </g>
    <g transform="translate(150,260)" style="font-size:14; stroke-linecap:butt; stroke-dashoffset:1; text-rendering:geometricPrecision; font-family:sans-serif; stroke-linejoin:round; stroke-dasharray:5;">
      <line x1="42" x2="251" y1="42" style="clip-path:url(#clipPath16); fill:none;" y2="42" />
      <line x1="251" x2="239" y1="42" style="stroke-dashoffset:0; clip-path:url(#clipPath16); fill:none; stroke-dasharray:none;" y2="36" />
      <line x1="251" x2="239" y1="42" style="stroke-dashoffset:0; clip-path:url(#clipPath16); fill:none; stroke-dasharray:none;" y2="48" />
    </g>
    <g transform="translate(158,-2)" style="font-size:14; stroke-linecap:butt; stroke-dashoffset:1; text-rendering:geometricPrecision; font-family:sans-serif; stroke-linejoin:round; stroke-dasharray:5;">
      <line x1="33" x2="334" y1="34" style="clip-path:url(#clipPath17); fill:none;" y2="34" />
      <line x1="334" x2="334" y1="34" style="clip-path:url(#clipPath17); fill:none;" y2="132" />
      <line x1="334" x2="340" y1="132" style="stroke-dashoffset:0; clip-path:url(#clipPath17); fill:none; stroke-dasharray:none;" y2="120" />
      <line x1="334" x2="328" y1="132" style="stroke-dashoffset:0; clip-path:url(#clipPath17); fill:none; stroke-dasharray:none;" y2="120" />
    </g>
    <g style="text-rendering:geometricPrecision; font-size:14; font-family:sans-serif;" transform="translate(50,220)">
      <line x1="42" x2="42" y1="42" style="clip-path:url(#clipPath18); fill:none;" y2="72" />
    </g>
    <g transform="translate(50,160)" style="font-size:14; stroke-linecap:butt; text-rendering:geometricPrecision; font-family:sans-serif; stroke-linejoin:round;">
      <line x1="42" x2="42" y1="42" style="clip-path:url(#clipPath19); fill:none;" y2="77" />
      <path d="M29 75.8571 A13 13 0 0 0 55 75.8571" style="fill:none; clip-path:url(#clipPath20);" transform="translate(42,83) rotate(-180) translate(-42,-83)" />
    </g>
    <g style="text-rendering:geometricPrecision; font-size:14; font-family:sans-serif;" transform="translate(400,220)">
      <line x1="42" x2="42" y1="42" style="clip-path:url(#clipPath18); fill:none;" y2="72" />
    </g>
    <g transform="translate(400,150)" style="font-size:14; stroke-linecap:butt; text-rendering:geometricPrecision; font-family:sans-serif; stroke-linejoin:round;">
      <line x1="42" x2="42" y1="42" style="clip-path:url(#clipPath21); fill:none;" y2="87" />
      <path d="M29 85.8571 A13 13 0 0 0 55 85.8571" style="fill:none; clip-path:url(#clipPath22);" transform="translate(42,93) rotate(-180) translate(-42,-93)" />
    </g>
  </g>
</svg>
