<?xml version="1.0" encoding="UTF-8"?>

<!DOCTYPE svg PUBLIC '-//W3C//DTD SVG 1.0//EN' 'http://www.w3.org/TR/2001/REC-SVG-20010904/DTD/svg10.dtd'>
<svg style="fill-opacity:1; color-rendering:auto; color-interpolation:auto; stroke:black; text-rendering:auto; stroke-linecap:square; stroke-miterlimit:10; stroke-opacity:1; shape-rendering:auto; fill:black; stroke-dasharray:none; font-weight:normal; stroke-width:1; font-family:&apos;Dialog&apos;; font-style:normal; stroke-linejoin:miter; font-size:12; stroke-dashoffset:0; image-rendering:auto;" xmlns="http://www.w3.org/2000/svg" width="586" xmlns:xlink="http://www.w3.org/1999/xlink" height="416">
  <!--Generated by the Batik Graphics2D SVG Generator-->
  <defs id="genericDefs" />
  <g>
    <defs id="defs1">
      <clipPath clipPathUnits="userSpaceOnUse" id="clipPath1">
        <path d="M-3 -3 L167 -3 L167 107 L-3 107 L-3 -3 Z" />
      </clipPath>
      <clipPath clipPathUnits="userSpaceOnUse" id="clipPath2">
        <path d="M0 0 L160 0 L160 21 L0 21 L0 0 Z" />
      </clipPath>
      <clipPath clipPathUnits="userSpaceOnUse" id="clipPath3">
        <path d="M-3 -3 L377 -3 L377 187 L-3 187 L-3 -3 Z" />
      </clipPath>
      <clipPath clipPathUnits="userSpaceOnUse" id="clipPath4">
        <path d="M0 0 L370 0 L370 21 L0 21 L0 0 Z" />
      </clipPath>
      <clipPath clipPathUnits="userSpaceOnUse" id="clipPath5">
        <path d="M-3 -3 L377 -3 L377 177 L-3 177 L-3 -3 Z" />
      </clipPath>
      <clipPath clipPathUnits="userSpaceOnUse" id="clipPath6">
        <path d="M-3 -3 L167 -3 L167 147 L-3 147 L-3 -3 Z" />
      </clipPath>
      <clipPath clipPathUnits="userSpaceOnUse" id="clipPath7">
        <path d="M-3 -3 L147 -3 L147 97 L-3 97 L-3 -3 Z" />
      </clipPath>
      <clipPath clipPathUnits="userSpaceOnUse" id="clipPath8">
        <path d="M0 0 L140 0 L140 21 L0 21 L0 0 Z" />
      </clipPath>
      <clipPath clipPathUnits="userSpaceOnUse" id="clipPath9">
        <path d="M0 0 L153 0 L153 104 L0 104 L0 0 Z" />
      </clipPath>
      <clipPath clipPathUnits="userSpaceOnUse" id="clipPath10">
        <path d="M0 0 L104 0 L104 163 L0 163 L0 0 Z" />
      </clipPath>
      <clipPath clipPathUnits="userSpaceOnUse" id="clipPath11">
        <path d="M0 0 L104 0 L104 143 L0 143 L0 0 Z" />
      </clipPath>
    </defs>
    <g style="fill:white; text-rendering:geometricPrecision; stroke:white;">
      <rect x="0" y="0" width="586" style="stroke:none;" height="416" />
    </g>
    <g transform="translate(2,2)" style="font-size:14; fill:rgb(122,207,245); text-rendering:geometricPrecision; font-family:sans-serif; stroke:rgb(122,207,245);">
      <rect x="0" y="0" width="31" style="clip-path:url(#clipPath1); stroke:none;" height="20" />
      <rect x="0" y="20" width="159" style="clip-path:url(#clipPath1); stroke:none;" height="79" />
    </g>
    <g transform="translate(2,2)" style="font-size:14; stroke-linecap:butt; text-rendering:geometricPrecision; font-family:sans-serif; stroke-linejoin:round; stroke-miterlimit:0;">
      <rect x="0" y="0" width="31" style="clip-path:url(#clipPath1); fill:none;" height="20" />
      <rect x="0" y="20" width="159" style="clip-path:url(#clipPath1); fill:none;" height="79" />
    </g>
    <g style="text-rendering:geometricPrecision; font-size:14; font-family:sans-serif;" transform="translate(2,22)">
      <text x="59" y="17" style="clip-path:url(#clipPath2); stroke:none;" xml:space="preserve">使用者</text>
    </g>
    <g transform="translate(212,2)" style="font-size:14; fill:rgb(122,207,245); text-rendering:geometricPrecision; font-family:sans-serif; stroke:rgb(122,207,245);">
      <rect x="0" y="0" width="73" style="clip-path:url(#clipPath3); stroke:none;" height="20" />
      <rect x="0" y="20" width="369" style="clip-path:url(#clipPath3); stroke:none;" height="159" />
    </g>
    <g transform="translate(212,2)" style="font-size:14; stroke-linecap:butt; text-rendering:geometricPrecision; font-family:sans-serif; stroke-linejoin:round; stroke-miterlimit:0;">
      <rect x="0" y="0" width="73" style="clip-path:url(#clipPath3); fill:none;" height="20" />
      <rect x="0" y="20" width="369" style="clip-path:url(#clipPath3); fill:none;" height="159" />
    </g>
    <g style="text-rendering:geometricPrecision; font-size:14; font-family:sans-serif;" transform="translate(212,22)">
      <text x="164" y="17" style="clip-path:url(#clipPath4); stroke:none;" xml:space="preserve">顯示層</text>
    </g>
    <g transform="translate(212,242)" style="font-size:14; fill:rgb(122,207,245); text-rendering:geometricPrecision; font-family:sans-serif; stroke:rgb(122,207,245);">
      <rect x="0" y="0" width="73" style="clip-path:url(#clipPath5); stroke:none;" height="20" />
      <rect x="0" y="20" width="369" style="clip-path:url(#clipPath5); stroke:none;" height="149" />
    </g>
    <g transform="translate(212,242)" style="font-size:14; stroke-linecap:butt; text-rendering:geometricPrecision; font-family:sans-serif; stroke-linejoin:round; stroke-miterlimit:0;">
      <rect x="0" y="0" width="73" style="clip-path:url(#clipPath5); fill:none;" height="20" />
      <rect x="0" y="20" width="369" style="clip-path:url(#clipPath5); fill:none;" height="149" />
    </g>
    <g style="text-rendering:geometricPrecision; font-size:14; font-family:sans-serif;" transform="translate(212,262)">
      <text x="164" y="17" style="clip-path:url(#clipPath4); stroke:none;" xml:space="preserve">服務層</text>
    </g>
    <g transform="translate(2,132)" style="font-size:14; fill:rgb(122,207,245); text-rendering:geometricPrecision; font-family:sans-serif; stroke:rgb(122,207,245);">
      <rect x="0" y="0" width="31" style="clip-path:url(#clipPath6); stroke:none;" height="20" />
      <rect x="0" y="20" width="159" style="clip-path:url(#clipPath6); stroke:none;" height="119" />
    </g>
    <g transform="translate(2,132)" style="font-size:14; stroke-linecap:butt; text-rendering:geometricPrecision; font-family:sans-serif; stroke-linejoin:round; stroke-miterlimit:0;">
      <rect x="0" y="0" width="31" style="clip-path:url(#clipPath6); fill:none;" height="20" />
      <rect x="0" y="20" width="159" style="clip-path:url(#clipPath6); fill:none;" height="119" />
    </g>
    <g style="text-rendering:geometricPrecision; font-size:14; font-family:sans-serif;" transform="translate(2,152)">
      <text x="59" y="17" style="clip-path:url(#clipPath2); stroke:none;" xml:space="preserve">資料層</text>
    </g>
    <g transform="translate(2,312)" style="font-size:14; fill:rgb(122,207,245); text-rendering:geometricPrecision; font-family:sans-serif; stroke:rgb(122,207,245);">
      <rect x="0" y="0" width="31" style="clip-path:url(#clipPath1); stroke:none;" height="20" />
      <rect x="0" y="20" width="159" style="clip-path:url(#clipPath1); stroke:none;" height="79" />
    </g>
    <g transform="translate(2,312)" style="font-size:14; stroke-linecap:butt; text-rendering:geometricPrecision; font-family:sans-serif; stroke-linejoin:round; stroke-miterlimit:0;">
      <rect x="0" y="0" width="31" style="clip-path:url(#clipPath1); fill:none;" height="20" />
      <rect x="0" y="20" width="159" style="clip-path:url(#clipPath1); fill:none;" height="79" />
    </g>
    <g style="text-rendering:geometricPrecision; font-size:14; font-family:sans-serif;" transform="translate(2,332)">
      <text x="52" y="17" style="clip-path:url(#clipPath2); stroke:none;" xml:space="preserve">資料來源</text>
    </g>
    <g transform="translate(242,62)" style="font-size:14; fill:rgb(122,207,245); text-rendering:geometricPrecision; font-family:sans-serif; stroke:rgb(122,207,245);">
      <rect x="0" y="0" width="27" style="clip-path:url(#clipPath7); stroke:none;" height="20" />
      <rect x="0" y="20" width="139" style="clip-path:url(#clipPath7); stroke:none;" height="69" />
    </g>
    <g transform="translate(242,62)" style="font-size:14; stroke-linecap:butt; text-rendering:geometricPrecision; font-family:sans-serif; stroke-linejoin:round; stroke-miterlimit:0;">
      <rect x="0" y="0" width="27" style="clip-path:url(#clipPath7); fill:none;" height="20" />
      <rect x="0" y="20" width="139" style="clip-path:url(#clipPath7); fill:none;" height="69" />
    </g>
    <g style="text-rendering:geometricPrecision; font-size:14; font-family:sans-serif;" transform="translate(242,82)">
      <text x="35" y="17" style="clip-path:url(#clipPath8); stroke:none;" xml:space="preserve">使用者介面</text>
    </g>
    <g transform="translate(422,62)" style="font-size:14; fill:rgb(122,207,245); text-rendering:geometricPrecision; font-family:sans-serif; stroke:rgb(122,207,245);">
      <rect x="0" y="0" width="27" style="clip-path:url(#clipPath7); stroke:none;" height="20" />
      <rect x="0" y="20" width="139" style="clip-path:url(#clipPath7); stroke:none;" height="69" />
    </g>
    <g transform="translate(422,62)" style="font-size:14; stroke-linecap:butt; text-rendering:geometricPrecision; font-family:sans-serif; stroke-linejoin:round; stroke-miterlimit:0;">
      <rect x="0" y="0" width="27" style="clip-path:url(#clipPath7); fill:none;" height="20" />
      <rect x="0" y="20" width="139" style="clip-path:url(#clipPath7); fill:none;" height="69" />
    </g>
    <g style="text-rendering:geometricPrecision; font-size:14; font-family:sans-serif;" transform="translate(422,82)">
      <text x="28" y="17" style="clip-path:url(#clipPath8); stroke:none;" xml:space="preserve">介面顯示邏輯</text>
    </g>
    <g transform="translate(242,292)" style="font-size:14; fill:rgb(122,207,245); text-rendering:geometricPrecision; font-family:sans-serif; stroke:rgb(122,207,245);">
      <rect x="0" y="0" width="27" style="clip-path:url(#clipPath7); stroke:none;" height="20" />
      <rect x="0" y="20" width="139" style="clip-path:url(#clipPath7); stroke:none;" height="69" />
    </g>
    <g transform="translate(242,292)" style="font-size:14; stroke-linecap:butt; text-rendering:geometricPrecision; font-family:sans-serif; stroke-linejoin:round; stroke-miterlimit:0;">
      <rect x="0" y="0" width="27" style="clip-path:url(#clipPath7); fill:none;" height="20" />
      <rect x="0" y="20" width="139" style="clip-path:url(#clipPath7); fill:none;" height="69" />
    </g>
    <g style="text-rendering:geometricPrecision; font-size:14; font-family:sans-serif;" transform="translate(242,312)">
      <text x="42" y="17" style="clip-path:url(#clipPath8); stroke:none;" xml:space="preserve">服務介面</text>
    </g>
    <g transform="translate(422,292)" style="font-size:14; fill:rgb(122,207,245); text-rendering:geometricPrecision; font-family:sans-serif; stroke:rgb(122,207,245);">
      <rect x="0" y="0" width="27" style="clip-path:url(#clipPath7); stroke:none;" height="20" />
      <rect x="0" y="20" width="139" style="clip-path:url(#clipPath7); stroke:none;" height="69" />
    </g>
    <g transform="translate(422,292)" style="font-size:14; stroke-linecap:butt; text-rendering:geometricPrecision; font-family:sans-serif; stroke-linejoin:round; stroke-miterlimit:0;">
      <rect x="0" y="0" width="27" style="clip-path:url(#clipPath7); fill:none;" height="20" />
      <rect x="0" y="20" width="139" style="clip-path:url(#clipPath7); fill:none;" height="69" />
    </g>
    <g style="text-rendering:geometricPrecision; font-size:14; font-family:sans-serif;" transform="translate(422,312)">
      <text x="42" y="17" style="clip-path:url(#clipPath8); stroke:none;" xml:space="preserve">訊息管理</text>
    </g>
    <g transform="translate(12,162)" style="font-size:14; fill:rgb(122,207,245); text-rendering:geometricPrecision; font-family:sans-serif; stroke:rgb(122,207,245);">
      <rect x="0" y="0" width="27" style="clip-path:url(#clipPath7); stroke:none;" height="20" />
      <rect x="0" y="20" width="139" style="clip-path:url(#clipPath7); stroke:none;" height="69" />
    </g>
    <g transform="translate(12,162)" style="font-size:14; stroke-linecap:butt; text-rendering:geometricPrecision; font-family:sans-serif; stroke-linejoin:round; stroke-miterlimit:0;">
      <rect x="0" y="0" width="27" style="clip-path:url(#clipPath7); fill:none;" height="20" />
      <rect x="0" y="20" width="139" style="clip-path:url(#clipPath7); fill:none;" height="69" />
    </g>
    <g style="text-rendering:geometricPrecision; font-size:14; font-family:sans-serif;" transform="translate(12,182)">
      <text x="42" y="17" style="clip-path:url(#clipPath8); stroke:none;" xml:space="preserve">資料儲存</text>
    </g>
    <g transform="translate(112,2)" style="font-size:14; stroke-linecap:butt; stroke-dashoffset:1; text-rendering:geometricPrecision; font-family:sans-serif; stroke-linejoin:round; stroke-dasharray:5;">
      <line x1="50" x2="99" y1="50" style="clip-path:url(#clipPath9); fill:none;" y2="50" />
      <line x1="99" x2="87" y1="50" style="stroke-dashoffset:0; clip-path:url(#clipPath9); fill:none; stroke-dasharray:none;" y2="44" />
      <line x1="99" x2="87" y1="50" style="stroke-dashoffset:0; clip-path:url(#clipPath9); fill:none; stroke-dasharray:none;" y2="56" />
    </g>
    <g transform="translate(192,132)" style="font-size:14; stroke-linecap:butt; stroke-dashoffset:1; text-rendering:geometricPrecision; font-family:sans-serif; stroke-linejoin:round; stroke-dasharray:5;">
      <line x1="50" x2="50" y1="50" style="clip-path:url(#clipPath10); fill:none;" y2="109" />
      <line x1="50" x2="56" y1="109" style="stroke-dashoffset:0; clip-path:url(#clipPath10); fill:none; stroke-dasharray:none;" y2="97" />
      <line x1="50" x2="44" y1="109" style="stroke-dashoffset:0; clip-path:url(#clipPath10); fill:none; stroke-dasharray:none;" y2="97" />
    </g>
    <g transform="translate(112,212)" style="font-size:14; stroke-linecap:butt; stroke-dashoffset:1; text-rendering:geometricPrecision; font-family:sans-serif; stroke-linejoin:round; stroke-dasharray:5;">
      <line x1="99" x2="50" y1="50" style="clip-path:url(#clipPath9); fill:none;" y2="50" />
      <line x1="50" x2="62" y1="50" style="stroke-dashoffset:0; clip-path:url(#clipPath9); fill:none; stroke-dasharray:none;" y2="56" />
      <line x1="50" x2="62" y1="50" style="stroke-dashoffset:0; clip-path:url(#clipPath9); fill:none; stroke-dasharray:none;" y2="44" />
    </g>
    <g transform="translate(-28,222)" style="font-size:14; stroke-linecap:butt; stroke-dashoffset:1; text-rendering:geometricPrecision; font-family:sans-serif; stroke-linejoin:round; stroke-dasharray:5;">
      <line x1="50" x2="50" y1="50" style="clip-path:url(#clipPath11); fill:none;" y2="89" />
      <line x1="50" x2="56" y1="89" style="stroke-dashoffset:0; clip-path:url(#clipPath11); fill:none; stroke-dasharray:none;" y2="77" />
      <line x1="50" x2="44" y1="89" style="stroke-dashoffset:0; clip-path:url(#clipPath11); fill:none; stroke-dasharray:none;" y2="77" />
    </g>
  </g>
</svg>
