<?xml version="1.0" encoding="UTF-8"?>

<!DOCTYPE svg PUBLIC '-//W3C//DTD SVG 1.0//EN' 'http://www.w3.org/TR/2001/REC-SVG-20010904/DTD/svg10.dtd'>
<svg style="fill-opacity:1; color-rendering:auto; color-interpolation:auto; stroke:black; text-rendering:auto; stroke-linecap:square; stroke-miterlimit:10; stroke-opacity:1; shape-rendering:auto; fill:black; stroke-dasharray:none; font-weight:normal; stroke-width:1; font-family:&apos;Dialog&apos;; font-style:normal; stroke-linejoin:miter; font-size:12; stroke-dashoffset:0; image-rendering:auto;" xmlns="http://www.w3.org/2000/svg" width="694" xmlns:xlink="http://www.w3.org/1999/xlink" height="456">
  <!--Generated by the Batik Graphics2D SVG Generator-->
  <defs id="genericDefs" />
  <g>
    <defs id="defs1">
      <clipPath clipPathUnits="userSpaceOnUse" id="clipPath1">
        <path d="M-3 -3 L27 -3 L27 27 L-3 27 L-3 -3 Z" />
      </clipPath>
      <clipPath clipPathUnits="userSpaceOnUse" id="clipPath2">
        <path d="M-3 -3 L87 -3 L87 53 L-3 53 L-3 -3 Z" />
      </clipPath>
      <clipPath clipPathUnits="userSpaceOnUse" id="clipPath3">
        <path d="M-3 -3 L187 -3 L187 19 L-3 19 L-3 -3 Z" />
      </clipPath>
      <clipPath clipPathUnits="userSpaceOnUse" id="clipPath4">
        <path d="M0 0 L80 0 L80 21 L0 21 L0 0 Z" />
      </clipPath>
      <clipPath clipPathUnits="userSpaceOnUse" id="clipPath5">
        <path d="M0 0 L257 0 L257 115 L0 115 L0 0 Z" />
      </clipPath>
      <clipPath clipPathUnits="userSpaceOnUse" id="clipPath6">
        <path d="M0 0 L214 0 L214 160 L0 160 L0 0 Z" />
      </clipPath>
      <clipPath clipPathUnits="userSpaceOnUse" id="clipPath7">
        <path d="M0 0 L445 0 L445 126 L0 126 L0 0 Z" />
      </clipPath>
      <clipPath clipPathUnits="userSpaceOnUse" id="clipPath8">
        <path d="M0 0 L184 0 L184 170 L0 170 L0 0 Z" />
      </clipPath>
      <clipPath clipPathUnits="userSpaceOnUse" id="clipPath9">
        <path d="M0 0 L115 0 L115 431 L0 431 L0 0 Z" />
      </clipPath>
      <clipPath clipPathUnits="userSpaceOnUse" id="clipPath10">
        <path d="M0 0 L75 0 L75 129 L0 129 L0 0 Z" />
      </clipPath>
      <clipPath clipPathUnits="userSpaceOnUse" id="clipPath11">
        <path d="M0 0 L95 0 L95 145 L0 145 L0 0 Z" />
      </clipPath>
      <clipPath clipPathUnits="userSpaceOnUse" id="clipPath12">
        <path d="M0 0 L115 0 L115 145 L0 145 L0 0 Z" />
      </clipPath>
      <clipPath clipPathUnits="userSpaceOnUse" id="clipPath13">
        <path d="M0 0 L205 0 L205 155 L0 155 L0 0 Z" />
      </clipPath>
      <clipPath clipPathUnits="userSpaceOnUse" id="clipPath14">
        <path d="M0 0 L115 0 L115 130 L0 130 L0 0 Z" />
      </clipPath>
      <clipPath clipPathUnits="userSpaceOnUse" id="clipPath15">
        <path d="M0 0 L135 0 L135 145 L0 145 L0 0 Z" />
      </clipPath>
      <clipPath clipPathUnits="userSpaceOnUse" id="clipPath16">
        <path d="M0 0 L235 0 L235 160 L0 160 L0 0 Z" />
      </clipPath>
      <clipPath clipPathUnits="userSpaceOnUse" id="clipPath17">
        <path d="M0 0 L165 0 L165 155 L0 155 L0 0 Z" />
      </clipPath>
      <clipPath clipPathUnits="userSpaceOnUse" id="clipPath18">
        <path d="M0 0 L165 0 L165 115 L0 115 L0 0 Z" />
      </clipPath>
      <clipPath clipPathUnits="userSpaceOnUse" id="clipPath19">
        <path d="M0 0 L125 0 L125 115 L0 115 L0 0 Z" />
      </clipPath>
      <clipPath clipPathUnits="userSpaceOnUse" id="clipPath20">
        <path d="M0 0 L355 0 L355 119 L0 119 L0 0 Z" />
      </clipPath>
      <clipPath clipPathUnits="userSpaceOnUse" id="clipPath21">
        <path d="M0 0 L315 0 L315 93 L0 93 L0 0 Z" />
      </clipPath>
      <clipPath clipPathUnits="userSpaceOnUse" id="clipPath22">
        <path d="M0 0 L715 0 L715 280 L0 280 L0 0 Z" />
      </clipPath>
      <clipPath clipPathUnits="userSpaceOnUse" id="clipPath23">
        <path d="M0 0 L265 0 L265 119 L0 119 L0 0 Z" />
      </clipPath>
      <clipPath clipPathUnits="userSpaceOnUse" id="clipPath24">
        <path d="M0 0 L195 0 L195 119 L0 119 L0 0 Z" />
      </clipPath>
      <clipPath clipPathUnits="userSpaceOnUse" id="clipPath25">
        <path d="M0 0 L75 0 L75 119 L0 119 L0 0 Z" />
      </clipPath>
      <clipPath clipPathUnits="userSpaceOnUse" id="clipPath26">
        <path d="M0 0 L155 0 L155 119 L0 119 L0 0 Z" />
      </clipPath>
      <clipPath clipPathUnits="userSpaceOnUse" id="clipPath27">
        <path d="M0 0 L76 0 L76 21 L0 21 L0 0 Z" />
      </clipPath>
      <clipPath clipPathUnits="userSpaceOnUse" id="clipPath28">
        <path d="M0 0 L90 0 L90 21 L0 21 L0 0 Z" />
      </clipPath>
      <clipPath clipPathUnits="userSpaceOnUse" id="clipPath29">
        <path d="M0 0 L104 0 L104 21 L0 21 L0 0 Z" />
      </clipPath>
    </defs>
    <g style="fill:white; text-rendering:geometricPrecision; stroke:white;">
      <rect x="0" y="0" width="694" style="stroke:none;" height="456" />
    </g>
    <g style="text-rendering:geometricPrecision; font-size:14; font-family:sans-serif;" transform="translate(240,62)">
      <circle style="clip-path:url(#clipPath1); stroke:none;" r="9.5" cx="9.5" cy="9.5" />
    </g>
    <g transform="translate(20,52)" style="font-size:14; fill:rgb(122,207,245); text-rendering:geometricPrecision; font-family:sans-serif; stroke:rgb(122,207,245);">
      <rect x="0" y="0" width="80" style="clip-path:url(#clipPath2); stroke:none;" rx="10" ry="10" height="46" />
    </g>
    <g transform="translate(20,52)" style="font-size:14; stroke-linecap:butt; text-rendering:geometricPrecision; font-family:sans-serif; stroke-linejoin:round; stroke-miterlimit:0;">
      <rect x="0" y="0" width="80" style="clip-path:url(#clipPath2); fill:none;" rx="10" ry="10" height="46" />
    </g>
    <g transform="translate(160,122)" style="font-size:14; fill:rgb(122,207,245); text-rendering:geometricPrecision; font-family:sans-serif; stroke:rgb(122,207,245);">
      <rect x="0" y="0" width="80" style="clip-path:url(#clipPath2); stroke:none;" rx="10" ry="10" height="46" />
    </g>
    <g transform="translate(160,122)" style="font-size:14; stroke-linecap:butt; text-rendering:geometricPrecision; font-family:sans-serif; stroke-linejoin:round; stroke-miterlimit:0;">
      <rect x="0" y="0" width="80" style="clip-path:url(#clipPath2); fill:none;" rx="10" ry="10" height="46" />
    </g>
    <g transform="translate(610,202)" style="font-size:14; fill:rgb(122,207,245); text-rendering:geometricPrecision; font-family:sans-serif; stroke:rgb(122,207,245);">
      <rect x="0" y="0" width="80" style="clip-path:url(#clipPath2); stroke:none;" rx="10" ry="10" height="46" />
    </g>
    <g transform="translate(610,202)" style="font-size:14; stroke-linecap:butt; text-rendering:geometricPrecision; font-family:sans-serif; stroke-linejoin:round; stroke-miterlimit:0;">
      <rect x="0" y="0" width="80" style="clip-path:url(#clipPath2); fill:none;" rx="10" ry="10" height="46" />
    </g>
    <g transform="translate(290,202)" style="font-size:14; fill:rgb(122,207,245); text-rendering:geometricPrecision; font-family:sans-serif; stroke:rgb(122,207,245);">
      <rect x="0" y="0" width="80" style="clip-path:url(#clipPath2); stroke:none;" rx="10" ry="10" height="46" />
    </g>
    <g transform="translate(290,202)" style="font-size:14; stroke-linecap:butt; text-rendering:geometricPrecision; font-family:sans-serif; stroke-linejoin:round; stroke-miterlimit:0;">
      <rect x="0" y="0" width="80" style="clip-path:url(#clipPath2); fill:none;" rx="10" ry="10" height="46" />
    </g>
    <g style="text-rendering:geometricPrecision; font-size:14; font-family:sans-serif;" transform="translate(30,412)">
      <circle style="clip-path:url(#clipPath1); stroke:none;" r="7" cx="10" cy="10" />
      <circle style="stroke-linecap:butt; clip-path:url(#clipPath1); fill:none; stroke-linejoin:round; stroke-miterlimit:0;" r="10" cx="10" cy="10" />
    </g>
    <g transform="translate(570,302)" style="font-size:14; fill:rgb(122,207,245); text-rendering:geometricPrecision; font-family:sans-serif; stroke:rgb(122,207,245);">
      <rect x="0" y="0" width="80" style="clip-path:url(#clipPath2); stroke:none;" rx="10" ry="10" height="46" />
    </g>
    <g transform="translate(570,302)" style="font-size:14; stroke-linecap:butt; text-rendering:geometricPrecision; font-family:sans-serif; stroke-linejoin:round; stroke-miterlimit:0;">
      <rect x="0" y="0" width="80" style="clip-path:url(#clipPath2); fill:none;" rx="10" ry="10" height="46" />
    </g>
    <g transform="translate(250,302)" style="font-size:14; fill:rgb(122,207,245); text-rendering:geometricPrecision; font-family:sans-serif; stroke:rgb(122,207,245);">
      <rect x="0" y="0" width="80" style="clip-path:url(#clipPath2); stroke:none;" rx="10" ry="10" height="46" />
    </g>
    <g transform="translate(250,302)" style="font-size:14; stroke-linecap:butt; text-rendering:geometricPrecision; font-family:sans-serif; stroke-linejoin:round; stroke-miterlimit:0;">
      <rect x="0" y="0" width="80" style="clip-path:url(#clipPath2); fill:none;" rx="10" ry="10" height="46" />
    </g>
    <g transform="translate(370,302)" style="font-size:14; fill:rgb(122,207,245); text-rendering:geometricPrecision; font-family:sans-serif; stroke:rgb(122,207,245);">
      <rect x="0" y="0" width="80" style="clip-path:url(#clipPath2); stroke:none;" rx="10" ry="10" height="46" />
    </g>
    <g transform="translate(370,302)" style="font-size:14; stroke-linecap:butt; text-rendering:geometricPrecision; font-family:sans-serif; stroke-linejoin:round; stroke-miterlimit:0;">
      <rect x="0" y="0" width="80" style="clip-path:url(#clipPath2); fill:none;" rx="10" ry="10" height="46" />
    </g>
    <g transform="translate(460,302)" style="font-size:14; fill:rgb(122,207,245); text-rendering:geometricPrecision; font-family:sans-serif; stroke:rgb(122,207,245);">
      <rect x="0" y="0" width="80" style="clip-path:url(#clipPath2); stroke:none;" rx="10" ry="10" height="46" />
    </g>
    <g transform="translate(460,302)" style="font-size:14; stroke-linecap:butt; text-rendering:geometricPrecision; font-family:sans-serif; stroke-linejoin:round; stroke-miterlimit:0;">
      <rect x="0" y="0" width="80" style="clip-path:url(#clipPath2); fill:none;" rx="10" ry="10" height="46" />
    </g>
    <g transform="translate(70,202)" style="font-size:14; fill:rgb(122,207,245); text-rendering:geometricPrecision; font-family:sans-serif; stroke:rgb(122,207,245);">
      <rect x="0" y="0" width="80" style="clip-path:url(#clipPath2); stroke:none;" rx="10" ry="10" height="46" />
    </g>
    <g transform="translate(70,202)" style="font-size:14; stroke-linecap:butt; text-rendering:geometricPrecision; font-family:sans-serif; stroke-linejoin:round; stroke-miterlimit:0;">
      <rect x="0" y="0" width="80" style="clip-path:url(#clipPath2); fill:none;" rx="10" ry="10" height="46" />
    </g>
    <g transform="translate(160,302)" style="font-size:14; fill:rgb(122,207,245); text-rendering:geometricPrecision; font-family:sans-serif; stroke:rgb(122,207,245);">
      <rect x="0" y="0" width="80" style="clip-path:url(#clipPath2); stroke:none;" rx="10" ry="10" height="46" />
    </g>
    <g transform="translate(160,302)" style="font-size:14; stroke-linecap:butt; text-rendering:geometricPrecision; font-family:sans-serif; stroke-linejoin:round; stroke-miterlimit:0;">
      <rect x="0" y="0" width="80" style="clip-path:url(#clipPath2); fill:none;" rx="10" ry="10" height="46" />
    </g>
    <g transform="translate(70,302)" style="font-size:14; fill:rgb(122,207,245); text-rendering:geometricPrecision; font-family:sans-serif; stroke:rgb(122,207,245);">
      <rect x="0" y="0" width="80" style="clip-path:url(#clipPath2); stroke:none;" rx="10" ry="10" height="46" />
    </g>
    <g transform="translate(70,302)" style="font-size:14; stroke-linecap:butt; text-rendering:geometricPrecision; font-family:sans-serif; stroke-linejoin:round; stroke-miterlimit:0;">
      <rect x="0" y="0" width="80" style="clip-path:url(#clipPath2); fill:none;" rx="10" ry="10" height="46" />
    </g>
    <g transform="translate(310,52)" style="font-size:14; fill:rgb(122,207,245); text-rendering:geometricPrecision; font-family:sans-serif; stroke:rgb(122,207,245);">
      <rect x="0" y="0" width="80" style="clip-path:url(#clipPath2); stroke:none;" rx="10" ry="10" height="46" />
    </g>
    <g transform="translate(310,52)" style="font-size:14; stroke-linecap:butt; text-rendering:geometricPrecision; font-family:sans-serif; stroke-linejoin:round; stroke-miterlimit:0;">
      <rect x="0" y="0" width="80" style="clip-path:url(#clipPath2); fill:none;" rx="10" ry="10" height="46" />
    </g>
    <g style="text-rendering:geometricPrecision; font-size:14; font-family:sans-serif;" transform="translate(170,392)">
      <rect x="0" y="0" width="180" style="clip-path:url(#clipPath3); stroke:none;" height="12" />
      <rect x="0" y="0" width="180" style="stroke-linecap:butt; clip-path:url(#clipPath3); fill:none; stroke-linejoin:round; stroke-miterlimit:0;" height="12" />
    </g>
    <g style="text-rendering:geometricPrecision; font-size:14; font-family:sans-serif;" transform="translate(310,52)">
      <text x="26" y="17" style="clip-path:url(#clipPath4); stroke:none;" xml:space="preserve">登入</text>
    </g>
    <g style="text-rendering:geometricPrecision; font-size:14; font-family:sans-serif;" transform="translate(70,302)">
      <text x="26" y="17" style="clip-path:url(#clipPath4); stroke:none;" xml:space="preserve">結帳</text>
    </g>
    <g style="text-rendering:geometricPrecision; font-size:14; font-family:sans-serif;" transform="translate(160,302)">
      <text x="5" y="17" style="clip-path:url(#clipPath4); stroke:none;" xml:space="preserve">管理購物車</text>
    </g>
    <g style="text-rendering:geometricPrecision; font-size:14; font-family:sans-serif;" transform="translate(70,202)">
      <text x="5" y="17" style="clip-path:url(#clipPath4); stroke:none;" xml:space="preserve">購物車頁面</text>
    </g>
    <g style="text-rendering:geometricPrecision; font-size:14; font-family:sans-serif;" transform="translate(460,302)">
      <text x="26" y="17" style="clip-path:url(#clipPath4); stroke:none;" xml:space="preserve">訂單</text>
    </g>
    <g style="text-rendering:geometricPrecision; font-size:14; font-family:sans-serif;" transform="translate(370,302)">
      <text x="26" y="17" style="clip-path:url(#clipPath4); stroke:none;" xml:space="preserve">展覽</text>
    </g>
    <g style="text-rendering:geometricPrecision; font-size:14; font-family:sans-serif;" transform="translate(250,302)">
      <text x="12" y="17" style="clip-path:url(#clipPath4); stroke:none;" xml:space="preserve">個人資料</text>
    </g>
    <g style="text-rendering:geometricPrecision; font-size:14; font-family:sans-serif;" transform="translate(570,302)">
      <text x="5" y="17" style="clip-path:url(#clipPath4); stroke:none;" xml:space="preserve">新增購物車</text>
    </g>
    <g style="text-rendering:geometricPrecision; font-size:14; font-family:sans-serif;" transform="translate(290,202)">
      <text x="12" y="17" style="clip-path:url(#clipPath4); stroke:none;" xml:space="preserve">會員頁面</text>
    </g>
    <g style="text-rendering:geometricPrecision; font-size:14; font-family:sans-serif;" transform="translate(610,202)">
      <text x="12" y="17" style="clip-path:url(#clipPath4); stroke:none;" xml:space="preserve">進入展覽</text>
    </g>
    <g style="text-rendering:geometricPrecision; font-size:14; font-family:sans-serif;" transform="translate(160,122)">
      <text x="26" y="17" style="clip-path:url(#clipPath4); stroke:none;" xml:space="preserve">首頁</text>
    </g>
    <g style="text-rendering:geometricPrecision; font-size:14; font-family:sans-serif;" transform="translate(20,52)">
      <text x="26" y="17" style="clip-path:url(#clipPath4); stroke:none;" xml:space="preserve">註冊</text>
    </g>
    <g transform="translate(44,16)" style="font-size:14; stroke-linecap:butt; text-rendering:geometricPrecision; font-family:sans-serif; stroke-linejoin:round;">
      <line x1="198" x2="56" y1="56" style="clip-path:url(#clipPath5); fill:none;" y2="56" />
      <line x1="56" x2="68" y1="56" style="clip-path:url(#clipPath5); fill:none;" y2="62" />
      <line x1="56" x2="68" y1="56" style="clip-path:url(#clipPath5); fill:none;" y2="50" />
    </g>
    <g transform="translate(4,42)" style="font-size:14; stroke-linecap:butt; text-rendering:geometricPrecision; font-family:sans-serif; stroke-linejoin:round;">
      <line x1="56" x2="56" y1="56" style="clip-path:url(#clipPath6); fill:none;" y2="100" />
      <line x1="56" x2="154" y1="100" style="clip-path:url(#clipPath6); fill:none;" y2="100" />
      <line x1="154" x2="142" y1="100" style="clip-path:url(#clipPath6); fill:none;" y2="94" />
      <line x1="154" x2="142" y1="100" style="clip-path:url(#clipPath6); fill:none;" y2="106" />
    </g>
    <g transform="translate(204,116)" style="font-size:14; stroke-linecap:butt; text-rendering:geometricPrecision; font-family:sans-serif; stroke-linejoin:round;">
      <line x1="36" x2="346" y1="36" style="clip-path:url(#clipPath7); fill:none;" y2="36" />
      <line x1="346" x2="406" y1="36" style="clip-path:url(#clipPath7); fill:none;" y2="86" />
      <line x1="406" x2="400" y1="86" style="clip-path:url(#clipPath7); fill:none;" y2="73" />
      <line x1="406" x2="393" y1="86" style="clip-path:url(#clipPath7); fill:none;" y2="83" />
    </g>
    <g transform="translate(164,112)" style="font-size:14; stroke-linecap:butt; text-rendering:geometricPrecision; font-family:sans-serif; stroke-linejoin:round;">
      <line x1="56" x2="56" y1="56" style="clip-path:url(#clipPath8); fill:none;" y2="110" />
      <line x1="56" x2="124" y1="110" style="clip-path:url(#clipPath8); fill:none;" y2="110" />
      <line x1="124" x2="112" y1="110" style="clip-path:url(#clipPath8); fill:none;" y2="104" />
      <line x1="124" x2="112" y1="110" style="clip-path:url(#clipPath8); fill:none;" y2="116" />
    </g>
    <g transform="translate(-16,42)" style="font-size:14; stroke-linecap:butt; text-rendering:geometricPrecision; font-family:sans-serif; stroke-linejoin:round;">
      <line x1="56" x2="56" y1="56" style="clip-path:url(#clipPath9); fill:none;" y2="371" />
      <line x1="56" x2="62" y1="371" style="clip-path:url(#clipPath9); fill:none;" y2="359" />
      <line x1="56" x2="50" y1="371" style="clip-path:url(#clipPath9); fill:none;" y2="359" />
    </g>
    <g transform="translate(574,212)" style="font-size:14; stroke-linecap:butt; text-rendering:geometricPrecision; font-family:sans-serif; stroke-linejoin:round;">
      <line x1="36" x2="36" y1="36" style="clip-path:url(#clipPath10); fill:none;" y2="89" />
      <line x1="36" x2="42" y1="89" style="clip-path:url(#clipPath10); fill:none;" y2="77" />
      <line x1="36" x2="30" y1="89" style="clip-path:url(#clipPath10); fill:none;" y2="77" />
    </g>
    <g transform="translate(234,196)" style="font-size:14; stroke-linecap:butt; text-rendering:geometricPrecision; font-family:sans-serif; stroke-linejoin:round;">
      <line x1="55" x2="36" y1="36" style="clip-path:url(#clipPath11); fill:none;" y2="36" />
      <line x1="36" x2="36" y1="36" style="clip-path:url(#clipPath11); fill:none;" y2="105" />
      <line x1="36" x2="42" y1="105" style="clip-path:url(#clipPath11); fill:none;" y2="93" />
      <line x1="36" x2="30" y1="105" style="clip-path:url(#clipPath11); fill:none;" y2="93" />
    </g>
    <g transform="translate(334,196)" style="font-size:14; stroke-linecap:butt; text-rendering:geometricPrecision; font-family:sans-serif; stroke-linejoin:round;">
      <line x1="36" x2="76" y1="36" style="clip-path:url(#clipPath12); fill:none;" y2="36" />
      <line x1="76" x2="76" y1="36" style="clip-path:url(#clipPath12); fill:none;" y2="105" />
      <line x1="76" x2="82" y1="105" style="clip-path:url(#clipPath12); fill:none;" y2="93" />
      <line x1="76" x2="70" y1="105" style="clip-path:url(#clipPath12); fill:none;" y2="93" />
    </g>
    <g transform="translate(334,186)" style="font-size:14; stroke-linecap:butt; text-rendering:geometricPrecision; font-family:sans-serif; stroke-linejoin:round;">
      <line x1="36" x2="166" y1="36" style="clip-path:url(#clipPath13); fill:none;" y2="36" />
      <line x1="166" x2="166" y1="36" style="clip-path:url(#clipPath13); fill:none;" y2="115" />
      <line x1="166" x2="172" y1="115" style="clip-path:url(#clipPath13); fill:none;" y2="103" />
      <line x1="166" x2="160" y1="115" style="clip-path:url(#clipPath13); fill:none;" y2="103" />
    </g>
    <g transform="translate(114,132)" style="font-size:14; stroke-linecap:butt; text-rendering:geometricPrecision; font-family:sans-serif; stroke-linejoin:round;">
      <line x1="76" x2="76" y1="36" style="clip-path:url(#clipPath14); fill:none;" y2="90" />
      <line x1="76" x2="36" y1="90" style="clip-path:url(#clipPath14); fill:none;" y2="90" />
      <line x1="36" x2="48" y1="90" style="clip-path:url(#clipPath14); fill:none;" y2="96" />
      <line x1="36" x2="48" y1="90" style="clip-path:url(#clipPath14); fill:none;" y2="84" />
    </g>
    <g transform="translate(114,196)" style="font-size:14; stroke-linecap:butt; text-rendering:geometricPrecision; font-family:sans-serif; stroke-linejoin:round;">
      <line x1="36" x2="96" y1="36" style="clip-path:url(#clipPath15); fill:none;" y2="36" />
      <line x1="96" x2="96" y1="36" style="clip-path:url(#clipPath15); fill:none;" y2="105" />
      <line x1="96" x2="102" y1="105" style="clip-path:url(#clipPath15); fill:none;" y2="93" />
      <line x1="96" x2="90" y1="105" style="clip-path:url(#clipPath15); fill:none;" y2="93" />
    </g>
    <g transform="translate(74,212)" style="font-size:14; stroke-linecap:butt; text-rendering:geometricPrecision; font-family:sans-serif; stroke-linejoin:round;">
      <line x1="36" x2="36" y1="36" style="clip-path:url(#clipPath10); fill:none;" y2="89" />
      <line x1="36" x2="42" y1="89" style="clip-path:url(#clipPath10); fill:none;" y2="77" />
      <line x1="36" x2="30" y1="89" style="clip-path:url(#clipPath10); fill:none;" y2="77" />
    </g>
    <g transform="translate(184,42)" style="font-size:14; stroke-linecap:butt; text-rendering:geometricPrecision; font-family:sans-serif; stroke-linejoin:round;">
      <line x1="176" x2="176" y1="56" style="clip-path:url(#clipPath16); fill:none;" y2="100" />
      <line x1="176" x2="56" y1="100" style="clip-path:url(#clipPath16); fill:none;" y2="100" />
      <line x1="56" x2="68" y1="100" style="clip-path:url(#clipPath16); fill:none;" y2="106" />
      <line x1="56" x2="68" y1="100" style="clip-path:url(#clipPath16); fill:none;" y2="94" />
    </g>
    <g transform="translate(-46,-24)" style="font-size:14; stroke-linecap:butt; text-rendering:geometricPrecision; font-family:sans-serif; stroke-linejoin:round;">
      <line x1="64" x2="56" y1="96" style="clip-path:url(#clipPath17); fill:none;" y2="96" />
      <line x1="56" x2="56" y1="96" style="clip-path:url(#clipPath17); fill:none;" y2="56" />
      <line x1="56" x2="106" y1="56" style="clip-path:url(#clipPath17); fill:none;" y2="56" />
      <line x1="106" x2="106" y1="56" style="clip-path:url(#clipPath17); fill:none;" y2="74" />
      <line x1="106" x2="112" y1="74" style="clip-path:url(#clipPath17); fill:none;" y2="62" />
      <line x1="106" x2="100" y1="74" style="clip-path:url(#clipPath17); fill:none;" y2="62" />
    </g>
    <g transform="translate(203,16)" style="font-size:14; stroke-linecap:butt; text-rendering:geometricPrecision; font-family:sans-serif; stroke-linejoin:round;">
      <line x1="56" x2="106" y1="56" style="clip-path:url(#clipPath18); fill:none;" y2="56" />
      <line x1="106" x2="94" y1="56" style="clip-path:url(#clipPath18); fill:none;" y2="50" />
      <line x1="106" x2="94" y1="56" style="clip-path:url(#clipPath18); fill:none;" y2="62" />
    </g>
    <g transform="translate(324,-4)" style="font-size:14; stroke-linecap:butt; text-rendering:geometricPrecision; font-family:sans-serif; stroke-linejoin:round;">
      <line x1="36" x2="36" y1="55" style="clip-path:url(#clipPath19); fill:none;" y2="36" />
      <line x1="36" x2="86" y1="36" style="clip-path:url(#clipPath19); fill:none;" y2="36" />
      <line x1="86" x2="86" y1="36" style="clip-path:url(#clipPath19); fill:none;" y2="76" />
      <line x1="86" x2="66" y1="76" style="clip-path:url(#clipPath19); fill:none;" y2="76" />
      <line x1="66" x2="78" y1="76" style="clip-path:url(#clipPath19); fill:none;" y2="82" />
      <line x1="66" x2="78" y1="76" style="clip-path:url(#clipPath19); fill:none;" y2="70" />
    </g>
    <g transform="translate(294,312)" style="font-size:14; stroke-linecap:butt; text-rendering:geometricPrecision; font-family:sans-serif; stroke-linejoin:round;">
      <line x1="316" x2="316" y1="36" style="clip-path:url(#clipPath20); fill:none;" y2="60" />
      <line x1="316" x2="36" y1="60" style="clip-path:url(#clipPath20); fill:none;" y2="60" />
      <line x1="36" x2="36" y1="60" style="clip-path:url(#clipPath20); fill:none;" y2="79" />
      <line x1="36" x2="42" y1="79" style="clip-path:url(#clipPath20); fill:none;" y2="67" />
      <line x1="36" x2="30" y1="79" style="clip-path:url(#clipPath20); fill:none;" y2="67" />
    </g>
    <g transform="translate(14,369)" style="font-size:14; stroke-linecap:butt; text-rendering:geometricPrecision; font-family:sans-serif; stroke-linejoin:round;">
      <line x1="276" x2="276" y1="36" style="clip-path:url(#clipPath21); fill:none;" y2="52" />
      <line x1="276" x2="36" y1="52" style="clip-path:url(#clipPath21); fill:none;" y2="53" />
      <line x1="36" x2="48" y1="53" style="clip-path:url(#clipPath21); fill:none;" y2="59" />
      <line x1="36" x2="48" y1="53" style="clip-path:url(#clipPath21); fill:none;" y2="47" />
    </g>
    <g transform="translate(4,212)" style="font-size:11; stroke-linecap:butt; text-rendering:geometricPrecision; font-family:sans-serif; stroke-linejoin:round;">
      <line x1="676" x2="676" y1="36" style="clip-path:url(#clipPath22); fill:none;" y2="240" />
      <line x1="676" x2="36" y1="240" style="clip-path:url(#clipPath22); fill:none;" y2="240" />
      <line x1="36" x2="36" y1="240" style="clip-path:url(#clipPath22); fill:none;" y2="219" />
      <line x1="36" x2="30" y1="219" style="clip-path:url(#clipPath22); fill:none;" y2="231" />
      <line x1="36" x2="42" y1="219" style="clip-path:url(#clipPath22); fill:none;" y2="231" />
    </g>
    <g transform="translate(274,312)" style="font-size:11; stroke-linecap:butt; text-rendering:geometricPrecision; font-family:sans-serif; stroke-linejoin:round;">
      <line x1="226" x2="226" y1="36" style="clip-path:url(#clipPath23); fill:none;" y2="50" />
      <line x1="226" x2="36" y1="50" style="clip-path:url(#clipPath23); fill:none;" y2="50" />
      <line x1="36" x2="36" y1="50" style="clip-path:url(#clipPath23); fill:none;" y2="79" />
      <line x1="36" x2="42" y1="79" style="clip-path:url(#clipPath23); fill:none;" y2="67" />
      <line x1="36" x2="30" y1="79" style="clip-path:url(#clipPath23); fill:none;" y2="67" />
    </g>
    <g transform="translate(254,312)" style="font-size:11; stroke-linecap:butt; text-rendering:geometricPrecision; font-family:sans-serif; stroke-linejoin:round;">
      <line x1="156" x2="156" y1="36" style="clip-path:url(#clipPath24); fill:none;" y2="40" />
      <line x1="156" x2="36" y1="40" style="clip-path:url(#clipPath24); fill:none;" y2="40" />
      <line x1="36" x2="36" y1="40" style="clip-path:url(#clipPath24); fill:none;" y2="79" />
      <line x1="36" x2="42" y1="79" style="clip-path:url(#clipPath24); fill:none;" y2="67" />
      <line x1="36" x2="30" y1="79" style="clip-path:url(#clipPath24); fill:none;" y2="67" />
    </g>
    <g transform="translate(234,312)" style="font-size:11; stroke-linecap:butt; text-rendering:geometricPrecision; font-family:sans-serif; stroke-linejoin:round;">
      <line x1="36" x2="36" y1="36" style="clip-path:url(#clipPath25); fill:none;" y2="79" />
      <line x1="36" x2="42" y1="79" style="clip-path:url(#clipPath25); fill:none;" y2="67" />
      <line x1="36" x2="30" y1="79" style="clip-path:url(#clipPath25); fill:none;" y2="67" />
    </g>
    <g transform="translate(174,312)" style="font-size:11; stroke-linecap:butt; text-rendering:geometricPrecision; font-family:sans-serif; stroke-linejoin:round;">
      <line x1="36" x2="36" y1="36" style="clip-path:url(#clipPath25); fill:none;" y2="79" />
      <line x1="36" x2="42" y1="79" style="clip-path:url(#clipPath25); fill:none;" y2="67" />
      <line x1="36" x2="30" y1="79" style="clip-path:url(#clipPath25); fill:none;" y2="67" />
    </g>
    <g transform="translate(74,312)" style="font-size:11; stroke-linecap:butt; text-rendering:geometricPrecision; font-family:sans-serif; stroke-linejoin:round;">
      <line x1="36" x2="36" y1="36" style="clip-path:url(#clipPath26); fill:none;" y2="50" />
      <line x1="36" x2="116" y1="50" style="clip-path:url(#clipPath26); fill:none;" y2="50" />
      <line x1="116" x2="116" y1="50" style="clip-path:url(#clipPath26); fill:none;" y2="79" />
      <line x1="116" x2="122" y1="79" style="clip-path:url(#clipPath26); fill:none;" y2="67" />
      <line x1="116" x2="110" y1="79" style="clip-path:url(#clipPath26); fill:none;" y2="67" />
    </g>
    <g style="text-rendering:geometricPrecision; font-size:14; font-family:sans-serif;" transform="translate(350,2)">
      <text x="10" y="17" style="clip-path:url(#clipPath27); stroke:none;" xml:space="preserve">登入失敗</text>
    </g>
    <g style="text-rendering:geometricPrecision; font-size:14; font-family:sans-serif;" transform="translate(-6,8)">
      <text x="10" y="17" style="clip-path:url(#clipPath27); stroke:none;" xml:space="preserve">註冊失敗</text>
    </g>
    <g style="text-rendering:geometricPrecision; font-size:14; font-family:sans-serif;" transform="translate(274,118)">
      <text x="10" y="17" style="clip-path:url(#clipPath27); stroke:none;" xml:space="preserve">登入成功</text>
    </g>
    <g style="text-rendering:geometricPrecision; font-size:14; font-family:sans-serif;" transform="translate(40,252)">
      <text x="10" y="17" style="clip-path:url(#clipPath27); stroke:none;" xml:space="preserve">送出訂單</text>
    </g>
    <g style="text-rendering:geometricPrecision; font-size:14; font-family:sans-serif;" transform="translate(120,252)">
      <text x="10" y="17" style="clip-path:url(#clipPath28); stroke:none;" xml:space="preserve">編輯商品項</text>
    </g>
    <g style="text-rendering:geometricPrecision; font-size:14; font-family:sans-serif;" transform="translate(100,172)">
      <text x="10" y="17" style="clip-path:url(#clipPath28); stroke:none;" xml:space="preserve">點選購物車</text>
    </g>
    <g style="text-rendering:geometricPrecision; font-size:14; font-family:sans-serif;" transform="translate(413,198)">
      <text x="10" y="17" style="clip-path:url(#clipPath27); stroke:none;" xml:space="preserve">查看訂單</text>
    </g>
    <g style="text-rendering:geometricPrecision; font-size:14; font-family:sans-serif;" transform="translate(410,252)">
      <text x="10" y="17" style="clip-path:url(#clipPath27); stroke:none;" xml:space="preserve">管理展覽</text>
    </g>
    <g style="text-rendering:geometricPrecision; font-size:14; font-family:sans-serif;" transform="translate(270,252)">
      <text x="10" y="17" style="clip-path:url(#clipPath29); stroke:none;" xml:space="preserve">設定個人資料</text>
    </g>
    <g style="text-rendering:geometricPrecision; font-size:14; font-family:sans-serif;" transform="translate(510,262)">
      <text x="10" y="17" style="clip-path:url(#clipPath29); stroke:none;" xml:space="preserve">欲添加商品項</text>
    </g>
    <g style="text-rendering:geometricPrecision; font-size:14; font-family:sans-serif;" transform="translate(214,198)">
      <text x="10" y="17" style="clip-path:url(#clipPath27); stroke:none;" xml:space="preserve">點選會員</text>
    </g>
    <g style="text-rendering:geometricPrecision; font-size:14; font-family:sans-serif;" transform="translate(409,152)">
      <text x="10" y="17" style="clip-path:url(#clipPath27); stroke:none;" xml:space="preserve">點選展覽</text>
    </g>
    <g style="text-rendering:geometricPrecision; font-size:14; font-family:sans-serif;" transform="translate(64,118)">
      <text x="10" y="17" style="clip-path:url(#clipPath27); stroke:none;" xml:space="preserve">註冊成功</text>
    </g>
  </g>
</svg>
