<?xml version="1.0" encoding="UTF-8"?>

<!DOCTYPE svg PUBLIC '-//W3C//DTD SVG 1.0//EN' 'http://www.w3.org/TR/2001/REC-SVG-20010904/DTD/svg10.dtd'>
<svg style="fill-opacity:1; color-rendering:auto; color-interpolation:auto; stroke:black; text-rendering:auto; stroke-linecap:square; stroke-miterlimit:10; stroke-opacity:1; shape-rendering:auto; fill:black; stroke-dasharray:none; font-weight:normal; stroke-width:1; font-family:&apos;Dialog&apos;; font-style:normal; stroke-linejoin:miter; font-size:12; stroke-dashoffset:0; image-rendering:auto;" xmlns="http://www.w3.org/2000/svg" width="976" xmlns:xlink="http://www.w3.org/1999/xlink" height="496">
  <!--Generated by the Batik Graphics2D SVG Generator-->
  <defs id="genericDefs" />
  <g>
    <defs id="defs1">
      <clipPath clipPathUnits="userSpaceOnUse" id="clipPath1">
        <path d="M-3 -3 L257 -3 L257 217 L-3 217 L-3 -3 Z" />
      </clipPath>
      <clipPath clipPathUnits="userSpaceOnUse" id="clipPath2">
        <path d="M0 0 L242 0 L242 46 L0 46 L0 0 Z" />
      </clipPath>
      <clipPath clipPathUnits="userSpaceOnUse" id="clipPath3">
        <path d="M0 0 L0 156 L242 156 L242 0 Z" />
      </clipPath>
      <clipPath clipPathUnits="userSpaceOnUse" id="clipPath4">
        <path d="M-3 -3 L267 -3 L267 217 L-3 217 L-3 -3 Z" />
      </clipPath>
      <clipPath clipPathUnits="userSpaceOnUse" id="clipPath5">
        <path d="M0 0 L252 0 L252 46 L0 46 L0 0 Z" />
      </clipPath>
      <clipPath clipPathUnits="userSpaceOnUse" id="clipPath6">
        <path d="M0 0 L0 156 L252 156 L252 0 Z" />
      </clipPath>
      <clipPath clipPathUnits="userSpaceOnUse" id="clipPath7">
        <path d="M-3 -3 L267 -3 L267 237 L-3 237 L-3 -3 Z" />
      </clipPath>
      <clipPath clipPathUnits="userSpaceOnUse" id="clipPath8">
        <path d="M0 0 L0 176 L252 176 L252 0 Z" />
      </clipPath>
      <clipPath clipPathUnits="userSpaceOnUse" id="clipPath9">
        <path d="M-3 -3 L217 -3 L217 137 L-3 137 L-3 -3 Z" />
      </clipPath>
      <clipPath clipPathUnits="userSpaceOnUse" id="clipPath10">
        <path d="M0 0 L202 0 L202 46 L0 46 L0 0 Z" />
      </clipPath>
      <clipPath clipPathUnits="userSpaceOnUse" id="clipPath11">
        <path d="M0 0 L0 76 L202 76 L202 0 Z" />
      </clipPath>
      <clipPath clipPathUnits="userSpaceOnUse" id="clipPath12">
        <path d="M-3 -3 L217 -3 L217 127 L-3 127 L-3 -3 Z" />
      </clipPath>
      <clipPath clipPathUnits="userSpaceOnUse" id="clipPath13">
        <path d="M0 0 L0 66 L202 66 L202 0 Z" />
      </clipPath>
      <clipPath clipPathUnits="userSpaceOnUse" id="clipPath14">
        <path d="M-3 -3 L117 -3 L117 57 L-3 57 L-3 -3 Z" />
      </clipPath>
      <clipPath clipPathUnits="userSpaceOnUse" id="clipPath15">
        <path d="M-3 -3 L157 -3 L157 57 L-3 57 L-3 -3 Z" />
      </clipPath>
      <clipPath clipPathUnits="userSpaceOnUse" id="clipPath16">
        <path d="M0 0 L136 0 L136 44 L0 44 L0 0 Z" />
      </clipPath>
      <clipPath clipPathUnits="userSpaceOnUse" id="clipPath17">
        <path d="M0 0 L96 0 L96 44 L0 44 L0 0 Z" />
      </clipPath>
      <clipPath clipPathUnits="userSpaceOnUse" id="clipPath18">
        <path d="M0 0 L194 0 L194 104 L0 104 L0 0 Z" />
      </clipPath>
      <clipPath clipPathUnits="userSpaceOnUse" id="clipPath19">
        <path d="M0 0 L104 0 L104 154 L0 154 L0 0 Z" />
      </clipPath>
      <clipPath clipPathUnits="userSpaceOnUse" id="clipPath20">
        <path d="M0 0 L214 0 L214 104 L0 104 L0 0 Z" />
      </clipPath>
      <clipPath clipPathUnits="userSpaceOnUse" id="clipPath21">
        <path d="M0 0 L43 0 L43 21 L0 21 L0 0 Z" />
      </clipPath>
      <clipPath clipPathUnits="userSpaceOnUse" id="clipPath22">
        <path d="M0 0 L67 0 L67 21 L0 21 L0 0 Z" />
      </clipPath>
    </defs>
    <g style="fill:white; text-rendering:geometricPrecision; stroke:white;">
      <rect x="0" y="0" width="976" style="stroke:none;" height="496" />
    </g>
    <g transform="translate(2,2)" style="font-size:14; fill:rgb(122,207,245); text-rendering:geometricPrecision; font-family:sans-serif; stroke:rgb(122,207,245); font-weight:bold;">
      <polygon style="clip-path:url(#clipPath1); stroke:none;" points=" 8 0 249 0 241 8 0 8" />
      <polygon style="clip-path:url(#clipPath1); stroke:none;" points=" 249 0 249 201 241 209 241 8" />
      <rect x="0" y="8" width="241" style="clip-path:url(#clipPath1); stroke:none;" height="201" />
    </g>
    <g transform="translate(2,2)" style="font-size:14; stroke-linecap:butt; text-rendering:geometricPrecision; font-family:sans-serif; stroke-linejoin:round; font-weight:bold; stroke-miterlimit:0;">
      <polygon style="fill:none; clip-path:url(#clipPath1);" points=" 8 0 249 0 241 8 0 8" />
      <polygon style="fill:none; clip-path:url(#clipPath1);" points=" 249 0 249 201 241 209 241 8" />
      <rect x="0" y="8" width="241" style="clip-path:url(#clipPath1); fill:none;" height="201" />
    </g>
    <g transform="translate(2,10)" style="text-rendering:geometricPrecision; font-size:14; font-weight:bold; font-family:sans-serif;">
      <text x="82" y="21" style="clip-path:url(#clipPath2); stroke:none;" xml:space="preserve">&lt;&lt;device&gt;&gt;</text>
      <text x="110" y="42" style="clip-path:url(#clipPath2); stroke:none;" xml:space="preserve">PC</text>
    </g>
    <g transform="translate(342,2)" style="font-size:14; fill:rgb(122,207,245); text-rendering:geometricPrecision; font-family:sans-serif; stroke:rgb(122,207,245); font-weight:bold;">
      <polygon style="clip-path:url(#clipPath4); stroke:none;" points=" 8 0 259 0 251 8 0 8" />
      <polygon style="clip-path:url(#clipPath4); stroke:none;" points=" 259 0 259 201 251 209 251 8" />
      <rect x="0" y="8" width="251" style="clip-path:url(#clipPath4); stroke:none;" height="201" />
    </g>
    <g transform="translate(342,2)" style="font-size:14; stroke-linecap:butt; text-rendering:geometricPrecision; font-family:sans-serif; stroke-linejoin:round; font-weight:bold; stroke-miterlimit:0;">
      <polygon style="fill:none; clip-path:url(#clipPath4);" points=" 8 0 259 0 251 8 0 8" />
      <polygon style="fill:none; clip-path:url(#clipPath4);" points=" 259 0 259 201 251 209 251 8" />
      <rect x="0" y="8" width="251" style="clip-path:url(#clipPath4); fill:none;" height="201" />
    </g>
    <g transform="translate(342,10)" style="text-rendering:geometricPrecision; font-size:14; font-weight:bold; font-family:sans-serif;">
      <text x="87" y="21" style="clip-path:url(#clipPath5); stroke:none;" xml:space="preserve">&lt;&lt;device&gt;&gt;</text>
      <text x="88" y="42" style="clip-path:url(#clipPath5); stroke:none;" xml:space="preserve">web server</text>
    </g>
    <g transform="translate(342,262)" style="font-size:14; fill:rgb(122,207,245); text-rendering:geometricPrecision; font-family:sans-serif; stroke:rgb(122,207,245); font-weight:bold;">
      <polygon style="clip-path:url(#clipPath7); stroke:none;" points=" 8 0 259 0 251 8 0 8" />
      <polygon style="clip-path:url(#clipPath7); stroke:none;" points=" 259 0 259 221 251 229 251 8" />
      <rect x="0" y="8" width="251" style="clip-path:url(#clipPath7); stroke:none;" height="221" />
    </g>
    <g transform="translate(342,262)" style="font-size:14; stroke-linecap:butt; text-rendering:geometricPrecision; font-family:sans-serif; stroke-linejoin:round; font-weight:bold; stroke-miterlimit:0;">
      <polygon style="fill:none; clip-path:url(#clipPath7);" points=" 8 0 259 0 251 8 0 8" />
      <polygon style="fill:none; clip-path:url(#clipPath7);" points=" 259 0 259 221 251 229 251 8" />
      <rect x="0" y="8" width="251" style="clip-path:url(#clipPath7); fill:none;" height="221" />
    </g>
    <g transform="translate(342,270)" style="text-rendering:geometricPrecision; font-size:14; font-weight:bold; font-family:sans-serif;">
      <text x="87" y="21" style="clip-path:url(#clipPath5); stroke:none;" xml:space="preserve">&lt;&lt;device&gt;&gt;</text>
      <text x="95" y="42" style="clip-path:url(#clipPath5); stroke:none;" xml:space="preserve">DB sever</text>
    </g>
    <g transform="translate(712,2)" style="font-size:14; fill:rgb(122,207,245); text-rendering:geometricPrecision; font-family:sans-serif; stroke:rgb(122,207,245); font-weight:bold;">
      <polygon style="clip-path:url(#clipPath4); stroke:none;" points=" 8 0 259 0 251 8 0 8" />
      <polygon style="clip-path:url(#clipPath4); stroke:none;" points=" 259 0 259 201 251 209 251 8" />
      <rect x="0" y="8" width="251" style="clip-path:url(#clipPath4); stroke:none;" height="201" />
    </g>
    <g transform="translate(712,2)" style="font-size:14; stroke-linecap:butt; text-rendering:geometricPrecision; font-family:sans-serif; stroke-linejoin:round; font-weight:bold; stroke-miterlimit:0;">
      <polygon style="fill:none; clip-path:url(#clipPath4);" points=" 8 0 259 0 251 8 0 8" />
      <polygon style="fill:none; clip-path:url(#clipPath4);" points=" 259 0 259 201 251 209 251 8" />
      <rect x="0" y="8" width="251" style="clip-path:url(#clipPath4); fill:none;" height="201" />
    </g>
    <g transform="translate(712,10)" style="text-rendering:geometricPrecision; font-size:14; font-weight:bold; font-family:sans-serif;">
      <text x="87" y="21" style="clip-path:url(#clipPath5); stroke:none;" xml:space="preserve">&lt;&lt;device&gt;&gt;</text>
      <text x="104" y="42" style="clip-path:url(#clipPath5); stroke:none;" xml:space="preserve">Phone</text>
    </g>
    <g transform="translate(22,72)" style="font-size:14; fill:rgb(122,207,245); text-rendering:geometricPrecision; font-family:sans-serif; stroke:rgb(122,207,245); font-weight:bold;">
      <polygon style="clip-path:url(#clipPath9); stroke:none;" points=" 8 0 209 0 201 8 0 8" />
      <polygon style="clip-path:url(#clipPath9); stroke:none;" points=" 209 0 209 121 201 129 201 8" />
      <rect x="0" y="8" width="201" style="clip-path:url(#clipPath9); stroke:none;" height="121" />
    </g>
    <g transform="translate(22,72)" style="font-size:14; stroke-linecap:butt; text-rendering:geometricPrecision; font-family:sans-serif; stroke-linejoin:round; font-weight:bold; stroke-miterlimit:0;">
      <polygon style="fill:none; clip-path:url(#clipPath9);" points=" 8 0 209 0 201 8 0 8" />
      <polygon style="fill:none; clip-path:url(#clipPath9);" points=" 209 0 209 121 201 129 201 8" />
      <rect x="0" y="8" width="201" style="clip-path:url(#clipPath9); fill:none;" height="121" />
    </g>
    <g transform="translate(22,80)" style="text-rendering:geometricPrecision; font-size:14; font-weight:bold; font-family:sans-serif;">
      <text x="9" y="21" style="clip-path:url(#clipPath10); stroke:none;" xml:space="preserve">&lt;&lt;executionEnvironment&gt;&gt;</text>
      <text x="76" y="42" style="clip-path:url(#clipPath10); stroke:none;" xml:space="preserve">Google</text>
    </g>
    <g transform="translate(362,72)" style="font-size:14; fill:rgb(122,207,245); text-rendering:geometricPrecision; font-family:sans-serif; stroke:rgb(122,207,245); font-weight:bold;">
      <polygon style="clip-path:url(#clipPath9); stroke:none;" points=" 8 0 209 0 201 8 0 8" />
      <polygon style="clip-path:url(#clipPath9); stroke:none;" points=" 209 0 209 121 201 129 201 8" />
      <rect x="0" y="8" width="201" style="clip-path:url(#clipPath9); stroke:none;" height="121" />
    </g>
    <g transform="translate(362,72)" style="font-size:14; stroke-linecap:butt; text-rendering:geometricPrecision; font-family:sans-serif; stroke-linejoin:round; font-weight:bold; stroke-miterlimit:0;">
      <polygon style="fill:none; clip-path:url(#clipPath9);" points=" 8 0 209 0 201 8 0 8" />
      <polygon style="fill:none; clip-path:url(#clipPath9);" points=" 209 0 209 121 201 129 201 8" />
      <rect x="0" y="8" width="201" style="clip-path:url(#clipPath9); fill:none;" height="121" />
    </g>
    <g transform="translate(362,80)" style="text-rendering:geometricPrecision; font-size:14; font-weight:bold; font-family:sans-serif;">
      <text x="9" y="21" style="clip-path:url(#clipPath10); stroke:none;" xml:space="preserve">&lt;&lt;executionEnvironment&gt;&gt;</text>
      <text x="75" y="42" style="clip-path:url(#clipPath10); stroke:none;" xml:space="preserve">node.js</text>
    </g>
    <g transform="translate(362,342)" style="font-size:14; fill:rgb(122,207,245); text-rendering:geometricPrecision; font-family:sans-serif; stroke:rgb(122,207,245); font-weight:bold;">
      <polygon style="clip-path:url(#clipPath9); stroke:none;" points=" 8 0 209 0 201 8 0 8" />
      <polygon style="clip-path:url(#clipPath9); stroke:none;" points=" 209 0 209 121 201 129 201 8" />
      <rect x="0" y="8" width="201" style="clip-path:url(#clipPath9); stroke:none;" height="121" />
    </g>
    <g transform="translate(362,342)" style="font-size:14; stroke-linecap:butt; text-rendering:geometricPrecision; font-family:sans-serif; stroke-linejoin:round; font-weight:bold; stroke-miterlimit:0;">
      <polygon style="fill:none; clip-path:url(#clipPath9);" points=" 8 0 209 0 201 8 0 8" />
      <polygon style="fill:none; clip-path:url(#clipPath9);" points=" 249 0 249 201 241 209 241 8" />
      <rect x="0" y="8" width="241" style="clip-path:url(#clipPath9); fill:none;" height="201" />
    </g>
    <g transform="translate(362,350)" style="text-rendering:geometricPrecision; font-size:14; font-weight:bold; font-family:sans-serif;">
      <text x="9" y="21" style="clip-path:url(#clipPath10); stroke:none;" xml:space="preserve">&lt;&lt;executionEnvironment&gt;&gt;</text>
      <text x="76" y="42" style="clip-path:url(#clipPath10); stroke:none;" xml:space="preserve">MySQL</text>
    </g>
    <g transform="translate(732,72)" style="font-size:14; fill:rgb(122,207,245); text-rendering:geometricPrecision; font-family:sans-serif; stroke:rgb(122,207,245); font-weight:bold;">
      <polygon style="clip-path:url(#clipPath12); stroke:none;" points=" 8 0 209 0 201 8 0 8" />
      <polygon style="clip-path:url(#clipPath12); stroke:none;" points=" 209 0 209 111 201 119 201 8" />
      <rect x="0" y="8" width="201" style="clip-path:url(#clipPath12); stroke:none;" height="111" />
    </g>
    <g transform="translate(732,72)" style="font-size:14; stroke-linecap:butt; text-rendering:geometricPrecision; font-family:sans-serif; stroke-linejoin:round; font-weight:bold; stroke-miterlimit:0;">
      <polygon style="fill:none; clip-path:url(#clipPath12);" points=" 8 0 249 0 241 8 0 8" />
      <polygon style="fill:none; clip-path:url(#clipPath12);" points=" 249 0 249 201 241 209 241 8" />
      <rect x="0" y="8" width="241" style="clip-path:url(#clipPath12); fill:none;" height="201" />
    </g>
    <g transform="translate(732,80)" style="text-rendering:geometricPrecision; font-size:14; font-weight:bold; font-family:sans-serif;">
      <text x="9" y="21" style="clip-path:url(#clipPath10); stroke:none;" xml:space="preserve">&lt;&lt;executionEnvironment&gt;&gt;</text>
      <text x="74" y="42" style="clip-path:url(#clipPath10); stroke:none;" xml:space="preserve">Android</text>
    </g>
    <g transform="translate(62,132)" style="font-size:14; fill:rgb(122,207,245); text-rendering:geometricPrecision; font-family:sans-serif; stroke:rgb(122,207,245); font-weight:bold;">
      <rect x="0" y="0" width="110" style="clip-path:url(#clipPath14); stroke:none;" height="50" />
    </g>
    <g transform="translate(62,132)" style="font-size:14; stroke-linecap:butt; text-rendering:geometricPrecision; font-family:sans-serif; stroke-linejoin:round; font-weight:bold; stroke-miterlimit:0;">
      <rect x="0" y="0" width="110" style="clip-path:url(#clipPath14); fill:none;" height="50" />
      <line x1="94" x2="100" y1="5" style="stroke-linecap:square; clip-path:url(#clipPath14); fill:none; stroke-linejoin:miter; stroke-miterlimit:10;" y2="5" />
      <line x1="100" x2="104" y1="5" style="stroke-linecap:square; clip-path:url(#clipPath14); fill:none; stroke-linejoin:miter; stroke-miterlimit:10;" y2="9" />
      <line x1="104" x2="104" y1="9" style="stroke-linecap:square; clip-path:url(#clipPath14); fill:none; stroke-linejoin:miter; stroke-miterlimit:10;" y2="17" />
      <line x1="104" x2="94" y1="17" style="stroke-linecap:square; clip-path:url(#clipPath14); fill:none; stroke-linejoin:miter; stroke-miterlimit:10;" y2="17" />
      <line x1="94" x2="94" y1="17" style="stroke-linecap:square; clip-path:url(#clipPath14); fill:none; stroke-linejoin:miter; stroke-miterlimit:10;" y2="5" />
      <line x1="100" x2="100" y1="5" style="stroke-linecap:square; clip-path:url(#clipPath14); fill:none; stroke-linejoin:miter; stroke-miterlimit:10;" y2="9" />
      <line x1="100" x2="104" y1="9" style="stroke-linecap:square; clip-path:url(#clipPath14); fill:none; stroke-linejoin:miter; stroke-miterlimit:10;" y2="9" />
    </g>
    <g transform="translate(412,132)" style="font-size:14; fill:rgb(122,207,245); text-rendering:geometricPrecision; font-family:sans-serif; stroke:rgb(122,207,245); font-weight:bold;">
      <rect x="0" y="0" width="110" style="clip-path:url(#clipPath14); stroke:none;" height="50" />
    </g>
    <g transform="translate(412,132)" style="font-size:14; stroke-linecap:butt; text-rendering:geometricPrecision; font-family:sans-serif; stroke-linejoin:round; font-weight:bold; stroke-miterlimit:0;">
      <rect x="0" y="0" width="110" style="clip-path:url(#clipPath14); fill:none;" height="50" />
      <line x1="94" x2="100" y1="5" style="stroke-linecap:square; clip-path:url(#clipPath14); fill:none; stroke-linejoin:miter; stroke-miterlimit:10;" y2="5" />
      <line x1="100" x2="104" y1="5" style="stroke-linecap:square; clip-path:url(#clipPath14); fill:none; stroke-linejoin:miter; stroke-miterlimit:10;" y2="9" />
      <line x1="104" x2="104" y1="9" style="stroke-linecap:square; clip-path:url(#clipPath14); fill:none; stroke-linejoin:miter; stroke-miterlimit:10;" y2="17" />
      <line x1="104" x2="94" y1="17" style="stroke-linecap:square; clip-path:url(#clipPath14); fill:none; stroke-linejoin:miter; stroke-miterlimit:10;" y2="17" />
      <line x1="94" x2="94" y1="17" style="stroke-linecap:square; clip-path:url(#clipPath14); fill:none; stroke-linejoin:miter; stroke-miterlimit:10;" y2="5" />
      <line x1="100" x2="100" y1="5" style="stroke-linecap:square; clip-path:url(#clipPath14); fill:none; stroke-linejoin:miter; stroke-miterlimit:10;" y2="9" />
      <line x1="100" x2="104" y1="9" style="stroke-linecap:square; clip-path:url(#clipPath14); fill:none; stroke-linejoin:miter; stroke-miterlimit:10;" y2="9" />
    </g>
    <g transform="translate(412,402)" style="font-size:14; fill:rgb(122,207,245); text-rendering:geometricPrecision; font-family:sans-serif; stroke:rgb(122,207,245); font-weight:bold;">
      <rect x="0" y="0" width="110" style="clip-path:url(#clipPath14); stroke:none;" height="50" />
    </g>
    <g transform="translate(412,402)" style="font-size:14; stroke-linecap:butt; text-rendering:geometricPrecision; font-family:sans-serif; stroke-linejoin:round; font-weight:bold; stroke-miterlimit:0;">
      <rect x="0" y="0" width="110" style="clip-path:url(#clipPath14); fill:none;" height="50" />
      <line x1="94" x2="100" y1="5" style="stroke-linecap:square; clip-path:url(#clipPath14); fill:none; stroke-linejoin:miter; stroke-miterlimit:10;" y2="5" />
      <line x1="100" x2="104" y1="5" style="stroke-linecap:square; clip-path:url(#clipPath14); fill:none; stroke-linejoin:miter; stroke-miterlimit:10;" y2="9" />
      <line x1="104" x2="104" y1="9" style="stroke-linecap:square; clip-path:url(#clipPath14); fill:none; stroke-linejoin:miter; stroke-miterlimit:10;" y2="17" />
      <line x1="104" x2="94" y1="17" style="stroke-linecap:square; clip-path:url(#clipPath14); fill:none; stroke-linejoin:miter; stroke-miterlimit:10;" y2="17" />
      <line x1="94" x2="94" y1="17" style="stroke-linecap:square; clip-path:url(#clipPath14); fill:none; stroke-linejoin:miter; stroke-miterlimit:10;" y2="5" />
      <line x1="100" x2="100" y1="5" style="stroke-linecap:square; clip-path:url(#clipPath14); fill:none; stroke-linejoin:miter; stroke-miterlimit:10;" y2="9" />
      <line x1="100" x2="104" y1="9" style="stroke-linecap:square; clip-path:url(#clipPath14); fill:none; stroke-linejoin:miter; stroke-miterlimit:10;" y2="9" />
    </g>
    <g transform="translate(762,132)" style="font-size:14; fill:rgb(122,207,245); text-rendering:geometricPrecision; font-family:sans-serif; stroke:rgb(122,207,245); font-weight:bold;">
      <rect x="0" y="0" width="150" style="clip-path:url(#clipPath15); stroke:none;" height="50" />
    </g>
    <g transform="translate(762,132)" style="font-size:14; stroke-linecap:butt; text-rendering:geometricPrecision; font-family:sans-serif; stroke-linejoin:round; font-weight:bold; stroke-miterlimit:0;">
      <rect x="0" y="0" width="150" style="clip-path:url(#clipPath15); fill:none;" height="50" />
      <line x1="134" x2="140" y1="5" style="stroke-linecap:square; clip-path:url(#clipPath15); fill:none; stroke-linejoin:miter; stroke-miterlimit:10;" y2="5" />
      <line x1="140" x2="144" y1="5" style="stroke-linecap:square; clip-path:url(#clipPath15); fill:none; stroke-linejoin:miter; stroke-miterlimit:10;" y2="9" />
      <line x1="144" x2="144" y1="9" style="stroke-linecap:square; clip-path:url(#clipPath15); fill:none; stroke-linejoin:miter; stroke-miterlimit:10;" y2="17" />
      <line x1="144" x2="134" y1="17" style="stroke-linecap:square; clip-path:url(#clipPath15); fill:none; stroke-linejoin:miter; stroke-miterlimit:10;" y2="17" />
      <line x1="134" x2="134" y1="17" style="stroke-linecap:square; clip-path:url(#clipPath15); fill:none; stroke-linejoin:miter; stroke-miterlimit:10;" y2="5" />
      <line x1="140" x2="140" y1="5" style="stroke-linecap:square; clip-path:url(#clipPath15); fill:none; stroke-linejoin:miter; stroke-miterlimit:10;" y2="9" />
      <line x1="140" x2="144" y1="9" style="stroke-linecap:square; clip-path:url(#clipPath15); fill:none; stroke-linejoin:miter; stroke-miterlimit:10;" y2="9" />
    </g>
    <g style="text-rendering:geometricPrecision; font-size:14; font-family:sans-serif;" transform="translate(762,132)">
      <text x="30" y="21" style="clip-path:url(#clipPath16); stroke:none;" xml:space="preserve">&lt;&lt;artifact&gt;&gt;</text>
      <text x="8" y="42" style="clip-path:url(#clipPath16); stroke:none; font-weight:bold;" xml:space="preserve">activity_login.xml</text>
    </g>
    <g style="text-rendering:geometricPrecision; font-size:14; font-family:sans-serif;" transform="translate(412,402)">
      <text x="10" y="21" style="clip-path:url(#clipPath17); stroke:none;" xml:space="preserve">&lt;&lt;artifact&gt;&gt;</text>
      <text x="10" y="42" style="clip-path:url(#clipPath17); stroke:none; font-weight:bold;" xml:space="preserve">DBSchema</text>
    </g>
    <g style="text-rendering:geometricPrecision; font-size:14; font-family:sans-serif;" transform="translate(412,132)">
      <text x="10" y="21" style="clip-path:url(#clipPath17); stroke:none;" xml:space="preserve">&lt;&lt;artifact&gt;&gt;</text>
      <text x="23" y="42" style="clip-path:url(#clipPath17); stroke:none; font-weight:bold;" xml:space="preserve">login.js</text>
    </g>
    <g style="text-rendering:geometricPrecision; font-size:14; font-family:sans-serif;" transform="translate(62,132)">
      <text x="10" y="21" style="clip-path:url(#clipPath17); stroke:none;" xml:space="preserve">&lt;&lt;artifact&gt;&gt;</text>
      <text x="19" y="42" style="clip-path:url(#clipPath17); stroke:none; font-weight:bold;" xml:space="preserve">login.ejs</text>
    </g>
    <g transform="translate(201,22)" style="font-size:14; stroke-linecap:butt; text-rendering:geometricPrecision; font-family:sans-serif; stroke-linejoin:round;">
      <line x1="50" x2="140" y1="50" style="clip-path:url(#clipPath18); fill:none;" y2="50" />
    </g>
    <g transform="translate(402,161)" style="font-size:14; stroke-linecap:butt; text-rendering:geometricPrecision; font-family:sans-serif; stroke-linejoin:round;">
      <line x1="50" x2="50" y1="50" style="clip-path:url(#clipPath19); fill:none;" y2="100" />
    </g>
    <g transform="translate(551,22)" style="font-size:14; stroke-linecap:butt; text-rendering:geometricPrecision; font-family:sans-serif; stroke-linejoin:round;">
      <line x1="160" x2="50" y1="50" style="clip-path:url(#clipPath20); fill:none;" y2="50" />
    </g>
    <g style="text-rendering:geometricPrecision; font-size:14; font-family:sans-serif;" transform="translate(631,77)">
      <text x="9" y="17" style="clip-path:url(#clipPath21); stroke:none;" xml:space="preserve">http</text>
    </g>
    <g style="text-rendering:geometricPrecision; font-size:14; font-family:sans-serif;" transform="translate(462,222)">
      <text x="9" y="17" style="clip-path:url(#clipPath22); stroke:none;" xml:space="preserve">internet</text>
    </g>
    <g style="text-rendering:geometricPrecision; font-size:14; font-family:sans-serif;" transform="translate(278,70)">
      <text x="9" y="17" style="clip-path:url(#clipPath21); stroke:none;" xml:space="preserve">http</text>
    </g>
  </g>
</svg>
