<?xml version="1.0" encoding="UTF-8"?>

<!DOCTYPE svg PUBLIC '-//W3C//DTD SVG 1.0//EN' 'http://www.w3.org/TR/2001/REC-SVG-20010904/DTD/svg10.dtd'>
<svg style="fill-opacity:1; color-rendering:auto; color-interpolation:auto; stroke:black; text-rendering:auto; stroke-linecap:square; stroke-miterlimit:10; stroke-opacity:1; shape-rendering:auto; fill:black; stroke-dasharray:none; font-weight:normal; stroke-width:1; font-family:&apos;Dialog&apos;; font-style:normal; stroke-linejoin:miter; font-size:12; stroke-dashoffset:0; image-rendering:auto;" xmlns="http://www.w3.org/2000/svg" width="828" xmlns:xlink="http://www.w3.org/1999/xlink" height="359">
  <!--Generated by the Batik Graphics2D SVG Generator-->
  <defs id="genericDefs" />
  <g>
    <defs id="defs1">
      <clipPath clipPathUnits="userSpaceOnUse" id="clipPath1">
        <path d="M-3 -3 L827 -3 L827 363 L-3 363 L-3 -3 Z" />
      </clipPath>
      <clipPath clipPathUnits="userSpaceOnUse" id="clipPath2">
        <path d="M0 0 L0 341 L7 341 L7 0 Z" />
      </clipPath>
      <clipPath clipPathUnits="userSpaceOnUse" id="clipPath3">
        <path d="M-3 -3 L293 -3 L293 29 L-3 29 L-3 -3 Z" />
      </clipPath>
      <clipPath clipPathUnits="userSpaceOnUse" id="clipPath4">
        <path d="M0 0 L286 0 L286 21 L0 21 L0 0 Z" />
      </clipPath>
      <clipPath clipPathUnits="userSpaceOnUse" id="clipPath5">
        <path d="M-3 -3 L293 -3 L293 341 L-3 341 L-3 -3 Z" />
      </clipPath>
      <clipPath clipPathUnits="userSpaceOnUse" id="clipPath6">
        <path d="M-3 -3 L361 -3 L361 29 L-3 29 L-3 -3 Z" />
      </clipPath>
      <clipPath clipPathUnits="userSpaceOnUse" id="clipPath7">
        <path d="M0 0 L354 0 L354 21 L0 21 L0 0 Z" />
      </clipPath>
      <clipPath clipPathUnits="userSpaceOnUse" id="clipPath8">
        <path d="M-3 -3 L361 -3 L361 341 L-3 341 L-3 -3 Z" />
      </clipPath>
      <clipPath clipPathUnits="userSpaceOnUse" id="clipPath9">
        <path d="M-3 -3 L191 -3 L191 29 L-3 29 L-3 -3 Z" />
      </clipPath>
      <clipPath clipPathUnits="userSpaceOnUse" id="clipPath10">
        <path d="M0 0 L184 0 L184 21 L0 21 L0 0 Z" />
      </clipPath>
      <clipPath clipPathUnits="userSpaceOnUse" id="clipPath11">
        <path d="M-3 -3 L191 -3 L191 341 L-3 341 L-3 -3 Z" />
      </clipPath>
      <clipPath clipPathUnits="userSpaceOnUse" id="clipPath12">
        <path d="M-3 -3 L97 -3 L97 47 L-3 47 L-3 -3 Z" />
      </clipPath>
      <clipPath clipPathUnits="userSpaceOnUse" id="clipPath13">
        <path d="M0 0 L90 0 L90 40 L0 40 L0 0 Z" />
      </clipPath>
      <clipPath clipPathUnits="userSpaceOnUse" id="clipPath14">
        <path d="M-3 -3 L19 -3 L19 67 L-3 67 L-3 -3 Z" />
      </clipPath>
      <clipPath clipPathUnits="userSpaceOnUse" id="clipPath15">
        <path d="M-3 -3 L97 -3 L97 57 L-3 57 L-3 -3 Z" />
      </clipPath>
      <clipPath clipPathUnits="userSpaceOnUse" id="clipPath16">
        <path d="M0 0 L90 0 L90 50 L0 50 L0 0 Z" />
      </clipPath>
      <clipPath clipPathUnits="userSpaceOnUse" id="clipPath17">
        <path d="M-3 -3 L137 -3 L137 57 L-3 57 L-3 -3 Z" />
      </clipPath>
      <clipPath clipPathUnits="userSpaceOnUse" id="clipPath18">
        <path d="M0 0 L130 0 L130 50 L0 50 L0 0 Z" />
      </clipPath>
      <clipPath clipPathUnits="userSpaceOnUse" id="clipPath19">
        <path d="M-3 -3 L47 -3 L47 27 L-3 27 L-3 -3 Z" />
      </clipPath>
      <clipPath clipPathUnits="userSpaceOnUse" id="clipPath20">
        <path d="M-3 -3 L27 -3 L27 27 L-3 27 L-3 -3 Z" />
      </clipPath>
      <clipPath clipPathUnits="userSpaceOnUse" id="clipPath21">
        <path d="M-3 -3 L147 -3 L147 57 L-3 57 L-3 -3 Z" />
      </clipPath>
      <clipPath clipPathUnits="userSpaceOnUse" id="clipPath22">
        <path d="M0 0 L140 0 L140 50 L0 50 L0 0 Z" />
      </clipPath>
      <clipPath clipPathUnits="userSpaceOnUse" id="clipPath23">
        <path d="M-3 -3 L127 -3 L127 67 L-3 67 L-3 -3 Z" />
      </clipPath>
      <clipPath clipPathUnits="userSpaceOnUse" id="clipPath24">
        <path d="M0 0 L120 0 L120 60 L0 60 L0 0 Z" />
      </clipPath>
      <clipPath clipPathUnits="userSpaceOnUse" id="clipPath25">
        <path d="M-3 -3 L137 -3 L137 67 L-3 67 L-3 -3 Z" />
      </clipPath>
      <clipPath clipPathUnits="userSpaceOnUse" id="clipPath26">
        <path d="M0 0 L130 0 L130 60 L0 60 L0 0 Z" />
      </clipPath>
      <clipPath clipPathUnits="userSpaceOnUse" id="clipPath27">
        <path d="M-3 -3 L27 -3 L27 47 L-3 47 L-3 -3 Z" />
      </clipPath>
      <clipPath clipPathUnits="userSpaceOnUse" id="clipPath28">
        <path d="M-3 -3 L97 -3 L97 67 L-3 67 L-3 -3 Z" />
      </clipPath>
      <clipPath clipPathUnits="userSpaceOnUse" id="clipPath29">
        <path d="M0 0 L90 0 L90 60 L0 60 L0 0 Z" />
      </clipPath>
      <clipPath clipPathUnits="userSpaceOnUse" id="clipPath30">
        <path d="M0 0 L184 0 L184 334 L0 334 L0 0 Z" />
      </clipPath>
      <clipPath clipPathUnits="userSpaceOnUse" id="clipPath31">
        <path d="M0 0 L354 0 L354 334 L0 334 L0 0 Z" />
      </clipPath>
      <clipPath clipPathUnits="userSpaceOnUse" id="clipPath32">
        <path d="M0 0 L286 0 L286 334 L0 334 L0 0 Z" />
      </clipPath>
      <clipPath clipPathUnits="userSpaceOnUse" id="clipPath33">
        <path d="M0 0 L148 0 L148 87 L0 87 L0 0 Z" />
      </clipPath>
      <clipPath clipPathUnits="userSpaceOnUse" id="clipPath34">
        <path d="M0 0 L167 0 L167 137 L0 137 L0 0 Z" />
      </clipPath>
      <clipPath clipPathUnits="userSpaceOnUse" id="clipPath35">
        <path d="M0 0 L227 0 L227 87 L0 87 L0 0 Z" />
      </clipPath>
      <clipPath clipPathUnits="userSpaceOnUse" id="clipPath36">
        <path d="M0 0 L257 0 L257 177 L0 177 L0 0 Z" />
      </clipPath>
      <clipPath clipPathUnits="userSpaceOnUse" id="clipPath37">
        <path d="M0 0 L246 0 L246 87 L0 87 L0 0 Z" />
      </clipPath>
      <clipPath clipPathUnits="userSpaceOnUse" id="clipPath38">
        <path d="M0 0 L87 0 L87 149 L0 149 L0 0 Z" />
      </clipPath>
      <clipPath clipPathUnits="userSpaceOnUse" id="clipPath39">
        <path d="M0 0 L132 0 L132 87 L0 87 L0 0 Z" />
      </clipPath>
      <clipPath clipPathUnits="userSpaceOnUse" id="clipPath40">
        <path d="M0 0 L141 0 L141 87 L0 87 L0 0 Z" />
      </clipPath>
      <clipPath clipPathUnits="userSpaceOnUse" id="clipPath41">
        <path d="M0 0 L368 0 L368 147 L0 147 L0 0 Z" />
      </clipPath>
      <clipPath clipPathUnits="userSpaceOnUse" id="clipPath42">
        <path d="M0 0 L126 0 L126 87 L0 87 L0 0 Z" />
      </clipPath>
      <clipPath clipPathUnits="userSpaceOnUse" id="clipPath43">
        <path d="M0 0 L167 0 L167 157 L0 157 L0 0 Z" />
      </clipPath>
      <clipPath clipPathUnits="userSpaceOnUse" id="clipPath44">
        <path d="M0 0 L161 0 L161 87 L0 87 L0 0 Z" />
      </clipPath>
      <clipPath clipPathUnits="userSpaceOnUse" id="clipPath45">
        <path d="M0 0 L147 0 L147 87 L0 87 L0 0 Z" />
      </clipPath>
    </defs>
    <g style="fill:white; text-rendering:geometricPrecision; stroke:white;">
      <rect x="0" y="0" width="828" style="stroke:none;" height="359" />
    </g>
    <g style="text-rendering:geometricPrecision; stroke-width:2; font-size:14; font-family:sans-serif;">
      <rect x="0" y="0" width="286" style="clip-path:url(#clipPath3); fill:none;" height="22" />
    </g>
    <g style="text-rendering:geometricPrecision; font-size:14; font-family:sans-serif;">
      <text x="129" y="17" style="clip-path:url(#clipPath4); stroke:none;" xml:space="preserve">會員</text>
    </g>
    <g transform="translate(0,22)" style="text-rendering:geometricPrecision; stroke-width:2; font-size:14; font-family:sans-serif;">
      <rect x="0" y="0" width="286" style="clip-path:url(#clipPath5); fill:none;" height="334" />
    </g>
    <g transform="translate(286,0)" style="text-rendering:geometricPrecision; stroke-width:2; font-size:14; font-family:sans-serif;">
      <rect x="0" y="0" width="354" style="clip-path:url(#clipPath6); fill:none;" height="22" />
    </g>
    <g style="text-rendering:geometricPrecision; font-size:14; font-family:sans-serif;" transform="translate(286,0)">
      <text x="163" y="17" style="clip-path:url(#clipPath7); stroke:none;" xml:space="preserve">系統</text>
    </g>
    <g transform="translate(286,22)" style="text-rendering:geometricPrecision; stroke-width:2; font-size:14; font-family:sans-serif;">
      <rect x="0" y="0" width="354" style="clip-path:url(#clipPath8); fill:none;" height="334" />
    </g>
    <g transform="translate(640,0)" style="text-rendering:geometricPrecision; stroke-width:2; font-size:14; font-family:sans-serif;">
      <rect x="0" y="0" width="184" style="clip-path:url(#clipPath9); fill:none;" height="22" />
    </g>
    <g style="text-rendering:geometricPrecision; font-size:14; font-family:sans-serif;" transform="translate(640,0)">
      <text x="71" y="17" style="clip-path:url(#clipPath10); stroke:none;" xml:space="preserve">資料庫</text>
    </g>
    <g transform="translate(640,22)" style="text-rendering:geometricPrecision; stroke-width:2; font-size:14; font-family:sans-serif;">
      <rect x="0" y="0" width="184" style="clip-path:url(#clipPath11); fill:none;" height="334" />
    </g>
    <g transform="translate(700,46)" style="font-size:14; fill:rgb(122,207,245); text-rendering:geometricPrecision; font-family:sans-serif; stroke:rgb(122,207,245);">
      <rect x="0" y="0" width="90" style="clip-path:url(#clipPath12); stroke:none;" height="40" />
    </g>
    <g transform="translate(700,46)" style="font-size:14; stroke-linecap:butt; text-rendering:geometricPrecision; font-family:sans-serif; stroke-linejoin:round; stroke-miterlimit:0;">
      <rect x="0" y="0" width="90" style="clip-path:url(#clipPath12); fill:none;" height="40" />
    </g>
    <g style="text-rendering:geometricPrecision; font-size:14; font-family:sans-serif;" transform="translate(700,46)">
      <text x="10" y="26" style="clip-path:url(#clipPath13); stroke:none;" xml:space="preserve">會員資料表</text>
    </g>
    <g style="text-rendering:geometricPrecision; font-size:14; font-family:sans-serif;" transform="translate(60,100)">
      <rect x="0" y="0" width="12" style="clip-path:url(#clipPath14); stroke:none;" height="60" />
      <rect x="0" y="0" width="12" style="stroke-linecap:butt; clip-path:url(#clipPath14); fill:none; stroke-linejoin:round; stroke-miterlimit:0;" height="60" />
    </g>
    <g transform="translate(704,145)" style="font-size:14; fill:rgb(122,207,245); text-rendering:geometricPrecision; font-family:sans-serif; stroke:rgb(122,207,245);">
      <rect x="0" y="0" width="90" style="clip-path:url(#clipPath15); stroke:none;" height="50" />
    </g>
    <g transform="translate(704,145)" style="font-size:14; stroke-linecap:butt; text-rendering:geometricPrecision; font-family:sans-serif; stroke-linejoin:round; stroke-miterlimit:0;">
      <rect x="0" y="0" width="90" style="clip-path:url(#clipPath15); fill:none;" height="50" />
    </g>
    <g style="text-rendering:geometricPrecision; font-size:14; font-family:sans-serif;" transform="translate(704,145)">
      <text x="10" y="31" style="clip-path:url(#clipPath16); stroke:none;" xml:space="preserve">會員資料表</text>
    </g>
    <g transform="translate(110,40)" style="font-size:14; fill:rgb(122,207,245); text-rendering:geometricPrecision; font-family:sans-serif; stroke:rgb(122,207,245);">
      <rect x="1" y="1" width="128" style="clip-path:url(#clipPath17); stroke:none;" rx="15" ry="15" height="48" />
    </g>
    <g transform="translate(110,40)" style="font-size:14; stroke-linecap:butt; text-rendering:geometricPrecision; font-family:sans-serif; stroke-linejoin:round; stroke-miterlimit:0;">
      <rect x="1" y="1" width="128" style="clip-path:url(#clipPath17); fill:none;" rx="15" ry="15" height="48" />
    </g>
    <g style="text-rendering:geometricPrecision; font-size:14; font-family:sans-serif;" transform="translate(110,40)">
      <text x="9" y="31" style="clip-path:url(#clipPath18); stroke:none;" xml:space="preserve">開啟修改密碼畫面</text>
    </g>
    <g style="text-rendering:geometricPrecision; font-size:14; font-family:sans-serif;" transform="translate(20,46)">
      <circle style="clip-path:url(#clipPath19); stroke:none;" r="10" cx="20" cy="10" />
    </g>
    <g style="text-rendering:geometricPrecision; font-size:14; font-family:sans-serif;" transform="translate(30,260)">
      <circle style="clip-path:url(#clipPath20); stroke:none;" r="6.6667" cx="10" cy="10" />
      <circle style="stroke-linecap:butt; clip-path:url(#clipPath20); fill:none; stroke-linejoin:round; stroke-miterlimit:0;" r="10" cx="10" cy="10" />
    </g>
    <g transform="translate(110,130)" style="font-size:14; fill:rgb(122,207,245); text-rendering:geometricPrecision; font-family:sans-serif; stroke:rgb(122,207,245);">
      <rect x="1" y="1" width="138" style="clip-path:url(#clipPath21); stroke:none;" rx="15" ry="15" height="48" />
    </g>
    <g transform="translate(110,130)" style="font-size:14; stroke-linecap:butt; text-rendering:geometricPrecision; font-family:sans-serif; stroke-linejoin:round; stroke-miterlimit:0;">
      <rect x="1" y="1" width="138" style="clip-path:url(#clipPath21); fill:none;" rx="15" ry="15" height="48" />
    </g>
    <g style="text-rendering:geometricPrecision; font-size:14; font-family:sans-serif;" transform="translate(110,130)">
      <text x="7" y="31" style="clip-path:url(#clipPath22); stroke:none;" xml:space="preserve">輸入原密碼、新密碼</text>
    </g>
    <g transform="translate(380,240)" style="font-size:14; fill:rgb(122,207,245); text-rendering:geometricPrecision; font-family:sans-serif; stroke:rgb(122,207,245);">
      <rect x="1" y="1" width="118" style="clip-path:url(#clipPath23); stroke:none;" rx="15" ry="15" height="58" />
    </g>
    <g transform="translate(380,240)" style="font-size:14; stroke-linecap:butt; text-rendering:geometricPrecision; font-family:sans-serif; stroke-linejoin:round; stroke-miterlimit:0;">
      <rect x="1" y="1" width="118" style="clip-path:url(#clipPath23); fill:none;" rx="15" ry="15" height="58" />
    </g>
    <g style="text-rendering:geometricPrecision; font-size:14; font-family:sans-serif;" transform="translate(380,240)">
      <text x="18" y="36" style="clip-path:url(#clipPath24); stroke:none;" xml:space="preserve">回傳更新結果</text>
    </g>
    <g transform="translate(110,240)" style="font-size:14; fill:rgb(122,207,245); text-rendering:geometricPrecision; font-family:sans-serif; stroke:rgb(122,207,245);">
      <rect x="1" y="1" width="128" style="clip-path:url(#clipPath25); stroke:none;" rx="15" ry="15" height="58" />
    </g>
    <g transform="translate(110,240)" style="font-size:14; stroke-linecap:butt; text-rendering:geometricPrecision; font-family:sans-serif; stroke-linejoin:round; stroke-miterlimit:0;">
      <rect x="1" y="1" width="128" style="clip-path:url(#clipPath25); fill:none;" rx="15" ry="15" height="58" />
    </g>
    <g style="text-rendering:geometricPrecision; font-size:14; font-family:sans-serif;" transform="translate(110,240)">
      <text x="9" y="36" style="clip-path:url(#clipPath26); stroke:none;" xml:space="preserve">顯示修改密碼畫面</text>
    </g>
    <g transform="translate(420,36)" style="font-size:14; fill:rgb(122,207,245); text-rendering:geometricPrecision; font-family:sans-serif; stroke:rgb(122,207,245);">
      <rect x="1" y="1" width="118" style="clip-path:url(#clipPath23); stroke:none;" rx="15" ry="15" height="58" />
    </g>
    <g transform="translate(420,36)" style="font-size:14; stroke-linecap:butt; text-rendering:geometricPrecision; font-family:sans-serif; stroke-linejoin:round; stroke-miterlimit:0;">
      <rect x="1" y="1" width="118" style="clip-path:url(#clipPath23); fill:none;" rx="15" ry="15" height="58" />
    </g>
    <g style="text-rendering:geometricPrecision; font-size:14; font-family:sans-serif;" transform="translate(420,36)">
      <text x="32" y="36" style="clip-path:url(#clipPath24); stroke:none;" xml:space="preserve">驗證密碼</text>
    </g>
    <g transform="translate(470,150)" style="font-size:14; fill:rgb(122,207,245); text-rendering:geometricPrecision; font-family:sans-serif; stroke:rgb(122,207,245);">
      <polygon style="clip-path:url(#clipPath27); stroke:none;" points=" 10 7 17 20 10 32 3 20" />
    </g>
    <g transform="translate(470,150)" style="font-size:14; stroke-linecap:butt; text-rendering:geometricPrecision; font-family:sans-serif; stroke-linejoin:round; stroke-miterlimit:0;">
      <polygon style="fill:none; clip-path:url(#clipPath27);" points=" 10 7 17 20 10 32 3 20" />
    </g>
    <g transform="translate(310,150)" style="font-size:14; fill:rgb(122,207,245); text-rendering:geometricPrecision; font-family:sans-serif; stroke:rgb(122,207,245);">
      <rect x="1" y="1" width="118" style="clip-path:url(#clipPath23); stroke:none;" rx="15" ry="15" height="58" />
    </g>
    <g transform="translate(310,150)" style="font-size:14; stroke-linecap:butt; text-rendering:geometricPrecision; font-family:sans-serif; stroke-linejoin:round; stroke-miterlimit:0;">
      <rect x="1" y="1" width="118" style="clip-path:url(#clipPath23); fill:none;" rx="15" ry="15" height="58" />
    </g>
    <g style="text-rendering:geometricPrecision; font-size:14; font-family:sans-serif;" transform="translate(310,150)">
      <text x="18" y="36" style="clip-path:url(#clipPath24); stroke:none;" xml:space="preserve">回傳錯誤訊息</text>
    </g>
    <g transform="translate(540,140)" style="font-size:14; fill:rgb(122,207,245); text-rendering:geometricPrecision; font-family:sans-serif; stroke:rgb(122,207,245);">
      <rect x="1" y="1" width="88" style="clip-path:url(#clipPath28); stroke:none;" rx="15" ry="15" height="58" />
    </g>
    <g transform="translate(540,140)" style="font-size:14; stroke-linecap:butt; text-rendering:geometricPrecision; font-family:sans-serif; stroke-linejoin:round; stroke-miterlimit:0;">
      <rect x="1" y="1" width="88" style="clip-path:url(#clipPath28); fill:none;" rx="15" ry="15" height="58" />
    </g>
    <g style="text-rendering:geometricPrecision; font-size:14; font-family:sans-serif;" transform="translate(540,140)">
      <text x="17" y="36" style="clip-path:url(#clipPath29); stroke:none;" xml:space="preserve">更新密碼</text>
    </g>
    <g transform="translate(8,14)" style="font-size:14; stroke-linecap:butt; text-rendering:geometricPrecision; font-family:sans-serif; stroke-linejoin:round;">
      <line x1="42" x2="103" y1="42" style="clip-path:url(#clipPath33); fill:none;" y2="42" />
      <line x1="103" x2="91" y1="42" style="clip-path:url(#clipPath33); fill:none;" y2="36" />
      <line x1="103" x2="91" y1="42" style="clip-path:url(#clipPath33); fill:none;" y2="48" />
    </g>
    <g transform="translate(-12,28)" style="font-size:14; stroke-linecap:butt; text-rendering:geometricPrecision; font-family:sans-serif; stroke-linejoin:round;">
      <line x1="122" x2="42" y1="42" style="clip-path:url(#clipPath34); fill:none;" y2="42" />
      <line x1="42" x2="42" y1="42" style="clip-path:url(#clipPath34); fill:none;" y2="92" />
      <line x1="42" x2="71" y1="92" style="clip-path:url(#clipPath34); fill:none;" y2="92" />
      <line x1="71" x2="59" y1="92" style="clip-path:url(#clipPath34); fill:none;" y2="86" />
      <line x1="71" x2="59" y1="92" style="clip-path:url(#clipPath34); fill:none;" y2="98" />
    </g>
    <g transform="translate(198,228)" style="font-size:14; stroke-linecap:butt; text-rendering:geometricPrecision; font-family:sans-serif; stroke-linejoin:round;">
      <line x1="182" x2="42" y1="42" style="clip-path:url(#clipPath35); fill:none;" y2="42" />
      <line x1="42" x2="54" y1="42" style="clip-path:url(#clipPath35); fill:none;" y2="48" />
      <line x1="42" x2="54" y1="42" style="clip-path:url(#clipPath35); fill:none;" y2="36" />
    </g>
    <g transform="translate(208,18)" style="font-size:14; stroke-linecap:butt; text-rendering:geometricPrecision; font-family:sans-serif; stroke-linejoin:round;">
      <line x1="42" x2="52" y1="132" style="clip-path:url(#clipPath36); fill:none;" y2="132" />
      <line x1="52" x2="52" y1="132" style="clip-path:url(#clipPath36); fill:none;" y2="42" />
      <line x1="52" x2="212" y1="42" style="clip-path:url(#clipPath36); fill:none;" y2="42" />
      <line x1="212" x2="200" y1="42" style="clip-path:url(#clipPath36); fill:none;" y2="36" />
      <line x1="212" x2="200" y1="42" style="clip-path:url(#clipPath36); fill:none;" y2="48" />
    </g>
    <g transform="translate(498,18)" style="font-size:14; stroke-linecap:butt; text-rendering:geometricPrecision; font-family:sans-serif; stroke-linejoin:round;">
      <line x1="201" x2="42" y1="42" style="clip-path:url(#clipPath37); fill:none;" y2="42" />
      <line x1="42" x2="54" y1="42" style="clip-path:url(#clipPath37); fill:none;" y2="48" />
      <line x1="42" x2="54" y1="42" style="clip-path:url(#clipPath37); fill:none;" y2="36" />
    </g>
    <g transform="translate(438,53)" style="font-size:14; stroke-linecap:butt; text-rendering:geometricPrecision; font-family:sans-serif; stroke-linejoin:round;">
      <line x1="42" x2="42" y1="42" style="clip-path:url(#clipPath38); fill:none;" y2="103" />
      <line x1="42" x2="48" y1="103" style="clip-path:url(#clipPath38); fill:none;" y2="91" />
      <line x1="42" x2="36" y1="103" style="clip-path:url(#clipPath38); fill:none;" y2="91" />
    </g>
    <g transform="translate(388,128)" style="font-size:14; stroke-linecap:butt; text-rendering:geometricPrecision; font-family:sans-serif; stroke-linejoin:round;">
      <line x1="86" x2="42" y1="42" style="clip-path:url(#clipPath39); fill:none;" y2="42" />
      <line x1="42" x2="54" y1="42" style="clip-path:url(#clipPath39); fill:none;" y2="48" />
      <line x1="42" x2="54" y1="42" style="clip-path:url(#clipPath39); fill:none;" y2="36" />
    </g>
    <g transform="translate(445,128)" style="font-size:14; stroke-linecap:butt; text-rendering:geometricPrecision; font-family:sans-serif; stroke-linejoin:round;">
      <line x1="42" x2="95" y1="42" style="clip-path:url(#clipPath40); fill:none;" y2="42" />
      <line x1="95" x2="83" y1="42" style="clip-path:url(#clipPath40); fill:none;" y2="36" />
      <line x1="95" x2="83" y1="42" style="clip-path:url(#clipPath40); fill:none;" y2="48" />
    </g>
    <g transform="translate(-12,98)" style="font-size:14; stroke-linecap:butt; text-rendering:geometricPrecision; font-family:sans-serif; stroke-linejoin:round;">
      <line x1="323" x2="42" y1="102" style="clip-path:url(#clipPath41); fill:none;" y2="102" />
      <line x1="42" x2="42" y1="102" style="clip-path:url(#clipPath41); fill:none;" y2="42" />
      <line x1="42" x2="71" y1="42" style="clip-path:url(#clipPath41); fill:none;" y2="42" />
      <line x1="71" x2="59" y1="42" style="clip-path:url(#clipPath41); fill:none;" y2="36" />
      <line x1="71" x2="59" y1="42" style="clip-path:url(#clipPath41); fill:none;" y2="48" />
    </g>
    <g transform="translate(30,108)" style="font-size:14; stroke-linecap:butt; text-rendering:geometricPrecision; font-family:sans-serif; stroke-linejoin:round;">
      <line x1="42" x2="80" y1="42" style="clip-path:url(#clipPath42); fill:none;" y2="42" />
      <line x1="80" x2="68" y1="42" style="clip-path:url(#clipPath42); fill:none;" y2="36" />
      <line x1="80" x2="68" y1="42" style="clip-path:url(#clipPath42); fill:none;" y2="48" />
    </g>
    <g transform="translate(458,158)" style="font-size:11; stroke-linecap:butt; text-rendering:geometricPrecision; font-family:sans-serif; stroke-linejoin:round;">
      <line x1="122" x2="122" y1="42" style="clip-path:url(#clipPath43); fill:none;" y2="112" />
      <line x1="122" x2="42" y1="112" style="clip-path:url(#clipPath43); fill:none;" y2="112" />
      <line x1="42" x2="54" y1="112" style="clip-path:url(#clipPath43); fill:none;" y2="118" />
      <line x1="42" x2="54" y1="112" style="clip-path:url(#clipPath43); fill:none;" y2="106" />
    </g>
    <g transform="translate(588,128)" style="font-size:11; stroke-linecap:butt; text-rendering:geometricPrecision; font-family:sans-serif; stroke-linejoin:round;">
      <line x1="42" x2="115" y1="42" style="clip-path:url(#clipPath44); fill:none;" y2="42" />
      <line x1="115" x2="103" y1="42" style="clip-path:url(#clipPath44); fill:none;" y2="36" />
      <line x1="115" x2="103" y1="42" style="clip-path:url(#clipPath44); fill:none;" y2="48" />
    </g>
    <g transform="translate(8,228)" style="font-size:11; stroke-linecap:butt; text-rendering:geometricPrecision; font-family:sans-serif; stroke-linejoin:round;">
      <line x1="102" x2="42" y1="42" style="clip-path:url(#clipPath45); fill:none;" y2="42" />
      <line x1="42" x2="54" y1="42" style="clip-path:url(#clipPath45); fill:none;" y2="48" />
      <line x1="42" x2="54" y1="42" style="clip-path:url(#clipPath45); fill:none;" y2="36" />
    </g>
  </g>
</svg>
