<?xml version="1.0" encoding="UTF-8"?>

<!DOCTYPE svg PUBLIC '-//W3C//DTD SVG 1.0//EN' 'http://www.w3.org/TR/2001/REC-SVG-20010904/DTD/svg10.dtd'>
<svg style="fill-opacity:1; color-rendering:auto; color-interpolation:auto; stroke:black; text-rendering:auto; stroke-linecap:square; stroke-miterlimit:10; stroke-opacity:1; shape-rendering:auto; fill:black; stroke-dasharray:none; font-weight:normal; stroke-width:1; font-family:&apos;Dialog&apos;; font-style:normal; stroke-linejoin:miter; font-size:12; stroke-dashoffset:0; image-rendering:auto;" xmlns="http://www.w3.org/2000/svg" width="1054" xmlns:xlink="http://www.w3.org/1999/xlink" height="449">
  <!--Generated by the Batik Graphics2D SVG Generator-->
  <defs id="genericDefs" />
  <g>
    <defs id="defs1">
      <clipPath clipPathUnits="userSpaceOnUse" id="clipPath1">
        <path d="M-3 -3 L1057 -3 L1057 441 L-3 441 L-3 -3 Z" />
      </clipPath>
      <clipPath clipPathUnits="userSpaceOnUse" id="clipPath2">
        <path d="M0 0 L0 419 L7 419 L7 0 Z" />
      </clipPath>
      <clipPath clipPathUnits="userSpaceOnUse" id="clipPath3">
        <path d="M-3 -3 L387 -3 L387 29 L-3 29 L-3 -3 Z" />
      </clipPath>
      <clipPath clipPathUnits="userSpaceOnUse" id="clipPath4">
        <path d="M0 0 L380 0 L380 21 L0 21 L0 0 Z" />
      </clipPath>
      <clipPath clipPathUnits="userSpaceOnUse" id="clipPath5">
        <path d="M-3 -3 L387 -3 L387 430 L-3 430 L-3 -3 Z" />
      </clipPath>
      <clipPath clipPathUnits="userSpaceOnUse" id="clipPath6">
        <path d="M-3 -3 L487 -3 L487 29 L-3 29 L-3 -3 Z" />
      </clipPath>
      <clipPath clipPathUnits="userSpaceOnUse" id="clipPath7">
        <path d="M0 0 L480 0 L480 21 L0 21 L0 0 Z" />
      </clipPath>
      <clipPath clipPathUnits="userSpaceOnUse" id="clipPath8">
        <path d="M-3 -3 L487 -3 L487 430 L-3 430 L-3 -3 Z" />
      </clipPath>
      <clipPath clipPathUnits="userSpaceOnUse" id="clipPath9">
        <path d="M-3 -3 L197 -3 L197 29 L-3 29 L-3 -3 Z" />
      </clipPath>
      <clipPath clipPathUnits="userSpaceOnUse" id="clipPath10">
        <path d="M0 0 L190 0 L190 21 L0 21 L0 0 Z" />
      </clipPath>
      <clipPath clipPathUnits="userSpaceOnUse" id="clipPath11">
        <path d="M-3 -3 L197 -3 L197 430 L-3 430 L-3 -3 Z" />
      </clipPath>
      <clipPath clipPathUnits="userSpaceOnUse" id="clipPath12">
        <path d="M-3 -3 L97 -3 L97 66 L-3 66 L-3 -3 Z" />
      </clipPath>
      <clipPath clipPathUnits="userSpaceOnUse" id="clipPath13">
        <path d="M0 0 L90 0 L90 59 L0 59 L0 0 Z" />
      </clipPath>
      <clipPath clipPathUnits="userSpaceOnUse" id="clipPath14">
        <path d="M-3 -3 L47 -3 L47 27 L-3 27 L-3 -3 Z" />
      </clipPath>
      <clipPath clipPathUnits="userSpaceOnUse" id="clipPath15">
        <path d="M-3 -3 L146 -3 L146 66 L-3 66 L-3 -3 Z" />
      </clipPath>
      <clipPath clipPathUnits="userSpaceOnUse" id="clipPath16">
        <path d="M0 0 L139 0 L139 59 L0 59 L0 0 Z" />
      </clipPath>
      <clipPath clipPathUnits="userSpaceOnUse" id="clipPath17">
        <path d="M-3 -3 L127 -3 L127 66 L-3 66 L-3 -3 Z" />
      </clipPath>
      <clipPath clipPathUnits="userSpaceOnUse" id="clipPath18">
        <path d="M0 0 L120 0 L120 59 L0 59 L0 0 Z" />
      </clipPath>
      <clipPath clipPathUnits="userSpaceOnUse" id="clipPath19">
        <path d="M-3 -3 L107 -3 L107 66 L-3 66 L-3 -3 Z" />
      </clipPath>
      <clipPath clipPathUnits="userSpaceOnUse" id="clipPath20">
        <path d="M0 0 L100 0 L100 59 L0 59 L0 0 Z" />
      </clipPath>
      <clipPath clipPathUnits="userSpaceOnUse" id="clipPath21">
        <path d="M-3 -3 L87 -3 L87 47 L-3 47 L-3 -3 Z" />
      </clipPath>
      <clipPath clipPathUnits="userSpaceOnUse" id="clipPath22">
        <path d="M0 0 L80 0 L80 40 L0 40 L0 0 Z" />
      </clipPath>
      <clipPath clipPathUnits="userSpaceOnUse" id="clipPath23">
        <path d="M-3 -3 L27 -3 L27 27 L-3 27 L-3 -3 Z" />
      </clipPath>
      <clipPath clipPathUnits="userSpaceOnUse" id="clipPath24">
        <path d="M0 0 L190 0 L190 423 L0 423 L0 0 Z" />
      </clipPath>
      <clipPath clipPathUnits="userSpaceOnUse" id="clipPath25">
        <path d="M0 0 L480 0 L480 423 L0 423 L0 0 Z" />
      </clipPath>
      <clipPath clipPathUnits="userSpaceOnUse" id="clipPath26">
        <path d="M0 0 L380 0 L380 423 L0 423 L0 0 Z" />
      </clipPath>
      <clipPath clipPathUnits="userSpaceOnUse" id="clipPath27">
        <path d="M0 0 L121 0 L121 91 L0 91 L0 0 Z" />
      </clipPath>
      <clipPath clipPathUnits="userSpaceOnUse" id="clipPath28">
        <path d="M0 0 L241 0 L241 201 L0 201 L0 0 Z" />
      </clipPath>
      <clipPath clipPathUnits="userSpaceOnUse" id="clipPath29">
        <path d="M0 0 L231 0 L231 221 L0 221 L0 0 Z" />
      </clipPath>
      <clipPath clipPathUnits="userSpaceOnUse" id="clipPath30">
        <path d="M0 0 L182 0 L182 91 L0 91 L0 0 Z" />
      </clipPath>
      <clipPath clipPathUnits="userSpaceOnUse" id="clipPath31">
        <path d="M0 0 L399 0 L399 91 L0 91 L0 0 Z" />
      </clipPath>
      <clipPath clipPathUnits="userSpaceOnUse" id="clipPath32">
        <path d="M0 0 L221 0 L221 193 L0 193 L0 0 Z" />
      </clipPath>
      <clipPath clipPathUnits="userSpaceOnUse" id="clipPath33">
        <path d="M0 0 L552 0 L552 207 L0 207 L0 0 Z" />
      </clipPath>
    </defs>
    <g style="fill:white; text-rendering:geometricPrecision; stroke:white;">
      <rect x="0" y="0" width="1054" style="stroke:none;" height="449" />
    </g>
    <g style="text-rendering:geometricPrecision; stroke-width:2; font-size:14; font-family:sans-serif;">
      <rect x="0" y="0" width="380" style="clip-path:url(#clipPath3); fill:none;" height="22" />
    </g>
    <g style="text-rendering:geometricPrecision; font-size:14; font-family:sans-serif;">
      <text x="176" y="17" style="clip-path:url(#clipPath4); stroke:none;" xml:space="preserve">會員</text>
    </g>
    <g transform="translate(0,22)" style="text-rendering:geometricPrecision; stroke-width:2; font-size:14; font-family:sans-serif;">
      <rect x="0" y="0" width="380" style="clip-path:url(#clipPath5); fill:none;" height="423" />
    </g>
    <g transform="translate(380,0)" style="text-rendering:geometricPrecision; stroke-width:2; font-size:14; font-family:sans-serif;">
      <rect x="0" y="0" width="480" style="clip-path:url(#clipPath6); fill:none;" height="22" />
    </g>
    <g style="text-rendering:geometricPrecision; font-size:14; font-family:sans-serif;" transform="translate(380,0)">
      <text x="226" y="17" style="clip-path:url(#clipPath7); stroke:none;" xml:space="preserve">系統</text>
    </g>
    <g transform="translate(380,22)" style="text-rendering:geometricPrecision; stroke-width:2; font-size:14; font-family:sans-serif;">
      <rect x="0" y="0" width="480" style="clip-path:url(#clipPath8); fill:none;" height="423" />
    </g>
    <g transform="translate(860,0)" style="text-rendering:geometricPrecision; stroke-width:2; font-size:14; font-family:sans-serif;">
      <rect x="0" y="0" width="190" style="clip-path:url(#clipPath9); fill:none;" height="22" />
    </g>
    <g style="text-rendering:geometricPrecision; font-size:14; font-family:sans-serif;" transform="translate(860,0)">
      <text x="74" y="17" style="clip-path:url(#clipPath10); stroke:none;" xml:space="preserve">資料庫</text>
    </g>
    <g transform="translate(860,22)" style="text-rendering:geometricPrecision; stroke-width:2; font-size:14; font-family:sans-serif;">
      <rect x="0" y="0" width="190" style="clip-path:url(#clipPath11); fill:none;" height="423" />
    </g>
    <g transform="translate(890,34)" style="font-size:14; fill:rgb(122,207,245); text-rendering:geometricPrecision; font-family:sans-serif; stroke:rgb(122,207,245);">
      <rect x="0" y="0" width="90" style="clip-path:url(#clipPath12); stroke:none;" height="59" />
    </g>
    <g transform="translate(890,34)" style="font-size:14; stroke-linecap:butt; text-rendering:geometricPrecision; font-family:sans-serif; stroke-linejoin:round; stroke-miterlimit:0;">
      <rect x="0" y="0" width="90" style="clip-path:url(#clipPath12); fill:none;" height="59" />
    </g>
    <g style="text-rendering:geometricPrecision; font-size:14; font-family:sans-serif;" transform="translate(890,34)">
      <text x="10" y="36" style="clip-path:url(#clipPath13); stroke:none;" xml:space="preserve">會員資料表</text>
    </g>
    <g style="text-rendering:geometricPrecision; font-size:14; font-family:sans-serif;" transform="translate(0,36)">
      <circle style="clip-path:url(#clipPath14); stroke:none;" r="10" cx="20" cy="10" />
    </g>
    <g transform="translate(60,30)" style="font-size:14; fill:rgb(122,207,245); text-rendering:geometricPrecision; font-family:sans-serif; stroke:rgb(122,207,245);">
      <rect x="1" y="1" width="137" style="clip-path:url(#clipPath15); stroke:none;" rx="15" ry="15" height="57" />
    </g>
    <g transform="translate(60,30)" style="font-size:14; stroke-linecap:butt; text-rendering:geometricPrecision; font-family:sans-serif; stroke-linejoin:round; stroke-miterlimit:0;">
      <rect x="1" y="1" width="137" style="clip-path:url(#clipPath15); fill:none;" rx="15" ry="15" height="57" />
    </g>
    <g style="text-rendering:geometricPrecision; font-size:14; font-family:sans-serif;" transform="translate(60,30)">
      <text x="13" y="36" style="clip-path:url(#clipPath16); stroke:none;" xml:space="preserve">開啟修改資料畫面</text>
    </g>
    <g transform="translate(250,160)" style="font-size:14; fill:rgb(122,207,245); text-rendering:geometricPrecision; font-family:sans-serif; stroke:rgb(122,207,245);">
      <rect x="1" y="1" width="118" style="clip-path:url(#clipPath17); stroke:none;" rx="15" ry="15" height="57" />
    </g>
    <g transform="translate(250,160)" style="font-size:14; stroke-linecap:butt; text-rendering:geometricPrecision; font-family:sans-serif; stroke-linejoin:round; stroke-miterlimit:0;">
      <rect x="1" y="1" width="118" style="clip-path:url(#clipPath17); fill:none;" rx="15" ry="15" height="57" />
    </g>
    <g style="text-rendering:geometricPrecision; font-size:14; font-family:sans-serif;" transform="translate(250,160)">
      <text x="11" y="36" style="clip-path:url(#clipPath18); stroke:none;" xml:space="preserve">輸入欲更改資料</text>
    </g>
    <g transform="translate(480,30)" style="font-size:14; fill:rgb(122,207,245); text-rendering:geometricPrecision; font-family:sans-serif; stroke:rgb(122,207,245);">
      <rect x="1" y="1" width="98" style="clip-path:url(#clipPath19); stroke:none;" rx="15" ry="15" height="57" />
    </g>
    <g transform="translate(480,30)" style="font-size:14; stroke-linecap:butt; text-rendering:geometricPrecision; font-family:sans-serif; stroke-linejoin:round; stroke-miterlimit:0;">
      <rect x="1" y="1" width="98" style="clip-path:url(#clipPath19); fill:none;" rx="15" ry="15" height="57" />
    </g>
    <g style="text-rendering:geometricPrecision; font-size:14; font-family:sans-serif;" transform="translate(480,30)">
      <text x="8" y="36" style="clip-path:url(#clipPath20); stroke:none;" xml:space="preserve">更新個人資料</text>
    </g>
    <g transform="translate(680,184)" style="font-size:14; fill:rgb(122,207,245); text-rendering:geometricPrecision; font-family:sans-serif; stroke:rgb(122,207,245);">
      <rect x="1" y="1" width="78" style="clip-path:url(#clipPath21); stroke:none;" rx="15" ry="15" height="38" />
    </g>
    <g transform="translate(680,184)" style="font-size:14; stroke-linecap:butt; text-rendering:geometricPrecision; font-family:sans-serif; stroke-linejoin:round; stroke-miterlimit:0;">
      <rect x="1" y="1" width="78" style="clip-path:url(#clipPath21); fill:none;" rx="15" ry="15" height="38" />
    </g>
    <g style="text-rendering:geometricPrecision; font-size:14; font-family:sans-serif;" transform="translate(680,184)">
      <text x="6" y="26" style="clip-path:url(#clipPath22); stroke:none;" xml:space="preserve">回傳更新...</text>
    </g>
    <g transform="translate(120,310)" style="font-size:14; fill:rgb(122,207,245); text-rendering:geometricPrecision; font-family:sans-serif; stroke:rgb(122,207,245);">
      <rect x="1" y="1" width="137" style="clip-path:url(#clipPath15); stroke:none;" rx="15" ry="15" height="57" />
    </g>
    <g transform="translate(120,310)" style="font-size:14; stroke-linecap:butt; text-rendering:geometricPrecision; font-family:sans-serif; stroke-linejoin:round; stroke-miterlimit:0;">
      <rect x="1" y="1" width="137" style="clip-path:url(#clipPath15); fill:none;" rx="15" ry="15" height="57" />
    </g>
    <g style="text-rendering:geometricPrecision; font-size:14; font-family:sans-serif;" transform="translate(120,310)">
      <text x="13" y="36" style="clip-path:url(#clipPath16); stroke:none;" xml:space="preserve">開啟修改資料畫面</text>
    </g>
    <g style="text-rendering:geometricPrecision; font-size:14; font-family:sans-serif;" transform="translate(10,330)">
      <circle style="clip-path:url(#clipPath23); stroke:none;" r="6.6667" cx="10" cy="10" />
      <circle style="stroke-linecap:butt; clip-path:url(#clipPath23); fill:none; stroke-linejoin:round; stroke-miterlimit:0;" r="10" cx="10" cy="10" />
    </g>
    <g transform="translate(-13,3)" style="font-size:14; stroke-linecap:butt; text-rendering:geometricPrecision; font-family:sans-serif; stroke-linejoin:round;">
      <line x1="43" x2="73" y1="43" style="clip-path:url(#clipPath27); fill:none;" y2="43" />
      <line x1="73" x2="61" y1="43" style="clip-path:url(#clipPath27); fill:none;" y2="37" />
      <line x1="73" x2="61" y1="43" style="clip-path:url(#clipPath27); fill:none;" y2="49" />
    </g>
    <g transform="translate(286,6)" style="font-size:14; stroke-linecap:butt; text-rendering:geometricPrecision; font-family:sans-serif; stroke-linejoin:round;">
      <line x1="43" x2="43" y1="154" style="clip-path:url(#clipPath28); fill:none;" y2="43" />
      <line x1="43" x2="194" y1="43" style="clip-path:url(#clipPath28); fill:none;" y2="43" />
      <line x1="194" x2="182" y1="43" style="clip-path:url(#clipPath28); fill:none;" y2="37" />
      <line x1="194" x2="182" y1="43" style="clip-path:url(#clipPath28); fill:none;" y2="49" />
    </g>
    <g transform="translate(537,11)" style="font-size:14; stroke-linecap:butt; text-rendering:geometricPrecision; font-family:sans-serif; stroke-linejoin:round;">
      <line x1="43" x2="183" y1="43" style="clip-path:url(#clipPath29); fill:none;" y2="43" />
      <line x1="183" x2="183" y1="43" style="clip-path:url(#clipPath29); fill:none;" y2="174" />
      <line x1="183" x2="189" y1="174" style="clip-path:url(#clipPath29); fill:none;" y2="162" />
      <line x1="183" x2="177" y1="174" style="clip-path:url(#clipPath29); fill:none;" y2="162" />
    </g>
    <g transform="translate(-15,297)" style="font-size:14; stroke-linecap:butt; text-rendering:geometricPrecision; font-family:sans-serif; stroke-linejoin:round;">
      <line x1="135" x2="43" y1="43" style="clip-path:url(#clipPath30); fill:none;" y2="43" />
      <line x1="43" x2="55" y1="43" style="clip-path:url(#clipPath30); fill:none;" y2="49" />
      <line x1="43" x2="55" y1="43" style="clip-path:url(#clipPath30); fill:none;" y2="37" />
    </g>
    <g transform="translate(537,21)" style="font-size:14; stroke-linecap:butt; text-rendering:geometricPrecision; font-family:sans-serif; stroke-linejoin:round;">
      <line x1="43" x2="351" y1="43" style="clip-path:url(#clipPath31); fill:none;" y2="43" />
      <line x1="351" x2="339" y1="43" style="clip-path:url(#clipPath31); fill:none;" y2="37" />
      <line x1="351" x2="339" y1="43" style="clip-path:url(#clipPath31); fill:none;" y2="49" />
    </g>
    <g transform="translate(77,44)" style="font-size:11; stroke-linecap:butt; text-rendering:geometricPrecision; font-family:sans-serif; stroke-linejoin:round;">
      <line x1="43" x2="43" y1="43" style="clip-path:url(#clipPath32); fill:none;" y2="145" />
      <line x1="43" x2="174" y1="145" style="clip-path:url(#clipPath32); fill:none;" y2="145" />
      <line x1="174" x2="162" y1="145" style="clip-path:url(#clipPath32); fill:none;" y2="139" />
      <line x1="174" x2="162" y1="145" style="clip-path:url(#clipPath32); fill:none;" y2="151" />
    </g>
    <g transform="translate(216,181)" style="font-size:11; stroke-linecap:butt; text-rendering:geometricPrecision; font-family:sans-serif; stroke-linejoin:round;">
      <line x1="504" x2="504" y1="43" style="clip-path:url(#clipPath33); fill:none;" y2="159" />
      <line x1="504" x2="43" y1="159" style="clip-path:url(#clipPath33); fill:none;" y2="159" />
      <line x1="43" x2="55" y1="159" style="clip-path:url(#clipPath33); fill:none;" y2="165" />
      <line x1="43" x2="55" y1="159" style="clip-path:url(#clipPath33); fill:none;" y2="153" />
    </g>
  </g>
</svg>
