<?xml version="1.0" encoding="UTF-8"?>

<!DOCTYPE svg PUBLIC '-//W3C//DTD SVG 1.0//EN' 'http://www.w3.org/TR/2001/REC-SVG-20010904/DTD/svg10.dtd'>
<svg style="fill-opacity:1; color-rendering:auto; color-interpolation:auto; stroke:black; text-rendering:auto; stroke-linecap:square; stroke-miterlimit:10; stroke-opacity:1; shape-rendering:auto; fill:black; stroke-dasharray:none; font-weight:normal; stroke-width:1; font-family:&apos;Dialog&apos;; font-style:normal; stroke-linejoin:miter; font-size:12; stroke-dashoffset:0; image-rendering:auto;" xmlns="http://www.w3.org/2000/svg" width="1046" xmlns:xlink="http://www.w3.org/1999/xlink" height="457">
  <!--Generated by the Batik Graphics2D SVG Generator-->
  <defs id="genericDefs" />
  <g>
    <defs id="defs1">
      <clipPath clipPathUnits="userSpaceOnUse" id="clipPath1">
        <path d="M-3 -3 L1050 -3 L1050 460 L-3 460 L-3 -3 Z" />
      </clipPath>
      <clipPath clipPathUnits="userSpaceOnUse" id="clipPath2">
        <path d="M0 0 L0 439 L7 439 L7 0 Z" />
      </clipPath>
      <clipPath clipPathUnits="userSpaceOnUse" id="clipPath3">
        <path d="M-3 -3 L334 -3 L334 28 L-3 28 L-3 -3 Z" />
      </clipPath>
      <clipPath clipPathUnits="userSpaceOnUse" id="clipPath4">
        <path d="M0 0 L327 0 L327 21 L0 21 L0 0 Z" />
      </clipPath>
      <clipPath clipPathUnits="userSpaceOnUse" id="clipPath5">
        <path d="M-3 -3 L334 -3 L334 439 L-3 439 L-3 -3 Z" />
      </clipPath>
      <clipPath clipPathUnits="userSpaceOnUse" id="clipPath6">
        <path d="M-3 -3 L497 -3 L497 28 L-3 28 L-3 -3 Z" />
      </clipPath>
      <clipPath clipPathUnits="userSpaceOnUse" id="clipPath7">
        <path d="M0 0 L490 0 L490 21 L0 21 L0 0 Z" />
      </clipPath>
      <clipPath clipPathUnits="userSpaceOnUse" id="clipPath8">
        <path d="M-3 -3 L497 -3 L497 439 L-3 439 L-3 -3 Z" />
      </clipPath>
      <clipPath clipPathUnits="userSpaceOnUse" id="clipPath9">
        <path d="M-3 -3 L233 -3 L233 28 L-3 28 L-3 -3 Z" />
      </clipPath>
      <clipPath clipPathUnits="userSpaceOnUse" id="clipPath10">
        <path d="M0 0 L226 0 L226 21 L0 21 L0 0 Z" />
      </clipPath>
      <clipPath clipPathUnits="userSpaceOnUse" id="clipPath11">
        <path d="M-3 -3 L233 -3 L233 439 L-3 439 L-3 -3 Z" />
      </clipPath>
      <clipPath clipPathUnits="userSpaceOnUse" id="clipPath12">
        <path d="M-3 -3 L18 -3 L18 67 L-3 67 L-3 -3 Z" />
      </clipPath>
      <clipPath clipPathUnits="userSpaceOnUse" id="clipPath13">
        <path d="M-3 -3 L106 -3 L106 67 L-3 67 L-3 -3 Z" />
      </clipPath>
      <clipPath clipPathUnits="userSpaceOnUse" id="clipPath14">
        <path d="M0 0 L99 0 L99 60 L0 60 L0 0 Z" />
      </clipPath>
      <clipPath clipPathUnits="userSpaceOnUse" id="clipPath15">
        <path d="M-3 -3 L47 -3 L47 27 L-3 27 L-3 -3 Z" />
      </clipPath>
      <clipPath clipPathUnits="userSpaceOnUse" id="clipPath16">
        <path d="M-3 -3 L106 -3 L106 66 L-3 66 L-3 -3 Z" />
      </clipPath>
      <clipPath clipPathUnits="userSpaceOnUse" id="clipPath17">
        <path d="M0 0 L99 0 L99 59 L0 59 L0 0 Z" />
      </clipPath>
      <clipPath clipPathUnits="userSpaceOnUse" id="clipPath18">
        <path d="M-3 -3 L115 -3 L115 47 L-3 47 L-3 -3 Z" />
      </clipPath>
      <clipPath clipPathUnits="userSpaceOnUse" id="clipPath19">
        <path d="M0 0 L108 0 L108 40 L0 40 L0 0 Z" />
      </clipPath>
      <clipPath clipPathUnits="userSpaceOnUse" id="clipPath20">
        <path d="M-3 -3 L56 -3 L56 47 L-3 47 L-3 -3 Z" />
      </clipPath>
      <clipPath clipPathUnits="userSpaceOnUse" id="clipPath21">
        <path d="M-3 -3 L95 -3 L95 47 L-3 47 L-3 -3 Z" />
      </clipPath>
      <clipPath clipPathUnits="userSpaceOnUse" id="clipPath22">
        <path d="M0 0 L88 0 L88 40 L0 40 L0 0 Z" />
      </clipPath>
      <clipPath clipPathUnits="userSpaceOnUse" id="clipPath23">
        <path d="M-3 -3 L146 -3 L146 65 L-3 65 L-3 -3 Z" />
      </clipPath>
      <clipPath clipPathUnits="userSpaceOnUse" id="clipPath24">
        <path d="M0 0 L139 0 L139 58 L0 58 L0 0 Z" />
      </clipPath>
      <clipPath clipPathUnits="userSpaceOnUse" id="clipPath25">
        <path d="M-3 -3 L87 -3 L87 66 L-3 66 L-3 -3 Z" />
      </clipPath>
      <clipPath clipPathUnits="userSpaceOnUse" id="clipPath26">
        <path d="M0 0 L80 0 L80 59 L0 59 L0 0 Z" />
      </clipPath>
      <clipPath clipPathUnits="userSpaceOnUse" id="clipPath27">
        <path d="M-3 -3 L146 -3 L146 66 L-3 66 L-3 -3 Z" />
      </clipPath>
      <clipPath clipPathUnits="userSpaceOnUse" id="clipPath28">
        <path d="M0 0 L139 0 L139 59 L0 59 L0 0 Z" />
      </clipPath>
      <clipPath clipPathUnits="userSpaceOnUse" id="clipPath29">
        <path d="M-3 -3 L27 -3 L27 27 L-3 27 L-3 -3 Z" />
      </clipPath>
      <clipPath clipPathUnits="userSpaceOnUse" id="clipPath30">
        <path d="M-3 -3 L167 -3 L167 67 L-3 67 L-3 -3 Z" />
      </clipPath>
      <clipPath clipPathUnits="userSpaceOnUse" id="clipPath31">
        <path d="M0 0 L0 60 L160 60 L160 0 Z" />
      </clipPath>
      <clipPath clipPathUnits="userSpaceOnUse" id="clipPath32">
        <path d="M0 0 L226 0 L226 432 L0 432 L0 0 Z" />
      </clipPath>
      <clipPath clipPathUnits="userSpaceOnUse" id="clipPath33">
        <path d="M0 0 L490 0 L490 432 L0 432 L0 0 Z" />
      </clipPath>
      <clipPath clipPathUnits="userSpaceOnUse" id="clipPath34">
        <path d="M0 0 L327 0 L327 432 L0 432 L0 0 Z" />
      </clipPath>
      <clipPath clipPathUnits="userSpaceOnUse" id="clipPath35">
        <path d="M0 0 L286 0 L286 182 L0 182 L0 0 Z" />
      </clipPath>
      <clipPath clipPathUnits="userSpaceOnUse" id="clipPath36">
        <path d="M0 0 L136 0 L136 84 L0 84 L0 0 Z" />
      </clipPath>
      <clipPath clipPathUnits="userSpaceOnUse" id="clipPath37">
        <path d="M0 0 L85 0 L85 216 L0 216 L0 0 Z" />
      </clipPath>
      <clipPath clipPathUnits="userSpaceOnUse" id="clipPath38">
        <path d="M0 0 L84 0 L84 168 L0 168 L0 0 Z" />
      </clipPath>
      <clipPath clipPathUnits="userSpaceOnUse" id="clipPath39">
        <path d="M0 0 L157 0 L157 84 L0 84 L0 0 Z" />
      </clipPath>
      <clipPath clipPathUnits="userSpaceOnUse" id="clipPath40">
        <path d="M0 0 L326 0 L326 84 L0 84 L0 0 Z" />
      </clipPath>
      <clipPath clipPathUnits="userSpaceOnUse" id="clipPath41">
        <path d="M0 0 L135 0 L135 84 L0 84 L0 0 Z" />
      </clipPath>
      <clipPath clipPathUnits="userSpaceOnUse" id="clipPath42">
        <path d="M0 0 L134 0 L134 84 L0 84 L0 0 Z" />
      </clipPath>
      <clipPath clipPathUnits="userSpaceOnUse" id="clipPath43">
        <path d="M0 0 L354 0 L354 78 L0 78 L0 0 Z" />
      </clipPath>
      <clipPath clipPathUnits="userSpaceOnUse" id="clipPath44">
        <path d="M0 0 L84 0 L84 117 L0 117 L0 0 Z" />
      </clipPath>
      <clipPath clipPathUnits="userSpaceOnUse" id="clipPath45">
        <path d="M0 0 L122 0 L122 146 L0 146 L0 0 Z" />
      </clipPath>
      <clipPath clipPathUnits="userSpaceOnUse" id="clipPath46">
        <path d="M0 0 L314 0 L314 134 L0 134 L0 0 Z" />
      </clipPath>
      <clipPath clipPathUnits="userSpaceOnUse" id="clipPath47">
        <path d="M0 0 L124 0 L124 84 L0 84 L0 0 Z" />
      </clipPath>
      <clipPath clipPathUnits="userSpaceOnUse" id="clipPath48">
        <path d="M0 0 L84 0 L84 20 L0 20 L0 0 Z" />
      </clipPath>
    </defs>
    <g style="fill:white; text-rendering:geometricPrecision; stroke:white;">
      <rect x="0" y="0" width="1046" style="stroke:none;" height="457" />
    </g>
    <g style="text-rendering:geometricPrecision; stroke-width:2; font-size:14; font-family:sans-serif;">
      <rect x="0" y="0" width="327" style="clip-path:url(#clipPath3); fill:none;" height="21" />
    </g>
    <g style="text-rendering:geometricPrecision; font-size:14; font-family:sans-serif;">
      <text x="149" y="17" style="clip-path:url(#clipPath4); stroke:none;" xml:space="preserve">訪客</text>
    </g>
    <g transform="translate(0,21)" style="text-rendering:geometricPrecision; stroke-width:2; font-size:14; font-family:sans-serif;">
      <rect x="0" y="0" width="327" style="clip-path:url(#clipPath5); fill:none;" height="432" />
    </g>
    <g transform="translate(327,0)" style="text-rendering:geometricPrecision; stroke-width:2; font-size:14; font-family:sans-serif;">
      <rect x="0" y="0" width="490" style="clip-path:url(#clipPath6); fill:none;" height="21" />
    </g>
    <g style="text-rendering:geometricPrecision; font-size:14; font-family:sans-serif;" transform="translate(327,0)">
      <text x="231" y="17" style="clip-path:url(#clipPath7); stroke:none;" xml:space="preserve">系統</text>
    </g>
    <g transform="translate(327,21)" style="text-rendering:geometricPrecision; stroke-width:2; font-size:14; font-family:sans-serif;">
      <rect x="0" y="0" width="490" style="clip-path:url(#clipPath8); fill:none;" height="432" />
    </g>
    <g transform="translate(817,0)" style="text-rendering:geometricPrecision; stroke-width:2; font-size:14; font-family:sans-serif;">
      <rect x="0" y="0" width="226" style="clip-path:url(#clipPath9); fill:none;" height="21" />
    </g>
    <g style="text-rendering:geometricPrecision; font-size:14; font-family:sans-serif;" transform="translate(817,0)">
      <text x="92" y="17" style="clip-path:url(#clipPath10); stroke:none;" xml:space="preserve">資料庫</text>
    </g>
    <g transform="translate(817,21)" style="text-rendering:geometricPrecision; stroke-width:2; font-size:14; font-family:sans-serif;">
      <rect x="0" y="0" width="226" style="clip-path:url(#clipPath11); fill:none;" height="432" />
    </g>
    <g style="text-rendering:geometricPrecision; font-size:14; font-family:sans-serif;" transform="translate(148,164)">
      <rect x="0" y="0" width="11" style="clip-path:url(#clipPath12); stroke:none;" height="60" />
      <rect x="0" y="0" width="11" style="stroke-linecap:butt; clip-path:url(#clipPath12); fill:none; stroke-linejoin:round; stroke-miterlimit:0;" height="60" />
    </g>
    <g transform="translate(894,320)" style="font-size:14; fill:rgb(122,207,245); text-rendering:geometricPrecision; font-family:sans-serif; stroke:rgb(122,207,245);">
      <rect x="0" y="0" width="99" style="clip-path:url(#clipPath13); stroke:none;" height="60" />
    </g>
    <g transform="translate(894,320)" style="font-size:14; stroke-linecap:butt; text-rendering:geometricPrecision; font-family:sans-serif; stroke-linejoin:round; stroke-miterlimit:0;">
      <rect x="0" y="0" width="99" style="clip-path:url(#clipPath13); fill:none;" height="60" />
    </g>
    <g style="text-rendering:geometricPrecision; font-size:14; font-family:sans-serif;" transform="translate(894,320)">
      <text x="14" y="36" style="clip-path:url(#clipPath14); stroke:none;" xml:space="preserve">會員資料表</text>
    </g>
    <g style="text-rendering:geometricPrecision; font-size:14; font-family:sans-serif;" transform="translate(0,80)">
      <circle style="clip-path:url(#clipPath15); stroke:none;" r="10" cx="20" cy="10" />
    </g>
    <g transform="translate(80,60)" style="font-size:14; fill:rgb(122,207,245); text-rendering:geometricPrecision; font-family:sans-serif; stroke:rgb(122,207,245);">
      <rect x="1" y="1" width="97" style="clip-path:url(#clipPath16); stroke:none;" rx="15" ry="15" height="57" />
    </g>
    <g transform="translate(80,60)" style="font-size:14; stroke-linecap:butt; text-rendering:geometricPrecision; font-family:sans-serif; stroke-linejoin:round; stroke-miterlimit:0;">
      <rect x="1" y="1" width="97" style="clip-path:url(#clipPath16); fill:none;" rx="15" ry="15" height="57" />
    </g>
    <g style="text-rendering:geometricPrecision; font-size:14; font-family:sans-serif;" transform="translate(80,60)">
      <text x="7" y="36" style="clip-path:url(#clipPath17); stroke:none;" xml:space="preserve">開啟註冊頁面</text>
    </g>
    <g transform="translate(200,160)" style="font-size:14; fill:rgb(122,207,245); text-rendering:geometricPrecision; font-family:sans-serif; stroke:rgb(122,207,245);">
      <rect x="1" y="1" width="97" style="clip-path:url(#clipPath16); stroke:none;" rx="15" ry="15" height="57" />
    </g>
    <g transform="translate(200,160)" style="font-size:14; stroke-linecap:butt; text-rendering:geometricPrecision; font-family:sans-serif; stroke-linejoin:round; stroke-miterlimit:0;">
      <rect x="1" y="1" width="97" style="clip-path:url(#clipPath16); fill:none;" rx="15" ry="15" height="57" />
    </g>
    <g style="text-rendering:geometricPrecision; font-size:14; font-family:sans-serif;" transform="translate(200,160)">
      <text x="7" y="36" style="clip-path:url(#clipPath17); stroke:none;" xml:space="preserve">輸入註冊資訊</text>
    </g>
    <g transform="translate(480,53)" style="font-size:14; fill:rgb(122,207,245); text-rendering:geometricPrecision; font-family:sans-serif; stroke:rgb(122,207,245);">
      <rect x="1" y="1" width="106" style="clip-path:url(#clipPath18); stroke:none;" rx="15" ry="15" height="38" />
    </g>
    <g transform="translate(480,53)" style="font-size:14; stroke-linecap:butt; text-rendering:geometricPrecision; font-family:sans-serif; stroke-linejoin:round; stroke-miterlimit:0;">
      <rect x="1" y="1" width="106" style="clip-path:url(#clipPath18); fill:none;" rx="15" ry="15" height="38" />
    </g>
    <g style="text-rendering:geometricPrecision; font-size:14; font-family:sans-serif;" transform="translate(480,53)">
      <text x="12" y="26" style="clip-path:url(#clipPath19); stroke:none;" xml:space="preserve">驗證註冊資訊</text>
    </g>
    <g transform="translate(547,213)" style="font-size:14; fill:rgb(122,207,245); text-rendering:geometricPrecision; font-family:sans-serif; stroke:rgb(122,207,245);">
      <polygon style="clip-path:url(#clipPath20); stroke:none;" points=" 24 7 46 20 24 32 3 20" />
    </g>
    <g transform="translate(547,213)" style="font-size:14; stroke-linecap:butt; text-rendering:geometricPrecision; font-family:sans-serif; stroke-linejoin:round; stroke-miterlimit:0;">
      <polygon style="fill:none; clip-path:url(#clipPath20);" points=" 24 7 46 20 24 32 3 20" />
    </g>
    <g transform="translate(530,330)" style="font-size:14; fill:rgb(122,207,245); text-rendering:geometricPrecision; font-family:sans-serif; stroke:rgb(122,207,245);">
      <rect x="1" y="1" width="86" style="clip-path:url(#clipPath21); stroke:none;" rx="15" ry="15" height="38" />
    </g>
    <g transform="translate(530,330)" style="font-size:14; stroke-linecap:butt; text-rendering:geometricPrecision; font-family:sans-serif; stroke-linejoin:round; stroke-miterlimit:0;">
      <rect x="1" y="1" width="86" style="clip-path:url(#clipPath21); fill:none;" rx="15" ry="15" height="38" />
    </g>
    <g style="text-rendering:geometricPrecision; font-size:14; font-family:sans-serif;" transform="translate(530,330)">
      <text x="16" y="26" style="clip-path:url(#clipPath22); stroke:none;" xml:space="preserve">新增會員</text>
    </g>
    <g transform="translate(340,209)" style="font-size:14; fill:rgb(122,207,245); text-rendering:geometricPrecision; font-family:sans-serif; stroke:rgb(122,207,245);">
      <rect x="1" y="1" width="137" style="clip-path:url(#clipPath23); stroke:none;" rx="15" ry="15" height="56" />
    </g>
    <g transform="translate(340,209)" style="font-size:14; stroke-linecap:butt; text-rendering:geometricPrecision; font-family:sans-serif; stroke-linejoin:round; stroke-miterlimit:0;">
      <rect x="1" y="1" width="137" style="clip-path:url(#clipPath23); fill:none;" rx="15" ry="15" height="56" />
    </g>
    <g style="text-rendering:geometricPrecision; font-size:14; font-family:sans-serif;" transform="translate(340,209)">
      <text x="13" y="36" style="clip-path:url(#clipPath24); stroke:none;" xml:space="preserve">傳送驗證失敗訊息</text>
    </g>
    <g transform="translate(209,320)" style="font-size:14; fill:rgb(122,207,245); text-rendering:geometricPrecision; font-family:sans-serif; stroke:rgb(122,207,245);">
      <rect x="1" y="1" width="78" style="clip-path:url(#clipPath25); stroke:none;" rx="15" ry="15" height="57" />
    </g>
    <g transform="translate(209,320)" style="font-size:14; stroke-linecap:butt; text-rendering:geometricPrecision; font-family:sans-serif; stroke-linejoin:round; stroke-miterlimit:0;">
      <rect x="1" y="1" width="78" style="clip-path:url(#clipPath25); fill:none;" rx="15" ry="15" height="57" />
    </g>
    <g style="text-rendering:geometricPrecision; font-size:14; font-family:sans-serif;" transform="translate(209,320)">
      <text x="12" y="36" style="clip-path:url(#clipPath26); stroke:none;" xml:space="preserve">新增成功</text>
    </g>
    <g transform="translate(20,320)" style="font-size:14; fill:rgb(122,207,245); text-rendering:geometricPrecision; font-family:sans-serif; stroke:rgb(122,207,245);">
      <rect x="1" y="1" width="137" style="clip-path:url(#clipPath27); stroke:none;" rx="15" ry="15" height="57" />
    </g>
    <g transform="translate(20,320)" style="font-size:14; stroke-linecap:butt; text-rendering:geometricPrecision; font-family:sans-serif; stroke-linejoin:round; stroke-miterlimit:0;">
      <rect x="1" y="1" width="137" style="clip-path:url(#clipPath27); fill:none;" rx="15" ry="15" height="57" />
    </g>
    <g style="text-rendering:geometricPrecision; font-size:14; font-family:sans-serif;" transform="translate(20,320)">
      <text x="13" y="36" style="clip-path:url(#clipPath28); stroke:none;" xml:space="preserve">開啟會員資料頁面</text>
    </g>
    <g style="text-rendering:geometricPrecision; font-size:14; font-family:sans-serif;" transform="translate(70,410)">
      <circle style="clip-path:url(#clipPath29); stroke:none;" r="6.6667" cx="10" cy="10" />
      <circle style="stroke-linecap:butt; clip-path:url(#clipPath29); fill:none; stroke-linejoin:round; stroke-miterlimit:0;" r="10" cx="10" cy="10" />
    </g>
    <g transform="translate(640,24)" style="font-size:14; fill:rgb(122,207,245); text-rendering:geometricPrecision; font-family:sans-serif; stroke:rgb(122,207,245);">
      <polygon style="clip-path:url(#clipPath30); stroke:none;" points=" 0 0 144 0 159 15 144 15 144 0 159 15 159 59 0 59" />
    </g>
    <g transform="translate(640,24)" style="font-size:14; stroke-linecap:butt; text-rendering:geometricPrecision; font-family:sans-serif; stroke-linejoin:round; stroke-miterlimit:0;">
      <polygon style="fill:none; clip-path:url(#clipPath30);" points=" 0 0 144 0 159 15 144 15 144 0 159 15 159 59 0 59" />
    </g>
    <g style="text-rendering:geometricPrecision; font-size:11; font-family:sans-serif;" transform="translate(640,24)">
      <path d="M8.2188 19.676 L6.9844 19.676 L6.9844 11.8323 Q6.5469 12.2542 5.8203 12.6839 Q5.0938 13.1135 4.5312 13.3167 L4.5312 12.1292 Q5.5625 11.6448 6.3359 10.9573 Q7.1094 10.2698 7.4219 9.6135 L8.2188 9.6135 L8.2188 19.676 ZM12.2656 19.676 L12.2656 18.2698 L13.6719 18.2698 L13.6719 19.676 L12.2656 19.676 ZM17.6094 9.2229 L18.4531 9.8167 L24.8438 9.8167 L25.2812 9.2229 Q25.7656 9.5354 26 9.801 Q26.0938 9.8948 26.0938 9.9885 Q26.0938 10.1135 25.5938 10.426 L25.5938 12.1135 Q25.5938 13.1448 25.6406 13.4573 Q25.6562 13.8479 25.6562 14.0979 Q25.6562 14.2854 25.5156 14.3948 Q25.3438 14.4729 25.2344 14.4729 Q24.9375 14.4729 24.9375 14.301 L24.9375 13.926 L18.3438 13.926 L18.3438 14.4104 Q18.3438 14.5823 18.0469 14.5823 Q17.9375 14.5823 17.7656 14.5042 Q17.6094 14.3792 17.6094 14.2073 Q17.6094 13.9573 17.6562 13.5667 Q17.7344 13.2542 17.7344 12.2229 L17.7344 10.1604 Q17.7344 9.6292 17.6094 9.2229 ZM18.3438 13.551 L24.9375 13.551 L24.9375 12.0667 L18.3438 12.0667 L18.3438 13.551 ZM18.3438 11.6917 L24.9375 11.6917 L24.9375 10.2073 L18.3438 10.2073 L18.3438 11.6917 ZM15.3281 15.1292 Q15.9219 15.301 16.9062 15.301 L26.75 15.301 L27.4062 14.5198 Q27.9531 14.9104 28.4219 15.301 Q28.5469 15.3635 28.5469 15.4573 Q28.5469 15.676 28.3438 15.676 L22.2031 15.676 L22.2031 17.8635 L25.3906 17.8635 L26.0469 17.0979 Q26.5625 17.4885 27.0156 17.8635 Q27.1406 17.926 27.1406 18.0198 Q27.1406 18.2542 26.9062 18.2542 L22.2031 18.2542 L22.2031 20.8167 Q22.5 20.8323 22.75 20.8635 Q23.5938 20.9729 24.875 20.9729 Q25.7969 20.9729 26.7344 20.8948 Q27.7188 20.801 28.5469 20.6604 L28.5469 20.926 Q27.9531 21.051 27.8438 21.5198 Q26.6719 21.5823 25.5781 21.5823 Q23.5938 21.5823 22.6719 21.426 Q21.6094 21.3167 21.0781 21.1135 Q20.5625 20.926 19.9844 20.5198 Q19.4688 20.1448 19.0156 19.5042 Q18.6719 19.0979 18.4531 18.5979 Q18.3281 18.926 18.1562 19.2385 Q17.9062 19.7698 17.6406 20.1604 Q17.3594 20.5354 17.0469 20.8323 Q16.75 21.176 16.375 21.4417 Q16.0156 21.7542 15.5469 22.0198 L15.3281 21.8167 Q15.9062 21.4104 16.25 21.051 Q16.6406 20.7073 16.9219 20.3167 Q17.1406 20.0042 17.3594 19.6292 Q17.5469 19.2698 17.75 18.801 Q17.9531 18.3323 18.0938 17.8635 Q18.2344 17.3479 18.3125 17.0198 Q18.3906 16.676 18.3906 16.3948 Q18.9844 16.551 19.2969 16.6917 Q19.4844 16.7698 19.4844 16.8792 Q19.4844 16.9885 19.3438 17.0354 Q19.1406 17.0979 18.9375 17.1604 Q18.7812 17.676 18.6406 18.1448 L18.6406 18.1604 Q19 18.926 19.4375 19.4729 Q19.8281 19.9104 20.3594 20.2073 Q20.8125 20.4885 21.3438 20.6448 Q21.4531 20.676 21.5469 20.6917 L21.5469 15.676 L16.9062 15.676 Q15.9375 15.676 15.5938 15.7229 L15.3281 15.1292 ZM29.7031 9.9417 Q30.2969 10.0979 31.2969 10.0979 L40.5469 10.0979 L41.2031 9.3323 Q41.75 9.7229 42.2188 10.0979 Q42.3438 10.176 42.3438 10.2542 Q42.3438 10.4729 42.1094 10.4729 L36.7344 10.4729 Q36.4688 10.9729 36.1562 11.3948 L36.1562 11.9573 Q37.6875 12.4417 38.8281 12.9573 Q40.0625 13.5198 40.7031 13.9417 Q41.4219 14.3479 41.7031 14.6135 Q41.9688 14.8323 42.0781 15.0354 Q42.1875 15.2542 42.1875 15.4104 Q42.1875 15.676 41.9531 15.676 Q41.7656 15.676 41.5781 15.5823 Q41.3281 15.5198 40.875 15.1135 Q40.25 14.5354 39.5 14.051 Q38.7969 13.5354 37.9062 13.051 Q37.1094 12.6135 36.1562 12.1917 L36.1562 15.5667 Q36.1562 15.8948 36.1719 15.9885 Q36.2031 16.2229 36.2031 16.3948 Q36.2031 16.676 36.0156 16.7698 L39.3438 16.7698 L39.7656 16.1604 Q40.25 16.4729 40.4844 16.7542 Q40.5938 16.8479 40.5938 16.9417 Q40.5938 17.0667 40.0469 17.3635 L40.0469 20.2854 Q40.2656 20.4729 40.4531 20.6135 Q40.5469 20.6604 40.5469 20.7229 Q40.5469 20.926 40.4375 20.926 L32.5469 20.926 L32.5469 21.5198 Q32.5469 21.7073 32.2812 21.7073 Q32.1562 21.7073 31.9688 21.6135 Q31.8438 21.4885 31.8438 21.301 Q31.8438 21.0667 31.875 20.676 Q31.9375 20.3635 31.9375 19.3479 L31.9375 17.0979 Q31.9375 16.5667 31.8438 16.1604 L32.6562 16.7698 L35.5156 16.7698 Q35.4375 16.6917 35.4375 16.6135 Q35.4375 16.3167 35.4688 15.8635 Q35.5 15.3792 35.5 15.0198 L35.5 12.176 Q34.7969 12.9729 33.9531 13.6448 Q33.1719 14.301 32.1562 14.9573 Q31.1562 15.5667 29.7031 16.2698 L29.5469 16.0042 Q31 15.2385 32.0156 14.5198 Q33.0156 13.8479 33.8125 13.051 Q34.5781 12.3792 35.1406 11.5979 Q35.6094 10.9885 35.8906 10.4729 L31.2969 10.4729 Q30.3281 10.4885 29.9844 10.5354 L29.7031 9.9417 ZM32.5469 20.551 L39.4531 20.551 L39.4531 17.1604 L32.5469 17.1604 L32.5469 20.551 ZM43.5 10.801 Q44.0781 10.9729 45.0781 10.9729 L48.0156 10.9729 Q48.0938 10.7698 48.1719 10.5667 Q48.5 9.6448 48.6406 8.8479 Q49.3281 8.9573 49.6875 9.1135 Q49.8906 9.1604 49.8906 9.2698 Q49.8906 9.3948 49.6406 9.4885 Q49.3906 9.5667 49.1875 9.6135 Q48.9531 10.3635 48.7188 10.9729 L54.7969 10.9729 L55.5156 10.1604 Q56.0625 10.5667 56.5312 10.9573 Q56.6562 11.0354 56.6562 11.1448 Q56.6562 11.3635 56.4375 11.3635 L48.5469 11.3635 Q48.4219 11.6604 48.2969 11.9417 Q47.9062 12.6917 47.4375 13.3792 L53.5469 13.3792 L54 12.7698 Q54.4844 13.0823 54.7031 13.3635 Q54.7969 13.4729 54.7969 13.551 Q54.7969 13.676 54.25 13.9729 L54.25 20.6135 Q54.25 21.0667 54.0469 21.301 Q53.8594 21.5198 53.5156 21.6604 Q53.2344 21.8167 53 21.8167 Q53 21.4885 52.8281 21.3479 Q52.6562 21.176 52.1875 21.051 Q51.6875 20.9104 51.0469 20.8635 L51.0469 20.551 Q52.1875 20.7542 53.1094 20.7542 Q53.4531 20.7542 53.5469 20.6917 Q53.6562 20.6135 53.6562 20.3167 L53.6562 18.301 L47.5469 18.301 Q47.4688 18.8635 47.3125 19.3635 Q47.125 20.051 46.875 20.5198 Q46.5781 21.0823 46.0469 21.7073 L45.8438 21.4104 Q46.2344 20.8323 46.4375 20.3479 Q46.5938 19.8948 46.7188 19.4417 Q46.8281 19.0198 46.9062 18.3323 Q47 17.6917 47 16.551 L47 13.9885 Q46.2344 14.9573 45.5156 15.5823 Q44.7188 16.2229 43.5469 17.051 L43.3281 16.7698 Q44.3594 16.0198 45.0156 15.4104 Q45.6406 14.8479 46.2031 14.1135 Q46.7656 13.4104 47.2969 12.5042 Q47.6094 11.9573 47.8594 11.3635 L45.0781 11.3635 Q44.1094 11.3792 43.75 11.4104 L43.5 10.801 ZM47.5781 17.9104 L53.6562 17.9104 L53.6562 15.9573 L47.6562 15.9573 L47.6562 16.551 Q47.6562 17.3167 47.5781 17.9104 ZM47.6562 15.5667 L53.6562 15.5667 L53.6562 13.7542 L47.6562 13.7542 L47.6562 15.5667 ZM59.0156 11.2542 Q59.6094 11.4104 60.5938 11.4104 L63.6094 11.4104 L63.6094 10.0979 Q63.6094 9.3635 63.5469 9.0042 Q64.3438 9.0979 64.8438 9.301 Q65.0469 9.3792 65.0469 9.5042 Q65.0469 9.6292 64.8438 9.6604 Q64.5938 9.7854 64.2656 9.8167 L64.2656 11.4104 L67.1562 11.4104 L67.8281 10.6448 Q68.3281 11.0354 68.7969 11.4104 Q68.9062 11.4729 68.9062 11.5667 Q68.9062 11.801 68.6875 11.801 L64.2656 11.801 L64.2656 14.6448 L68.4375 14.6448 L69.1406 13.8167 Q69.6875 14.2385 70.1719 14.6292 Q70.2969 14.6917 70.2969 14.801 Q70.2969 15.0198 70.0625 15.0198 L64.5625 15.0198 Q65.0938 15.9104 65.7188 16.6292 Q66.3906 17.3792 67.25 18.0979 Q68.1094 18.7698 68.9844 19.2385 Q69.8125 19.676 70.5469 19.8948 L70.5469 20.1135 Q69.8281 20.1135 69.5781 20.551 Q68.7188 20.1448 68.0312 19.5979 Q67.2656 18.9885 66.7031 18.3479 Q66.0625 17.7385 65.4844 16.9885 Q64.9062 16.2542 64.2656 15.2073 L64.2656 20.6135 Q64.2656 20.9104 64.2969 21.0198 Q64.3281 21.2698 64.3281 21.4104 Q64.3281 21.8635 63.8906 21.8635 Q63.5469 21.8635 63.5469 21.6448 Q63.5469 21.3479 63.5781 20.8948 Q63.6094 20.4104 63.6094 20.0667 L63.6094 15.426 Q63.2344 16.051 62.8125 16.5823 Q62.1719 17.4104 61.3906 18.0823 Q60.6875 18.7385 59.8125 19.3792 Q58.9219 19.9573 57.6406 20.6604 L57.5 20.3792 Q58.75 19.6292 59.6094 18.9417 Q60.4844 18.301 61.1875 17.4885 Q61.8438 16.8479 62.3125 16.1135 Q62.7344 15.5198 62.9688 15.0198 L59.2969 15.0198 Q58.3281 15.0198 57.9844 15.0667 L57.7031 14.4729 Q58.2969 14.6448 59.2969 14.6448 L63.6094 14.6448 L63.6094 11.801 L60.5938 11.801 Q59.6406 11.8167 59.2969 11.8479 L59.0156 11.2542 ZM71.3281 12.8323 Q71.9219 13.0042 72.9062 13.0042 L73.0156 13.0042 L73.0156 10.426 Q73.0156 9.6917 72.9531 9.3323 Q73.75 9.4417 74.25 9.6292 Q74.4531 9.6917 74.4531 9.8167 Q74.4531 9.9573 74.25 9.9885 Q74 10.1292 73.6875 10.1604 L73.6875 13.0042 L74.1562 13.0042 L74.7656 12.3479 Q75.25 12.676 75.6875 13.0198 Q75.7969 13.0823 75.7969 13.1604 Q75.7969 13.3792 75.6562 13.3792 L73.6875 13.3792 L73.6875 17.6292 Q73.875 17.551 74.0625 17.4729 Q74.7812 17.2229 75.6875 16.8167 L75.75 17.0979 Q75.0156 17.5667 74.4531 17.8479 Q73.8281 18.1604 73.2812 18.3792 Q72.7656 18.6292 72.1875 18.801 Q72.0469 19.2854 71.9844 19.2854 Q71.8594 19.2854 71.3281 18.1917 Q72.125 18.0667 72.75 17.8792 Q72.875 17.8635 73.0156 17.8167 L73.0156 13.3792 L72.9062 13.3792 Q71.9375 13.3792 71.5938 13.4417 L71.3281 12.8323 ZM75.3125 10.3635 Q75.9062 10.5354 76.8906 10.5354 L79.2031 10.5354 Q79.2188 10.4729 79.2188 10.4417 Q79.3281 9.6135 79.3594 8.9573 Q80.0469 9.0354 80.5 9.176 Q80.6094 9.2073 80.6094 9.3323 Q80.6094 9.4417 80.3906 9.5042 Q80.1562 9.5823 79.9531 9.6135 Q79.9062 10.0667 79.8125 10.5354 L82.75 10.5354 L83.4062 9.7698 Q83.9219 10.1604 84.3906 10.5354 Q84.5 10.6135 84.5 10.7073 Q84.5 10.9104 84.2969 10.9104 L79.75 10.9104 L79.75 10.926 Q79.6406 11.5667 79.5156 12.176 L81.5469 12.176 L82 11.5667 Q82.4844 11.8792 82.7031 12.1604 Q82.7969 12.2698 82.7969 12.3479 Q82.7969 12.4729 82.25 12.7698 L82.25 18.5667 L82.75 18.5667 L83.4062 17.801 Q83.9219 18.1917 84.3906 18.5667 Q84.5 18.6292 84.5 18.7385 Q84.5 18.9573 84.2969 18.9573 L76.7969 18.9573 Q75.8281 18.9573 75.4844 19.0042 L75.2031 18.4104 Q75.7969 18.5667 76.7969 18.5667 L76.8438 18.5667 L76.8438 12.5042 Q76.8438 11.9573 76.75 11.5667 L77.5469 12.176 L78.8438 12.176 Q79.0469 11.4885 79.1406 10.9104 L76.8906 10.9104 Q75.9375 10.926 75.5938 10.9729 L75.3125 10.3635 ZM77.4375 18.5667 L81.6562 18.5667 L81.6562 17.426 L77.4375 17.426 L77.4375 18.5667 ZM77.4375 17.051 L81.6562 17.051 L81.6562 15.676 L77.4375 15.676 L77.4375 17.051 ZM77.4375 15.301 L81.6562 15.301 L81.6562 14.0979 L77.4375 14.0979 L77.4375 15.301 ZM77.4375 13.7073 L81.6562 13.7073 L81.6562 12.551 L77.4375 12.551 L77.4375 13.7073 ZM78.1562 20.2698 Q77.625 20.6448 77.0469 20.8792 Q76.4844 21.1604 75.9375 21.3635 Q75.2656 21.5979 74.5938 21.7542 L74.4531 21.4729 Q75.4375 21.1292 76.1094 20.7698 Q76.8125 20.4417 77.2031 20.1448 Q77.5938 19.8323 77.8906 19.4573 Q78.3906 19.7385 78.7656 20.0198 Q78.8125 20.0667 78.8125 20.1604 Q78.8125 20.2698 78.5469 20.2698 L78.1562 20.2698 ZM80.7969 19.5042 Q81.5625 19.6917 82.3281 19.9885 Q83.1094 20.301 83.5 20.5354 Q83.8906 20.7698 84.0312 20.926 Q84.1875 21.0979 84.2812 21.2698 Q84.3438 21.3792 84.3438 21.5198 Q84.3438 21.8167 84.1094 21.8167 Q84.0312 21.8167 83.8906 21.7073 Q83.7656 21.6135 83.5781 21.4417 Q83.25 21.1604 82.9844 20.9573 Q82.625 20.7385 82.1094 20.4885 Q81.5625 20.1604 80.6094 19.7229 L80.7969 19.5042 ZM91.2344 8.8479 Q91.5 9.0042 91.7344 9.1604 Q91.9531 9.3323 92.0938 9.4729 Q92.2656 9.6135 92.3281 9.7229 Q92.3906 9.8323 92.3906 9.9417 Q92.3906 10.2073 92.2969 10.3479 Q92.2344 10.4417 92.1719 10.4729 L97.0312 10.4729 L97.4062 10.051 Q97.8594 10.3479 98.25 10.7385 Q98.2969 10.7542 98.2969 10.801 Q98.2969 10.9104 98 10.9729 Q97.7812 11.0198 97.5781 11.0823 Q97.3906 11.301 97.1562 11.5354 Q96.8906 11.8167 96.6562 12.0042 L96.4375 11.8479 Q96.6562 11.5667 96.7969 11.3323 Q96.9531 11.0823 97.0312 10.8635 L87.1719 10.8635 Q87.1562 11.1448 87.1094 11.3948 Q87.0469 11.8167 86.9219 12.0979 Q86.8125 12.3479 86.6719 12.5042 Q86.5469 12.6604 86.4062 12.7229 Q86.2812 12.7698 86.1875 12.7698 Q85.8594 12.7698 85.8594 12.551 Q85.8594 12.4417 86.0469 12.2698 Q86.4219 11.8167 86.5938 11.4885 Q86.7812 11.1917 86.8906 10.801 Q86.9844 10.426 87.0156 9.8167 L87.1875 9.8167 L87.1875 10.4729 L91.8594 10.4729 Q91.8125 10.4104 91.7812 10.2698 Q91.7344 10.051 91.6094 9.8167 Q91.5 9.6135 91.375 9.426 Q91.2344 9.2229 91 9.0042 L91.2344 8.8479 ZM91 12.1135 Q90.625 12.2229 90.2031 12.301 Q89.7656 12.3948 89.3594 12.4417 Q88.9219 12.5042 88.5 12.5354 L88.5 13.8167 L89.8594 13.8167 L90.4062 13.2698 Q90.8281 13.5667 91.1875 13.8479 Q91.2969 13.9104 91.2969 13.9729 Q91.2969 14.2073 91.1094 14.2073 L88.5 14.2073 L88.5 15.4573 L95.3438 15.4573 L95.3438 14.1448 L94.0781 14.1448 Q92.9844 14.1448 92.75 14.2073 L92.5469 13.6604 Q93.0781 13.7542 94.0781 13.7542 L95.3438 13.7542 L95.3438 12.551 L93.8438 12.551 Q92.7656 12.551 92.5469 12.6135 L92.3281 12.0667 Q92.8438 12.176 93.8438 12.176 L95.2344 12.176 L95.6562 11.5667 Q96.1406 11.8792 96.3594 12.1604 Q96.4844 12.2698 96.4844 12.3479 Q96.4844 12.4729 96 12.7698 L96 13.9729 Q96 15.0042 96.0156 15.3167 Q96.0469 15.7073 96.0469 15.9573 Q96.0469 16.1292 95.8906 16.2542 Q95.7031 16.3323 95.5938 16.3323 Q95.3438 16.3323 95.3438 16.1604 L95.3438 15.8479 L88.5 15.8479 L88.5 16.2229 Q88.5 16.3948 88.2344 16.3948 Q88.1094 16.3948 87.9062 16.3167 Q87.7969 16.1917 87.7969 16.0042 Q87.7969 15.7698 87.8125 15.3635 Q87.9062 15.051 87.9062 14.0354 L87.9062 12.5042 Q87.9062 11.9573 87.7969 11.5667 L88.5938 12.176 L88.5938 12.1917 Q89.0938 12.0667 89.4375 11.9573 Q89.9531 11.7854 90.25 11.6292 Q90.5312 11.4885 90.75 11.301 Q91.25 11.5979 91.625 11.8635 Q91.6562 11.9104 91.6562 12.0042 Q91.6562 12.1135 91.4062 12.1135 L91 12.1135 ZM89.6875 15.8948 Q90.3125 16.0042 90.75 16.1917 Q90.8438 16.2229 90.8438 16.3323 Q90.8438 16.4417 90.625 16.4885 Q90.3438 16.551 90.1406 16.551 Q89.9375 16.8635 89.7031 17.0979 L96.75 17.0979 L97.25 16.6604 Q97.7031 16.9104 97.9531 17.1604 Q98.0625 17.2542 98.0625 17.3167 Q98.0625 17.4885 97.5156 17.7073 Q97.4219 18.8948 97.2344 19.7385 Q97.0469 20.6135 96.8438 20.9885 Q96.6562 21.3635 96.4219 21.5198 Q96.1406 21.7229 95.8594 21.8635 Q95.5938 21.9573 95.4531 21.9573 Q95.4531 21.7073 95.3125 21.5667 Q95.1406 21.3792 93.6406 20.926 L93.7031 20.6604 Q95.0938 21.0979 95.5469 21.0979 Q95.7344 21.0979 95.8906 21.0354 Q96.0156 20.9885 96.1094 20.8635 Q96.25 20.7229 96.4219 20.3479 Q96.5625 19.9885 96.6562 19.2854 Q96.7969 18.6135 96.8594 17.4729 L89.2969 17.4729 Q89.1094 17.6448 88.8906 17.8167 Q88.4219 18.1604 88.0156 18.3948 Q87.5938 18.6604 87.125 18.8792 Q86.6094 19.1448 86.0469 19.3479 L85.8125 19.0667 Q86.5156 18.801 87.0312 18.4885 Q87.5 18.1917 88 17.8479 Q88.4844 17.4729 88.8438 17.1292 Q89.1719 16.801 89.3594 16.5198 Q89.5781 16.2229 89.6875 15.8948 ZM88.2344 18.6917 L88.3906 18.6917 L88.3906 19.2854 Q88.3906 19.6917 88.2969 20.0823 Q88.2031 20.4573 88.0312 20.7229 Q87.9062 20.926 87.7031 21.0667 Q87.5312 21.2229 87.3594 21.2698 Q87.2031 21.301 87.0781 21.301 Q86.75 21.301 86.75 21.0979 Q86.75 20.9729 86.9531 20.8323 Q87.4688 20.4104 87.6875 20.1448 Q87.9062 19.8948 88.0469 19.5354 Q88.1719 19.2229 88.2344 18.6917 ZM90.2969 18.4573 Q90.4844 18.7385 90.6406 19.051 Q90.7812 19.3948 90.8438 19.6604 Q90.8906 19.9729 90.8906 20.2073 Q90.8906 20.4417 90.8438 20.6135 Q90.7812 20.7542 90.6719 20.8323 Q90.5781 20.8635 90.5156 20.8635 Q90.2969 20.8635 90.2969 20.6604 Q90.2812 20.5667 90.3125 20.3792 Q90.3594 20.1135 90.2969 19.7229 Q90.2656 19.2385 90.0938 18.5198 L90.2969 18.4573 ZM92.3281 18.2542 Q92.5781 18.4729 92.7812 18.7385 Q93.0312 18.9573 93.1562 19.1604 Q93.3125 19.3792 93.3594 19.5354 Q93.4062 19.676 93.4062 19.8323 Q93.4062 20.0667 93.3438 20.2073 Q93.2344 20.3792 93.0938 20.3792 Q93.0156 20.3792 92.9688 20.3167 Q92.9219 20.2698 92.8594 20.051 Q92.8281 19.7385 92.7031 19.4729 Q92.5938 19.176 92.4688 18.9573 Q92.3281 18.7073 92.0938 18.4104 L92.3281 18.2542 ZM94.25 17.9104 Q94.7812 18.2073 95.0938 18.5198 Q95.375 18.7542 95.5 19.0042 Q95.5938 19.176 95.5938 19.3479 Q95.5938 19.7698 95.3438 19.7698 Q95.25 19.7698 95.1719 19.7229 Q95.125 19.676 95.0312 19.4885 Q94.8594 19.0354 94.6719 18.7542 Q94.4375 18.4417 94.0781 18.1448 L94.25 17.9104 ZM99.4375 10.6448 Q100.0312 10.801 101.0156 10.801 L103.1406 10.801 L103.75 10.2073 Q104.2031 10.5354 104.5781 10.8323 Q104.6875 10.8948 104.6875 10.9729 Q104.6875 11.1917 104.5156 11.1917 L102.1562 11.1917 L102.1562 16.8792 Q102.3438 16.801 102.5156 16.7385 Q103.3281 16.4417 104.4062 15.8948 L104.4531 16.1604 Q103.5781 16.7542 102.8906 17.0979 Q102.1562 17.4729 101.4844 17.7542 Q100.875 18.0354 100.1875 18.2542 Q100.0469 18.7385 99.9844 18.7385 Q99.8594 18.7385 99.3281 17.6448 Q100.25 17.4885 100.9844 17.2542 Q101.25 17.2073 101.5 17.0979 L101.5 11.1917 L101.0156 11.1917 Q100.0469 11.2073 99.7031 11.2542 L99.4375 10.6448 ZM104.5781 9.6604 Q105.1719 9.8167 106.1562 9.8167 L110.7969 9.8167 L111.4062 9.1604 Q111.8906 9.5198 112.3281 9.8323 Q112.4375 9.8948 112.4375 9.9885 Q112.4375 10.2073 112.2969 10.2073 L108.6562 10.2073 Q108.4375 10.7229 108.1875 11.1292 Q107.9062 11.6604 107.4844 12.2229 L110.6875 12.2229 L111.1406 11.6292 Q111.6406 11.9417 111.8594 12.2073 Q111.9531 12.3167 111.9531 12.3948 Q111.9531 12.5198 111.4531 12.8323 L111.4531 17.1604 Q111.4531 18.176 111.5 18.4885 Q111.5156 18.8792 111.5156 19.1135 Q111.5156 19.3167 111.375 19.426 Q111.2031 19.5042 111.0938 19.5042 Q110.7969 19.5042 110.7969 19.3479 L110.7969 18.8479 L106.9688 18.8479 Q107.4219 19.1135 107.75 19.3635 Q107.7969 19.3948 107.7969 19.5042 Q107.7969 19.6135 107.5312 19.6135 L107.1562 19.6135 Q106.625 20.176 106.0781 20.5667 Q105.5469 21.0198 105.0156 21.3167 Q104.3906 21.7073 103.75 21.9104 L103.5938 21.6448 Q104.5469 21.1604 105.1875 20.6604 Q105.8438 20.176 106.2188 19.7698 Q106.5781 19.3479 106.8281 18.8479 L105.6562 18.8479 L105.6562 19.4573 Q105.6562 19.6135 105.4062 19.6135 Q105.2812 19.6135 105.0781 19.5354 Q104.9531 19.426 104.9531 19.2229 Q104.9531 18.9885 104.9844 18.5979 Q105.0625 18.2854 105.0625 17.2542 L105.0625 12.551 Q105.0625 12.0198 104.9531 11.6292 L105.7812 12.2229 L107.1406 12.2229 Q107.4375 11.6604 107.6094 11.0979 Q107.8125 10.6292 107.875 10.2073 L106.1562 10.2073 Q105.1875 10.2073 104.8438 10.2542 L104.5781 9.6604 ZM105.6562 18.4573 L110.7969 18.4573 L110.7969 16.6604 L105.6562 16.6604 L105.6562 18.4573 ZM105.6562 16.2698 L110.7969 16.2698 L110.7969 14.5823 L105.6562 14.5823 L105.6562 16.2698 ZM105.6562 14.2073 L110.7969 14.2073 L110.7969 12.6135 L105.6562 12.6135 L105.6562 14.2073 ZM109.0469 19.5042 Q109.7812 19.6917 110.5 19.9885 Q111.2031 20.301 111.5625 20.5354 Q111.9219 20.7698 112.0469 20.926 Q112.1875 21.0979 112.2969 21.2698 Q112.3438 21.3792 112.3438 21.5198 Q112.3438 21.8167 112.1094 21.8167 Q112.0469 21.8167 111.9219 21.7073 Q111.7969 21.6135 111.625 21.4417 Q111.3125 21.1604 111.0781 20.9573 Q110.75 20.7385 110.3125 20.4885 Q109.8125 20.1604 108.9375 19.7229 L109.0469 19.5042 ZM115.7969 9.2698 L116.5938 9.8792 L123.3906 9.8792 L123.8281 9.2698 Q124.3125 9.5823 124.5469 9.8635 Q124.6562 9.9729 124.6562 10.051 Q124.6562 10.176 124.1406 10.4729 L124.1406 19.3948 Q124.1406 20.4104 124.1875 20.7229 Q124.2031 21.1292 124.2031 21.3635 Q124.2031 21.551 124.0625 21.676 Q123.8906 21.7542 123.7656 21.7542 Q123.5 21.7542 123.5 21.5823 L123.5 20.8635 L116.5 20.8635 L116.5 21.5823 Q116.5 21.7542 116.2344 21.7542 Q116.1094 21.7542 115.9062 21.676 Q115.7969 21.551 115.7969 21.3635 Q115.7969 21.1292 115.8125 20.7229 Q115.9062 20.4104 115.9062 19.3948 L115.9062 10.2073 Q115.9062 9.6604 115.7969 9.2698 ZM116.5 20.5042 L123.5 20.5042 L123.5 17.1604 L116.5 17.1604 L116.5 20.5042 ZM116.5 16.7698 L123.5 16.7698 L123.5 13.551 L116.5 13.551 L116.5 16.7698 ZM116.5 13.1604 L123.5 13.1604 L123.5 10.2542 L116.5 10.2542 L116.5 13.1604 Z" style="clip-path:url(#clipPath31); stroke:none;" />
      <path d="M10.0469 37.4885 L10.0469 38.676 L3.4219 38.676 Q3.4062 38.2385 3.5625 37.8167 Q3.8281 37.1448 4.3828 36.4885 Q4.9375 35.8323 5.9844 34.9729 Q7.625 33.6292 8.1953 32.8479 Q8.7656 32.0667 8.7656 31.3635 Q8.7656 30.6292 8.2422 30.1292 Q7.7188 29.6292 6.8906 29.6292 Q6 29.6292 5.4609 30.1604 Q4.9219 30.6917 4.9219 31.6448 L3.6562 31.5042 Q3.7812 30.0979 4.6328 29.3557 Q5.4844 28.6135 6.9062 28.6135 Q8.3594 28.6135 9.1953 29.4104 Q10.0312 30.2073 10.0312 31.3948 Q10.0312 32.0042 9.7891 32.5823 Q9.5469 33.1604 8.9766 33.801 Q8.4062 34.4417 7.0781 35.5667 Q5.9688 36.4885 5.6562 36.8245 Q5.3438 37.1604 5.1406 37.4885 L10.0469 37.4885 ZM12.2656 38.676 L12.2656 37.2698 L13.6719 37.2698 L13.6719 38.676 L12.2656 38.676 ZM15.5469 30.9573 Q16.1406 31.1135 17.1406 31.1135 L17.7344 31.1135 L17.7344 29.2073 Q17.7344 28.4729 17.6875 28.1135 Q18.4531 28.2073 18.9688 28.4104 Q19.1406 28.4885 19.1406 28.6135 Q19.1406 28.7229 18.9688 28.7698 Q18.7031 28.8948 18.3906 28.9417 L18.3906 31.1135 L19.0469 31.1135 L19.6562 30.4573 Q20.1406 30.8167 20.5625 31.1292 Q20.6875 31.1917 20.6875 31.2854 Q20.6875 31.5042 20.5156 31.5042 L18.3906 31.5042 L18.3906 32.5823 Q19.0625 32.926 19.4531 33.2698 Q19.8594 33.5823 20.0469 33.9104 Q20.2031 34.1292 20.2031 34.3479 Q20.2031 34.7854 19.9062 34.7854 Q19.7969 34.7854 19.6875 34.7073 Q19.6094 34.6604 19.5 34.4104 Q19.2188 33.8479 18.9219 33.4885 Q18.6875 33.2385 18.3906 32.9729 L18.3906 39.6604 Q18.3906 39.9573 18.4219 40.0667 Q18.4531 40.301 18.4531 40.4729 Q18.4531 40.9104 18 40.9104 Q17.6875 40.9104 17.6875 40.7073 Q17.6875 40.3948 17.7031 39.9417 Q17.7344 39.4729 17.7344 39.1135 L17.7344 33.3635 Q17.4688 34.0667 17.1719 34.676 Q16.8594 35.3323 16.4531 35.9885 Q16.0625 36.5979 15.5 37.301 L15.3281 37.0823 Q15.8281 36.3167 16.1719 35.5823 Q16.5312 34.9104 16.8125 34.0823 Q17.0781 33.4104 17.2656 32.6448 Q17.4219 32.0354 17.5156 31.5042 L17.1406 31.5042 Q16.1562 31.5198 15.8125 31.551 L15.5469 30.9573 ZM23.0469 28.1135 Q23.6562 28.3323 24.1094 28.551 Q24.1875 28.6292 24.1875 28.7073 Q24.1875 28.8323 23.9531 28.8792 Q23.7031 28.9417 23.5938 28.9417 Q23.3125 29.4417 23.0469 29.9104 L26 29.9104 L26.5469 29.426 Q27 29.7854 27.2969 30.051 Q27.4062 30.1448 27.4062 30.2542 Q27.4062 30.3323 27.2031 30.426 Q26.9844 30.551 26.6875 30.6292 Q26.0156 32.051 25.3906 32.8479 Q25.125 33.2229 24.9062 33.4729 Q25.2969 33.801 25.7969 34.0979 Q26.5469 34.5823 27.2969 34.8323 Q27.9531 35.1135 28.6562 35.2229 L28.6562 35.3948 Q27.8438 35.3948 27.6875 35.8792 Q26.6719 35.5042 26.0469 35.0354 Q25.1562 34.551 24.5312 33.9104 L24.5156 33.8948 Q24.375 34.0198 24.2812 34.0979 Q23.6562 34.5667 22.9375 34.9885 Q22.1875 35.426 21.4531 35.6917 L22.2031 36.2542 L26.1406 36.2542 L26.5938 35.6604 Q27.0938 35.9729 27.3125 36.2385 Q27.4062 36.3323 27.4062 36.426 Q27.4062 36.551 26.9062 36.8635 L26.9062 37.6292 Q26.9062 38.6448 26.9531 38.9573 Q26.9844 39.301 26.9844 39.5198 Q27.2188 39.7073 27.4375 39.8792 Q27.5156 39.926 27.5156 39.9729 Q27.5156 40.2073 27.4062 40.2073 L22.0938 40.2073 L22.0938 40.5198 Q22.0938 40.7073 21.8438 40.7073 Q21.7031 40.7073 21.5156 40.6135 Q21.4062 40.4885 21.4062 40.301 Q21.4062 40.0667 21.4219 39.676 Q21.5 39.3635 21.5 38.3479 L21.5 36.5979 Q21.5 36.0979 21.4062 35.7073 Q21.3906 35.7229 21.3594 35.7385 Q20.5 36.0979 19.4375 36.3167 L19.3594 36.0979 Q20.7344 35.676 21.3438 35.3792 Q21.9531 35.0979 22.8281 34.5979 Q23.5 34.1604 24.1562 33.5354 Q23.6406 33.0354 23.2656 32.4417 Q22.8125 31.7073 22.4375 30.8479 Q22.0469 31.4104 21.625 31.8479 Q21.0469 32.4104 20.25 33.0354 L20.0312 32.926 Q20.75 32.2542 21.25 31.6448 Q21.6406 31.1135 22.0312 30.4729 Q22.4062 29.8479 22.6719 29.2698 Q22.9062 28.7542 23.0469 28.1135 ZM22.0938 39.8167 L26.25 39.8167 L26.25 36.6448 L22.0938 36.6448 L22.0938 39.8167 ZM22.6719 30.5198 Q23.1406 31.4885 23.5469 32.051 Q24.0156 32.7073 24.5 33.1448 Q24.8594 32.7073 25.2031 32.1604 Q25.7188 31.3948 26.0938 30.301 L22.7969 30.301 Q22.7188 30.4104 22.6719 30.5198 ZM29.5469 30.8479 Q30.1406 31.0042 31.1406 31.0042 L37.2656 31.0042 Q37.25 30.3479 37.25 29.8635 Q37.2344 28.3792 37.1562 27.8948 Q38.25 28.1604 38.25 28.3323 Q38.25 28.4573 37.8438 28.6135 Q37.8438 29.926 37.9062 31.0042 L40.4844 31.0042 L41.2031 30.1917 Q41.75 30.5979 42.2188 30.9885 Q42.3438 31.0667 42.3438 31.176 Q42.3438 31.3948 42.1094 31.3948 L37.9219 31.3948 Q37.9688 32.301 38.0625 33.0667 Q38.2344 34.676 38.4688 35.6135 Q38.6875 36.6292 39.0156 37.2854 Q39.3594 37.9573 39.8906 38.5823 Q40.3438 39.1917 40.875 39.5979 Q41.1094 39.8167 41.2969 39.8167 Q41.375 39.8167 41.4688 39.7229 Q41.5938 39.4729 42.2344 36.7542 L42.4375 36.9104 Q41.9531 39.0979 41.9531 39.8167 Q41.9531 40.0823 42.1875 40.2385 Q42.3438 40.3948 42.3438 40.6448 Q42.3438 40.9104 41.9531 40.9104 Q41.75 40.9104 41.5625 40.8167 Q41.1875 40.7073 40.6562 40.2229 Q39.9062 39.7073 39.375 38.9573 Q38.7656 38.1448 38.4375 37.4104 Q38.125 36.7229 37.8125 35.4729 Q37.5312 34.2229 37.4062 32.7385 Q37.3438 32.0198 37.2969 31.3948 L31.1406 31.3948 Q30.1562 31.4104 29.8125 31.4573 L29.5469 30.8479 ZM29.9844 33.9104 Q30.5781 34.0667 31.5625 34.0667 L35 34.0667 L35.6562 33.301 Q36.1719 33.6917 36.6406 34.0667 Q36.75 34.1292 36.75 34.2385 Q36.75 34.4573 36.5469 34.4573 L33.5938 34.4573 L33.5938 38.4729 Q33.9844 38.3792 34.3594 38.2385 Q35.5469 37.8948 37.1562 37.301 L37.1875 37.5667 Q35.8125 38.2073 34.75 38.5823 Q33.5938 39.0198 32.5625 39.3167 Q31.5781 39.6448 30.5312 39.8635 Q30.375 40.3635 30.2969 40.3635 Q30.1875 40.3635 29.6406 39.2698 Q31.0312 39.0979 32.1094 38.8323 Q32.5156 38.7542 32.9375 38.6448 L32.9375 34.4573 L31.5625 34.4573 Q30.5938 34.4573 30.25 34.5042 L29.9844 33.9104 ZM39.1094 28.2229 Q39.8906 28.4885 40.3281 28.7698 Q40.75 29.0042 40.9375 29.2229 Q41.0938 29.3792 41.0938 29.5354 Q41.0938 29.9729 40.75 29.9729 Q40.6406 29.9729 40.5469 29.926 Q40.4375 29.8635 40.3281 29.6917 Q40.0781 29.2698 39.7812 29.0198 Q39.4844 28.7385 38.9375 28.4417 L39.1094 28.2229 ZM45.6094 28.2229 L46.4531 28.8167 L52.8438 28.8167 L53.2812 28.2229 Q53.7656 28.5354 54 28.801 Q54.0938 28.8948 54.0938 28.9885 Q54.0938 29.1135 53.5938 29.426 L53.5938 31.1135 Q53.5938 32.1448 53.6406 32.4573 Q53.6562 32.8479 53.6562 33.0979 Q53.6562 33.2854 53.5156 33.3948 Q53.3438 33.4729 53.2344 33.4729 Q52.9375 33.4729 52.9375 33.301 L52.9375 32.926 L46.3438 32.926 L46.3438 33.4104 Q46.3438 33.5823 46.0469 33.5823 Q45.9375 33.5823 45.7656 33.5042 Q45.6094 33.3792 45.6094 33.2073 Q45.6094 32.9573 45.6562 32.5667 Q45.7344 32.2542 45.7344 31.2229 L45.7344 29.1604 Q45.7344 28.6292 45.6094 28.2229 ZM46.3438 32.551 L52.9375 32.551 L52.9375 31.0667 L46.3438 31.0667 L46.3438 32.551 ZM46.3438 30.6917 L52.9375 30.6917 L52.9375 29.2073 L46.3438 29.2073 L46.3438 30.6917 ZM43.3281 34.1292 Q43.9219 34.301 44.9062 34.301 L54.75 34.301 L55.4062 33.5198 Q55.9531 33.9104 56.4219 34.301 Q56.5469 34.3635 56.5469 34.4573 Q56.5469 34.676 56.3438 34.676 L50.2031 34.676 L50.2031 36.8635 L53.3906 36.8635 L54.0469 36.0979 Q54.5625 36.4885 55.0156 36.8635 Q55.1406 36.926 55.1406 37.0198 Q55.1406 37.2542 54.9062 37.2542 L50.2031 37.2542 L50.2031 39.8167 Q50.5 39.8323 50.75 39.8635 Q51.5938 39.9729 52.875 39.9729 Q53.7969 39.9729 54.7344 39.8948 Q55.7188 39.801 56.5469 39.6604 L56.5469 39.926 Q55.9531 40.051 55.8438 40.5198 Q54.6719 40.5823 53.5781 40.5823 Q51.5938 40.5823 50.6719 40.426 Q49.6094 40.3167 49.0781 40.1135 Q48.5625 39.926 47.9844 39.5198 Q47.4688 39.1448 47.0156 38.5042 Q46.6719 38.0979 46.4531 37.5979 Q46.3281 37.926 46.1562 38.2385 Q45.9062 38.7698 45.6406 39.1604 Q45.3594 39.5354 45.0469 39.8323 Q44.75 40.176 44.375 40.4417 Q44.0156 40.7542 43.5469 41.0198 L43.3281 40.8167 Q43.9062 40.4104 44.25 40.051 Q44.6406 39.7073 44.9219 39.3167 Q45.1406 39.0042 45.3594 38.6292 Q45.5469 38.2698 45.75 37.801 Q45.9531 37.3323 46.0938 36.8635 Q46.2344 36.3479 46.3125 36.0198 Q46.3906 35.676 46.3906 35.3948 Q46.9844 35.551 47.2969 35.6917 Q47.4844 35.7698 47.4844 35.8792 Q47.4844 35.9885 47.3438 36.0354 Q47.1406 36.0979 46.9375 36.1604 Q46.7812 36.676 46.6406 37.1448 L46.6406 37.1604 Q47 37.926 47.4375 38.4729 Q47.8281 38.9104 48.3594 39.2073 Q48.8125 39.4885 49.3438 39.6448 Q49.4531 39.676 49.5469 39.6917 L49.5469 34.676 L44.9062 34.676 Q43.9375 34.676 43.5938 34.7229 L43.3281 34.1292 ZM57.7031 28.9417 Q58.2969 29.0979 59.2969 29.0979 L68.5469 29.0979 L69.2031 28.3323 Q69.75 28.7229 70.2188 29.0979 Q70.3438 29.176 70.3438 29.2542 Q70.3438 29.4729 70.1094 29.4729 L64.7344 29.4729 Q64.4688 29.9729 64.1562 30.3948 L64.1562 30.9573 Q65.6875 31.4417 66.8281 31.9573 Q68.0625 32.5198 68.7031 32.9417 Q69.4219 33.3479 69.7031 33.6135 Q69.9688 33.8323 70.0781 34.0354 Q70.1875 34.2542 70.1875 34.4104 Q70.1875 34.676 69.9531 34.676 Q69.7656 34.676 69.5781 34.5823 Q69.3281 34.5198 68.875 34.1135 Q68.25 33.5354 67.5 33.051 Q66.7969 32.5354 65.9062 32.051 Q65.1094 31.6135 64.1562 31.1917 L64.1562 34.5667 Q64.1562 34.8948 64.1719 34.9885 Q64.2031 35.2229 64.2031 35.3948 Q64.2031 35.676 64.0156 35.7698 L67.3438 35.7698 L67.7656 35.1604 Q68.25 35.4729 68.4844 35.7542 Q68.5938 35.8479 68.5938 35.9417 Q68.5938 36.0667 68.0469 36.3635 L68.0469 39.2854 Q68.2656 39.4729 68.4531 39.6135 Q68.5469 39.6604 68.5469 39.7229 Q68.5469 39.926 68.4375 39.926 L60.5469 39.926 L60.5469 40.5198 Q60.5469 40.7073 60.2812 40.7073 Q60.1562 40.7073 59.9688 40.6135 Q59.8438 40.4885 59.8438 40.301 Q59.8438 40.0667 59.875 39.676 Q59.9375 39.3635 59.9375 38.3479 L59.9375 36.0979 Q59.9375 35.5667 59.8438 35.1604 L60.6562 35.7698 L63.5156 35.7698 Q63.4375 35.6917 63.4375 35.6135 Q63.4375 35.3167 63.4688 34.8635 Q63.5 34.3792 63.5 34.0198 L63.5 31.176 Q62.7969 31.9729 61.9531 32.6448 Q61.1719 33.301 60.1562 33.9573 Q59.1562 34.5667 57.7031 35.2698 L57.5469 35.0042 Q59 34.2385 60.0156 33.5198 Q61.0156 32.8479 61.8125 32.051 Q62.5781 31.3792 63.1406 30.5979 Q63.6094 29.9885 63.8906 29.4729 L59.2969 29.4729 Q58.3281 29.4885 57.9844 29.5354 L57.7031 28.9417 ZM60.5469 39.551 L67.4531 39.551 L67.4531 36.1604 L60.5469 36.1604 L60.5469 39.551 ZM71.9375 29.2073 Q72.5156 29.3635 73.5 29.3635 L82.3594 29.3635 L83.0938 28.551 Q83.6406 28.9729 84.0938 29.3479 Q84.2344 29.426 84.2344 29.5354 Q84.2344 29.7542 84 29.7542 L78.6406 29.7542 L78.6406 33.9573 L81.3906 33.9573 L82.0938 33.1448 Q82.6562 33.551 83.125 33.9417 Q83.25 34.0198 83.25 34.1292 Q83.25 34.3479 83.0312 34.3479 L78.6406 34.3479 L78.6406 39.551 L82.6875 39.551 L83.4531 38.6604 Q84.0312 39.1135 84.5312 39.5198 Q84.6562 39.6135 84.6562 39.7229 Q84.6562 39.926 84.4375 39.926 L72.9062 39.926 Q71.9375 39.9417 71.5938 39.9729 L71.3281 39.3792 Q71.9219 39.551 72.9062 39.551 L74.1562 39.551 L74.1562 33.3635 Q74.1562 32.6292 74.1094 32.2698 Q74.8906 32.3635 75.4062 32.5667 Q75.5938 32.6448 75.5938 32.7542 Q75.5938 32.8792 75.4062 32.926 Q75.1406 33.0667 74.8281 33.0979 L74.8281 39.551 L78 39.551 L78 29.7542 L73.5 29.7542 Q72.5469 29.7698 72.1875 29.801 L71.9375 29.2073 ZM85.4375 29.1604 Q86.0312 29.3167 87.0156 29.3167 L89.1406 29.3167 L89.75 28.6604 Q90.25 29.0042 90.6719 29.3167 Q90.7969 29.3948 90.7969 29.4729 Q90.7969 29.7073 90.6406 29.7073 L88.0781 29.7073 Q87.9531 30.4417 87.8281 31.0042 Q87.6719 31.6292 87.4531 32.3167 Q87.2969 32.7854 87.125 33.2385 L87.5625 33.4729 L89.0938 33.4729 L89.4844 33.0354 Q90.2031 33.4729 90.2031 33.6448 Q90.2031 33.7854 89.7969 34.0198 L89.7969 38.5979 Q89.9844 38.7385 90.1094 38.8323 Q90.2031 38.8948 90.2031 38.9573 Q90.2031 39.1604 90.0938 39.1604 L87.3906 39.1604 L87.3906 39.551 Q87.3906 39.676 87.25 39.7385 Q87.0312 39.8167 86.9062 39.8167 Q86.75 39.8167 86.75 39.6604 L86.75 34.0354 Q86.5469 34.4885 86.3281 34.8792 Q86 35.3792 85.5 35.9885 L85.3281 35.7073 Q85.7344 35.1135 86.0469 34.4885 Q86.3594 33.8635 86.6406 33.0354 Q86.9219 32.1604 87.125 31.2229 Q87.2656 30.4729 87.3594 29.7073 L87.0156 29.7073 Q86.0469 29.7229 85.7031 29.7542 L85.4375 29.1604 ZM87.3906 38.7698 L89.1406 38.7698 L89.1406 33.8635 L87.3906 33.8635 L87.3906 38.7698 ZM91.5 28.9417 L91.6562 28.9417 L91.6562 29.5354 Q91.6562 29.6604 91.6406 29.7542 L93.3281 29.7542 Q93.375 29.6292 93.4062 29.4885 Q93.6562 28.7229 93.75 28.051 Q94.375 28.1448 94.7188 28.301 Q94.9062 28.3479 94.9062 28.4417 Q94.9062 28.551 94.6875 28.6135 Q94.4688 28.676 94.2969 28.7073 Q94.1406 29.3167 93.9844 29.7542 L97.4531 29.7542 L97.8438 29.3167 Q98.2969 29.6448 98.6719 29.9885 Q98.7344 30.0354 98.7344 30.0823 Q98.7344 30.1917 98.4375 30.2542 Q98.2188 30.301 98 30.3635 Q97.8281 30.6292 97.5625 30.9573 Q97.2969 31.2854 97.0312 31.551 L96.7969 31.3948 Q97.0781 31.051 97.2188 30.7385 Q97.375 30.4104 97.4531 30.1448 L93.8438 30.1448 Q93.7344 30.426 93.6406 30.6604 Q93.25 31.551 92.7031 32.3635 Q92.5312 32.6135 92.3906 32.8167 L95.0312 32.8167 Q94.9844 32.7698 94.9375 32.5979 Q94.8906 32.3479 94.7656 32.1135 Q94.6562 31.8792 94.5 31.676 Q94.3594 31.4729 94.1406 31.2229 L94.3438 31.0667 Q94.6406 31.2385 94.8594 31.426 Q95.1094 31.5979 95.2656 31.7542 Q95.4375 31.926 95.4844 32.051 Q95.5469 32.1604 95.5469 32.2698 Q95.5469 32.5354 95.4688 32.7073 Q95.4219 32.7854 95.3438 32.8167 L96.7969 32.8167 L97.4062 32.1604 Q97.8906 32.5042 98.3281 32.8167 Q98.4375 32.8948 98.4375 32.9729 Q98.4375 33.2073 98.2969 33.2073 L95.2812 33.2073 L95.2812 35.051 L96.6875 35.051 L97.2969 34.4573 Q97.75 34.7854 98.1094 35.0823 Q98.2344 35.1448 98.2344 35.2229 Q98.2344 35.4417 98.0625 35.4417 L95.2812 35.4417 L95.2812 37.3635 L96.5938 37.3635 L97.2031 36.7542 Q97.6406 37.0823 98.0156 37.3792 Q98.1094 37.4417 98.1094 37.5198 Q98.1094 37.7385 97.9531 37.7385 L95.2812 37.7385 L95.2812 39.6604 L97.0312 39.6604 L97.6406 39.0042 Q98.1094 39.3323 98.5469 39.676 Q98.6562 39.7229 98.6562 39.8167 Q98.6562 40.051 98.5 40.051 L92.4688 40.051 Q92.5 40.2698 92.5 40.4104 Q92.5 40.8635 92.0469 40.8635 Q91.7344 40.8635 91.7344 40.6448 Q91.7344 40.3479 91.75 39.8948 Q91.7812 39.4104 91.7812 39.0667 L91.7812 33.5198 Q91.6719 33.6448 91.5938 33.7229 Q91 34.2698 90.1406 34.9573 L89.9844 34.676 Q90.7031 34.051 91.1875 33.5354 Q91.625 33.0667 92.0156 32.4573 Q92.4062 31.8792 92.7969 31.0979 Q93.0312 30.6448 93.2031 30.1448 L91.625 30.1448 Q91.6094 30.2542 91.5938 30.3323 Q91.5156 30.7073 91.4062 30.9573 Q91.3125 31.176 91.1562 31.3167 Q91.0156 31.4729 90.8906 31.5042 Q90.7812 31.551 90.6875 31.551 Q90.3438 31.551 90.3438 31.3479 Q90.3438 31.2229 90.5156 31.0667 Q90.9062 30.6604 91.0781 30.3948 Q91.2656 30.1448 91.375 29.7854 Q91.4688 29.4729 91.5 28.9417 ZM92.4375 39.6604 L94.6094 39.6604 L94.6094 37.7385 L92.4375 37.7385 L92.4375 39.6135 Q92.4375 39.6448 92.4375 39.6604 ZM94.6094 37.3635 L94.6094 35.4417 L92.4375 35.4417 L92.4375 37.3635 L94.6094 37.3635 ZM94.6094 35.051 L94.6094 33.2073 L92.4375 33.2073 L92.4375 35.051 L94.6094 35.051 Z" style="clip-path:url(#clipPath31); stroke:none;" />
    </g>
    <g transform="translate(258,51)" style="font-size:14; stroke-linecap:butt; text-rendering:geometricPrecision; font-family:sans-serif; stroke-linejoin:round;">
      <line x1="40" x2="242" y1="138" style="clip-path:url(#clipPath35); fill:none;" y2="138" />
      <line x1="242" x2="242" y1="138" style="clip-path:url(#clipPath35); fill:none;" y2="40" />
      <line x1="242" x2="236" y1="40" style="clip-path:url(#clipPath35); fill:none;" y2="52" />
      <line x1="242" x2="248" y1="40" style="clip-path:url(#clipPath35); fill:none;" y2="52" />
    </g>
    <g transform="translate(547,20)" style="font-size:14; stroke-linecap:butt; text-rendering:geometricPrecision; font-family:sans-serif; stroke-linejoin:round; stroke-dasharray:4;">
      <line x1="40" x2="92" y1="40" style="clip-path:url(#clipPath36); fill:none;" y2="40" />
    </g>
    <g transform="translate(531,51)" style="font-size:14; stroke-linecap:butt; text-rendering:geometricPrecision; font-family:sans-serif; stroke-linejoin:round;">
      <line x1="41" x2="40" y1="40" style="clip-path:url(#clipPath37); fill:none;" y2="172" />
      <line x1="40" x2="46" y1="172" style="clip-path:url(#clipPath37); fill:none;" y2="160" />
      <line x1="40" x2="34" y1="172" style="clip-path:url(#clipPath37); fill:none;" y2="160" />
    </g>
    <g transform="translate(531,206)" style="font-size:14; stroke-linecap:butt; text-rendering:geometricPrecision; font-family:sans-serif; stroke-linejoin:round;">
      <line x1="40" x2="40" y1="40" style="clip-path:url(#clipPath38); fill:none;" y2="124" />
      <line x1="40" x2="46" y1="124" style="clip-path:url(#clipPath38); fill:none;" y2="112" />
      <line x1="40" x2="34" y1="124" style="clip-path:url(#clipPath38); fill:none;" y2="112" />
    </g>
    <g transform="translate(439,192)" style="font-size:14; stroke-linecap:butt; text-rendering:geometricPrecision; font-family:sans-serif; stroke-linejoin:round;">
      <line x1="113" x2="40" y1="40" style="clip-path:url(#clipPath39); fill:none;" y2="40" />
      <line x1="40" x2="52" y1="40" style="clip-path:url(#clipPath39); fill:none;" y2="46" />
      <line x1="40" x2="52" y1="40" style="clip-path:url(#clipPath39); fill:none;" y2="34" />
    </g>
    <g transform="translate(247,310)" style="font-size:14; stroke-linecap:butt; text-rendering:geometricPrecision; font-family:sans-serif; stroke-linejoin:round;">
      <line x1="282" x2="40" y1="40" style="clip-path:url(#clipPath40); fill:none;" y2="40" />
      <line x1="40" x2="52" y1="40" style="clip-path:url(#clipPath40); fill:none;" y2="46" />
      <line x1="40" x2="52" y1="40" style="clip-path:url(#clipPath40); fill:none;" y2="34" />
    </g>
    <g transform="translate(119,310)" style="font-size:14; stroke-linecap:butt; text-rendering:geometricPrecision; font-family:sans-serif; stroke-linejoin:round;">
      <line x1="91" x2="40" y1="40" style="clip-path:url(#clipPath41); fill:none;" y2="40" />
      <line x1="40" x2="52" y1="40" style="clip-path:url(#clipPath41); fill:none;" y2="46" />
      <line x1="40" x2="52" y1="40" style="clip-path:url(#clipPath41); fill:none;" y2="34" />
    </g>
    <g transform="translate(-10,50)" style="font-size:11; stroke-linecap:butt; text-rendering:geometricPrecision; font-family:sans-serif; stroke-linejoin:round;">
      <line x1="40" x2="90" y1="40" style="clip-path:url(#clipPath42); fill:none;" y2="40" />
      <line x1="90" x2="78" y1="40" style="clip-path:url(#clipPath42); fill:none;" y2="34" />
      <line x1="90" x2="78" y1="40" style="clip-path:url(#clipPath42); fill:none;" y2="46" />
    </g>
    <g transform="translate(581,313)" style="font-size:11; stroke-linecap:butt; text-rendering:geometricPrecision; font-family:sans-serif; stroke-linejoin:round;">
      <line x1="37" x2="313" y1="37" style="clip-path:url(#clipPath43); fill:none;" y2="37" />
      <line x1="313" x2="301" y1="37" style="clip-path:url(#clipPath43); fill:none;" y2="31" />
      <line x1="313" x2="301" y1="37" style="clip-path:url(#clipPath43); fill:none;" y2="43" />
    </g>
    <g transform="translate(40,338)" style="font-size:11; stroke-linecap:butt; text-rendering:geometricPrecision; font-family:sans-serif; stroke-linejoin:round;">
      <line x1="40" x2="40" y1="40" style="clip-path:url(#clipPath44); fill:none;" y2="73" />
      <line x1="40" x2="46" y1="73" style="clip-path:url(#clipPath44); fill:none;" y2="61" />
      <line x1="40" x2="34" y1="73" style="clip-path:url(#clipPath44); fill:none;" y2="61" />
    </g>
    <g transform="translate(70,78)" style="font-size:11; stroke-linecap:butt; text-rendering:geometricPrecision; font-family:sans-serif; stroke-linejoin:round;">
      <line x1="40" x2="40" y1="40" style="clip-path:url(#clipPath45); fill:none;" y2="102" />
      <line x1="40" x2="78" y1="102" style="clip-path:url(#clipPath45); fill:none;" y2="102" />
      <line x1="78" x2="66" y1="102" style="clip-path:url(#clipPath45); fill:none;" y2="96" />
      <line x1="78" x2="66" y1="102" style="clip-path:url(#clipPath45); fill:none;" y2="108" />
    </g>
    <g transform="translate(70,160)" style="font-size:11; stroke-linecap:butt; text-rendering:geometricPrecision; font-family:sans-serif; stroke-linejoin:round;">
      <line x1="270" x2="40" y1="90" style="clip-path:url(#clipPath46); fill:none;" y2="90" />
      <line x1="40" x2="40" y1="90" style="clip-path:url(#clipPath46); fill:none;" y2="40" />
      <line x1="40" x2="78" y1="40" style="clip-path:url(#clipPath46); fill:none;" y2="40" />
      <line x1="78" x2="66" y1="40" style="clip-path:url(#clipPath46); fill:none;" y2="34" />
      <line x1="78" x2="66" y1="40" style="clip-path:url(#clipPath46); fill:none;" y2="46" />
    </g>
    <g transform="translate(120,150)" style="font-size:11; stroke-linecap:butt; text-rendering:geometricPrecision; font-family:sans-serif; stroke-linejoin:round;">
      <line x1="40" x2="80" y1="40" style="clip-path:url(#clipPath47); fill:none;" y2="40" />
      <line x1="80" x2="68" y1="40" style="clip-path:url(#clipPath47); fill:none;" y2="34" />
      <line x1="80" x2="68" y1="40" style="clip-path:url(#clipPath47); fill:none;" y2="46" />
    </g>
    <g style="text-rendering:geometricPrecision; font-size:14; font-family:sans-serif;" transform="translate(486,241)">
      <text x="10" y="17" style="clip-path:url(#clipPath48); stroke:none;" xml:space="preserve">[驗證失敗]</text>
    </g>
    <g style="text-rendering:geometricPrecision; font-size:14; font-family:sans-serif;" transform="translate(568,254)">
      <text x="10" y="17" style="clip-path:url(#clipPath48); stroke:none;" xml:space="preserve">[註冊成功]</text>
    </g>
  </g>
</svg>
