<?xml version="1.0" encoding="UTF-8"?>

<!DOCTYPE svg PUBLIC '-//W3C//DTD SVG 1.0//EN' 'http://www.w3.org/TR/2001/REC-SVG-20010904/DTD/svg10.dtd'>
<svg style="fill-opacity:1; color-rendering:auto; color-interpolation:auto; stroke:black; text-rendering:auto; stroke-linecap:square; stroke-miterlimit:10; stroke-opacity:1; shape-rendering:auto; fill:black; stroke-dasharray:none; font-weight:normal; stroke-width:1; font-family:&apos;Dialog&apos;; font-style:normal; stroke-linejoin:miter; font-size:12; stroke-dashoffset:0; image-rendering:auto;" xmlns="http://www.w3.org/2000/svg" width="927" xmlns:xlink="http://www.w3.org/1999/xlink" height="558">
  <!--Generated by the Batik Graphics2D SVG Generator-->
  <defs id="genericDefs" />
  <g>
    <defs id="defs1">
      <clipPath clipPathUnits="userSpaceOnUse" id="clipPath1">
        <path d="M-3 -3 L930 -3 L930 561 L-3 561 L-3 -3 Z" />
      </clipPath>
      <clipPath clipPathUnits="userSpaceOnUse" id="clipPath2">
        <path d="M0 0 L0 540 L7 540 L7 0 Z" />
      </clipPath>
      <clipPath clipPathUnits="userSpaceOnUse" id="clipPath3">
        <path d="M-3 -3 L337 -3 L337 28 L-3 28 L-3 -3 Z" />
      </clipPath>
      <clipPath clipPathUnits="userSpaceOnUse" id="clipPath4">
        <path d="M0 0 L330 0 L330 21 L0 21 L0 0 Z" />
      </clipPath>
      <clipPath clipPathUnits="userSpaceOnUse" id="clipPath5">
        <path d="M-3 -3 L337 -3 L337 540 L-3 540 L-3 -3 Z" />
      </clipPath>
      <clipPath clipPathUnits="userSpaceOnUse" id="clipPath6">
        <path d="M-3 -3 L347 -3 L347 28 L-3 28 L-3 -3 Z" />
      </clipPath>
      <clipPath clipPathUnits="userSpaceOnUse" id="clipPath7">
        <path d="M0 0 L340 0 L340 21 L0 21 L0 0 Z" />
      </clipPath>
      <clipPath clipPathUnits="userSpaceOnUse" id="clipPath8">
        <path d="M-3 -3 L347 -3 L347 540 L-3 540 L-3 -3 Z" />
      </clipPath>
      <clipPath clipPathUnits="userSpaceOnUse" id="clipPath9">
        <path d="M-3 -3 L260 -3 L260 28 L-3 28 L-3 -3 Z" />
      </clipPath>
      <clipPath clipPathUnits="userSpaceOnUse" id="clipPath10">
        <path d="M0 0 L253 0 L253 21 L0 21 L0 0 Z" />
      </clipPath>
      <clipPath clipPathUnits="userSpaceOnUse" id="clipPath11">
        <path d="M-3 -3 L260 -3 L260 540 L-3 540 L-3 -3 Z" />
      </clipPath>
      <clipPath clipPathUnits="userSpaceOnUse" id="clipPath12">
        <path d="M-3 -3 L147 -3 L147 47 L-3 47 L-3 -3 Z" />
      </clipPath>
      <clipPath clipPathUnits="userSpaceOnUse" id="clipPath13">
        <path d="M0 0 L140 0 L140 40 L0 40 L0 0 Z" />
      </clipPath>
      <clipPath clipPathUnits="userSpaceOnUse" id="clipPath14">
        <path d="M-3 -3 L47 -3 L47 27 L-3 27 L-3 -3 Z" />
      </clipPath>
      <clipPath clipPathUnits="userSpaceOnUse" id="clipPath15">
        <path d="M-3 -3 L27 -3 L27 27 L-3 27 L-3 -3 Z" />
      </clipPath>
      <clipPath clipPathUnits="userSpaceOnUse" id="clipPath16">
        <path d="M-3 -3 L27 -3 L27 47 L-3 47 L-3 -3 Z" />
      </clipPath>
      <clipPath clipPathUnits="userSpaceOnUse" id="clipPath17">
        <path d="M-3 -3 L147 -3 L147 57 L-3 57 L-3 -3 Z" />
      </clipPath>
      <clipPath clipPathUnits="userSpaceOnUse" id="clipPath18">
        <path d="M0 0 L140 0 L140 50 L0 50 L0 0 Z" />
      </clipPath>
      <clipPath clipPathUnits="userSpaceOnUse" id="clipPath19">
        <path d="M-3 -3 L157 -3 L157 57 L-3 57 L-3 -3 Z" />
      </clipPath>
      <clipPath clipPathUnits="userSpaceOnUse" id="clipPath20">
        <path d="M0 0 L150 0 L150 50 L0 50 L0 0 Z" />
      </clipPath>
      <clipPath clipPathUnits="userSpaceOnUse" id="clipPath21">
        <path d="M-3 -3 L167 -3 L167 57 L-3 57 L-3 -3 Z" />
      </clipPath>
      <clipPath clipPathUnits="userSpaceOnUse" id="clipPath22">
        <path d="M0 0 L160 0 L160 50 L0 50 L0 0 Z" />
      </clipPath>
      <clipPath clipPathUnits="userSpaceOnUse" id="clipPath23">
        <path d="M-3 -3 L117 -3 L117 57 L-3 57 L-3 -3 Z" />
      </clipPath>
      <clipPath clipPathUnits="userSpaceOnUse" id="clipPath24">
        <path d="M0 0 L110 0 L110 50 L0 50 L0 0 Z" />
      </clipPath>
      <clipPath clipPathUnits="userSpaceOnUse" id="clipPath25">
        <path d="M0 0 L253 0 L253 533 L0 533 L0 0 Z" />
      </clipPath>
      <clipPath clipPathUnits="userSpaceOnUse" id="clipPath26">
        <path d="M0 0 L340 0 L340 533 L0 533 L0 0 Z" />
      </clipPath>
      <clipPath clipPathUnits="userSpaceOnUse" id="clipPath27">
        <path d="M0 0 L330 0 L330 533 L0 533 L0 0 Z" />
      </clipPath>
      <clipPath clipPathUnits="userSpaceOnUse" id="clipPath28">
        <path d="M0 0 L104 0 L104 104 L0 104 L0 0 Z" />
      </clipPath>
      <clipPath clipPathUnits="userSpaceOnUse" id="clipPath29">
        <path d="M0 0 L428 0 L428 104 L0 104 L0 0 Z" />
      </clipPath>
      <clipPath clipPathUnits="userSpaceOnUse" id="clipPath30">
        <path d="M0 0 L195 0 L195 160 L0 160 L0 0 Z" />
      </clipPath>
      <clipPath clipPathUnits="userSpaceOnUse" id="clipPath31">
        <path d="M0 0 L274 0 L274 249 L0 249 L0 0 Z" />
      </clipPath>
      <clipPath clipPathUnits="userSpaceOnUse" id="clipPath32">
        <path d="M0 0 L104 0 L104 165 L0 165 L0 0 Z" />
      </clipPath>
      <clipPath clipPathUnits="userSpaceOnUse" id="clipPath33">
        <path d="M0 0 L415 0 L415 320 L0 320 L0 0 Z" />
      </clipPath>
      <clipPath clipPathUnits="userSpaceOnUse" id="clipPath34">
        <path d="M0 0 L335 0 L335 175 L0 175 L0 0 Z" />
      </clipPath>
      <clipPath clipPathUnits="userSpaceOnUse" id="clipPath35">
        <path d="M0 0 L104 0 L104 385 L0 385 L0 0 Z" />
      </clipPath>
      <clipPath clipPathUnits="userSpaceOnUse" id="clipPath36">
        <path d="M0 0 L205 0 L205 104 L0 104 L0 0 Z" />
      </clipPath>
      <clipPath clipPathUnits="userSpaceOnUse" id="clipPath37">
        <path d="M0 0 L104 0 L104 147 L0 147 L0 0 Z" />
      </clipPath>
      <clipPath clipPathUnits="userSpaceOnUse" id="clipPath38">
        <path d="M0 0 L426 0 L426 145 L0 145 L0 0 Z" />
      </clipPath>
      <clipPath clipPathUnits="userSpaceOnUse" id="clipPath39">
        <path d="M0 0 L56 0 L56 21 L0 21 L0 0 Z" />
      </clipPath>
    </defs>
    <g style="fill:white; text-rendering:geometricPrecision; stroke:white;">
      <rect x="0" y="0" width="927" style="stroke:none;" height="558" />
    </g>
    <g style="text-rendering:geometricPrecision; stroke-width:2; font-size:14; font-family:sans-serif;">
      <rect x="0" y="0" width="330" style="clip-path:url(#clipPath3); fill:none;" height="21" />
    </g>
    <g style="text-rendering:geometricPrecision; font-size:14; font-family:sans-serif;">
      <text x="151" y="17" style="clip-path:url(#clipPath4); stroke:none;" xml:space="preserve">會員</text>
    </g>
    <g transform="translate(0,21)" style="text-rendering:geometricPrecision; stroke-width:2; font-size:14; font-family:sans-serif;">
      <rect x="0" y="0" width="330" style="clip-path:url(#clipPath5); fill:none;" height="533" />
    </g>
    <g transform="translate(330,0)" style="text-rendering:geometricPrecision; stroke-width:2; font-size:14; font-family:sans-serif;">
      <rect x="0" y="0" width="340" style="clip-path:url(#clipPath6); fill:none;" height="21" />
    </g>
    <g style="text-rendering:geometricPrecision; font-size:14; font-family:sans-serif;" transform="translate(330,0)">
      <text x="156" y="17" style="clip-path:url(#clipPath7); stroke:none;" xml:space="preserve">系統</text>
    </g>
    <g transform="translate(330,21)" style="text-rendering:geometricPrecision; stroke-width:2; font-size:14; font-family:sans-serif;">
      <rect x="0" y="0" width="340" style="clip-path:url(#clipPath8); fill:none;" height="533" />
    </g>
    <g transform="translate(670,0)" style="text-rendering:geometricPrecision; stroke-width:2; font-size:14; font-family:sans-serif;">
      <rect x="0" y="0" width="253" style="clip-path:url(#clipPath9); fill:none;" height="21" />
    </g>
    <g style="text-rendering:geometricPrecision; font-size:14; font-family:sans-serif;" transform="translate(670,0)">
      <text x="105" y="17" style="clip-path:url(#clipPath10); stroke:none;" xml:space="preserve">資料庫</text>
    </g>
    <g transform="translate(670,21)" style="text-rendering:geometricPrecision; stroke-width:2; font-size:14; font-family:sans-serif;">
      <rect x="0" y="0" width="253" style="clip-path:url(#clipPath11); fill:none;" height="533" />
    </g>
    <g transform="translate(713,44)" style="font-size:14; fill:rgb(122,207,245); text-rendering:geometricPrecision; font-family:sans-serif; stroke:rgb(122,207,245);">
      <rect x="0" y="0" width="140" style="clip-path:url(#clipPath12); stroke:none;" height="40" />
    </g>
    <g transform="translate(713,44)" style="font-size:14; stroke-linecap:butt; text-rendering:geometricPrecision; font-family:sans-serif; stroke-linejoin:round; stroke-miterlimit:0;">
      <rect x="0" y="0" width="140" style="clip-path:url(#clipPath12); fill:none;" height="40" />
    </g>
    <g style="text-rendering:geometricPrecision; font-size:14; font-family:sans-serif;" transform="translate(713,44)">
      <text x="35" y="26" style="clip-path:url(#clipPath13); stroke:none;" xml:space="preserve">展覽資料表</text>
    </g>
    <g style="text-rendering:geometricPrecision; font-size:14; font-family:sans-serif;" transform="translate(0,54)">
      <circle style="clip-path:url(#clipPath14); stroke:none;" r="10" cx="20" cy="10" />
    </g>
    <g style="text-rendering:geometricPrecision; font-size:14; font-family:sans-serif;" transform="translate(170,500)">
      <circle style="clip-path:url(#clipPath15); stroke:none;" r="6.6667" cx="10" cy="10" />
      <circle style="stroke-linecap:butt; clip-path:url(#clipPath15); fill:none; stroke-linejoin:round; stroke-miterlimit:0;" r="10" cx="10" cy="10" />
    </g>
    <g transform="translate(170,124)" style="font-size:14; fill:rgb(122,207,245); text-rendering:geometricPrecision; font-family:sans-serif; stroke:rgb(122,207,245);">
      <polygon style="clip-path:url(#clipPath16); stroke:none;" points=" 10 7 17 20 10 32 3 20" />
    </g>
    <g transform="translate(170,124)" style="font-size:14; stroke-linecap:butt; text-rendering:geometricPrecision; font-family:sans-serif; stroke-linejoin:round; stroke-miterlimit:0;">
      <polygon style="fill:none; clip-path:url(#clipPath16);" points=" 10 7 17 20 10 32 3 20" />
    </g>
    <g transform="translate(170,124)" style="font-size:14; fill:rgb(122,207,245); text-rendering:geometricPrecision; font-family:sans-serif; stroke:rgb(122,207,245);">
      <polygon style="clip-path:url(#clipPath16); stroke:none;" points=" 10 7 17 20 10 32 3 20" />
    </g>
    <g transform="translate(170,124)" style="font-size:14; stroke-linecap:butt; text-rendering:geometricPrecision; font-family:sans-serif; stroke-linejoin:round; stroke-miterlimit:0;">
      <polygon style="fill:none; clip-path:url(#clipPath16);" points=" 10 7 17 20 10 32 3 20" />
    </g>
    <g transform="translate(510,120)" style="font-size:14; fill:rgb(122,207,245); text-rendering:geometricPrecision; font-family:sans-serif; stroke:rgb(122,207,245);">
      <rect x="1" y="1" width="138" style="clip-path:url(#clipPath17); stroke:none;" rx="15" ry="15" height="48" />
    </g>
    <g transform="translate(510,120)" style="font-size:14; stroke-linecap:butt; text-rendering:geometricPrecision; font-family:sans-serif; stroke-linejoin:round; stroke-miterlimit:0;">
      <rect x="1" y="1" width="138" style="clip-path:url(#clipPath17); fill:none;" rx="15" ry="15" height="48" />
    </g>
    <g style="text-rendering:geometricPrecision; font-size:14; font-family:sans-serif;" transform="translate(510,120)">
      <text x="14" y="31" style="clip-path:url(#clipPath18); stroke:none;" xml:space="preserve">傳送審核成功訊息</text>
    </g>
    <g transform="translate(350,280)" style="font-size:14; fill:rgb(122,207,245); text-rendering:geometricPrecision; font-family:sans-serif; stroke:rgb(122,207,245);">
      <rect x="1" y="1" width="148" style="clip-path:url(#clipPath19); stroke:none;" rx="15" ry="15" height="48" />
    </g>
    <g transform="translate(350,280)" style="font-size:14; stroke-linecap:butt; text-rendering:geometricPrecision; font-family:sans-serif; stroke-linejoin:round; stroke-miterlimit:0;">
      <rect x="1" y="1" width="148" style="clip-path:url(#clipPath19); fill:none;" rx="15" ry="15" height="48" />
    </g>
    <g style="text-rendering:geometricPrecision; font-size:14; font-family:sans-serif;" transform="translate(350,280)">
      <text x="13" y="31" style="clip-path:url(#clipPath20); stroke:none;" xml:space="preserve">變更展覽狀態(失敗)</text>
    </g>
    <g transform="translate(350,390)" style="font-size:14; fill:rgb(122,207,245); text-rendering:geometricPrecision; font-family:sans-serif; stroke:rgb(122,207,245);">
      <rect x="1" y="1" width="148" style="clip-path:url(#clipPath19); stroke:none;" rx="15" ry="15" height="48" />
    </g>
    <g transform="translate(350,390)" style="font-size:14; stroke-linecap:butt; text-rendering:geometricPrecision; font-family:sans-serif; stroke-linejoin:round; stroke-miterlimit:0;">
      <rect x="1" y="1" width="148" style="clip-path:url(#clipPath19); fill:none;" rx="15" ry="15" height="48" />
    </g>
    <g style="text-rendering:geometricPrecision; font-size:14; font-family:sans-serif;" transform="translate(350,390)">
      <text x="19" y="31" style="clip-path:url(#clipPath20); stroke:none;" xml:space="preserve">傳送審核失敗訊息</text>
    </g>
    <g transform="translate(500,450)" style="font-size:14; fill:rgb(122,207,245); text-rendering:geometricPrecision; font-family:sans-serif; stroke:rgb(122,207,245);">
      <rect x="1" y="1" width="158" style="clip-path:url(#clipPath21); stroke:none;" rx="15" ry="15" height="48" />
    </g>
    <g transform="translate(500,450)" style="font-size:14; stroke-linecap:butt; text-rendering:geometricPrecision; font-family:sans-serif; stroke-linejoin:round; stroke-miterlimit:0;">
      <rect x="1" y="1" width="158" style="clip-path:url(#clipPath21); fill:none;" rx="15" ry="15" height="48" />
    </g>
    <g style="text-rendering:geometricPrecision; font-size:14; font-family:sans-serif;" transform="translate(500,450)">
      <text x="24" y="31" style="clip-path:url(#clipPath22); stroke:none;" xml:space="preserve">傳送審核成功訊息</text>
    </g>
    <g transform="translate(130,40)" style="font-size:14; fill:rgb(122,207,245); text-rendering:geometricPrecision; font-family:sans-serif; stroke:rgb(122,207,245);">
      <rect x="1" y="1" width="108" style="clip-path:url(#clipPath23); stroke:none;" rx="15" ry="15" height="48" />
    </g>
    <g transform="translate(130,40)" style="font-size:14; stroke-linecap:butt; text-rendering:geometricPrecision; font-family:sans-serif; stroke-linejoin:round; stroke-miterlimit:0;">
      <rect x="1" y="1" width="108" style="clip-path:url(#clipPath23); fill:none;" rx="15" ry="15" height="48" />
    </g>
    <g style="text-rendering:geometricPrecision; font-size:14; font-family:sans-serif;" transform="translate(130,40)">
      <text x="13" y="31" style="clip-path:url(#clipPath24); stroke:none;" xml:space="preserve">審核展覽狀態</text>
    </g>
    <g transform="translate(136,94)" style="font-size:14; stroke-linecap:butt; text-rendering:geometricPrecision; font-family:sans-serif; stroke-linejoin:round;">
      <line x1="50" x2="374" y1="50" style="clip-path:url(#clipPath29); fill:none;" y2="50" />
      <line x1="374" x2="362" y1="50" style="clip-path:url(#clipPath29); fill:none;" y2="44" />
      <line x1="374" x2="362" y1="50" style="clip-path:url(#clipPath29); fill:none;" y2="56" />
    </g>
    <g transform="translate(599,34)" style="font-size:14; stroke-linecap:butt; text-rendering:geometricPrecision; font-family:sans-serif; stroke-linejoin:round;">
      <line x1="50" x2="141" y1="106" style="clip-path:url(#clipPath30); fill:none;" y2="106" />
      <line x1="141" x2="141" y1="106" style="clip-path:url(#clipPath30); fill:none;" y2="50" />
      <line x1="141" x2="135" y1="50" style="clip-path:url(#clipPath30); fill:none;" y2="62" />
      <line x1="141" x2="147" y1="50" style="clip-path:url(#clipPath30); fill:none;" y2="62" />
    </g>
    <g transform="translate(130,105)" style="font-size:14; stroke-linecap:butt; text-rendering:geometricPrecision; font-family:sans-serif; stroke-linejoin:round;">
      <line x1="50" x2="50" y1="50" style="clip-path:url(#clipPath31); fill:none;" y2="195" />
      <line x1="50" x2="220" y1="195" style="clip-path:url(#clipPath31); fill:none;" y2="195" />
      <line x1="220" x2="208" y1="195" style="clip-path:url(#clipPath31); fill:none;" y2="189" />
      <line x1="220" x2="208" y1="195" style="clip-path:url(#clipPath31); fill:none;" y2="201" />
    </g>
    <g transform="translate(370,279)" style="font-size:14; stroke-linecap:butt; text-rendering:geometricPrecision; font-family:sans-serif; stroke-linejoin:round;">
      <line x1="50" x2="50" y1="50" style="clip-path:url(#clipPath32); fill:none;" y2="111" />
      <line x1="50" x2="56" y1="111" style="clip-path:url(#clipPath32); fill:none;" y2="99" />
      <line x1="50" x2="44" y1="111" style="clip-path:url(#clipPath32); fill:none;" y2="99" />
    </g>
    <g transform="translate(449,34)" style="font-size:14; stroke-linecap:butt; text-rendering:geometricPrecision; font-family:sans-serif; stroke-linejoin:round;">
      <line x1="50" x2="361" y1="266" style="clip-path:url(#clipPath33); fill:none;" y2="266" />
      <line x1="361" x2="361" y1="266" style="clip-path:url(#clipPath33); fill:none;" y2="50" />
      <line x1="361" x2="355" y1="50" style="clip-path:url(#clipPath33); fill:none;" y2="62" />
      <line x1="361" x2="367" y1="50" style="clip-path:url(#clipPath33); fill:none;" y2="62" />
    </g>
    <g transform="translate(139,389)" style="font-size:14; stroke-linecap:butt; text-rendering:geometricPrecision; font-family:sans-serif; stroke-linejoin:round;">
      <line x1="281" x2="281" y1="50" style="clip-path:url(#clipPath34); fill:none;" y2="121" />
      <line x1="281" x2="50" y1="121" style="clip-path:url(#clipPath34); fill:none;" y2="121" />
      <line x1="50" x2="62" y1="121" style="clip-path:url(#clipPath34); fill:none;" y2="127" />
      <line x1="50" x2="62" y1="121" style="clip-path:url(#clipPath34); fill:none;" y2="115" />
    </g>
    <g transform="translate(530,119)" style="font-size:14; stroke-linecap:butt; text-rendering:geometricPrecision; font-family:sans-serif; stroke-linejoin:round;">
      <line x1="50" x2="50" y1="50" style="clip-path:url(#clipPath35); fill:none;" y2="331" />
      <line x1="50" x2="56" y1="331" style="clip-path:url(#clipPath35); fill:none;" y2="319" />
      <line x1="50" x2="44" y1="331" style="clip-path:url(#clipPath35); fill:none;" y2="319" />
    </g>
    <g transform="translate(-21,14)" style="font-size:14; stroke-linecap:butt; text-rendering:geometricPrecision; font-family:sans-serif; stroke-linejoin:round;">
      <line x1="50" x2="151" y1="50" style="clip-path:url(#clipPath36); fill:none;" y2="50" />
      <line x1="151" x2="139" y1="50" style="clip-path:url(#clipPath36); fill:none;" y2="44" />
      <line x1="151" x2="139" y1="50" style="clip-path:url(#clipPath36); fill:none;" y2="56" />
    </g>
    <g transform="translate(130,39)" style="font-size:14; stroke-linecap:butt; text-rendering:geometricPrecision; font-family:sans-serif; stroke-linejoin:round;">
      <line x1="50" x2="50" y1="50" style="clip-path:url(#clipPath37); fill:none;" y2="93" />
      <line x1="50" x2="56" y1="93" style="clip-path:url(#clipPath37); fill:none;" y2="81" />
      <line x1="50" x2="44" y1="93" style="clip-path:url(#clipPath37); fill:none;" y2="81" />
    </g>
    <g transform="translate(130,410)" style="font-size:11; stroke-linecap:butt; text-rendering:geometricPrecision; font-family:sans-serif; stroke-linejoin:round;">
      <line x1="372" x2="50" y1="50" style="clip-path:url(#clipPath38); fill:none;" y2="50" />
      <line x1="50" x2="50" y1="50" style="clip-path:url(#clipPath38); fill:none;" y2="91" />
      <line x1="50" x2="56" y1="91" style="clip-path:url(#clipPath38); fill:none;" y2="79" />
      <line x1="50" x2="44" y1="91" style="clip-path:url(#clipPath38); fill:none;" y2="79" />
    </g>
    <g style="text-rendering:geometricPrecision; font-size:14; font-family:sans-serif;" transform="translate(200,278)">
      <text x="10" y="17" style="clip-path:url(#clipPath39); stroke:none;" xml:space="preserve">[失敗]</text>
    </g>
    <g style="text-rendering:geometricPrecision; font-size:14; font-family:sans-serif;" transform="translate(275,122)">
      <text x="10" y="17" style="clip-path:url(#clipPath39); stroke:none;" xml:space="preserve">[成功]</text>
    </g>
  </g>
</svg>
