<?xml version="1.0" encoding="UTF-8"?>

<!DOCTYPE svg PUBLIC '-//W3C//DTD SVG 1.0//EN' 'http://www.w3.org/TR/2001/REC-SVG-20010904/DTD/svg10.dtd'>
<svg style="fill-opacity:1; color-rendering:auto; color-interpolation:auto; stroke:black; text-rendering:auto; stroke-linecap:square; stroke-miterlimit:10; stroke-opacity:1; shape-rendering:auto; fill:black; stroke-dasharray:none; font-weight:normal; stroke-width:1; font-family:&apos;Dialog&apos;; font-style:normal; stroke-linejoin:miter; font-size:12; stroke-dashoffset:0; image-rendering:auto;" xmlns="http://www.w3.org/2000/svg" width="1004" xmlns:xlink="http://www.w3.org/1999/xlink" height="442">
  <!--Generated by the Batik Graphics2D SVG Generator-->
  <defs id="genericDefs" />
  <g>
    <defs id="defs1">
      <clipPath clipPathUnits="userSpaceOnUse" id="clipPath1">
        <path d="M-3 -3 L1007 -3 L1007 441 L-3 441 L-3 -3 Z" />
      </clipPath>
      <clipPath clipPathUnits="userSpaceOnUse" id="clipPath2">
        <path d="M0 0 L0 419 L7 419 L7 0 Z" />
      </clipPath>
      <clipPath clipPathUnits="userSpaceOnUse" id="clipPath3">
        <path d="M-3 -3 L497 -3 L497 29 L-3 29 L-3 -3 Z" />
      </clipPath>
      <clipPath clipPathUnits="userSpaceOnUse" id="clipPath4">
        <path d="M0 0 L490 0 L490 21 L0 21 L0 0 Z" />
      </clipPath>
      <clipPath clipPathUnits="userSpaceOnUse" id="clipPath5">
        <path d="M-3 -3 L497 -3 L497 423 L-3 423 L-3 -3 Z" />
      </clipPath>
      <clipPath clipPathUnits="userSpaceOnUse" id="clipPath6">
        <path d="M-3 -3 L287 -3 L287 29 L-3 29 L-3 -3 Z" />
      </clipPath>
      <clipPath clipPathUnits="userSpaceOnUse" id="clipPath7">
        <path d="M0 0 L280 0 L280 21 L0 21 L0 0 Z" />
      </clipPath>
      <clipPath clipPathUnits="userSpaceOnUse" id="clipPath8">
        <path d="M-3 -3 L287 -3 L287 423 L-3 423 L-3 -3 Z" />
      </clipPath>
      <clipPath clipPathUnits="userSpaceOnUse" id="clipPath9">
        <path d="M-3 -3 L237 -3 L237 29 L-3 29 L-3 -3 Z" />
      </clipPath>
      <clipPath clipPathUnits="userSpaceOnUse" id="clipPath10">
        <path d="M0 0 L230 0 L230 21 L0 21 L0 0 Z" />
      </clipPath>
      <clipPath clipPathUnits="userSpaceOnUse" id="clipPath11">
        <path d="M-3 -3 L237 -3 L237 423 L-3 423 L-3 -3 Z" />
      </clipPath>
      <clipPath clipPathUnits="userSpaceOnUse" id="clipPath12">
        <path d="M-3 -3 L19 -3 L19 67 L-3 67 L-3 -3 Z" />
      </clipPath>
      <clipPath clipPathUnits="userSpaceOnUse" id="clipPath13">
        <path d="M-3 -3 L97 -3 L97 67 L-3 67 L-3 -3 Z" />
      </clipPath>
      <clipPath clipPathUnits="userSpaceOnUse" id="clipPath14">
        <path d="M0 0 L90 0 L90 60 L0 60 L0 0 Z" />
      </clipPath>
      <clipPath clipPathUnits="userSpaceOnUse" id="clipPath15">
        <path d="M-3 -3 L47 -3 L47 27 L-3 27 L-3 -3 Z" />
      </clipPath>
      <clipPath clipPathUnits="userSpaceOnUse" id="clipPath16">
        <path d="M-3 -3 L117 -3 L117 65 L-3 65 L-3 -3 Z" />
      </clipPath>
      <clipPath clipPathUnits="userSpaceOnUse" id="clipPath17">
        <path d="M0 0 L110 0 L110 58 L0 58 L0 0 Z" />
      </clipPath>
      <clipPath clipPathUnits="userSpaceOnUse" id="clipPath18">
        <path d="M-3 -3 L117 -3 L117 67 L-3 67 L-3 -3 Z" />
      </clipPath>
      <clipPath clipPathUnits="userSpaceOnUse" id="clipPath19">
        <path d="M0 0 L110 0 L110 60 L0 60 L0 0 Z" />
      </clipPath>
      <clipPath clipPathUnits="userSpaceOnUse" id="clipPath20">
        <path d="M-3 -3 L27 -3 L27 47 L-3 47 L-3 -3 Z" />
      </clipPath>
      <clipPath clipPathUnits="userSpaceOnUse" id="clipPath21">
        <path d="M-3 -3 L107 -3 L107 57 L-3 57 L-3 -3 Z" />
      </clipPath>
      <clipPath clipPathUnits="userSpaceOnUse" id="clipPath22">
        <path d="M0 0 L100 0 L100 50 L0 50 L0 0 Z" />
      </clipPath>
      <clipPath clipPathUnits="userSpaceOnUse" id="clipPath23">
        <path d="M-3 -3 L107 -3 L107 67 L-3 67 L-3 -3 Z" />
      </clipPath>
      <clipPath clipPathUnits="userSpaceOnUse" id="clipPath24">
        <path d="M0 0 L100 0 L100 60 L0 60 L0 0 Z" />
      </clipPath>
      <clipPath clipPathUnits="userSpaceOnUse" id="clipPath25">
        <path d="M-3 -3 L137 -3 L137 77 L-3 77 L-3 -3 Z" />
      </clipPath>
      <clipPath clipPathUnits="userSpaceOnUse" id="clipPath26">
        <path d="M0 0 L130 0 L130 70 L0 70 L0 0 Z" />
      </clipPath>
      <clipPath clipPathUnits="userSpaceOnUse" id="clipPath27">
        <path d="M-3 -3 L27 -3 L27 27 L-3 27 L-3 -3 Z" />
      </clipPath>
      <clipPath clipPathUnits="userSpaceOnUse" id="clipPath28">
        <path d="M0 0 L230 0 L230 416 L0 416 L0 0 Z" />
      </clipPath>
      <clipPath clipPathUnits="userSpaceOnUse" id="clipPath29">
        <path d="M0 0 L280 0 L280 416 L0 416 L0 0 Z" />
      </clipPath>
      <clipPath clipPathUnits="userSpaceOnUse" id="clipPath30">
        <path d="M0 0 L490 0 L490 416 L0 416 L0 0 Z" />
      </clipPath>
      <clipPath clipPathUnits="userSpaceOnUse" id="clipPath31">
        <path d="M0 0 L136 0 L136 95 L0 95 L0 0 Z" />
      </clipPath>
      <clipPath clipPathUnits="userSpaceOnUse" id="clipPath32">
        <path d="M0 0 L95 0 L95 165 L0 165 L0 0 Z" />
      </clipPath>
      <clipPath clipPathUnits="userSpaceOnUse" id="clipPath33">
        <path d="M0 0 L129 0 L129 99 L0 99 L0 0 Z" />
      </clipPath>
      <clipPath clipPathUnits="userSpaceOnUse" id="clipPath34">
        <path d="M0 0 L163 0 L163 95 L0 95 L0 0 Z" />
      </clipPath>
      <clipPath clipPathUnits="userSpaceOnUse" id="clipPath35">
        <path d="M0 0 L145 0 L145 291 L0 291 L0 0 Z" />
      </clipPath>
      <clipPath clipPathUnits="userSpaceOnUse" id="clipPath36">
        <path d="M0 0 L196 0 L196 95 L0 95 L0 0 Z" />
      </clipPath>
      <clipPath clipPathUnits="userSpaceOnUse" id="clipPath37">
        <path d="M0 0 L245 0 L245 95 L0 95 L0 0 Z" />
      </clipPath>
      <clipPath clipPathUnits="userSpaceOnUse" id="clipPath38">
        <path d="M0 0 L254 0 L254 131 L0 131 L0 0 Z" />
      </clipPath>
      <clipPath clipPathUnits="userSpaceOnUse" id="clipPath39">
        <path d="M0 0 L254 0 L254 179 L0 179 L0 0 Z" />
      </clipPath>
      <clipPath clipPathUnits="userSpaceOnUse" id="clipPath40">
        <path d="M0 0 L175 0 L175 174 L0 174 L0 0 Z" />
      </clipPath>
      <clipPath clipPathUnits="userSpaceOnUse" id="clipPath41">
        <path d="M0 0 L185 0 L185 166 L0 166 L0 0 Z" />
      </clipPath>
      <clipPath clipPathUnits="userSpaceOnUse" id="clipPath42">
        <path d="M0 0 L234 0 L234 95 L0 95 L0 0 Z" />
      </clipPath>
      <clipPath clipPathUnits="userSpaceOnUse" id="clipPath43">
        <path d="M0 0 L112 0 L112 20 L0 20 L0 0 Z" />
      </clipPath>
      <clipPath clipPathUnits="userSpaceOnUse" id="clipPath44">
        <path d="M0 0 L97 0 L97 20 L0 20 L0 0 Z" />
      </clipPath>
    </defs>
    <g style="fill:white; text-rendering:geometricPrecision; stroke:white;">
      <rect x="0" y="0" width="1004" style="stroke:none;" height="442" />
    </g>
    <g style="text-rendering:geometricPrecision; stroke-width:2; font-size:14; font-family:sans-serif;">
      <rect x="0" y="0" width="490" style="clip-path:url(#clipPath3); fill:none;" height="22" />
    </g>
    <g style="text-rendering:geometricPrecision; font-size:14; font-family:sans-serif;">
      <text x="215" y="17" style="clip-path:url(#clipPath4); stroke:none;" xml:space="preserve">訪客/會員</text>
    </g>
    <g transform="translate(0,22)" style="text-rendering:geometricPrecision; stroke-width:2; font-size:14; font-family:sans-serif;">
      <rect x="0" y="0" width="490" style="clip-path:url(#clipPath5); fill:none;" height="416" />
    </g>
    <g transform="translate(490,0)" style="text-rendering:geometricPrecision; stroke-width:2; font-size:14; font-family:sans-serif;">
      <rect x="0" y="0" width="280" style="clip-path:url(#clipPath6); fill:none;" height="22" />
    </g>
    <g style="text-rendering:geometricPrecision; font-size:14; font-family:sans-serif;" transform="translate(490,0)">
      <text x="126" y="17" style="clip-path:url(#clipPath7); stroke:none;" xml:space="preserve">系統</text>
    </g>
    <g transform="translate(490,22)" style="text-rendering:geometricPrecision; stroke-width:2; font-size:14; font-family:sans-serif;">
      <rect x="0" y="0" width="280" style="clip-path:url(#clipPath8); fill:none;" height="416" />
    </g>
    <g transform="translate(770,0)" style="text-rendering:geometricPrecision; stroke-width:2; font-size:14; font-family:sans-serif;">
      <rect x="0" y="0" width="230" style="clip-path:url(#clipPath9); fill:none;" height="22" />
    </g>
    <g style="text-rendering:geometricPrecision; font-size:14; font-family:sans-serif;" transform="translate(770,0)">
      <text x="94" y="17" style="clip-path:url(#clipPath10); stroke:none;" xml:space="preserve">資料庫</text>
    </g>
    <g transform="translate(770,22)" style="text-rendering:geometricPrecision; stroke-width:2; font-size:14; font-family:sans-serif;">
      <rect x="0" y="0" width="230" style="clip-path:url(#clipPath11); fill:none;" height="416" />
    </g>
    <g style="text-rendering:geometricPrecision; font-size:14; font-family:sans-serif;" transform="translate(530,114)">
      <rect x="0" y="0" width="12" style="clip-path:url(#clipPath12); stroke:none;" height="60" />
      <rect x="0" y="0" width="12" style="stroke-linecap:butt; clip-path:url(#clipPath12); fill:none; stroke-linejoin:round; stroke-miterlimit:0;" height="60" />
    </g>
    <g transform="translate(860,100)" style="font-size:14; fill:rgb(122,207,245); text-rendering:geometricPrecision; font-family:sans-serif; stroke:rgb(122,207,245);">
      <rect x="0" y="0" width="90" style="clip-path:url(#clipPath13); stroke:none;" height="60" />
    </g>
    <g transform="translate(860,100)" style="font-size:14; stroke-linecap:butt; text-rendering:geometricPrecision; font-family:sans-serif; stroke-linejoin:round; stroke-miterlimit:0;">
      <rect x="0" y="0" width="90" style="clip-path:url(#clipPath13); fill:none;" height="60" />
    </g>
    <g style="text-rendering:geometricPrecision; font-size:14; font-family:sans-serif;" transform="translate(860,100)">
      <text x="10" y="36" style="clip-path:url(#clipPath14); stroke:none;" xml:space="preserve">展覽資料表</text>
    </g>
    <g style="text-rendering:geometricPrecision; font-size:14; font-family:sans-serif;" transform="translate(0,35)">
      <circle style="clip-path:url(#clipPath15); stroke:none;" r="10" cx="20" cy="10" />
    </g>
    <g transform="translate(70,22)" style="font-size:14; fill:rgb(122,207,245); text-rendering:geometricPrecision; font-family:sans-serif; stroke:rgb(122,207,245);">
      <rect x="1" y="1" width="108" style="clip-path:url(#clipPath16); stroke:none;" rx="15" ry="15" height="56" />
    </g>
    <g transform="translate(70,22)" style="font-size:14; stroke-linecap:butt; text-rendering:geometricPrecision; font-family:sans-serif; stroke-linejoin:round; stroke-miterlimit:0;">
      <rect x="1" y="1" width="108" style="clip-path:url(#clipPath16); fill:none;" rx="15" ry="15" height="56" />
    </g>
    <g style="text-rendering:geometricPrecision; font-size:14; font-family:sans-serif;" transform="translate(70,22)">
      <text x="13" y="35" style="clip-path:url(#clipPath17); stroke:none;" xml:space="preserve">點選展覽頁面</text>
    </g>
    <g transform="translate(70,150)" style="font-size:14; fill:rgb(122,207,245); text-rendering:geometricPrecision; font-family:sans-serif; stroke:rgb(122,207,245);">
      <rect x="1" y="1" width="108" style="clip-path:url(#clipPath18); stroke:none;" rx="15" ry="15" height="58" />
    </g>
    <g transform="translate(70,150)" style="font-size:14; stroke-linecap:butt; text-rendering:geometricPrecision; font-family:sans-serif; stroke-linejoin:round; stroke-miterlimit:0;">
      <rect x="1" y="1" width="108" style="clip-path:url(#clipPath18); fill:none;" rx="15" ry="15" height="58" />
    </g>
    <g style="text-rendering:geometricPrecision; font-size:14; font-family:sans-serif;" transform="translate(70,150)">
      <text x="13" y="36" style="clip-path:url(#clipPath19); stroke:none;" xml:space="preserve">選擇查找方式</text>
    </g>
    <g transform="translate(210,155)" style="font-size:14; fill:rgb(122,207,245); text-rendering:geometricPrecision; font-family:sans-serif; stroke:rgb(122,207,245);">
      <polygon style="clip-path:url(#clipPath20); stroke:none;" points=" 10 7 17 20 10 32 3 20" />
    </g>
    <g transform="translate(210,155)" style="font-size:14; stroke-linecap:butt; text-rendering:geometricPrecision; font-family:sans-serif; stroke-linejoin:round; stroke-miterlimit:0;">
      <polygon style="fill:none; clip-path:url(#clipPath20);" points=" 10 7 17 20 10 32 3 20" />
    </g>
    <g transform="translate(300,45)" style="font-size:14; fill:rgb(122,207,245); text-rendering:geometricPrecision; font-family:sans-serif; stroke:rgb(122,207,245);">
      <rect x="1" y="1" width="98" style="clip-path:url(#clipPath21); stroke:none;" rx="15" ry="15" height="48" />
    </g>
    <g transform="translate(300,45)" style="font-size:14; stroke-linecap:butt; text-rendering:geometricPrecision; font-family:sans-serif; stroke-linejoin:round; stroke-miterlimit:0;">
      <rect x="1" y="1" width="98" style="clip-path:url(#clipPath21); fill:none;" rx="15" ry="15" height="48" />
    </g>
    <g style="text-rendering:geometricPrecision; font-size:14; font-family:sans-serif;" transform="translate(300,45)">
      <text x="8" y="31" style="clip-path:url(#clipPath22); stroke:none;" xml:space="preserve">選擇展覽類別</text>
    </g>
    <g transform="translate(310,245)" style="font-size:14; fill:rgb(122,207,245); text-rendering:geometricPrecision; font-family:sans-serif; stroke:rgb(122,207,245);">
      <rect x="1" y="1" width="98" style="clip-path:url(#clipPath23); stroke:none;" rx="15" ry="15" height="58" />
    </g>
    <g transform="translate(310,245)" style="font-size:14; stroke-linecap:butt; text-rendering:geometricPrecision; font-family:sans-serif; stroke-linejoin:round; stroke-miterlimit:0;">
      <rect x="1" y="1" width="98" style="clip-path:url(#clipPath23); fill:none;" rx="15" ry="15" height="58" />
    </g>
    <g style="text-rendering:geometricPrecision; font-size:14; font-family:sans-serif;" transform="translate(310,245)">
      <text x="15" y="36" style="clip-path:url(#clipPath24); stroke:none;" xml:space="preserve">輸入關鍵字</text>
    </g>
    <g transform="translate(610,105)" style="font-size:14; fill:rgb(122,207,245); text-rendering:geometricPrecision; font-family:sans-serif; stroke:rgb(122,207,245);">
      <rect x="1" y="1" width="108" style="clip-path:url(#clipPath18); stroke:none;" rx="15" ry="15" height="58" />
    </g>
    <g transform="translate(610,105)" style="font-size:14; stroke-linecap:butt; text-rendering:geometricPrecision; font-family:sans-serif; stroke-linejoin:round; stroke-miterlimit:0;">
      <rect x="1" y="1" width="108" style="clip-path:url(#clipPath18); fill:none;" rx="15" ry="15" height="58" />
    </g>
    <g style="text-rendering:geometricPrecision; font-size:14; font-family:sans-serif;" transform="translate(610,105)">
      <text x="27" y="36" style="clip-path:url(#clipPath19); stroke:none;" xml:space="preserve">查詢展覽</text>
    </g>
    <g transform="translate(510,320)" style="font-size:14; fill:rgb(122,207,245); text-rendering:geometricPrecision; font-family:sans-serif; stroke:rgb(122,207,245);">
      <rect x="1" y="1" width="128" style="clip-path:url(#clipPath25); stroke:none;" rx="15" ry="15" height="68" />
    </g>
    <g transform="translate(510,320)" style="font-size:14; stroke-linecap:butt; text-rendering:geometricPrecision; font-family:sans-serif; stroke-linejoin:round; stroke-miterlimit:0;">
      <rect x="1" y="1" width="128" style="clip-path:url(#clipPath25); fill:none;" rx="15" ry="15" height="68" />
    </g>
    <g style="text-rendering:geometricPrecision; font-size:14; font-family:sans-serif;" transform="translate(510,320)">
      <text x="9" y="41" style="clip-path:url(#clipPath26); stroke:none;" xml:space="preserve">顯示展覽查詢結果</text>
    </g>
    <g style="text-rendering:geometricPrecision; font-size:14; font-family:sans-serif;" transform="translate(110,350)">
      <circle style="clip-path:url(#clipPath27); stroke:none;" r="6.6667" cx="10" cy="10" />
      <circle style="stroke-linecap:butt; clip-path:url(#clipPath27); fill:none; stroke-linejoin:round; stroke-miterlimit:0;" r="10" cx="10" cy="10" />
    </g>
    <g transform="translate(230,320)" style="font-size:14; fill:rgb(122,207,245); text-rendering:geometricPrecision; font-family:sans-serif; stroke:rgb(122,207,245);">
      <rect x="1" y="1" width="128" style="clip-path:url(#clipPath25); stroke:none;" rx="15" ry="15" height="68" />
    </g>
    <g transform="translate(230,320)" style="font-size:14; stroke-linecap:butt; text-rendering:geometricPrecision; font-family:sans-serif; stroke-linejoin:round; stroke-miterlimit:0;">
      <rect x="1" y="1" width="128" style="clip-path:url(#clipPath25); fill:none;" rx="15" ry="15" height="68" />
    </g>
    <g style="text-rendering:geometricPrecision; font-size:14; font-family:sans-serif;" transform="translate(230,320)">
      <text x="23" y="41" style="clip-path:url(#clipPath26); stroke:none;" xml:space="preserve">開啟展覽頁面</text>
    </g>
    <g transform="translate(-16,-2)" style="font-size:14; stroke-linecap:butt; text-rendering:geometricPrecision; font-family:sans-serif; stroke-linejoin:round;">
      <line x1="45" x2="86" y1="45" style="clip-path:url(#clipPath31); fill:none;" y2="45" />
      <line x1="86" x2="74" y1="45" style="clip-path:url(#clipPath31); fill:none;" y2="39" />
      <line x1="86" x2="74" y1="45" style="clip-path:url(#clipPath31); fill:none;" y2="51" />
    </g>
    <g transform="translate(75,35)" style="font-size:14; stroke-linecap:butt; text-rendering:geometricPrecision; font-family:sans-serif; stroke-linejoin:round;">
      <line x1="45" x2="45" y1="45" style="clip-path:url(#clipPath32); fill:none;" y2="115" />
      <line x1="45" x2="51" y1="115" style="clip-path:url(#clipPath32); fill:none;" y2="103" />
      <line x1="45" x2="39" y1="115" style="clip-path:url(#clipPath32); fill:none;" y2="103" />
    </g>
    <g transform="translate(135,125)" style="font-size:14; stroke-linecap:butt; text-rendering:geometricPrecision; font-family:sans-serif; stroke-linejoin:round;">
      <line x1="45" x2="79" y1="45" style="clip-path:url(#clipPath33); fill:none;" y2="49" />
      <line x1="79" x2="67" y1="49" style="clip-path:url(#clipPath33); fill:none;" y2="42" />
      <line x1="79" x2="66" y1="49" style="clip-path:url(#clipPath33); fill:none;" y2="54" />
    </g>
    <g transform="translate(496,95)" style="font-size:14; stroke-linecap:butt; text-rendering:geometricPrecision; font-family:sans-serif; stroke-linejoin:round;">
      <line x1="45" x2="114" y1="45" style="clip-path:url(#clipPath34); fill:none;" y2="45" />
      <line x1="114" x2="102" y1="45" style="clip-path:url(#clipPath34); fill:none;" y2="39" />
      <line x1="114" x2="102" y1="45" style="clip-path:url(#clipPath34); fill:none;" y2="51" />
    </g>
    <g transform="translate(595,118)" style="font-size:14; stroke-linecap:butt; text-rendering:geometricPrecision; font-family:sans-serif; stroke-linejoin:round;">
      <line x1="95" x2="95" y1="45" style="clip-path:url(#clipPath35); fill:none;" y2="242" />
      <line x1="95" x2="45" y1="242" style="clip-path:url(#clipPath35); fill:none;" y2="242" />
      <line x1="45" x2="57" y1="242" style="clip-path:url(#clipPath35); fill:none;" y2="248" />
      <line x1="45" x2="57" y1="242" style="clip-path:url(#clipPath35); fill:none;" y2="236" />
    </g>
    <g transform="translate(84,315)" style="font-size:14; stroke-linecap:butt; text-rendering:geometricPrecision; font-family:sans-serif; stroke-linejoin:round;">
      <line x1="146" x2="45" y1="45" style="clip-path:url(#clipPath36); fill:none;" y2="45" />
      <line x1="45" x2="57" y1="45" style="clip-path:url(#clipPath36); fill:none;" y2="51" />
      <line x1="45" x2="57" y1="45" style="clip-path:url(#clipPath36); fill:none;" y2="39" />
    </g>
    <g transform="translate(315,315)" style="font-size:14; stroke-linecap:butt; text-rendering:geometricPrecision; font-family:sans-serif; stroke-linejoin:round;">
      <line x1="195" x2="45" y1="45" style="clip-path:url(#clipPath37); fill:none;" y2="45" />
      <line x1="45" x2="57" y1="45" style="clip-path:url(#clipPath37); fill:none;" y2="51" />
      <line x1="45" x2="57" y1="45" style="clip-path:url(#clipPath37); fill:none;" y2="39" />
    </g>
    <g transform="translate(325,48)" style="font-size:11; stroke-linecap:butt; text-rendering:geometricPrecision; font-family:sans-serif; stroke-linejoin:round;">
      <line x1="45" x2="45" y1="45" style="clip-path:url(#clipPath38); fill:none;" y2="82" />
      <line x1="45" x2="205" y1="82" style="clip-path:url(#clipPath38); fill:none;" y2="82" />
      <line x1="205" x2="193" y1="82" style="clip-path:url(#clipPath38); fill:none;" y2="76" />
      <line x1="205" x2="193" y1="82" style="clip-path:url(#clipPath38); fill:none;" y2="88" />
    </g>
    <g transform="translate(325,115)" style="font-size:11; stroke-linecap:butt; text-rendering:geometricPrecision; font-family:sans-serif; stroke-linejoin:round;">
      <line x1="45" x2="45" y1="130" style="clip-path:url(#clipPath39); fill:none;" y2="45" />
      <line x1="45" x2="205" y1="45" style="clip-path:url(#clipPath39); fill:none;" y2="45" />
      <line x1="205" x2="193" y1="45" style="clip-path:url(#clipPath39); fill:none;" y2="39" />
      <line x1="205" x2="193" y1="45" style="clip-path:url(#clipPath39); fill:none;" y2="51" />
    </g>
    <g transform="translate(179,45)" style="font-size:14; stroke-linecap:butt; text-rendering:geometricPrecision; font-family:sans-serif; stroke-linejoin:round;">
      <line x1="45" x2="125" y1="125" style="clip-path:url(#clipPath40); fill:none;" y2="45" />
      <line x1="125" x2="112" y1="45" style="clip-path:url(#clipPath40); fill:none;" y2="48" />
      <line x1="125" x2="121" y1="45" style="clip-path:url(#clipPath40); fill:none;" y2="57" />
    </g>
    <g transform="translate(180,133)" style="font-size:14; stroke-linecap:butt; text-rendering:geometricPrecision; font-family:sans-serif; stroke-linejoin:round;">
      <line x1="45" x2="135" y1="45" style="clip-path:url(#clipPath41); fill:none;" y2="116" />
      <line x1="135" x2="129" y1="116" style="clip-path:url(#clipPath41); fill:none;" y2="104" />
      <line x1="135" x2="122" y1="116" style="clip-path:url(#clipPath41); fill:none;" y2="114" />
    </g>
    <g transform="translate(675,95)" style="font-size:11; stroke-linecap:butt; text-rendering:geometricPrecision; font-family:sans-serif; stroke-linejoin:round;">
      <line x1="185" x2="45" y1="45" style="clip-path:url(#clipPath42); fill:none;" y2="45" />
      <line x1="45" x2="57" y1="45" style="clip-path:url(#clipPath42); fill:none;" y2="51" />
      <line x1="45" x2="57" y1="45" style="clip-path:url(#clipPath42); fill:none;" y2="39" />
    </g>
    <g style="text-rendering:geometricPrecision; font-size:14; font-family:sans-serif;" transform="translate(180,238)">
      <text x="10" y="17" style="clip-path:url(#clipPath43); stroke:none;" xml:space="preserve">[按關鍵字查找]</text>
    </g>
    <g style="text-rendering:geometricPrecision; font-size:14; font-family:sans-serif;" transform="translate(190,87)">
      <text x="9" y="17" style="clip-path:url(#clipPath44); stroke:none;" xml:space="preserve">[按分類查找]</text>
    </g>
  </g>
</svg>
