<?xml version="1.0" encoding="UTF-8"?>

<!DOCTYPE svg PUBLIC '-//W3C//DTD SVG 1.0//EN' 'http://www.w3.org/TR/2001/REC-SVG-20010904/DTD/svg10.dtd'>
<svg style="fill-opacity:1; color-rendering:auto; color-interpolation:auto; stroke:black; text-rendering:auto; stroke-linecap:square; stroke-miterlimit:10; stroke-opacity:1; shape-rendering:auto; fill:black; stroke-dasharray:none; font-weight:normal; stroke-width:1; font-family:&apos;Dialog&apos;; font-style:normal; stroke-linejoin:miter; font-size:12; stroke-dashoffset:0; image-rendering:auto;" xmlns="http://www.w3.org/2000/svg" width="654" xmlns:xlink="http://www.w3.org/1999/xlink" height="364">
  <!--Generated by the Batik Graphics2D SVG Generator-->
  <defs id="genericDefs" />
  <g>
    <defs id="defs1">
      <clipPath clipPathUnits="userSpaceOnUse" id="clipPath1">
        <path d="M-3 -3 L657 -3 L657 367 L-3 367 L-3 -3 Z" />
      </clipPath>
      <clipPath clipPathUnits="userSpaceOnUse" id="clipPath2">
        <path d="M0 0 L0 346 L7 346 L7 0 Z" />
      </clipPath>
      <clipPath clipPathUnits="userSpaceOnUse" id="clipPath3">
        <path d="M-3 -3 L227 -3 L227 28 L-3 28 L-3 -3 Z" />
      </clipPath>
      <clipPath clipPathUnits="userSpaceOnUse" id="clipPath4">
        <path d="M0 0 L220 0 L220 21 L0 21 L0 0 Z" />
      </clipPath>
      <clipPath clipPathUnits="userSpaceOnUse" id="clipPath5">
        <path d="M-3 -3 L227 -3 L227 346 L-3 346 L-3 -3 Z" />
      </clipPath>
      <clipPath clipPathUnits="userSpaceOnUse" id="clipPath6">
        <path d="M-3 -3 L217 -3 L217 28 L-3 28 L-3 -3 Z" />
      </clipPath>
      <clipPath clipPathUnits="userSpaceOnUse" id="clipPath7">
        <path d="M0 0 L210 0 L210 21 L0 21 L0 0 Z" />
      </clipPath>
      <clipPath clipPathUnits="userSpaceOnUse" id="clipPath8">
        <path d="M-3 -3 L217 -3 L217 346 L-3 346 L-3 -3 Z" />
      </clipPath>
      <clipPath clipPathUnits="userSpaceOnUse" id="clipPath9">
        <path d="M-3 -3 L107 -3 L107 47 L-3 47 L-3 -3 Z" />
      </clipPath>
      <clipPath clipPathUnits="userSpaceOnUse" id="clipPath10">
        <path d="M0 0 L100 0 L100 40 L0 40 L0 0 Z" />
      </clipPath>
      <clipPath clipPathUnits="userSpaceOnUse" id="clipPath11">
        <path d="M-3 -3 L47 -3 L47 27 L-3 27 L-3 -3 Z" />
      </clipPath>
      <clipPath clipPathUnits="userSpaceOnUse" id="clipPath12">
        <path d="M-3 -3 L147 -3 L147 47 L-3 47 L-3 -3 Z" />
      </clipPath>
      <clipPath clipPathUnits="userSpaceOnUse" id="clipPath13">
        <path d="M0 0 L140 0 L140 40 L0 40 L0 0 Z" />
      </clipPath>
      <clipPath clipPathUnits="userSpaceOnUse" id="clipPath14">
        <path d="M-3 -3 L27 -3 L27 27 L-3 27 L-3 -3 Z" />
      </clipPath>
      <clipPath clipPathUnits="userSpaceOnUse" id="clipPath15">
        <path d="M0 0 L210 0 L210 339 L0 339 L0 0 Z" />
      </clipPath>
      <clipPath clipPathUnits="userSpaceOnUse" id="clipPath16">
        <path d="M0 0 L220 0 L220 339 L0 339 L0 0 Z" />
      </clipPath>
      <clipPath clipPathUnits="userSpaceOnUse" id="clipPath17">
        <path d="M0 0 L204 0 L204 104 L0 104 L0 0 Z" />
      </clipPath>
      <clipPath clipPathUnits="userSpaceOnUse" id="clipPath18">
        <path d="M0 0 L275 0 L275 104 L0 104 L0 0 Z" />
      </clipPath>
      <clipPath clipPathUnits="userSpaceOnUse" id="clipPath19">
        <path d="M0 0 L265 0 L265 234 L0 234 L0 0 Z" />
      </clipPath>
    </defs>
    <g style="fill:white; text-rendering:geometricPrecision; stroke:white;">
      <rect x="0" y="0" width="654" style="stroke:none;" height="364" />
    </g>
    <g style="text-rendering:geometricPrecision; stroke-width:2; font-size:14; font-family:sans-serif;">
      <rect x="0" y="0" width="220" style="clip-path:url(#clipPath3); fill:none;" height="21" />
    </g>
    <g style="text-rendering:geometricPrecision; font-size:14; font-family:sans-serif;">
      <text x="96" y="17" style="clip-path:url(#clipPath4); stroke:none;" xml:space="preserve">廠商</text>
    </g>
    <g transform="translate(0,21)" style="text-rendering:geometricPrecision; stroke-width:2; font-size:14; font-family:sans-serif;">
      <rect x="0" y="0" width="220" style="clip-path:url(#clipPath5); fill:none;" height="339" />
    </g>
    <g transform="translate(220,0)" style="text-rendering:geometricPrecision; stroke-width:2; font-size:14; font-family:sans-serif;">
      <rect x="0" y="0" width="220" style="clip-path:url(#clipPath3); fill:none;" height="21" />
    </g>
    <g style="text-rendering:geometricPrecision; font-size:14; font-family:sans-serif;" transform="translate(220,0)">
      <text x="96" y="17" style="clip-path:url(#clipPath4); stroke:none;" xml:space="preserve">系統</text>
    </g>
    <g transform="translate(220,21)" style="text-rendering:geometricPrecision; stroke-width:2; font-size:14; font-family:sans-serif;">
      <rect x="0" y="0" width="220" style="clip-path:url(#clipPath5); fill:none;" height="339" />
    </g>
    <g transform="translate(440,0)" style="text-rendering:geometricPrecision; stroke-width:2; font-size:14; font-family:sans-serif;">
      <rect x="0" y="0" width="210" style="clip-path:url(#clipPath6); fill:none;" height="21" />
    </g>
    <g style="text-rendering:geometricPrecision; font-size:14; font-family:sans-serif;" transform="translate(440,0)">
      <text x="84" y="17" style="clip-path:url(#clipPath7); stroke:none;" xml:space="preserve">資料庫</text>
    </g>
    <g transform="translate(440,21)" style="text-rendering:geometricPrecision; stroke-width:2; font-size:14; font-family:sans-serif;">
      <rect x="0" y="0" width="210" style="clip-path:url(#clipPath8); fill:none;" height="339" />
    </g>
    <g transform="translate(500,50)" style="font-size:14; fill:rgb(122,207,245); text-rendering:geometricPrecision; font-family:sans-serif; stroke:rgb(122,207,245);">
      <rect x="0" y="0" width="100" style="clip-path:url(#clipPath9); stroke:none;" height="40" />
    </g>
    <g transform="translate(500,50)" style="font-size:14; stroke-linecap:butt; text-rendering:geometricPrecision; font-family:sans-serif; stroke-linejoin:round; stroke-miterlimit:0;">
      <rect x="0" y="0" width="100" style="clip-path:url(#clipPath9); fill:none;" height="40" />
    </g>
    <g style="text-rendering:geometricPrecision; font-size:14; font-family:sans-serif;" transform="translate(500,50)">
      <text x="15" y="26" style="clip-path:url(#clipPath10); stroke:none;" xml:space="preserve">展覽資料表</text>
    </g>
    <g style="text-rendering:geometricPrecision; font-size:14; font-family:sans-serif;" transform="translate(60,60)">
      <circle style="clip-path:url(#clipPath11); stroke:none;" r="10" cx="20" cy="10" />
    </g>
    <g transform="translate(260,50)" style="font-size:14; fill:rgb(122,207,245); text-rendering:geometricPrecision; font-family:sans-serif; stroke:rgb(122,207,245);">
      <rect x="1" y="1" width="138" style="clip-path:url(#clipPath12); stroke:none;" rx="15" ry="15" height="38" />
    </g>
    <g transform="translate(260,50)" style="font-size:14; stroke-linecap:butt; text-rendering:geometricPrecision; font-family:sans-serif; stroke-linejoin:round; stroke-miterlimit:0;">
      <rect x="1" y="1" width="138" style="clip-path:url(#clipPath12); fill:none;" rx="15" ry="15" height="38" />
    </g>
    <g style="text-rendering:geometricPrecision; font-size:14; font-family:sans-serif;" transform="translate(260,50)">
      <text x="7" y="26" style="clip-path:url(#clipPath13); stroke:none;" xml:space="preserve">填寫欲申請建展資料</text>
    </g>
    <g style="text-rendering:geometricPrecision; font-size:14; font-family:sans-serif;" transform="translate(70,210)">
      <circle style="clip-path:url(#clipPath14); stroke:none;" r="6.6667" cx="10" cy="10" />
      <circle style="stroke-linecap:butt; clip-path:url(#clipPath14); fill:none; stroke-linejoin:round; stroke-miterlimit:0;" r="10" cx="10" cy="10" />
    </g>
    <g transform="translate(260,200)" style="font-size:14; fill:rgb(122,207,245); text-rendering:geometricPrecision; font-family:sans-serif; stroke:rgb(122,207,245);">
      <rect x="1" y="1" width="138" style="clip-path:url(#clipPath12); stroke:none;" rx="15" ry="15" height="38" />
    </g>
    <g transform="translate(260,200)" style="font-size:14; stroke-linecap:butt; text-rendering:geometricPrecision; font-family:sans-serif; stroke-linejoin:round; stroke-miterlimit:0;">
      <rect x="1" y="1" width="138" style="clip-path:url(#clipPath12); fill:none;" rx="15" ry="15" height="38" />
    </g>
    <g style="text-rendering:geometricPrecision; font-size:14; font-family:sans-serif;" transform="translate(260,200)">
      <text x="14" y="26" style="clip-path:url(#clipPath13); stroke:none;" xml:space="preserve">顯示申請成功頁面</text>
    </g>
    <g transform="translate(349,20)" style="font-size:14; stroke-linecap:butt; text-rendering:geometricPrecision; font-family:sans-serif; stroke-linejoin:round;">
      <line x1="50" x2="150" y1="50" style="clip-path:url(#clipPath17); fill:none;" y2="50" />
      <line x1="150" x2="138" y1="50" style="clip-path:url(#clipPath17); fill:none;" y2="44" />
      <line x1="150" x2="138" y1="50" style="clip-path:url(#clipPath17); fill:none;" y2="56" />
    </g>
    <g transform="translate(39,20)" style="font-size:14; stroke-linecap:butt; text-rendering:geometricPrecision; font-family:sans-serif; stroke-linejoin:round;">
      <line x1="50" x2="221" y1="50" style="clip-path:url(#clipPath18); fill:none;" y2="50" />
      <line x1="221" x2="209" y1="50" style="clip-path:url(#clipPath18); fill:none;" y2="44" />
      <line x1="221" x2="209" y1="50" style="clip-path:url(#clipPath18); fill:none;" y2="56" />
    </g>
    <g transform="translate(349,40)" style="font-size:14; stroke-linecap:butt; text-rendering:geometricPrecision; font-family:sans-serif; stroke-linejoin:round;">
      <line x1="211" x2="211" y1="50" style="clip-path:url(#clipPath19); fill:none;" y2="180" />
      <line x1="211" x2="50" y1="180" style="clip-path:url(#clipPath19); fill:none;" y2="180" />
      <line x1="50" x2="62" y1="180" style="clip-path:url(#clipPath19); fill:none;" y2="186" />
      <line x1="50" x2="62" y1="180" style="clip-path:url(#clipPath19); fill:none;" y2="174" />
    </g>
    <g transform="translate(39,170)" style="font-size:11; stroke-linecap:butt; text-rendering:geometricPrecision; font-family:sans-serif; stroke-linejoin:round;">
      <line x1="221" x2="50" y1="50" style="clip-path:url(#clipPath18); fill:none;" y2="50" />
      <line x1="50" x2="62" y1="50" style="clip-path:url(#clipPath18); fill:none;" y2="56" />
      <line x1="50" x2="62" y1="50" style="clip-path:url(#clipPath18); fill:none;" y2="44" />
    </g>
  </g>
</svg>
