<?xml version="1.0" encoding="UTF-8"?>

<!DOCTYPE svg PUBLIC '-//W3C//DTD SVG 1.0//EN' 'http://www.w3.org/TR/2001/REC-SVG-20010904/DTD/svg10.dtd'>
<svg style="fill-opacity:1; color-rendering:auto; color-interpolation:auto; stroke:black; text-rendering:auto; stroke-linecap:square; stroke-miterlimit:10; stroke-opacity:1; shape-rendering:auto; fill:black; stroke-dasharray:none; font-weight:normal; stroke-width:1; font-family:&apos;Dialog&apos;; font-style:normal; stroke-linejoin:miter; font-size:12; stroke-dashoffset:0; image-rendering:auto;" xmlns="http://www.w3.org/2000/svg" width="854" xmlns:xlink="http://www.w3.org/1999/xlink" height="469">
  <!--Generated by the Batik Graphics2D SVG Generator-->
  <defs id="genericDefs" />
  <g>
    <defs id="defs1">
      <clipPath clipPathUnits="userSpaceOnUse" id="clipPath1">
        <path d="M-3 -3 L858 -3 L858 471 L-3 471 L-3 -3 Z" />
      </clipPath>
      <clipPath clipPathUnits="userSpaceOnUse" id="clipPath2">
        <path d="M0 0 L0 450 L7 450 L7 0 Z" />
      </clipPath>
      <clipPath clipPathUnits="userSpaceOnUse" id="clipPath3">
        <path d="M-3 -3 L336 -3 L336 28 L-3 28 L-3 -3 Z" />
      </clipPath>
      <clipPath clipPathUnits="userSpaceOnUse" id="clipPath4">
        <path d="M0 0 L329 0 L329 21 L0 21 L0 0 Z" />
      </clipPath>
      <clipPath clipPathUnits="userSpaceOnUse" id="clipPath5">
        <path d="M-3 -3 L336 -3 L336 451 L-3 451 L-3 -3 Z" />
      </clipPath>
      <clipPath clipPathUnits="userSpaceOnUse" id="clipPath6">
        <path d="M-3 -3 L26 -3 L26 76 L-3 76 L-3 -3 Z" />
      </clipPath>
      <clipPath clipPathUnits="userSpaceOnUse" id="clipPath7">
        <path d="M-3 -3 L200 -3 L200 28 L-3 28 L-3 -3 Z" />
      </clipPath>
      <clipPath clipPathUnits="userSpaceOnUse" id="clipPath8">
        <path d="M0 0 L193 0 L193 21 L0 21 L0 0 Z" />
      </clipPath>
      <clipPath clipPathUnits="userSpaceOnUse" id="clipPath9">
        <path d="M-3 -3 L200 -3 L200 451 L-3 451 L-3 -3 Z" />
      </clipPath>
      <clipPath clipPathUnits="userSpaceOnUse" id="clipPath10">
        <path d="M-3 -3 L114 -3 L114 56 L-3 56 L-3 -3 Z" />
      </clipPath>
      <clipPath clipPathUnits="userSpaceOnUse" id="clipPath11">
        <path d="M0 0 L107 0 L107 49 L0 49 L0 0 Z" />
      </clipPath>
      <clipPath clipPathUnits="userSpaceOnUse" id="clipPath12">
        <path d="M-3 -3 L47 -3 L47 27 L-3 27 L-3 -3 Z" />
      </clipPath>
      <clipPath clipPathUnits="userSpaceOnUse" id="clipPath13">
        <path d="M-3 -3 L27 -3 L27 27 L-3 27 L-3 -3 Z" />
      </clipPath>
      <clipPath clipPathUnits="userSpaceOnUse" id="clipPath14">
        <path d="M-3 -3 L96 -3 L96 53 L-3 53 L-3 -3 Z" />
      </clipPath>
      <clipPath clipPathUnits="userSpaceOnUse" id="clipPath15">
        <path d="M0 0 L88 0 L88 46 L0 46 L0 0 Z" />
      </clipPath>
      <clipPath clipPathUnits="userSpaceOnUse" id="clipPath16">
        <path d="M-3 -3 L127 -3 L127 66 L-3 66 L-3 -3 Z" />
      </clipPath>
      <clipPath clipPathUnits="userSpaceOnUse" id="clipPath17">
        <path d="M0 0 L120 0 L120 59 L0 59 L0 0 Z" />
      </clipPath>
      <clipPath clipPathUnits="userSpaceOnUse" id="clipPath18">
        <path d="M-3 -3 L47 -3 L47 47 L-3 47 L-3 -3 Z" />
      </clipPath>
      <clipPath clipPathUnits="userSpaceOnUse" id="clipPath19">
        <path d="M-3 -3 L95 -3 L95 58 L-3 58 L-3 -3 Z" />
      </clipPath>
      <clipPath clipPathUnits="userSpaceOnUse" id="clipPath20">
        <path d="M0 0 L88 0 L88 50 L0 50 L0 0 Z" />
      </clipPath>
      <clipPath clipPathUnits="userSpaceOnUse" id="clipPath21">
        <path d="M-3 -3 L107 -3 L107 58 L-3 58 L-3 -3 Z" />
      </clipPath>
      <clipPath clipPathUnits="userSpaceOnUse" id="clipPath22">
        <path d="M0 0 L100 0 L100 50 L0 50 L0 0 Z" />
      </clipPath>
      <clipPath clipPathUnits="userSpaceOnUse" id="clipPath23">
        <path d="M-3 -3 L107 -3 L107 67 L-3 67 L-3 -3 Z" />
      </clipPath>
      <clipPath clipPathUnits="userSpaceOnUse" id="clipPath24">
        <path d="M0 0 L100 0 L100 60 L0 60 L0 0 Z" />
      </clipPath>
      <clipPath clipPathUnits="userSpaceOnUse" id="clipPath25">
        <path d="M0 0 L193 0 L193 444 L0 444 L0 0 Z" />
      </clipPath>
      <clipPath clipPathUnits="userSpaceOnUse" id="clipPath26">
        <path d="M0 0 L329 0 L329 444 L0 444 L0 0 Z" />
      </clipPath>
      <clipPath clipPathUnits="userSpaceOnUse" id="clipPath27">
        <path d="M0 0 L147 0 L147 88 L0 88 L0 0 Z" />
      </clipPath>
      <clipPath clipPathUnits="userSpaceOnUse" id="clipPath28">
        <path d="M0 0 L218 0 L218 159 L0 159 L0 0 Z" />
      </clipPath>
      <clipPath clipPathUnits="userSpaceOnUse" id="clipPath29">
        <path d="M0 0 L90 0 L90 69 L0 69 L0 0 Z" />
      </clipPath>
      <clipPath clipPathUnits="userSpaceOnUse" id="clipPath30">
        <path d="M0 0 L69 0 L69 116 L0 116 L0 0 Z" />
      </clipPath>
      <clipPath clipPathUnits="userSpaceOnUse" id="clipPath31">
        <path d="M0 0 L332 0 L332 109 L0 109 L0 0 Z" />
      </clipPath>
      <clipPath clipPathUnits="userSpaceOnUse" id="clipPath32">
        <path d="M0 0 L123 0 L123 143 L0 143 L0 0 Z" />
      </clipPath>
      <clipPath clipPathUnits="userSpaceOnUse" id="clipPath33">
        <path d="M0 0 L189 0 L189 134 L0 134 L0 0 Z" />
      </clipPath>
      <clipPath clipPathUnits="userSpaceOnUse" id="clipPath34">
        <path d="M0 0 L319 0 L319 69 L0 69 L0 0 Z" />
      </clipPath>
      <clipPath clipPathUnits="userSpaceOnUse" id="clipPath35">
        <path d="M0 0 L69 0 L69 163 L0 163 L0 0 Z" />
      </clipPath>
      <clipPath clipPathUnits="userSpaceOnUse" id="clipPath36">
        <path d="M0 0 L132 0 L132 143 L0 143 L0 0 Z" />
      </clipPath>
      <clipPath clipPathUnits="userSpaceOnUse" id="clipPath37">
        <path d="M0 0 L247 0 L247 69 L0 69 L0 0 Z" />
      </clipPath>
      <clipPath clipPathUnits="userSpaceOnUse" id="clipPath38">
        <path d="M0 0 L84 0 L84 21 L0 21 L0 0 Z" />
      </clipPath>
    </defs>
    <g style="fill:white; text-rendering:geometricPrecision; stroke:white;">
      <rect x="0" y="0" width="854" style="stroke:none;" height="469" />
    </g>
    <g style="text-rendering:geometricPrecision; stroke-width:2; font-size:14; font-family:sans-serif;">
      <rect x="0" y="0" width="329" style="clip-path:url(#clipPath3); fill:none;" height="21" />
    </g>
    <g style="text-rendering:geometricPrecision; font-size:14; font-family:sans-serif;">
      <text x="143" y="17" style="clip-path:url(#clipPath4); stroke:none;" xml:space="preserve">使用者</text>
    </g>
    <g transform="translate(0,21)" style="text-rendering:geometricPrecision; stroke-width:2; font-size:14; font-family:sans-serif;">
      <rect x="0" y="0" width="329" style="clip-path:url(#clipPath5); fill:none;" height="444" />
    </g>
    <g transform="translate(329,0)" style="text-rendering:geometricPrecision; stroke-width:2; font-size:14; font-family:sans-serif;">
      <rect x="0" y="0" width="329" style="clip-path:url(#clipPath3); fill:none;" height="21" />
    </g>
    <g style="text-rendering:geometricPrecision; font-size:14; font-family:sans-serif;" transform="translate(329,0)">
      <text x="150" y="17" style="clip-path:url(#clipPath4); stroke:none;" xml:space="preserve">系統</text>
    </g>
    <g transform="translate(329,21)" style="text-rendering:geometricPrecision; stroke-width:2; font-size:14; font-family:sans-serif;">
      <rect x="0" y="0" width="329" style="clip-path:url(#clipPath5); fill:none;" height="444" />
    </g>
    <g style="text-rendering:geometricPrecision; font-size:14; font-family:sans-serif;" transform="translate(160,189)">
      <rect x="0" y="0" width="19" style="clip-path:url(#clipPath6); stroke:none;" height="69" />
      <rect x="0" y="0" width="19" style="stroke-linecap:butt; clip-path:url(#clipPath6); fill:none; stroke-linejoin:round; stroke-miterlimit:0;" height="69" />
    </g>
    <g transform="translate(658,0)" style="text-rendering:geometricPrecision; stroke-width:2; font-size:14; font-family:sans-serif;">
      <rect x="0" y="0" width="193" style="clip-path:url(#clipPath7); fill:none;" height="21" />
    </g>
    <g style="text-rendering:geometricPrecision; font-size:14; font-family:sans-serif;" transform="translate(658,0)">
      <text x="75" y="17" style="clip-path:url(#clipPath8); stroke:none;" xml:space="preserve">資料庫</text>
    </g>
    <g transform="translate(658,21)" style="text-rendering:geometricPrecision; stroke-width:2; font-size:14; font-family:sans-serif;">
      <rect x="0" y="0" width="193" style="clip-path:url(#clipPath9); fill:none;" height="444" />
    </g>
    <g transform="translate(710,70)" style="font-size:14; fill:rgb(122,207,245); text-rendering:geometricPrecision; font-family:sans-serif; stroke:rgb(122,207,245);">
      <rect x="0" y="0" width="107" style="clip-path:url(#clipPath10); stroke:none;" height="49" />
    </g>
    <g transform="translate(710,70)" style="font-size:14; stroke-linecap:butt; text-rendering:geometricPrecision; font-family:sans-serif; stroke-linejoin:round; stroke-miterlimit:0;">
      <rect x="0" y="0" width="107" style="clip-path:url(#clipPath10); fill:none;" height="49" />
    </g>
    <g style="text-rendering:geometricPrecision; font-size:14; font-family:sans-serif;" transform="translate(710,70)">
      <text x="18" y="31" style="clip-path:url(#clipPath11); stroke:none;" xml:space="preserve">會員資料表</text>
    </g>
    <g style="text-rendering:geometricPrecision; font-size:14; font-family:sans-serif;" transform="translate(60,30)">
      <circle style="clip-path:url(#clipPath12); stroke:none;" r="10" cx="20" cy="10" />
    </g>
    <g style="text-rendering:geometricPrecision; font-size:14; font-family:sans-serif;" transform="translate(70,360)">
      <circle style="clip-path:url(#clipPath13); stroke:none;" r="6.6667" cx="10" cy="10" />
      <circle style="stroke-linecap:butt; clip-path:url(#clipPath13); fill:none; stroke-linejoin:round; stroke-miterlimit:0;" r="10" cx="10" cy="10" />
    </g>
    <g transform="translate(46,144)" style="font-size:14; fill:rgb(122,207,245); text-rendering:geometricPrecision; font-family:sans-serif; stroke:rgb(122,207,245);">
      <rect x="1" y="1" width="87" style="clip-path:url(#clipPath14); stroke:none;" rx="15" ry="15" height="44" />
    </g>
    <g transform="translate(46,144)" style="font-size:14; stroke-linecap:butt; text-rendering:geometricPrecision; font-family:sans-serif; stroke-linejoin:round; stroke-miterlimit:0;">
      <rect x="1" y="1" width="87" style="clip-path:url(#clipPath14); fill:none;" rx="15" ry="15" height="44" />
    </g>
    <g style="text-rendering:geometricPrecision; font-size:14; font-family:sans-serif;" transform="translate(46,144)">
      <text x="9" y="19" style="clip-path:url(#clipPath15); stroke:none;" xml:space="preserve">開啟登入畫</text>
      <text x="37" y="40" style="clip-path:url(#clipPath15); stroke:none;" xml:space="preserve">面</text>
    </g>
    <g transform="translate(200,180)" style="font-size:14; fill:rgb(122,207,245); text-rendering:geometricPrecision; font-family:sans-serif; stroke:rgb(122,207,245);">
      <rect x="1" y="1" width="118" style="clip-path:url(#clipPath16); stroke:none;" rx="15" ry="15" height="57" />
    </g>
    <g transform="translate(200,180)" style="font-size:14; stroke-linecap:butt; text-rendering:geometricPrecision; font-family:sans-serif; stroke-linejoin:round; stroke-miterlimit:0;">
      <rect x="1" y="1" width="118" style="clip-path:url(#clipPath16); fill:none;" rx="15" ry="15" height="57" />
    </g>
    <g style="text-rendering:geometricPrecision; font-size:14; font-family:sans-serif;" transform="translate(200,180)">
      <text x="11" y="36" style="clip-path:url(#clipPath17); stroke:none;" xml:space="preserve">輸入帳號和密碼</text>
    </g>
    <g transform="translate(412,60)" style="font-size:14; fill:rgb(122,207,245); text-rendering:geometricPrecision; font-family:sans-serif; stroke:rgb(122,207,245);">
      <rect x="1" y="1" width="118" style="clip-path:url(#clipPath16); stroke:none;" rx="15" ry="15" height="57" />
    </g>
    <g transform="translate(412,60)" style="font-size:14; stroke-linecap:butt; text-rendering:geometricPrecision; font-family:sans-serif; stroke-linejoin:round; stroke-miterlimit:0;">
      <rect x="1" y="1" width="118" style="clip-path:url(#clipPath16); fill:none;" rx="15" ry="15" height="57" />
    </g>
    <g style="text-rendering:geometricPrecision; font-size:14; font-family:sans-serif;" transform="translate(412,60)">
      <text x="11" y="36" style="clip-path:url(#clipPath17); stroke:none;" xml:space="preserve">驗證帳號與密碼</text>
    </g>
    <g transform="translate(460,160)" style="font-size:14; fill:rgb(122,207,245); text-rendering:geometricPrecision; font-family:sans-serif; stroke:rgb(122,207,245);">
      <polygon style="clip-path:url(#clipPath18); stroke:none;" points=" 20 7 37 20 20 32 3 20" />
    </g>
    <g transform="translate(460,160)" style="font-size:14; stroke-linecap:butt; text-rendering:geometricPrecision; font-family:sans-serif; stroke-linejoin:round; stroke-miterlimit:0;">
      <polygon style="fill:none; clip-path:url(#clipPath18);" points=" 20 7 37 20 20 32 3 20" />
    </g>
    <g transform="translate(514,254)" style="font-size:14; fill:rgb(122,207,245); text-rendering:geometricPrecision; font-family:sans-serif; stroke:rgb(122,207,245);">
      <rect x="1" y="1" width="86" style="clip-path:url(#clipPath19); stroke:none;" rx="15" ry="15" height="49" />
    </g>
    <g transform="translate(514,254)" style="font-size:14; stroke-linecap:butt; text-rendering:geometricPrecision; font-family:sans-serif; stroke-linejoin:round; stroke-miterlimit:0;">
      <rect x="1" y="1" width="86" style="clip-path:url(#clipPath19); fill:none;" rx="15" ry="15" height="49" />
    </g>
    <g style="text-rendering:geometricPrecision; font-size:14; font-family:sans-serif;" transform="translate(514,254)">
      <text x="16" y="31" style="clip-path:url(#clipPath20); stroke:none;" xml:space="preserve">進入系統</text>
    </g>
    <g transform="translate(343,254)" style="font-size:14; fill:rgb(122,207,245); text-rendering:geometricPrecision; font-family:sans-serif; stroke:rgb(122,207,245);">
      <rect x="1" y="1" width="98" style="clip-path:url(#clipPath21); stroke:none;" rx="15" ry="15" height="49" />
    </g>
    <g transform="translate(343,254)" style="font-size:14; stroke-linecap:butt; text-rendering:geometricPrecision; font-family:sans-serif; stroke-linejoin:round; stroke-miterlimit:0;">
      <rect x="1" y="1" width="98" style="clip-path:url(#clipPath21); fill:none;" rx="15" ry="15" height="49" />
    </g>
    <g style="text-rendering:geometricPrecision; font-size:14; font-family:sans-serif;" transform="translate(343,254)">
      <text x="8" y="21" style="clip-path:url(#clipPath22); stroke:none;" xml:space="preserve">顯示驗證錯誤</text>
      <text x="36" y="42" style="clip-path:url(#clipPath22); stroke:none;" xml:space="preserve">訊息</text>
    </g>
    <g transform="translate(340,340)" style="font-size:14; fill:rgb(122,207,245); text-rendering:geometricPrecision; font-family:sans-serif; stroke:rgb(122,207,245);">
      <rect x="1" y="1" width="98" style="clip-path:url(#clipPath23); stroke:none;" rx="15" ry="15" height="58" />
    </g>
    <g transform="translate(340,340)" style="font-size:14; stroke-linecap:butt; text-rendering:geometricPrecision; font-family:sans-serif; stroke-linejoin:round; stroke-miterlimit:0;">
      <rect x="1" y="1" width="98" style="clip-path:url(#clipPath23); fill:none;" rx="15" ry="15" height="58" />
    </g>
    <g style="text-rendering:geometricPrecision; font-size:14; font-family:sans-serif;" transform="translate(340,340)">
      <text x="15" y="36" style="clip-path:url(#clipPath24); stroke:none;" xml:space="preserve">顯示主畫面</text>
    </g>
    <g transform="translate(48,158)" style="font-size:14; stroke-linecap:butt; text-rendering:geometricPrecision; font-family:sans-serif; stroke-linejoin:round;">
      <line x1="32" x2="32" y1="32" style="clip-path:url(#clipPath27); fill:none;" y2="52" />
      <line x1="32" x2="111" y1="52" style="clip-path:url(#clipPath27); fill:none;" y2="52" />
      <line x1="111" x2="99" y1="52" style="clip-path:url(#clipPath27); fill:none;" y2="46" />
      <line x1="111" x2="99" y1="52" style="clip-path:url(#clipPath27); fill:none;" y2="58" />
    </g>
    <g transform="translate(228,57)" style="font-size:14; stroke-linecap:butt; text-rendering:geometricPrecision; font-family:sans-serif; stroke-linejoin:round;">
      <line x1="32" x2="32" y1="123" style="clip-path:url(#clipPath28); fill:none;" y2="32" />
      <line x1="32" x2="181" y1="32" style="clip-path:url(#clipPath28); fill:none;" y2="32" />
      <line x1="181" x2="169" y1="32" style="clip-path:url(#clipPath28); fill:none;" y2="26" />
      <line x1="181" x2="169" y1="32" style="clip-path:url(#clipPath28); fill:none;" y2="38" />
    </g>
    <g transform="translate(146,177)" style="font-size:14; stroke-linecap:butt; text-rendering:geometricPrecision; font-family:sans-serif; stroke-linejoin:round;">
      <line x1="32" x2="54" y1="32" style="clip-path:url(#clipPath29); fill:none;" y2="32" />
      <line x1="54" x2="42" y1="32" style="clip-path:url(#clipPath29); fill:none;" y2="26" />
      <line x1="54" x2="42" y1="32" style="clip-path:url(#clipPath29); fill:none;" y2="38" />
    </g>
    <g transform="translate(448,86)" style="font-size:11; stroke-linecap:butt; text-rendering:geometricPrecision; font-family:sans-serif; stroke-linejoin:round;">
      <line x1="32" x2="32" y1="32" style="clip-path:url(#clipPath30); fill:none;" y2="79" />
      <line x1="32" x2="38" y1="79" style="clip-path:url(#clipPath30); fill:none;" y2="67" />
      <line x1="32" x2="26" y1="79" style="clip-path:url(#clipPath30); fill:none;" y2="67" />
    </g>
    <g transform="translate(48,208)" style="font-size:11; stroke-linecap:butt; text-rendering:geometricPrecision; font-family:sans-serif; stroke-linejoin:round;">
      <line x1="295" x2="32" y1="72" style="clip-path:url(#clipPath31); fill:none;" y2="72" />
      <line x1="32" x2="32" y1="72" style="clip-path:url(#clipPath31); fill:none;" y2="32" />
      <line x1="32" x2="111" y1="32" style="clip-path:url(#clipPath31); fill:none;" y2="32" />
      <line x1="111" x2="99" y1="32" style="clip-path:url(#clipPath31); fill:none;" y2="26" />
      <line x1="111" x2="99" y1="32" style="clip-path:url(#clipPath31); fill:none;" y2="38" />
    </g>
    <g transform="translate(377,148)" style="font-size:14; stroke-linecap:butt; text-rendering:geometricPrecision; font-family:sans-serif; stroke-linejoin:round;">
      <line x1="86" x2="32" y1="32" style="clip-path:url(#clipPath32); fill:none;" y2="32" />
      <line x1="32" x2="32" y1="32" style="clip-path:url(#clipPath32); fill:none;" y2="106" />
      <line x1="32" x2="38" y1="106" style="clip-path:url(#clipPath32); fill:none;" y2="94" />
      <line x1="32" x2="26" y1="106" style="clip-path:url(#clipPath32); fill:none;" y2="94" />
    </g>
    <g transform="translate(408,272)" style="font-size:11; stroke-linecap:butt; text-rendering:geometricPrecision; font-family:sans-serif; stroke-linejoin:round;">
      <line x1="152" x2="152" y1="32" style="clip-path:url(#clipPath33); fill:none;" y2="98" />
      <line x1="152" x2="32" y1="98" style="clip-path:url(#clipPath33); fill:none;" y2="98" />
      <line x1="32" x2="44" y1="98" style="clip-path:url(#clipPath33); fill:none;" y2="104" />
      <line x1="32" x2="44" y1="98" style="clip-path:url(#clipPath33); fill:none;" y2="92" />
    </g>
    <g transform="translate(57,337)" style="font-size:11; stroke-linecap:butt; text-rendering:geometricPrecision; font-family:sans-serif; stroke-linejoin:round;">
      <line x1="283" x2="32" y1="32" style="clip-path:url(#clipPath34); fill:none;" y2="32" />
      <line x1="32" x2="44" y1="32" style="clip-path:url(#clipPath34); fill:none;" y2="38" />
      <line x1="32" x2="44" y1="32" style="clip-path:url(#clipPath34); fill:none;" y2="26" />
    </g>
    <g transform="translate(48,17)" style="font-size:11; stroke-linecap:butt; text-rendering:geometricPrecision; font-family:sans-serif; stroke-linejoin:round;">
      <line x1="32" x2="32" y1="32" style="clip-path:url(#clipPath35); fill:none;" y2="127" />
      <line x1="32" x2="38" y1="127" style="clip-path:url(#clipPath35); fill:none;" y2="115" />
      <line x1="32" x2="26" y1="127" style="clip-path:url(#clipPath35); fill:none;" y2="115" />
    </g>
    <g transform="translate(465,148)" style="font-size:14; stroke-linecap:butt; text-rendering:geometricPrecision; font-family:sans-serif; stroke-linejoin:round;">
      <line x1="32" x2="95" y1="32" style="clip-path:url(#clipPath36); fill:none;" y2="32" />
      <line x1="95" x2="95" y1="32" style="clip-path:url(#clipPath36); fill:none;" y2="106" />
      <line x1="95" x2="101" y1="106" style="clip-path:url(#clipPath36); fill:none;" y2="94" />
      <line x1="95" x2="89" y1="106" style="clip-path:url(#clipPath36); fill:none;" y2="94" />
    </g>
    <g transform="translate(499,57)" style="font-size:11; stroke-linecap:butt; text-rendering:geometricPrecision; font-family:sans-serif; stroke-linejoin:round;">
      <line x1="210" x2="32" y1="32" style="clip-path:url(#clipPath37); fill:none;" y2="32" />
      <line x1="32" x2="44" y1="32" style="clip-path:url(#clipPath37); fill:none;" y2="38" />
      <line x1="32" x2="44" y1="32" style="clip-path:url(#clipPath37); fill:none;" y2="26" />
    </g>
    <g style="text-rendering:geometricPrecision; font-size:14; font-family:sans-serif;" transform="translate(571,203)">
      <text x="10" y="17" style="clip-path:url(#clipPath38); stroke:none;" xml:space="preserve">[驗證成功]</text>
    </g>
    <g style="text-rendering:geometricPrecision; font-size:14; font-family:sans-serif;" transform="translate(332,201)">
      <text x="10" y="17" style="clip-path:url(#clipPath38); stroke:none;" xml:space="preserve">[驗證失敗]</text>
    </g>
  </g>
</svg>
