<?xml version="1.0" encoding="UTF-8"?>

<!DOCTYPE svg PUBLIC '-//W3C//DTD SVG 1.0//EN' 'http://www.w3.org/TR/2001/REC-SVG-20010904/DTD/svg10.dtd'>
<svg style="fill-opacity:1; color-rendering:auto; color-interpolation:auto; stroke:black; text-rendering:auto; stroke-linecap:square; stroke-miterlimit:10; stroke-opacity:1; shape-rendering:auto; fill:black; stroke-dasharray:none; font-weight:normal; stroke-width:1; font-family:&apos;Dialog&apos;; font-style:normal; stroke-linejoin:miter; font-size:12; stroke-dashoffset:0; image-rendering:auto;" xmlns="http://www.w3.org/2000/svg" width="934" xmlns:xlink="http://www.w3.org/1999/xlink" height="419">
  <!--Generated by the Batik Graphics2D SVG Generator-->
  <defs id="genericDefs" />
  <g>
    <defs id="defs1">
      <clipPath clipPathUnits="userSpaceOnUse" id="clipPath1">
        <path d="M-3 -3 L937 -3 L937 422 L-3 422 L-3 -3 Z" />
      </clipPath>
      <clipPath clipPathUnits="userSpaceOnUse" id="clipPath2">
        <path d="M0 0 L0 401 L7 401 L7 0 Z" />
      </clipPath>
      <clipPath clipPathUnits="userSpaceOnUse" id="clipPath3">
        <path d="M-3 -3 L357 -3 L357 28 L-3 28 L-3 -3 Z" />
      </clipPath>
      <clipPath clipPathUnits="userSpaceOnUse" id="clipPath4">
        <path d="M0 0 L350 0 L350 21 L0 21 L0 0 Z" />
      </clipPath>
      <clipPath clipPathUnits="userSpaceOnUse" id="clipPath5">
        <path d="M-3 -3 L357 -3 L357 400 L-3 400 L-3 -3 Z" />
      </clipPath>
      <clipPath clipPathUnits="userSpaceOnUse" id="clipPath6">
        <path d="M-3 -3 L377 -3 L377 28 L-3 28 L-3 -3 Z" />
      </clipPath>
      <clipPath clipPathUnits="userSpaceOnUse" id="clipPath7">
        <path d="M0 0 L370 0 L370 21 L0 21 L0 0 Z" />
      </clipPath>
      <clipPath clipPathUnits="userSpaceOnUse" id="clipPath8">
        <path d="M-3 -3 L377 -3 L377 400 L-3 400 L-3 -3 Z" />
      </clipPath>
      <clipPath clipPathUnits="userSpaceOnUse" id="clipPath9">
        <path d="M-3 -3 L217 -3 L217 28 L-3 28 L-3 -3 Z" />
      </clipPath>
      <clipPath clipPathUnits="userSpaceOnUse" id="clipPath10">
        <path d="M0 0 L210 0 L210 21 L0 21 L0 0 Z" />
      </clipPath>
      <clipPath clipPathUnits="userSpaceOnUse" id="clipPath11">
        <path d="M-3 -3 L217 -3 L217 400 L-3 400 L-3 -3 Z" />
      </clipPath>
      <clipPath clipPathUnits="userSpaceOnUse" id="clipPath12">
        <path d="M-3 -3 L19 -3 L19 67 L-3 67 L-3 -3 Z" />
      </clipPath>
      <clipPath clipPathUnits="userSpaceOnUse" id="clipPath13">
        <path d="M-3 -3 L97 -3 L97 47 L-3 47 L-3 -3 Z" />
      </clipPath>
      <clipPath clipPathUnits="userSpaceOnUse" id="clipPath14">
        <path d="M0 0 L90 0 L90 40 L0 40 L0 0 Z" />
      </clipPath>
      <clipPath clipPathUnits="userSpaceOnUse" id="clipPath15">
        <path d="M-3 -3 L47 -3 L47 27 L-3 27 L-3 -3 Z" />
      </clipPath>
      <clipPath clipPathUnits="userSpaceOnUse" id="clipPath16">
        <path d="M-3 -3 L117 -3 L117 47 L-3 47 L-3 -3 Z" />
      </clipPath>
      <clipPath clipPathUnits="userSpaceOnUse" id="clipPath17">
        <path d="M0 0 L110 0 L110 40 L0 40 L0 0 Z" />
      </clipPath>
      <clipPath clipPathUnits="userSpaceOnUse" id="clipPath18">
        <path d="M-3 -3 L127 -3 L127 47 L-3 47 L-3 -3 Z" />
      </clipPath>
      <clipPath clipPathUnits="userSpaceOnUse" id="clipPath19">
        <path d="M0 0 L120 0 L120 40 L0 40 L0 0 Z" />
      </clipPath>
      <clipPath clipPathUnits="userSpaceOnUse" id="clipPath20">
        <path d="M-3 -3 L37 -3 L37 47 L-3 47 L-3 -3 Z" />
      </clipPath>
      <clipPath clipPathUnits="userSpaceOnUse" id="clipPath21">
        <path d="M-3 -3 L137 -3 L137 56 L-3 56 L-3 -3 Z" />
      </clipPath>
      <clipPath clipPathUnits="userSpaceOnUse" id="clipPath22">
        <path d="M0 0 L130 0 L130 49 L0 49 L0 0 Z" />
      </clipPath>
      <clipPath clipPathUnits="userSpaceOnUse" id="clipPath23">
        <path d="M-3 -3 L106 -3 L106 56 L-3 56 L-3 -3 Z" />
      </clipPath>
      <clipPath clipPathUnits="userSpaceOnUse" id="clipPath24">
        <path d="M0 0 L99 0 L99 49 L0 49 L0 0 Z" />
      </clipPath>
      <clipPath clipPathUnits="userSpaceOnUse" id="clipPath25">
        <path d="M-3 -3 L27 -3 L27 27 L-3 27 L-3 -3 Z" />
      </clipPath>
      <clipPath clipPathUnits="userSpaceOnUse" id="clipPath26">
        <path d="M-3 -3 L97 -3 L97 56 L-3 56 L-3 -3 Z" />
      </clipPath>
      <clipPath clipPathUnits="userSpaceOnUse" id="clipPath27">
        <path d="M0 0 L90 0 L90 49 L0 49 L0 0 Z" />
      </clipPath>
      <clipPath clipPathUnits="userSpaceOnUse" id="clipPath28">
        <path d="M0 0 L210 0 L210 393 L0 393 L0 0 Z" />
      </clipPath>
      <clipPath clipPathUnits="userSpaceOnUse" id="clipPath29">
        <path d="M0 0 L370 0 L370 393 L0 393 L0 0 Z" />
      </clipPath>
      <clipPath clipPathUnits="userSpaceOnUse" id="clipPath30">
        <path d="M0 0 L350 0 L350 393 L0 393 L0 0 Z" />
      </clipPath>
      <clipPath clipPathUnits="userSpaceOnUse" id="clipPath31">
        <path d="M0 0 L117 0 L117 87 L0 87 L0 0 Z" />
      </clipPath>
      <clipPath clipPathUnits="userSpaceOnUse" id="clipPath32">
        <path d="M0 0 L237 0 L237 177 L0 177 L0 0 Z" />
      </clipPath>
      <clipPath clipPathUnits="userSpaceOnUse" id="clipPath33">
        <path d="M0 0 L131 0 L131 125 L0 125 L0 0 Z" />
      </clipPath>
      <clipPath clipPathUnits="userSpaceOnUse" id="clipPath34">
        <path d="M0 0 L140 0 L140 126 L0 126 L0 0 Z" />
      </clipPath>
      <clipPath clipPathUnits="userSpaceOnUse" id="clipPath35">
        <path d="M0 0 L377 0 L377 117 L0 117 L0 0 Z" />
      </clipPath>
      <clipPath clipPathUnits="userSpaceOnUse" id="clipPath36">
        <path d="M0 0 L266 0 L266 87 L0 87 L0 0 Z" />
      </clipPath>
      <clipPath clipPathUnits="userSpaceOnUse" id="clipPath37">
        <path d="M0 0 L136 0 L136 87 L0 87 L0 0 Z" />
      </clipPath>
      <clipPath clipPathUnits="userSpaceOnUse" id="clipPath38">
        <path d="M0 0 L258 0 L258 207 L0 207 L0 0 Z" />
      </clipPath>
      <clipPath clipPathUnits="userSpaceOnUse" id="clipPath39">
        <path d="M0 0 L407 0 L407 167 L0 167 L0 0 Z" />
      </clipPath>
      <clipPath clipPathUnits="userSpaceOnUse" id="clipPath40">
        <path d="M0 0 L268 0 L268 87 L0 87 L0 0 Z" />
      </clipPath>
      <clipPath clipPathUnits="userSpaceOnUse" id="clipPath41">
        <path d="M0 0 L87 0 L87 154 L0 154 L0 0 Z" />
      </clipPath>
    </defs>
    <g style="fill:white; text-rendering:geometricPrecision; stroke:white;">
      <rect x="0" y="0" width="934" style="stroke:none;" height="419" />
    </g>
    <g style="text-rendering:geometricPrecision; stroke-width:2; font-size:14; font-family:sans-serif;">
      <rect x="0" y="0" width="350" style="clip-path:url(#clipPath3); fill:none;" height="21" />
    </g>
    <g style="text-rendering:geometricPrecision; font-size:14; font-family:sans-serif;">
      <text x="145" y="17" style="clip-path:url(#clipPath4); stroke:none;" xml:space="preserve">廠商/會員</text>
    </g>
    <g transform="translate(0,21)" style="text-rendering:geometricPrecision; stroke-width:2; font-size:14; font-family:sans-serif;">
      <rect x="0" y="0" width="350" style="clip-path:url(#clipPath5); fill:none;" height="393" />
    </g>
    <g transform="translate(350,0)" style="text-rendering:geometricPrecision; stroke-width:2; font-size:14; font-family:sans-serif;">
      <rect x="0" y="0" width="370" style="clip-path:url(#clipPath6); fill:none;" height="21" />
    </g>
    <g style="text-rendering:geometricPrecision; font-size:14; font-family:sans-serif;" transform="translate(350,0)">
      <text x="171" y="17" style="clip-path:url(#clipPath7); stroke:none;" xml:space="preserve">系統</text>
    </g>
    <g transform="translate(350,21)" style="text-rendering:geometricPrecision; stroke-width:2; font-size:14; font-family:sans-serif;">
      <rect x="0" y="0" width="370" style="clip-path:url(#clipPath8); fill:none;" height="393" />
    </g>
    <g transform="translate(720,0)" style="text-rendering:geometricPrecision; stroke-width:2; font-size:14; font-family:sans-serif;">
      <rect x="0" y="0" width="210" style="clip-path:url(#clipPath9); fill:none;" height="21" />
    </g>
    <g style="text-rendering:geometricPrecision; font-size:14; font-family:sans-serif;" transform="translate(720,0)">
      <text x="84" y="17" style="clip-path:url(#clipPath10); stroke:none;" xml:space="preserve">資料庫</text>
    </g>
    <g transform="translate(720,21)" style="text-rendering:geometricPrecision; stroke-width:2; font-size:14; font-family:sans-serif;">
      <rect x="0" y="0" width="210" style="clip-path:url(#clipPath11); fill:none;" height="393" />
    </g>
    <g style="text-rendering:geometricPrecision; font-size:14; font-family:sans-serif;" transform="translate(140,152)">
      <rect x="0" y="0" width="12" style="clip-path:url(#clipPath12); stroke:none;" height="60" />
      <rect x="0" y="0" width="12" style="stroke-linecap:butt; clip-path:url(#clipPath12); fill:none; stroke-linejoin:round; stroke-miterlimit:0;" height="60" />
    </g>
    <g transform="translate(779,45)" style="font-size:14; fill:rgb(122,207,245); text-rendering:geometricPrecision; font-family:sans-serif; stroke:rgb(122,207,245);">
      <rect x="0" y="0" width="90" style="clip-path:url(#clipPath13); stroke:none;" height="40" />
    </g>
    <g transform="translate(779,45)" style="font-size:14; stroke-linecap:butt; text-rendering:geometricPrecision; font-family:sans-serif; stroke-linejoin:round; stroke-miterlimit:0;">
      <rect x="0" y="0" width="90" style="clip-path:url(#clipPath13); fill:none;" height="40" />
    </g>
    <g style="text-rendering:geometricPrecision; font-size:14; font-family:sans-serif;" transform="translate(779,45)">
      <text x="10" y="26" style="clip-path:url(#clipPath14); stroke:none;" xml:space="preserve">展覽資料表</text>
    </g>
    <g style="text-rendering:geometricPrecision; font-size:14; font-family:sans-serif;" transform="translate(10,50)">
      <circle style="clip-path:url(#clipPath15); stroke:none;" r="10" cx="20" cy="10" />
    </g>
    <g transform="translate(70,40)" style="font-size:14; fill:rgb(122,207,245); text-rendering:geometricPrecision; font-family:sans-serif; stroke:rgb(122,207,245);">
      <rect x="1" y="1" width="108" style="clip-path:url(#clipPath16); stroke:none;" rx="15" ry="15" height="38" />
    </g>
    <g transform="translate(70,40)" style="font-size:14; stroke-linecap:butt; text-rendering:geometricPrecision; font-family:sans-serif; stroke-linejoin:round; stroke-miterlimit:0;">
      <rect x="1" y="1" width="108" style="clip-path:url(#clipPath16); fill:none;" rx="15" ry="15" height="38" />
    </g>
    <g style="text-rendering:geometricPrecision; font-size:14; font-family:sans-serif;" transform="translate(70,40)">
      <text x="13" y="26" style="clip-path:url(#clipPath17); stroke:none;" xml:space="preserve">開啟登入商店</text>
    </g>
    <g transform="translate(209,40)" style="font-size:14; fill:rgb(122,207,245); text-rendering:geometricPrecision; font-family:sans-serif; stroke:rgb(122,207,245);">
      <rect x="1" y="1" width="108" style="clip-path:url(#clipPath16); stroke:none;" rx="15" ry="15" height="38" />
    </g>
    <g transform="translate(209,40)" style="font-size:14; stroke-linecap:butt; text-rendering:geometricPrecision; font-family:sans-serif; stroke-linejoin:round; stroke-miterlimit:0;">
      <rect x="1" y="1" width="108" style="clip-path:url(#clipPath16); fill:none;" rx="15" ry="15" height="38" />
    </g>
    <g style="text-rendering:geometricPrecision; font-size:14; font-family:sans-serif;" transform="translate(209,40)">
      <text x="6" y="26" style="clip-path:url(#clipPath17); stroke:none;" xml:space="preserve">顯示登入中商店</text>
    </g>
    <g transform="translate(199,160)" style="font-size:14; fill:rgb(122,207,245); text-rendering:geometricPrecision; font-family:sans-serif; stroke:rgb(122,207,245);">
      <rect x="1" y="1" width="118" style="clip-path:url(#clipPath18); stroke:none;" rx="15" ry="15" height="38" />
    </g>
    <g transform="translate(199,160)" style="font-size:14; stroke-linecap:butt; text-rendering:geometricPrecision; font-family:sans-serif; stroke-linejoin:round; stroke-miterlimit:0;">
      <rect x="1" y="1" width="118" style="clip-path:url(#clipPath18); fill:none;" rx="15" ry="15" height="38" />
    </g>
    <g style="text-rendering:geometricPrecision; font-size:14; font-family:sans-serif;" transform="translate(199,160)">
      <text x="26" y="26" style="clip-path:url(#clipPath19); stroke:none;" xml:space="preserve">輸入PIN碼</text>
    </g>
    <g transform="translate(490,40)" style="font-size:14; fill:rgb(122,207,245); text-rendering:geometricPrecision; font-family:sans-serif; stroke:rgb(122,207,245);">
      <rect x="1" y="1" width="108" style="clip-path:url(#clipPath16); stroke:none;" rx="15" ry="15" height="38" />
    </g>
    <g transform="translate(490,40)" style="font-size:14; stroke-linecap:butt; text-rendering:geometricPrecision; font-family:sans-serif; stroke-linejoin:round; stroke-miterlimit:0;">
      <rect x="1" y="1" width="108" style="clip-path:url(#clipPath16); fill:none;" rx="15" ry="15" height="38" />
    </g>
    <g style="text-rendering:geometricPrecision; font-size:14; font-family:sans-serif;" transform="translate(490,40)">
      <text x="21" y="26" style="clip-path:url(#clipPath17); stroke:none;" xml:space="preserve">驗證PIN碼</text>
    </g>
    <g transform="translate(530,140)" style="font-size:14; fill:rgb(122,207,245); text-rendering:geometricPrecision; font-family:sans-serif; stroke:rgb(122,207,245);">
      <polygon style="clip-path:url(#clipPath20); stroke:none;" points=" 15 7 27 20 15 32 3 20" />
    </g>
    <g transform="translate(530,140)" style="font-size:14; stroke-linecap:butt; text-rendering:geometricPrecision; font-family:sans-serif; stroke-linejoin:round; stroke-miterlimit:0;">
      <polygon style="fill:none; clip-path:url(#clipPath20);" points=" 15 7 27 20 15 32 3 20" />
    </g>
    <g transform="translate(370,199)" style="font-size:14; fill:rgb(122,207,245); text-rendering:geometricPrecision; font-family:sans-serif; stroke:rgb(122,207,245);">
      <rect x="1" y="1" width="128" style="clip-path:url(#clipPath21); stroke:none;" rx="15" ry="15" height="47" />
    </g>
    <g transform="translate(370,199)" style="font-size:14; stroke-linecap:butt; text-rendering:geometricPrecision; font-family:sans-serif; stroke-linejoin:round; stroke-miterlimit:0;">
      <rect x="1" y="1" width="128" style="clip-path:url(#clipPath21); fill:none;" rx="15" ry="15" height="47" />
    </g>
    <g style="text-rendering:geometricPrecision; font-size:14; font-family:sans-serif;" transform="translate(370,199)">
      <text x="9" y="31" style="clip-path:url(#clipPath22); stroke:none;" xml:space="preserve">傳送驗證錯誤訊息</text>
    </g>
    <g transform="translate(220,300)" style="font-size:14; fill:rgb(122,207,245); text-rendering:geometricPrecision; font-family:sans-serif; stroke:rgb(122,207,245);">
      <rect x="1" y="1" width="97" style="clip-path:url(#clipPath23); stroke:none;" rx="15" ry="15" height="47" />
    </g>
    <g transform="translate(220,300)" style="font-size:14; stroke-linecap:butt; text-rendering:geometricPrecision; font-family:sans-serif; stroke-linejoin:round; stroke-miterlimit:0;">
      <rect x="1" y="1" width="97" style="clip-path:url(#clipPath23); fill:none;" rx="15" ry="15" height="47" />
    </g>
    <g style="text-rendering:geometricPrecision; font-size:14; font-family:sans-serif;" transform="translate(220,300)">
      <text x="7" y="31" style="clip-path:url(#clipPath24); stroke:none;" xml:space="preserve">顯示商店頁面</text>
    </g>
    <g style="text-rendering:geometricPrecision; font-size:14; font-family:sans-serif;" transform="translate(20,315)">
      <circle style="clip-path:url(#clipPath25); stroke:none;" r="6.6667" cx="10" cy="10" />
      <circle style="stroke-linecap:butt; clip-path:url(#clipPath25); fill:none; stroke-linejoin:round; stroke-miterlimit:0;" r="10" cx="10" cy="10" />
    </g>
    <g transform="translate(600,199)" style="font-size:14; fill:rgb(122,207,245); text-rendering:geometricPrecision; font-family:sans-serif; stroke:rgb(122,207,245);">
      <rect x="1" y="1" width="88" style="clip-path:url(#clipPath26); stroke:none;" rx="15" ry="15" height="47" />
    </g>
    <g transform="translate(600,199)" style="font-size:14; stroke-linecap:butt; text-rendering:geometricPrecision; font-family:sans-serif; stroke-linejoin:round; stroke-miterlimit:0;">
      <rect x="1" y="1" width="88" style="clip-path:url(#clipPath26); fill:none;" rx="15" ry="15" height="47" />
    </g>
    <g style="text-rendering:geometricPrecision; font-size:14; font-family:sans-serif;" transform="translate(600,199)">
      <text x="17" y="31" style="clip-path:url(#clipPath27); stroke:none;" xml:space="preserve">登入商店</text>
    </g>
    <g transform="translate(-2,18)" style="font-size:14; stroke-linecap:butt; text-rendering:geometricPrecision; font-family:sans-serif; stroke-linejoin:round;">
      <line x1="42" x2="72" y1="42" style="clip-path:url(#clipPath31); fill:none;" y2="42" />
      <line x1="72" x2="60" y1="42" style="clip-path:url(#clipPath31); fill:none;" y2="36" />
      <line x1="72" x2="60" y1="42" style="clip-path:url(#clipPath31); fill:none;" y2="48" />
    </g>
    <g transform="translate(138,18)" style="font-size:14; stroke-linecap:butt; text-rendering:geometricPrecision; font-family:sans-serif; stroke-linejoin:round;">
      <line x1="42" x2="72" y1="42" style="clip-path:url(#clipPath31); fill:none;" y2="42" />
      <line x1="72" x2="60" y1="42" style="clip-path:url(#clipPath31); fill:none;" y2="36" />
      <line x1="72" x2="60" y1="42" style="clip-path:url(#clipPath31); fill:none;" y2="48" />
    </g>
    <g transform="translate(38,38)" style="font-size:14; stroke-linecap:butt; text-rendering:geometricPrecision; font-family:sans-serif; stroke-linejoin:round;">
      <line x1="192" x2="192" y1="42" style="clip-path:url(#clipPath32); fill:none;" y2="72" />
      <line x1="192" x2="42" y1="72" style="clip-path:url(#clipPath32); fill:none;" y2="72" />
      <line x1="42" x2="42" y1="72" style="clip-path:url(#clipPath32); fill:none;" y2="132" />
      <line x1="42" x2="101" y1="132" style="clip-path:url(#clipPath32); fill:none;" y2="132" />
      <line x1="101" x2="89" y1="132" style="clip-path:url(#clipPath32); fill:none;" y2="126" />
      <line x1="101" x2="89" y1="132" style="clip-path:url(#clipPath32); fill:none;" y2="138" />
    </g>
    <g transform="translate(453,123)" style="font-size:14; stroke-linecap:butt; text-rendering:geometricPrecision; font-family:sans-serif; stroke-linejoin:round;">
      <line x1="85" x2="42" y1="42" style="clip-path:url(#clipPath33); fill:none;" y2="79" />
      <line x1="42" x2="54" y1="79" style="clip-path:url(#clipPath33); fill:none;" y2="76" />
      <line x1="42" x2="47" y1="79" style="clip-path:url(#clipPath33); fill:none;" y2="66" />
    </g>
    <g transform="translate(511,123)" style="font-size:14; stroke-linecap:butt; text-rendering:geometricPrecision; font-family:sans-serif; stroke-linejoin:round;">
      <line x1="42" x2="94" y1="42" style="clip-path:url(#clipPath34); fill:none;" y2="81" />
      <line x1="94" x2="88" y1="81" style="clip-path:url(#clipPath34); fill:none;" y2="69" />
      <line x1="94" x2="81" y1="81" style="clip-path:url(#clipPath34); fill:none;" y2="79" />
    </g>
    <g transform="translate(38,148)" style="font-size:14; stroke-linecap:butt; text-rendering:geometricPrecision; font-family:sans-serif; stroke-linejoin:round;">
      <line x1="332" x2="42" y1="72" style="clip-path:url(#clipPath35); fill:none;" y2="72" />
      <line x1="42" x2="42" y1="72" style="clip-path:url(#clipPath35); fill:none;" y2="42" />
      <line x1="42" x2="101" y1="42" style="clip-path:url(#clipPath35); fill:none;" y2="42" />
      <line x1="101" x2="89" y1="42" style="clip-path:url(#clipPath35); fill:none;" y2="36" />
      <line x1="101" x2="89" y1="42" style="clip-path:url(#clipPath35); fill:none;" y2="48" />
    </g>
    <g transform="translate(558,18)" style="font-size:14; stroke-linecap:butt; text-rendering:geometricPrecision; font-family:sans-serif; stroke-linejoin:round;">
      <line x1="220" x2="42" y1="42" style="clip-path:url(#clipPath36); fill:none;" y2="42" />
      <line x1="42" x2="54" y1="42" style="clip-path:url(#clipPath36); fill:none;" y2="48" />
      <line x1="42" x2="54" y1="42" style="clip-path:url(#clipPath36); fill:none;" y2="36" />
    </g>
    <g transform="translate(110,138)" style="font-size:11; stroke-linecap:butt; text-rendering:geometricPrecision; font-family:sans-serif; stroke-linejoin:round;">
      <line x1="42" x2="90" y1="42" style="clip-path:url(#clipPath37); fill:none;" y2="42" />
      <line x1="90" x2="78" y1="42" style="clip-path:url(#clipPath37); fill:none;" y2="36" />
      <line x1="90" x2="78" y1="42" style="clip-path:url(#clipPath37); fill:none;" y2="48" />
    </g>
    <g transform="translate(278,18)" style="font-size:11; stroke-linecap:butt; text-rendering:geometricPrecision; font-family:sans-serif; stroke-linejoin:round;">
      <line x1="42" x2="93" y1="162" style="clip-path:url(#clipPath38); fill:none;" y2="162" />
      <line x1="93" x2="93" y1="162" style="clip-path:url(#clipPath38); fill:none;" y2="42" />
      <line x1="93" x2="213" y1="42" style="clip-path:url(#clipPath38); fill:none;" y2="42" />
      <line x1="213" x2="201" y1="42" style="clip-path:url(#clipPath38); fill:none;" y2="36" />
      <line x1="213" x2="201" y1="42" style="clip-path:url(#clipPath38); fill:none;" y2="48" />
    </g>
    <g transform="translate(278,208)" style="font-size:11; stroke-linecap:butt; text-rendering:geometricPrecision; font-family:sans-serif; stroke-linejoin:round;">
      <line x1="362" x2="362" y1="42" style="clip-path:url(#clipPath39); fill:none;" y2="122" />
      <line x1="362" x2="42" y1="122" style="clip-path:url(#clipPath39); fill:none;" y2="122" />
      <line x1="42" x2="54" y1="122" style="clip-path:url(#clipPath39); fill:none;" y2="128" />
      <line x1="42" x2="54" y1="122" style="clip-path:url(#clipPath39); fill:none;" y2="116" />
    </g>
    <g transform="translate(-2,283)" style="font-size:11; stroke-linecap:butt; text-rendering:geometricPrecision; font-family:sans-serif; stroke-linejoin:round;">
      <line x1="223" x2="42" y1="42" style="clip-path:url(#clipPath40); fill:none;" y2="42" />
      <line x1="42" x2="54" y1="42" style="clip-path:url(#clipPath40); fill:none;" y2="48" />
      <line x1="42" x2="54" y1="42" style="clip-path:url(#clipPath40); fill:none;" y2="36" />
    </g>
    <g transform="translate(503,38)" style="font-size:11; stroke-linecap:butt; text-rendering:geometricPrecision; font-family:sans-serif; stroke-linejoin:round;">
      <line x1="42" x2="42" y1="42" style="clip-path:url(#clipPath41); fill:none;" y2="108" />
      <line x1="42" x2="48" y1="108" style="clip-path:url(#clipPath41); fill:none;" y2="96" />
      <line x1="42" x2="36" y1="108" style="clip-path:url(#clipPath41); fill:none;" y2="96" />
    </g>
  </g>
</svg>
