<?xml version="1.0" encoding="UTF-8"?>

<!DOCTYPE svg PUBLIC '-//W3C//DTD SVG 1.0//EN' 'http://www.w3.org/TR/2001/REC-SVG-20010904/DTD/svg10.dtd'>
<svg style="fill-opacity:1; color-rendering:auto; color-interpolation:auto; stroke:black; text-rendering:auto; stroke-linecap:square; stroke-miterlimit:10; stroke-opacity:1; shape-rendering:auto; fill:black; stroke-dasharray:none; font-weight:normal; stroke-width:1; font-family:&apos;Dialog&apos;; font-style:normal; stroke-linejoin:miter; font-size:12; stroke-dashoffset:0; image-rendering:auto;" xmlns="http://www.w3.org/2000/svg" width="1044" xmlns:xlink="http://www.w3.org/1999/xlink" height="549">
  <!--Generated by the Batik Graphics2D SVG Generator-->
  <defs id="genericDefs" />
  <g>
    <defs id="defs1">
      <clipPath clipPathUnits="userSpaceOnUse" id="clipPath1">
        <path d="M-3 -3 L1047 -3 L1047 541 L-3 541 L-3 -3 Z" />
      </clipPath>
      <clipPath clipPathUnits="userSpaceOnUse" id="clipPath2">
        <path d="M0 0 L0 519 L7 519 L7 0 Z" />
      </clipPath>
      <clipPath clipPathUnits="userSpaceOnUse" id="clipPath3">
        <path d="M-3 -3 L332 -3 L332 29 L-3 29 L-3 -3 Z" />
      </clipPath>
      <clipPath clipPathUnits="userSpaceOnUse" id="clipPath4">
        <path d="M0 0 L325 0 L325 21 L0 21 L0 0 Z" />
      </clipPath>
      <clipPath clipPathUnits="userSpaceOnUse" id="clipPath5">
        <path d="M-3 -3 L332 -3 L332 531 L-3 531 L-3 -3 Z" />
      </clipPath>
      <clipPath clipPathUnits="userSpaceOnUse" id="clipPath6">
        <path d="M-3 -3 L502 -3 L502 29 L-3 29 L-3 -3 Z" />
      </clipPath>
      <clipPath clipPathUnits="userSpaceOnUse" id="clipPath7">
        <path d="M0 0 L495 0 L495 21 L0 21 L0 0 Z" />
      </clipPath>
      <clipPath clipPathUnits="userSpaceOnUse" id="clipPath8">
        <path d="M-3 -3 L502 -3 L502 531 L-3 531 L-3 -3 Z" />
      </clipPath>
      <clipPath clipPathUnits="userSpaceOnUse" id="clipPath9">
        <path d="M-3 -3 L19 -3 L19 157 L-3 157 L-3 -3 Z" />
      </clipPath>
      <clipPath clipPathUnits="userSpaceOnUse" id="clipPath10">
        <path d="M-3 -3 L227 -3 L227 29 L-3 29 L-3 -3 Z" />
      </clipPath>
      <clipPath clipPathUnits="userSpaceOnUse" id="clipPath11">
        <path d="M0 0 L220 0 L220 21 L0 21 L0 0 Z" />
      </clipPath>
      <clipPath clipPathUnits="userSpaceOnUse" id="clipPath12">
        <path d="M-3 -3 L227 -3 L227 531 L-3 531 L-3 -3 Z" />
      </clipPath>
      <clipPath clipPathUnits="userSpaceOnUse" id="clipPath13">
        <path d="M-3 -3 L127 -3 L127 57 L-3 57 L-3 -3 Z" />
      </clipPath>
      <clipPath clipPathUnits="userSpaceOnUse" id="clipPath14">
        <path d="M0 0 L120 0 L120 50 L0 50 L0 0 Z" />
      </clipPath>
      <clipPath clipPathUnits="userSpaceOnUse" id="clipPath15">
        <path d="M-3 -3 L17 -3 L17 67 L-3 67 L-3 -3 Z" />
      </clipPath>
      <clipPath clipPathUnits="userSpaceOnUse" id="clipPath16">
        <path d="M-3 -3 L47 -3 L47 27 L-3 27 L-3 -3 Z" />
      </clipPath>
      <clipPath clipPathUnits="userSpaceOnUse" id="clipPath17">
        <path d="M-3 -3 L137 -3 L137 47 L-3 47 L-3 -3 Z" />
      </clipPath>
      <clipPath clipPathUnits="userSpaceOnUse" id="clipPath18">
        <path d="M0 0 L130 0 L130 40 L0 40 L0 0 Z" />
      </clipPath>
      <clipPath clipPathUnits="userSpaceOnUse" id="clipPath19">
        <path d="M-3 -3 L27 -3 L27 47 L-3 47 L-3 -3 Z" />
      </clipPath>
      <clipPath clipPathUnits="userSpaceOnUse" id="clipPath20">
        <path d="M-3 -3 L117 -3 L117 47 L-3 47 L-3 -3 Z" />
      </clipPath>
      <clipPath clipPathUnits="userSpaceOnUse" id="clipPath21">
        <path d="M0 0 L110 0 L110 40 L0 40 L0 0 Z" />
      </clipPath>
      <clipPath clipPathUnits="userSpaceOnUse" id="clipPath22">
        <path d="M-3 -3 L117 -3 L117 57 L-3 57 L-3 -3 Z" />
      </clipPath>
      <clipPath clipPathUnits="userSpaceOnUse" id="clipPath23">
        <path d="M0 0 L110 0 L110 50 L0 50 L0 0 Z" />
      </clipPath>
      <clipPath clipPathUnits="userSpaceOnUse" id="clipPath24">
        <path d="M-3 -3 L167 -3 L167 47 L-3 47 L-3 -3 Z" />
      </clipPath>
      <clipPath clipPathUnits="userSpaceOnUse" id="clipPath25">
        <path d="M0 0 L160 0 L160 40 L0 40 L0 0 Z" />
      </clipPath>
      <clipPath clipPathUnits="userSpaceOnUse" id="clipPath26">
        <path d="M-3 -3 L87 -3 L87 47 L-3 47 L-3 -3 Z" />
      </clipPath>
      <clipPath clipPathUnits="userSpaceOnUse" id="clipPath27">
        <path d="M0 0 L80 0 L80 40 L0 40 L0 0 Z" />
      </clipPath>
      <clipPath clipPathUnits="userSpaceOnUse" id="clipPath28">
        <path d="M-3 -3 L27 -3 L27 27 L-3 27 L-3 -3 Z" />
      </clipPath>
      <clipPath clipPathUnits="userSpaceOnUse" id="clipPath29">
        <path d="M-3 -3 L47 -3 L47 47 L-3 47 L-3 -3 Z" />
      </clipPath>
      <clipPath clipPathUnits="userSpaceOnUse" id="clipPath30">
        <path d="M-3 -3 L77 -3 L77 57 L-3 57 L-3 -3 Z" />
      </clipPath>
      <clipPath clipPathUnits="userSpaceOnUse" id="clipPath31">
        <path d="M0 0 L70 0 L70 50 L0 50 L0 0 Z" />
      </clipPath>
      <clipPath clipPathUnits="userSpaceOnUse" id="clipPath32">
        <path d="M-3 -3 L127 -3 L127 87 L-3 87 L-3 -3 Z" />
      </clipPath>
      <clipPath clipPathUnits="userSpaceOnUse" id="clipPath33">
        <path d="M0 0 L0 80 L120 80 L120 0 Z" />
      </clipPath>
      <clipPath clipPathUnits="userSpaceOnUse" id="clipPath34">
        <path d="M0 0 L220 0 L220 524 L0 524 L0 0 Z" />
      </clipPath>
      <clipPath clipPathUnits="userSpaceOnUse" id="clipPath35">
        <path d="M0 0 L495 0 L495 524 L0 524 L0 0 Z" />
      </clipPath>
      <clipPath clipPathUnits="userSpaceOnUse" id="clipPath36">
        <path d="M0 0 L325 0 L325 524 L0 524 L0 0 Z" />
      </clipPath>
      <clipPath clipPathUnits="userSpaceOnUse" id="clipPath37">
        <path d="M0 0 L87 0 L87 108 L0 108 L0 0 Z" />
      </clipPath>
      <clipPath clipPathUnits="userSpaceOnUse" id="clipPath38">
        <path d="M0 0 L142 0 L142 117 L0 117 L0 0 Z" />
      </clipPath>
      <clipPath clipPathUnits="userSpaceOnUse" id="clipPath39">
        <path d="M0 0 L281 0 L281 87 L0 87 L0 0 Z" />
      </clipPath>
      <clipPath clipPathUnits="userSpaceOnUse" id="clipPath40">
        <path d="M0 0 L287 0 L287 294 L0 294 L0 0 Z" />
      </clipPath>
      <clipPath clipPathUnits="userSpaceOnUse" id="clipPath41">
        <path d="M0 0 L87 0 L87 177 L0 177 L0 0 Z" />
      </clipPath>
      <clipPath clipPathUnits="userSpaceOnUse" id="clipPath42">
        <path d="M0 0 L87 0 L87 146 L0 146 L0 0 Z" />
      </clipPath>
      <clipPath clipPathUnits="userSpaceOnUse" id="clipPath43">
        <path d="M0 0 L87 0 L87 154 L0 154 L0 0 Z" />
      </clipPath>
      <clipPath clipPathUnits="userSpaceOnUse" id="clipPath44">
        <path d="M0 0 L182 0 L182 117 L0 117 L0 0 Z" />
      </clipPath>
      <clipPath clipPathUnits="userSpaceOnUse" id="clipPath45">
        <path d="M0 0 L132 0 L132 87 L0 87 L0 0 Z" />
      </clipPath>
      <clipPath clipPathUnits="userSpaceOnUse" id="clipPath46">
        <path d="M0 0 L157 0 L157 207 L0 207 L0 0 Z" />
      </clipPath>
      <clipPath clipPathUnits="userSpaceOnUse" id="clipPath47">
        <path d="M0 0 L117 0 L117 87 L0 87 L0 0 Z" />
      </clipPath>
      <clipPath clipPathUnits="userSpaceOnUse" id="clipPath48">
        <path d="M0 0 L267 0 L267 166 L0 166 L0 0 Z" />
      </clipPath>
      <clipPath clipPathUnits="userSpaceOnUse" id="clipPath49">
        <path d="M0 0 L177 0 L177 87 L0 87 L0 0 Z" />
      </clipPath>
      <clipPath clipPathUnits="userSpaceOnUse" id="clipPath50">
        <path d="M0 0 L346 0 L346 87 L0 87 L0 0 Z" />
      </clipPath>
      <clipPath clipPathUnits="userSpaceOnUse" id="clipPath51">
        <path d="M0 0 L216 0 L216 217 L0 217 L0 0 Z" />
      </clipPath>
      <clipPath clipPathUnits="userSpaceOnUse" id="clipPath52">
        <path d="M0 0 L316 0 L316 87 L0 87 L0 0 Z" />
      </clipPath>
      <clipPath clipPathUnits="userSpaceOnUse" id="clipPath53">
        <path d="M0 0 L106 0 L106 198 L0 198 L0 0 Z" />
      </clipPath>
      <clipPath clipPathUnits="userSpaceOnUse" id="clipPath54">
        <path d="M0 0 L366 0 L366 147 L0 147 L0 0 Z" />
      </clipPath>
      <clipPath clipPathUnits="userSpaceOnUse" id="clipPath55">
        <path d="M0 0 L126 0 L126 87 L0 87 L0 0 Z" />
      </clipPath>
      <clipPath clipPathUnits="userSpaceOnUse" id="clipPath56">
        <path d="M0 0 L56 0 L56 21 L0 21 L0 0 Z" />
      </clipPath>
      <clipPath clipPathUnits="userSpaceOnUse" id="clipPath57">
        <path d="M0 0 L126 0 L126 21 L0 21 L0 0 Z" />
      </clipPath>
      <clipPath clipPathUnits="userSpaceOnUse" id="clipPath58">
        <path d="M0 0 L148 0 L148 21 L0 21 L0 0 Z" />
      </clipPath>
    </defs>
    <g style="fill:white; text-rendering:geometricPrecision; stroke:white;">
      <rect x="0" y="0" width="1044" style="stroke:none;" height="549" />
    </g>
    <g style="text-rendering:geometricPrecision; stroke-width:2; font-size:14; font-family:sans-serif;">
      <rect x="0" y="0" width="325" style="clip-path:url(#clipPath3); fill:none;" height="22" />
    </g>
    <g style="text-rendering:geometricPrecision; font-size:14; font-family:sans-serif;">
      <text x="148" y="17" style="clip-path:url(#clipPath4); stroke:none;" xml:space="preserve">會員</text>
    </g>
    <g transform="translate(0,22)" style="text-rendering:geometricPrecision; stroke-width:2; font-size:14; font-family:sans-serif;">
      <rect x="0" y="0" width="325" style="clip-path:url(#clipPath5); fill:none;" height="524" />
    </g>
    <g transform="translate(325,0)" style="text-rendering:geometricPrecision; stroke-width:2; font-size:14; font-family:sans-serif;">
      <rect x="0" y="0" width="495" style="clip-path:url(#clipPath6); fill:none;" height="22" />
    </g>
    <g transform="translate(325,0)" style="text-rendering:geometricPrecision; stroke-width:2; font-size:14; font-family:sans-serif;">
      <text x="233" y="17" style="clip-path:url(#clipPath7); stroke:none;" xml:space="preserve">系統</text>
    </g>
    <g transform="translate(325,22)" style="text-rendering:geometricPrecision; stroke-width:2; font-size:14; font-family:sans-serif;">
      <rect x="0" y="0" width="495" style="clip-path:url(#clipPath8); fill:none;" height="524" />
    </g>
    <g style="text-rendering:geometricPrecision; font-size:11; font-family:sans-serif;" transform="translate(760,200)">
      <rect x="0" y="0" width="12" style="clip-path:url(#clipPath9); stroke:none;" height="150" />
      <rect x="0" y="0" width="12" style="stroke-linecap:butt; clip-path:url(#clipPath9); fill:none; stroke-linejoin:round; stroke-miterlimit:0;" height="150" />
    </g>
    <g transform="translate(820,0)" style="text-rendering:geometricPrecision; stroke-width:2; font-size:14; font-family:sans-serif;">
      <rect x="0" y="0" width="220" style="clip-path:url(#clipPath10); fill:none;" height="22" />
    </g>
    <g style="text-rendering:geometricPrecision; font-size:14; font-family:sans-serif;" transform="translate(820,0)">
      <text x="89" y="17" style="clip-path:url(#clipPath11); stroke:none;" xml:space="preserve">資料庫</text>
    </g>
    <g transform="translate(820,22)" style="text-rendering:geometricPrecision; stroke-width:2; font-size:14; font-family:sans-serif;">
      <rect x="0" y="0" width="220" style="clip-path:url(#clipPath12); fill:none;" height="524" />
    </g>
    <g transform="translate(890,40)" style="font-size:14; fill:rgb(122,207,245); text-rendering:geometricPrecision; font-family:sans-serif; stroke:rgb(122,207,245);">
      <rect x="0" y="0" width="120" style="clip-path:url(#clipPath13); stroke:none;" height="50" />
    </g>
    <g transform="translate(890,40)" style="font-size:14; stroke-linecap:butt; text-rendering:geometricPrecision; font-family:sans-serif; stroke-linejoin:round; stroke-miterlimit:0;">
      <rect x="0" y="0" width="120" style="clip-path:url(#clipPath13); fill:none;" height="50" />
    </g>
    <g style="text-rendering:geometricPrecision; font-size:14; font-family:sans-serif;" transform="translate(890,40)">
      <text x="18" y="31" style="clip-path:url(#clipPath14); stroke:none;" xml:space="preserve">購物車資料表</text>
    </g>
    <g transform="translate(890,140)" style="font-size:14; fill:rgb(122,207,245); text-rendering:geometricPrecision; font-family:sans-serif; stroke:rgb(122,207,245);">
      <rect x="0" y="0" width="120" style="clip-path:url(#clipPath13); stroke:none;" height="50" />
    </g>
    <g transform="translate(890,140)" style="font-size:14; stroke-linecap:butt; text-rendering:geometricPrecision; font-family:sans-serif; stroke-linejoin:round; stroke-miterlimit:0;">
      <rect x="0" y="0" width="120" style="clip-path:url(#clipPath13); fill:none;" height="50" />
    </g>
    <g style="text-rendering:geometricPrecision; font-size:14; font-family:sans-serif;" transform="translate(890,140)">
      <text x="18" y="31" style="clip-path:url(#clipPath14); stroke:none;" xml:space="preserve">購物車資料表</text>
    </g>
    <g style="text-rendering:geometricPrecision; font-size:11; font-family:sans-serif;" transform="translate(370,150)">
      <rect x="0" y="0" width="10" style="clip-path:url(#clipPath15); stroke:none;" height="60" />
      <rect x="0" y="0" width="10" style="stroke-linecap:butt; clip-path:url(#clipPath15); fill:none; stroke-linejoin:round; stroke-miterlimit:0;" height="60" />
    </g>
    <g style="text-rendering:geometricPrecision; font-size:14; font-family:sans-serif;" transform="translate(50,30)">
      <circle style="clip-path:url(#clipPath16); stroke:none;" r="10" cx="20" cy="10" />
    </g>
    <g transform="translate(10,70)" style="font-size:14; fill:rgb(122,207,245); text-rendering:geometricPrecision; font-family:sans-serif; stroke:rgb(122,207,245);">
      <rect x="1" y="1" width="128" style="clip-path:url(#clipPath17); stroke:none;" rx="15" ry="15" height="38" />
    </g>
    <g transform="translate(10,70)" style="font-size:14; stroke-linecap:butt; text-rendering:geometricPrecision; font-family:sans-serif; stroke-linejoin:round; stroke-miterlimit:0;">
      <rect x="1" y="1" width="128" style="clip-path:url(#clipPath17); fill:none;" rx="15" ry="15" height="38" />
    </g>
    <g style="text-rendering:geometricPrecision; font-size:14; font-family:sans-serif;" transform="translate(10,70)">
      <text x="30" y="26" style="clip-path:url(#clipPath18); stroke:none;" xml:space="preserve">開啟購物車</text>
    </g>
    <g transform="translate(160,150)" style="font-size:14; fill:rgb(122,207,245); text-rendering:geometricPrecision; font-family:sans-serif; stroke:rgb(122,207,245);">
      <polygon style="clip-path:url(#clipPath19); stroke:none;" points=" 10 7 17 20 10 32 3 20" />
    </g>
    <g transform="translate(160,150)" style="font-size:14; stroke-linecap:butt; text-rendering:geometricPrecision; font-family:sans-serif; stroke-linejoin:round; stroke-miterlimit:0;">
      <polygon style="fill:none; clip-path:url(#clipPath19);" points=" 10 7 17 20 10 32 3 20" />
    </g>
    <g transform="translate(350,60)" style="font-size:14; fill:rgb(122,207,245); text-rendering:geometricPrecision; font-family:sans-serif; stroke:rgb(122,207,245);">
      <rect x="1" y="1" width="108" style="clip-path:url(#clipPath20); stroke:none;" rx="15" ry="15" height="38" />
    </g>
    <g transform="translate(350,60)" style="font-size:14; stroke-linecap:butt; text-rendering:geometricPrecision; font-family:sans-serif; stroke-linejoin:round; stroke-miterlimit:0;">
      <rect x="1" y="1" width="108" style="clip-path:url(#clipPath20); fill:none;" rx="15" ry="15" height="38" />
    </g>
    <g style="text-rendering:geometricPrecision; font-size:14; font-family:sans-serif;" transform="translate(350,60)">
      <text x="13" y="26" style="clip-path:url(#clipPath21); stroke:none;" xml:space="preserve">顯示刪除畫面</text>
    </g>
    <g transform="translate(410,140)" style="font-size:14; fill:rgb(122,207,245); text-rendering:geometricPrecision; font-family:sans-serif; stroke:rgb(122,207,245);">
      <rect x="1" y="1" width="108" style="clip-path:url(#clipPath22); stroke:none;" rx="15" ry="15" height="48" />
    </g>
    <g transform="translate(410,140)" style="font-size:14; stroke-linecap:butt; text-rendering:geometricPrecision; font-family:sans-serif; stroke-linejoin:round; stroke-miterlimit:0;">
      <rect x="1" y="1" width="108" style="clip-path:url(#clipPath22); fill:none;" rx="15" ry="15" height="48" />
    </g>
    <g style="text-rendering:geometricPrecision; font-size:14; font-family:sans-serif;" transform="translate(410,140)">
      <text x="13" y="31" style="clip-path:url(#clipPath23); stroke:none;" xml:space="preserve">顯示修改畫面</text>
    </g>
    <g transform="translate(370,374)" style="font-size:14; fill:rgb(122,207,245); text-rendering:geometricPrecision; font-family:sans-serif; stroke:rgb(122,207,245);">
      <rect x="1" y="1" width="108" style="clip-path:url(#clipPath20); stroke:none;" rx="15" ry="15" height="38" />
    </g>
    <g transform="translate(370,374)" style="font-size:14; stroke-linecap:butt; text-rendering:geometricPrecision; font-family:sans-serif; stroke-linejoin:round; stroke-miterlimit:0;">
      <rect x="1" y="1" width="108" style="clip-path:url(#clipPath20); fill:none;" rx="15" ry="15" height="38" />
    </g>
    <g style="text-rendering:geometricPrecision; font-size:14; font-family:sans-serif;" transform="translate(370,374)">
      <text x="13" y="26" style="clip-path:url(#clipPath21); stroke:none;" xml:space="preserve">顯示結帳畫面</text>
    </g>
    <g transform="translate(10,200)" style="font-size:14; fill:rgb(122,207,245); text-rendering:geometricPrecision; font-family:sans-serif; stroke:rgb(122,207,245);">
      <rect x="1" y="1" width="158" style="clip-path:url(#clipPath24); stroke:none;" rx="15" ry="15" height="38" />
    </g>
    <g transform="translate(10,200)" style="font-size:14; stroke-linecap:butt; text-rendering:geometricPrecision; font-family:sans-serif; stroke-linejoin:round; stroke-miterlimit:0;">
      <rect x="1" y="1" width="158" style="clip-path:url(#clipPath24); fill:none;" rx="15" ry="15" height="38" />
    </g>
    <g style="text-rendering:geometricPrecision; font-size:14; font-family:sans-serif;" transform="translate(10,200)">
      <text x="17" y="26" style="clip-path:url(#clipPath25); stroke:none;" xml:space="preserve">選擇購物車操作動作</text>
    </g>
    <g transform="translate(550,60)" style="font-size:14; fill:rgb(122,207,245); text-rendering:geometricPrecision; font-family:sans-serif; stroke:rgb(122,207,245);">
      <rect x="1" y="1" width="78" style="clip-path:url(#clipPath26); stroke:none;" rx="15" ry="15" height="38" />
    </g>
    <g transform="translate(550,60)" style="font-size:14; stroke-linecap:butt; text-rendering:geometricPrecision; font-family:sans-serif; stroke-linejoin:round; stroke-miterlimit:0;">
      <rect x="1" y="1" width="78" style="clip-path:url(#clipPath26); fill:none;" rx="15" ry="15" height="38" />
    </g>
    <g style="text-rendering:geometricPrecision; font-size:14; font-family:sans-serif;" transform="translate(550,60)">
      <text x="12" y="26" style="clip-path:url(#clipPath27); stroke:none;" xml:space="preserve">刪除成功</text>
    </g>
    <g style="text-rendering:geometricPrecision; font-size:14; font-family:sans-serif;" transform="translate(780,390)">
      <circle style="clip-path:url(#clipPath28); stroke:none;" r="6.6667" cx="10" cy="10" />
      <circle style="stroke-linecap:butt; clip-path:url(#clipPath28); fill:none; stroke-linejoin:round; stroke-miterlimit:0;" r="10" cx="10" cy="10" />
    </g>
    <g transform="translate(550,140)" style="font-size:14; fill:rgb(122,207,245); text-rendering:geometricPrecision; font-family:sans-serif; stroke:rgb(122,207,245);">
      <rect x="1" y="1" width="108" style="clip-path:url(#clipPath22); stroke:none;" rx="15" ry="15" height="48" />
    </g>
    <g transform="translate(550,140)" style="font-size:14; stroke-linecap:butt; text-rendering:geometricPrecision; font-family:sans-serif; stroke-linejoin:round; stroke-miterlimit:0;">
      <rect x="1" y="1" width="108" style="clip-path:url(#clipPath22); fill:none;" rx="15" ry="15" height="48" />
    </g>
    <g style="text-rendering:geometricPrecision; font-size:14; font-family:sans-serif;" transform="translate(550,140)">
      <text x="13" y="31" style="clip-path:url(#clipPath23); stroke:none;" xml:space="preserve">判斷修改數量</text>
    </g>
    <g transform="translate(570,250)" style="font-size:14; fill:rgb(122,207,245); text-rendering:geometricPrecision; font-family:sans-serif; stroke:rgb(122,207,245);">
      <polygon style="clip-path:url(#clipPath29); stroke:none;" points=" 20 7 37 20 20 32 3 20" />
    </g>
    <g transform="translate(570,250)" style="font-size:14; stroke-linecap:butt; text-rendering:geometricPrecision; font-family:sans-serif; stroke-linejoin:round; stroke-miterlimit:0;">
      <polygon style="fill:none; clip-path:url(#clipPath29);" points=" 20 7 37 20 20 32 3 20" />
    </g>
    <g transform="translate(410,300)" style="font-size:14; fill:rgb(122,207,245); text-rendering:geometricPrecision; font-family:sans-serif; stroke:rgb(122,207,245);">
      <rect x="1" y="1" width="108" style="clip-path:url(#clipPath22); stroke:none;" rx="15" ry="15" height="48" />
    </g>
    <g transform="translate(410,300)" style="font-size:14; stroke-linecap:butt; text-rendering:geometricPrecision; font-family:sans-serif; stroke-linejoin:round; stroke-miterlimit:0;">
      <rect x="1" y="1" width="108" style="clip-path:url(#clipPath22); fill:none;" rx="15" ry="15" height="48" />
    </g>
    <g style="text-rendering:geometricPrecision; font-size:14; font-family:sans-serif;" transform="translate(410,300)">
      <text x="13" y="31" style="clip-path:url(#clipPath23); stroke:none;" xml:space="preserve">顯示庫存不足</text>
    </g>
    <g transform="translate(650,260)" style="font-size:14; fill:rgb(122,207,245); text-rendering:geometricPrecision; font-family:sans-serif; stroke:rgb(122,207,245);">
      <rect x="1" y="1" width="68" style="clip-path:url(#clipPath30); stroke:none;" rx="15" ry="15" height="48" />
    </g>
    <g transform="translate(650,260)" style="font-size:14; stroke-linecap:butt; text-rendering:geometricPrecision; font-family:sans-serif; stroke-linejoin:round; stroke-miterlimit:0;">
      <rect x="1" y="1" width="68" style="clip-path:url(#clipPath30); fill:none;" rx="15" ry="15" height="48" />
    </g>
    <g style="text-rendering:geometricPrecision; font-size:14; font-family:sans-serif;" transform="translate(650,260)">
      <text x="7" y="31" style="clip-path:url(#clipPath31); stroke:none;" xml:space="preserve">修改成功</text>
    </g>
    <g transform="translate(20,300)" style="font-size:14; fill:rgb(122,207,245); text-rendering:geometricPrecision; font-family:sans-serif; stroke:rgb(122,207,245);">
      <polygon style="clip-path:url(#clipPath32); stroke:none;" points=" 0 0 104 0 119 15 104 15 104 0 119 15 119 79 0 79" />
    </g>
    <g transform="translate(20,300)" style="font-size:14; stroke-linecap:butt; text-rendering:geometricPrecision; font-family:sans-serif; stroke-linejoin:round; stroke-miterlimit:0;">
      <polygon style="fill:none; clip-path:url(#clipPath32);" points=" 0 0 104 0 119 15 104 15 104 0 119 15 119 79 0 79" />
    </g>
    <g style="text-rendering:geometricPrecision; font-size:11; font-family:sans-serif;" transform="translate(20,300)">
      <path d="M8.2188 19.676 L6.9844 19.676 L6.9844 11.8323 Q6.5469 12.2542 5.8203 12.6839 Q5.0938 13.1135 4.5312 13.3167 L4.5312 12.1292 Q5.5625 11.6448 6.3359 10.9573 Q7.1094 10.2698 7.4219 9.6135 L8.2188 9.6135 L8.2188 19.676 ZM12.2656 19.676 L12.2656 18.2698 L13.6719 18.2698 L13.6719 19.676 L12.2656 19.676 ZM16.4844 9.4417 L17.2969 10.051 L22.5938 10.051 L23.0469 9.4417 Q23.5312 9.7385 23.75 10.0198 Q23.8438 10.1292 23.8438 10.2073 Q23.8438 10.3323 23.2969 10.6448 L23.2969 14.8635 L23.4062 14.8635 L23.9531 14.2542 Q24.3906 14.5823 24.7969 14.8792 Q24.9062 14.9417 24.9062 15.0198 Q24.9062 15.2385 24.7344 15.2385 L23.2969 15.2385 L23.2969 20.5042 Q23.2969 20.9417 23.1406 21.1917 Q22.9844 21.4104 22.7188 21.551 Q22.5 21.7073 22.3281 21.7073 Q22.3281 21.3792 22.25 21.2542 Q22.1719 21.0667 21.9531 20.9417 Q21.7344 20.801 21.4375 20.7542 L21.4375 20.4417 Q21.9844 20.6604 22.4375 20.6604 Q22.5938 20.6604 22.6406 20.5823 Q22.7031 20.5042 22.7031 20.2073 L22.7031 15.2385 L21.2344 15.2385 L21.2344 20.8635 Q21.2344 21.1135 20.75 21.1604 Q20.5781 21.1604 20.5781 20.926 L20.5781 15.2385 L19.2031 15.2385 L19.2031 20.8635 Q19.2031 21.1135 18.7031 21.1604 Q18.5469 21.1604 18.5469 20.926 L18.5469 15.2385 L17.1875 15.2385 L17.1875 21.6448 Q17.1875 21.8167 16.9062 21.8167 Q16.7969 21.8167 16.6094 21.7229 Q16.4844 21.6135 16.4844 21.4104 Q16.4844 21.176 16.5 20.7854 Q16.5938 20.4729 16.5938 19.4573 L16.5938 15.2385 Q15.8594 15.2698 15.5938 15.301 L15.3281 14.6917 Q15.8125 14.8323 16.5938 14.8479 L16.5938 10.3635 Q16.5938 9.8323 16.4844 9.4417 ZM17.1875 14.8635 L18.5469 14.8635 L18.5469 10.426 L17.1875 10.426 L17.1875 14.8635 ZM19.2031 10.426 L19.2031 14.8635 L20.5781 14.8635 L20.5781 10.426 L19.2031 10.426 ZM21.2344 10.426 L21.2344 14.8635 L22.7031 14.8635 L22.7031 10.426 L21.2344 10.426 ZM25.1094 10.3167 Q25.8906 10.4104 26.4062 10.6135 Q26.5938 10.6917 26.5938 10.801 Q26.5938 10.926 26.4062 10.9729 Q26.1406 11.1135 25.8281 11.1448 L25.8281 17.1604 Q25.8281 17.4573 25.8594 17.5667 Q25.8906 17.801 25.8906 17.9729 Q25.8906 18.4104 25.4531 18.4104 Q25.1094 18.4104 25.1094 18.1917 Q25.1094 17.8948 25.125 17.4417 Q25.1562 16.9729 25.1562 16.6135 L25.1562 11.4104 Q25.1562 10.676 25.1094 10.3167 ZM27.1406 9.1135 Q27.8906 9.2073 28.4531 9.4573 Q28.6094 9.5198 28.6094 9.6135 Q28.6094 9.7385 28.4219 9.801 Q28.1562 9.8792 27.8438 9.9417 L27.8438 20.551 Q27.8438 21.0198 27.6562 21.2542 Q27.4844 21.4729 27.2031 21.5979 Q26.9375 21.7542 26.75 21.7542 L26.7344 21.5198 Q26.6875 21.3792 26.625 21.2854 Q26.4688 21.1292 26.1094 20.9885 Q25.7188 20.8479 25.2344 20.8167 L25.2344 20.5042 Q26 20.7229 26.6562 20.7229 Q26.9844 20.7229 27.0781 20.6135 Q27.2031 20.5354 27.2031 20.2073 L27.2031 10.2073 Q27.2031 9.426 27.1406 9.1135 ZM30.6406 10.0979 L30.6406 21.6448 Q30.6406 21.8167 30.3594 21.8167 Q30.25 21.8167 30.0625 21.7229 Q29.9375 21.6135 29.9375 21.4104 Q29.9375 21.176 29.9531 20.7854 Q30.0469 20.4729 30.0469 19.4573 L30.0469 10.051 Q30.0469 9.5198 29.9375 9.1135 L30.75 9.7073 L32.5469 9.7073 L33 9.2229 Q33.4688 9.5667 33.7656 9.8167 Q33.8594 9.9417 33.8594 10.051 Q33.8594 10.1135 33.6562 10.2073 Q33.4375 10.3323 33.1406 10.426 Q32.4531 12.0042 31.6094 13.4885 Q32.2812 14.1135 32.6406 14.6917 Q32.9844 15.2073 33.1719 15.8948 Q33.3594 16.4417 33.3594 17.0979 Q33.3594 17.6448 33.2031 17.9729 Q33.1094 18.301 32.8438 18.4729 Q32.6094 18.6448 32.0469 18.801 L31.9844 18.5823 Q31.9219 18.426 31.7969 18.3792 Q31.5469 18.1917 30.9531 18.0823 L31.0156 17.801 Q31.4375 17.9104 31.7969 17.9104 Q32.1406 17.9104 32.3281 17.8167 Q32.5 17.7229 32.5781 17.5354 Q32.7031 17.3167 32.7031 16.9417 Q32.7031 16.3635 32.5625 15.8323 Q32.4531 15.2542 32.1719 14.6917 Q31.9062 14.1604 31.3438 13.4885 Q32.1562 11.5042 32.5938 10.0979 L30.6406 10.0979 ZM37.0938 9.051 Q37.7344 9.176 38.1875 9.3479 Q38.2969 9.3948 38.2969 9.5042 Q38.2969 9.6292 38.0469 9.6917 Q37.875 9.7385 37.7344 9.7542 Q38.1406 10.3948 38.6719 10.9104 Q39.2031 11.4573 39.8906 11.9729 Q40.5938 12.4729 41.2812 12.8167 Q41.9531 13.1292 42.5469 13.2698 L42.5469 13.4885 Q41.8594 13.4885 41.6406 13.8635 Q40.9531 13.5823 40.4375 13.1604 Q39.8281 12.7229 39.3906 12.2385 Q38.9062 11.801 38.4219 11.2385 Q37.9531 10.7073 37.4844 9.8792 Q37.2344 10.3792 36.9844 10.7698 Q36.6094 11.301 36.1719 11.801 Q35.6719 12.3323 35.2344 12.7073 Q34.7969 13.1292 34.2656 13.4729 Q33.7188 13.8792 33.0938 14.2073 L32.8906 13.926 Q33.6406 13.5042 34.2031 13.051 Q34.7188 12.5979 35.25 12.0667 Q35.7656 11.4885 36.1719 10.9573 Q36.5312 10.4573 36.7344 10.0042 Q36.9531 9.5823 37.0938 9.051 ZM34.6406 13.2698 Q35.2188 13.4417 36.2031 13.4417 L38.9062 13.4417 L39.5 12.8323 Q39.9375 13.1604 40.3281 13.4729 Q40.4375 13.5198 40.4375 13.5979 Q40.4375 13.8167 40.25 13.8167 L37.9531 13.8167 L37.9531 15.8948 L40.1406 15.8948 L40.7969 15.1292 Q41.3125 15.5198 41.7812 15.8948 Q41.8906 15.9729 41.8906 16.051 Q41.8906 16.2698 41.6875 16.2698 L37.9531 16.2698 L37.9531 20.551 Q37.9531 21.0198 37.75 21.2542 Q37.5625 21.4729 37.2188 21.5979 Q36.9375 21.7542 36.7031 21.7542 L36.6719 21.4885 Q36.6406 21.3635 36.5781 21.2854 Q36.4688 21.1292 36.1406 20.9885 Q35.7812 20.8479 35.3438 20.8167 L35.3438 20.5042 Q36.0312 20.7229 36.5938 20.7229 Q37.0312 20.7229 37.1562 20.6135 Q37.2969 20.5354 37.2969 20.2073 L37.2969 16.2698 L35.1875 16.2698 Q34.2031 16.2854 33.8594 16.3323 L33.5938 15.7229 Q34.1875 15.8948 35.1875 15.8948 L37.2969 15.8948 L37.2969 13.8167 L36.2031 13.8167 Q35.25 13.8167 34.8906 13.8635 L34.6406 13.2698 ZM34.8906 17.2542 Q35.5156 17.4729 35.9688 17.7073 Q36.0469 17.7854 36.0469 17.8635 Q36.0469 17.9729 35.8281 18.0198 Q35.5625 18.0823 35.4375 18.0823 Q35.0938 18.6292 34.6719 19.176 Q34.25 19.6604 33.7656 20.0667 Q33.2812 20.4573 32.5938 20.8635 L32.3906 20.7542 Q33 20.2698 33.4062 19.8323 Q33.7344 19.4573 34.0625 18.9729 Q34.375 18.5198 34.6094 18.1135 Q34.7969 17.7385 34.8906 17.2542 ZM39.4531 17.426 Q40.0781 17.8792 40.5469 18.3792 Q41.0469 18.8479 41.3125 19.1604 Q41.6094 19.4729 41.75 19.676 Q41.8281 19.8948 41.8906 20.0823 Q41.9531 20.2385 41.9531 20.4417 Q41.9375 20.8167 41.6875 20.8167 Q41.5781 20.8167 41.4844 20.7229 Q41.3906 20.6448 41.0938 19.9885 Q40.7656 19.3323 40.3594 18.8167 Q39.9688 18.2698 39.2812 17.5979 L39.4531 17.426 ZM49.0625 9.0042 Q49.3906 9.1917 49.625 9.3948 Q49.9062 9.551 50.0625 9.7229 Q50.25 9.8792 50.3125 10.0198 Q50.3906 10.1448 50.3906 10.2542 Q50.3906 10.551 50.2969 10.7385 Q50.2656 10.7698 50.2344 10.801 L54.6562 10.801 L55.2969 10.051 Q55.8438 10.426 56.3281 10.801 Q56.4375 10.8635 56.4375 10.9729 Q56.4375 11.1917 56.2344 11.1917 L52.25 11.1917 Q52.7031 11.3635 53.0156 11.5198 Q53.1094 11.5979 53.1094 11.6917 Q53.1094 11.8167 52.8906 11.8479 Q52.6094 11.9104 52.5 11.9104 Q52.3438 12.2698 52.1406 12.6135 Q51.9531 12.9417 51.7344 13.176 Q51.5781 13.3792 51.375 13.551 L54.6562 13.551 L55.0938 12.9417 Q55.5781 13.2385 55.7969 13.5198 Q55.8906 13.6292 55.8906 13.7073 Q55.8906 13.8323 55.3438 14.1448 L55.3438 20.6135 Q55.3438 21.0667 55.1406 21.301 Q54.9531 21.5198 54.6562 21.6604 Q54.3594 21.8167 54.1406 21.8167 Q54.1406 21.4885 54 21.3479 Q53.8438 21.176 53.4375 21.051 Q52.9688 20.9104 52.3906 20.8635 L52.3906 20.551 Q53.4375 20.7542 54.25 20.7542 Q54.5469 20.7542 54.6562 20.6917 Q54.75 20.6135 54.75 20.3167 L54.75 13.926 L51.3594 13.926 L51.3594 14.4729 Q51.3594 15.051 51.3906 15.1917 Q51.4219 15.3479 51.5469 15.4417 Q51.7344 15.5354 52.0312 15.5979 Q52.4219 15.676 52.8594 15.676 Q53.0938 15.676 53.4219 15.5979 Q53.5938 15.5667 53.7031 15.4573 Q53.7812 15.4104 53.8281 15.4104 Q54.0781 15.4104 54.2344 15.5042 Q54.4375 15.6448 54.4375 15.8479 Q54.4375 15.9417 54.4062 16.0042 Q54.3594 16.051 54.2344 16.0979 Q54.0469 16.1604 53.6406 16.2073 Q53.1719 16.2698 52.9062 16.2698 Q52.3281 16.2698 51.7344 16.1604 Q51.1719 16.0823 51.0156 15.9417 Q50.8906 15.8792 50.8281 15.6917 Q50.75 15.551 50.7188 15.2854 Q50.7031 15.051 50.7031 14.4104 L50.7031 13.926 L48.6562 13.926 Q48.5938 14.4729 48.4844 14.801 Q48.3594 15.1292 48.1562 15.426 Q47.9219 15.801 47.6094 16.051 Q47.2812 16.3323 46.7969 16.5979 Q46.2969 16.8635 45.5625 17.0979 L45.4531 16.8167 Q46.0781 16.5823 46.4531 16.3323 Q46.8125 16.1292 47.0781 15.8792 Q47.3281 15.6292 47.5469 15.3479 Q47.6875 15.0354 47.7812 14.7229 Q47.8906 14.3792 47.9375 13.926 L45.1406 13.926 L45.1406 21.7073 Q45.1406 21.8635 44.8438 21.8635 Q44.7344 21.8635 44.5625 21.7854 Q44.4062 21.676 44.4062 21.4729 Q44.4062 21.2385 44.4531 20.8323 Q44.5312 20.5198 44.5312 19.5042 L44.5312 13.8635 Q44.5312 13.3323 44.4062 12.9417 L45.25 13.551 L47.9531 13.551 L47.9219 13.5198 Q47.8594 13.4729 47.8125 13.176 Q47.75 12.8323 47.5938 12.5042 Q47.4531 12.176 47.2812 11.8948 Q47.1094 11.5979 46.8281 11.2542 L46.8906 11.1917 L45.1875 11.1917 Q44.2188 11.2073 43.8594 11.2542 L43.5938 10.6448 Q44.1875 10.801 45.1875 10.801 L49.8281 10.801 Q49.7812 10.7229 49.75 10.6292 Q49.6875 10.3479 49.5469 10.1135 Q49.4062 9.8635 49.2656 9.6448 Q49.1094 9.4417 48.8438 9.1604 L49.0625 9.0042 ZM48.25 13.551 L51.0156 13.551 Q51.2188 13.2073 51.375 12.9417 Q51.5 12.6448 51.6406 12.3167 Q51.75 11.9729 51.8438 11.6917 Q51.9062 11.4417 51.9375 11.1917 L47.1719 11.1917 Q47.4531 11.4417 47.6562 11.6604 Q47.9531 11.9417 48.125 12.176 Q48.3125 12.4417 48.3906 12.6292 Q48.4531 12.8167 48.4531 13.0042 Q48.4531 13.2698 48.375 13.4104 Q48.3125 13.5198 48.25 13.551 ZM47.4375 16.7073 L48.25 17.1604 L51.5312 17.1604 L51.9062 16.7073 Q52.6094 17.1448 52.6094 17.3167 Q52.6094 17.4573 52.25 17.7073 L52.25 19.3323 Q52.4062 19.4573 52.5469 19.5667 Q52.6094 19.6135 52.6094 19.6604 Q52.6094 19.8948 52.5 19.8948 L48.0938 19.8948 L48.0938 20.1604 Q48.0938 20.2854 47.9062 20.3635 Q47.7031 20.4417 47.5938 20.4417 Q47.4375 20.4417 47.4375 20.2698 L47.4375 16.7073 ZM48.0938 19.5042 L51.5938 19.5042 L51.5938 17.5354 L48.0938 17.5354 L48.0938 19.5042 ZM60.4531 9.2229 L61.25 9.8167 L66.2969 9.8167 L66.7344 9.2229 Q67.2344 9.5354 67.4531 9.801 Q67.5469 9.8948 67.5469 9.9885 Q67.5469 10.1135 67 10.426 L67 13.2073 Q67.1875 13.3635 67.3594 13.4885 Q67.4531 13.551 67.4531 13.5979 Q67.4531 13.8167 67.3438 13.8167 L61.1406 13.8167 L61.1406 14.2542 Q61.1406 14.4104 60.8906 14.4104 Q60.7656 14.4104 60.5625 14.3479 Q60.4531 14.2385 60.4531 14.0354 Q60.4531 13.801 60.4688 13.3948 Q60.5469 13.0823 60.5469 12.0667 L60.5469 10.1604 Q60.5469 9.6292 60.4531 9.2229 ZM61.1406 13.4417 L66.3906 13.4417 L66.3906 10.2073 L61.1406 10.2073 L61.1406 13.4417 ZM58.0469 15.4104 L58.8438 16.0042 L62.0938 16.0042 L62.5156 15.4104 Q63 15.6917 63.2344 15.9885 Q63.3438 16.0823 63.3438 16.1604 Q63.3438 16.301 62.7969 16.6135 L62.7969 20.0198 Q63.0156 20.176 63.2031 20.3323 Q63.2969 20.3792 63.2969 20.4417 Q63.2969 20.6604 63.1875 20.6604 L58.75 20.6604 L58.75 21.301 Q58.75 21.4729 58.4844 21.4729 Q58.3594 21.4729 58.1562 21.3948 Q58.0469 21.2854 58.0469 21.0979 Q58.0469 20.8479 58.0625 20.4573 Q58.1562 20.1448 58.1562 19.1135 L58.1562 16.3323 Q58.1562 15.801 58.0469 15.4104 ZM58.75 20.2698 L62.2031 20.2698 L62.2031 16.3948 L58.75 16.3948 L58.75 20.2698 ZM64.8125 15.4104 L65.6406 16.0042 L69.0312 16.0042 L69.4531 15.4104 Q69.9531 15.6917 70.1875 15.9885 Q70.2969 16.0823 70.2969 16.1604 Q70.2969 16.301 69.75 16.6135 L69.75 20.0198 Q69.9688 20.176 70.1562 20.3323 Q70.2344 20.3792 70.2344 20.4417 Q70.2344 20.6604 70.1094 20.6604 L65.5312 20.6604 L65.5312 21.301 Q65.5312 21.4729 65.25 21.4729 Q65.1406 21.4729 64.9531 21.3948 Q64.8125 21.2854 64.8125 21.0979 Q64.8125 20.8479 64.8438 20.4573 Q64.9375 20.1448 64.9375 19.1135 L64.9375 16.3323 Q64.9375 15.801 64.8125 15.4104 ZM65.5312 20.2698 L69.1406 20.2698 L69.1406 16.3948 L65.5312 16.3948 L65.5312 20.2698 Z" style="clip-path:url(#clipPath33); stroke:none;" />
      <path d="M10.0469 37.4885 L10.0469 38.676 L3.4219 38.676 Q3.4062 38.2385 3.5625 37.8167 Q3.8281 37.1448 4.3828 36.4885 Q4.9375 35.8323 5.9844 34.9729 Q7.625 33.6292 8.1953 32.8479 Q8.7656 32.0667 8.7656 31.3635 Q8.7656 30.6292 8.2422 30.1292 Q7.7188 29.6292 6.8906 29.6292 Q6 29.6292 5.4609 30.1604 Q4.9219 30.6917 4.9219 31.6448 L3.6562 31.5042 Q3.7812 30.0979 4.6328 29.3557 Q5.4844 28.6135 6.9062 28.6135 Q8.3594 28.6135 9.1953 29.4104 Q10.0312 30.2073 10.0312 31.3948 Q10.0312 32.0042 9.7891 32.5823 Q9.5469 33.1604 8.9766 33.801 Q8.4062 34.4417 7.0781 35.5667 Q5.9688 36.4885 5.6562 36.8245 Q5.3438 37.1604 5.1406 37.4885 L10.0469 37.4885 ZM12.2656 38.676 L12.2656 37.2698 L13.6719 37.2698 L13.6719 38.676 L12.2656 38.676 ZM18.1562 28.0042 Q18.8438 28.2385 19.3281 28.4885 Q19.4375 28.5667 19.4375 28.6604 Q19.4375 28.7698 19.1562 28.8167 Q18.8594 28.8792 18.7031 28.8792 Q18.3281 29.9729 17.8438 31.0042 Q17.6562 31.4104 17.4688 31.7385 Q18.0469 32.0198 18.0469 32.1604 Q18.0469 32.2854 17.6094 32.4885 L17.6094 39.551 Q17.6094 39.9885 17.6875 40.2073 Q17.7344 40.3792 17.7344 40.5198 Q17.7344 40.926 17.25 40.9573 Q16.9531 40.9573 16.9531 40.7542 L16.9531 32.5979 Q16.9062 32.676 16.8438 32.7542 Q16.2969 33.5354 15.5469 34.3479 L15.3281 34.1917 Q16.0156 33.301 16.4844 32.5354 Q16.8438 31.8635 17.2188 31.0354 Q17.5781 30.2229 17.8281 29.4885 Q18.0312 28.8167 18.1562 28.0042 ZM18.7656 30.4104 Q19.4062 30.5198 19.8125 30.6292 Q19.9844 30.7073 19.9844 30.801 Q19.9844 30.8635 19.8594 30.9104 Q19.6719 31.0042 19.4844 31.0667 L19.4844 38.4573 Q19.4844 38.7542 19.5156 38.8635 Q19.5469 39.1135 19.5469 39.2698 Q19.5469 39.7229 19.0938 39.7229 Q18.7656 39.7229 18.7656 39.5042 Q18.7656 39.301 18.7969 39.0354 Q18.8281 38.7385 18.8281 38.5042 L18.8281 31.3948 Q18.8281 30.7385 18.7656 30.4104 ZM22.7031 28.0042 Q23.3438 28.1917 23.875 28.4573 Q23.9531 28.551 23.9531 28.6135 Q23.9531 28.7229 23.7812 28.7854 Q23.4531 28.8792 23.1875 28.8792 Q22.9375 29.3792 22.625 29.801 L26.5938 29.801 L27.2031 29.1604 Q27.6875 29.4885 28.1094 29.8167 Q28.2344 29.8792 28.2344 29.9729 Q28.2344 30.1917 28.0625 30.1917 L26.5781 30.1917 Q26.2656 30.8635 25.8906 31.426 Q25.4688 32.0198 25 32.4885 Q24.8281 32.6448 24.6719 32.7698 Q25.1094 32.9573 25.7188 33.176 Q26.5 33.4417 27.2656 33.5823 Q27.9375 33.7385 28.6562 33.801 L28.6562 33.9573 Q27.8438 33.9573 27.6875 34.4573 Q26.6562 34.2385 26 33.9417 Q25.0938 33.6604 24.4375 33.2542 Q24.2969 33.176 24.1875 33.1292 Q24.0312 33.2385 23.8906 33.3167 Q23.3594 33.6604 22.6719 33.9104 Q22.0312 34.2073 21.2969 34.3948 Q20.7656 34.5667 19.9062 34.7229 L19.7969 34.4573 Q20.5781 34.2542 21.1875 34.0667 Q21.9219 33.8635 22.5781 33.5042 Q23.2969 33.1604 23.7656 32.8479 Q23.4062 32.5979 23.1562 32.3635 Q22.5938 31.8635 22.1562 31.2229 L22.5 31.1135 Q22.9688 31.676 23.3906 32.0198 Q23.7812 32.2854 24.1719 32.5198 Q24.4375 32.2854 24.6719 32.051 Q25.0625 31.6135 25.3594 31.0823 Q25.625 30.6604 25.8438 30.1917 L22.3594 30.1917 Q22.0938 30.551 21.8125 30.9104 Q21.4219 31.3635 21.0156 31.7229 Q20.6406 32.0979 20.0312 32.4885 L19.7969 32.3167 Q20.4219 31.8479 20.8594 31.301 Q21.375 30.7229 21.7969 30.0667 Q22.2188 29.3792 22.5156 28.7073 Q22.6562 28.3792 22.7031 28.0042 ZM25.0469 34.7229 Q24.4688 35.176 23.8281 35.5354 Q23.0781 35.8948 22.2812 36.1292 Q21.625 36.3167 20.6406 36.426 L20.5781 36.1604 Q21.0938 36.0823 21.6875 35.8948 Q22.25 35.7542 22.7656 35.4885 Q23.3281 35.2229 23.7344 34.9417 Q24.125 34.6917 24.375 34.3948 Q24.5938 34.1604 24.7969 33.9104 Q25.2812 34.2229 25.6406 34.5042 Q25.7031 34.5667 25.7031 34.6135 Q25.7031 34.7854 25.5469 34.7854 Q25.3594 34.7854 25.0469 34.7229 ZM26.3594 36.2542 Q25.5938 36.8635 24.7969 37.301 Q23.8125 37.8323 22.7812 38.1135 Q21.9375 38.3635 20.6406 38.5042 L20.5781 38.2229 Q21.2656 38.1448 22.0312 37.926 Q22.7656 37.7385 23.4531 37.3948 Q24.2031 37.0823 24.7188 36.7385 Q25.2344 36.426 25.5625 36.051 Q25.8594 35.7698 26.0938 35.4417 Q26.5938 35.7385 26.9531 36.051 Q27.0312 36.0979 27.0312 36.1604 Q27.0312 36.3167 26.8594 36.3167 Q26.6562 36.3167 26.3594 36.2542 ZM27.6875 37.801 Q26.3281 38.8479 25.2656 39.3948 Q24.1406 39.926 22.9062 40.2854 Q21.6094 40.6292 20.1406 40.8167 L20.0312 40.4729 Q21.4531 40.2698 22.4844 39.926 Q23.5469 39.6604 24.4688 39.176 Q25.4531 38.7229 26.125 38.1448 Q26.875 37.6292 27.4062 36.9729 Q28.2969 37.5354 28.2969 37.6917 Q28.2969 37.8479 28 37.8479 Q27.8281 37.8479 27.6875 37.801 ZM29.3906 29.426 Q29.9219 29.5354 30.9062 29.5354 L33.5938 29.5354 L34.0312 28.9417 Q34.5156 29.2229 34.75 29.5198 Q34.8438 29.6292 34.8438 29.7073 Q34.8438 29.8323 34.2969 30.1448 L34.2969 33.4573 Q34.4688 33.5979 34.625 33.7073 Q34.6875 33.7542 34.6875 33.801 Q34.6875 34.0198 34.5781 34.0198 L30.6406 34.0198 L30.6406 39.3948 Q31.1875 39.2698 31.6406 39.0823 Q32.3906 38.8323 33.2656 38.3948 Q34.1406 37.9573 35.2969 37.2542 L35.3438 37.5198 Q34.375 38.2854 33.6562 38.7073 Q32.8594 39.1917 32.125 39.5667 Q31.4688 39.9417 30.75 40.2073 Q30.5938 40.7073 30.5312 40.7073 Q30.4062 40.7073 29.8594 39.6135 Q29.9688 39.5979 30.0469 39.5667 L30.0469 33.9573 Q30.0469 33.426 29.9375 33.0354 L30.75 33.6448 L33.6875 33.6448 L33.6875 29.9104 L30.9062 29.9104 Q29.8281 29.9104 29.5938 29.9729 L29.3906 29.426 ZM37.1562 28.0042 Q37.8125 28.2385 38.3125 28.4885 Q38.3906 28.5667 38.3906 28.6604 Q38.3906 28.7698 38.1406 28.8167 Q37.8125 28.8792 37.7031 28.8792 Q37.3438 30.0354 36.9375 31.0979 L36.9375 31.1135 L40.6875 31.1135 L41.3438 30.3635 Q41.8594 30.7385 42.3281 31.1135 Q42.4375 31.176 42.4375 31.2854 Q42.4375 31.5042 42.2344 31.5042 L40.6406 31.5042 Q40.5156 33.0823 40.2031 34.3167 Q39.9375 35.5667 39.3906 36.676 Q39.1406 37.176 38.8906 37.5354 Q39.3125 38.0042 39.8281 38.4573 Q40.5625 39.1448 41.3125 39.4885 Q41.9688 39.8635 42.6562 40.051 L42.6562 40.2073 Q41.8438 40.2073 41.6875 40.7073 Q40.6719 40.176 40.0625 39.551 Q39.1875 38.8792 38.5781 37.9885 L38.5625 37.9729 Q38.3281 38.2854 38.0781 38.5198 Q37.25 39.4104 36.2031 39.9417 Q35.1094 40.4417 33.6562 40.7542 L33.4844 40.4729 Q34.9844 40.0823 35.8438 39.6135 Q36.6406 39.176 37.3594 38.5354 Q37.8125 38.0979 38.1875 37.4729 Q37.6875 36.7542 37.3281 35.9885 Q36.7812 34.8323 36.3906 33.4104 L36.7031 33.301 Q37.1562 34.7229 37.5938 35.5667 Q38 36.3792 38.4688 36.9885 Q38.5156 36.8948 38.5625 36.801 Q39.0625 35.8792 39.4375 34.5823 Q39.7656 33.2854 39.9219 31.5042 L36.75 31.5042 Q36.4062 32.2854 36.0469 32.926 Q35.5625 33.7229 34.8906 34.5667 L34.6875 34.4104 Q35.2812 33.4885 35.6719 32.7073 Q36 32.0042 36.3281 31.1448 Q36.625 30.301 36.8438 29.551 Q37.0469 28.8479 37.1562 28.0042 ZM49.0625 28.0042 Q49.3906 28.1917 49.625 28.3948 Q49.9062 28.551 50.0625 28.7229 Q50.25 28.8792 50.3125 29.0198 Q50.3906 29.1448 50.3906 29.2542 Q50.3906 29.551 50.2969 29.7385 Q50.2656 29.7698 50.2344 29.801 L54.6562 29.801 L55.2969 29.051 Q55.8438 29.426 56.3281 29.801 Q56.4375 29.8635 56.4375 29.9729 Q56.4375 30.1917 56.2344 30.1917 L52.25 30.1917 Q52.7031 30.3635 53.0156 30.5198 Q53.1094 30.5979 53.1094 30.6917 Q53.1094 30.8167 52.8906 30.8479 Q52.6094 30.9104 52.5 30.9104 Q52.3438 31.2698 52.1406 31.6135 Q51.9531 31.9417 51.7344 32.176 Q51.5781 32.3792 51.375 32.551 L54.6562 32.551 L55.0938 31.9417 Q55.5781 32.2385 55.7969 32.5198 Q55.8906 32.6292 55.8906 32.7073 Q55.8906 32.8323 55.3438 33.1448 L55.3438 39.6135 Q55.3438 40.0667 55.1406 40.301 Q54.9531 40.5198 54.6562 40.6604 Q54.3594 40.8167 54.1406 40.8167 Q54.1406 40.4885 54 40.3479 Q53.8438 40.176 53.4375 40.051 Q52.9688 39.9104 52.3906 39.8635 L52.3906 39.551 Q53.4375 39.7542 54.25 39.7542 Q54.5469 39.7542 54.6562 39.6917 Q54.75 39.6135 54.75 39.3167 L54.75 32.926 L51.3594 32.926 L51.3594 33.4729 Q51.3594 34.051 51.3906 34.1917 Q51.4219 34.3479 51.5469 34.4417 Q51.7344 34.5354 52.0312 34.5979 Q52.4219 34.676 52.8594 34.676 Q53.0938 34.676 53.4219 34.5979 Q53.5938 34.5667 53.7031 34.4573 Q53.7812 34.4104 53.8281 34.4104 Q54.0781 34.4104 54.2344 34.5042 Q54.4375 34.6448 54.4375 34.8479 Q54.4375 34.9417 54.4062 35.0042 Q54.3594 35.051 54.2344 35.0979 Q54.0469 35.1604 53.6406 35.2073 Q53.1719 35.2698 52.9062 35.2698 Q52.3281 35.2698 51.7344 35.1604 Q51.1719 35.0823 51.0156 34.9417 Q50.8906 34.8792 50.8281 34.6917 Q50.75 34.551 50.7188 34.2854 Q50.7031 34.051 50.7031 33.4104 L50.7031 32.926 L48.6562 32.926 Q48.5938 33.4729 48.4844 33.801 Q48.3594 34.1292 48.1562 34.426 Q47.9219 34.801 47.6094 35.051 Q47.2812 35.3323 46.7969 35.5979 Q46.2969 35.8635 45.5625 36.0979 L45.4531 35.8167 Q46.0781 35.5823 46.4531 35.3323 Q46.8125 35.1292 47.0781 34.8792 Q47.3281 34.6292 47.5469 34.3479 Q47.6875 34.0354 47.7812 33.7229 Q47.8906 33.3792 47.9375 32.926 L45.1406 32.926 L45.1406 40.7073 Q45.1406 40.8635 44.8438 40.8635 Q44.7344 40.8635 44.5625 40.7854 Q44.4062 40.676 44.4062 40.4729 Q44.4062 40.2385 44.4531 39.8323 Q44.5312 39.5198 44.5312 38.5042 L44.5312 32.8635 Q44.5312 32.3323 44.4062 31.9417 L45.25 32.551 L47.9531 32.551 L47.9219 32.5198 Q47.8594 32.4729 47.8125 32.176 Q47.75 31.8323 47.5938 31.5042 Q47.4531 31.176 47.2812 30.8948 Q47.1094 30.5979 46.8281 30.2542 L46.8906 30.1917 L45.1875 30.1917 Q44.2188 30.2073 43.8594 30.2542 L43.5938 29.6448 Q44.1875 29.801 45.1875 29.801 L49.8281 29.801 Q49.7812 29.7229 49.75 29.6292 Q49.6875 29.3479 49.5469 29.1135 Q49.4062 28.8635 49.2656 28.6448 Q49.1094 28.4417 48.8438 28.1604 L49.0625 28.0042 ZM48.25 32.551 L51.0156 32.551 Q51.2188 32.2073 51.375 31.9417 Q51.5 31.6448 51.6406 31.3167 Q51.75 30.9729 51.8438 30.6917 Q51.9062 30.4417 51.9375 30.1917 L47.1719 30.1917 Q47.4531 30.4417 47.6562 30.6604 Q47.9531 30.9417 48.125 31.176 Q48.3125 31.4417 48.3906 31.6292 Q48.4531 31.8167 48.4531 32.0042 Q48.4531 32.2698 48.375 32.4104 Q48.3125 32.5198 48.25 32.551 ZM47.4375 35.7073 L48.25 36.1604 L51.5312 36.1604 L51.9062 35.7073 Q52.6094 36.1448 52.6094 36.3167 Q52.6094 36.4573 52.25 36.7073 L52.25 38.3323 Q52.4062 38.4573 52.5469 38.5667 Q52.6094 38.6135 52.6094 38.6604 Q52.6094 38.8948 52.5 38.8948 L48.0938 38.8948 L48.0938 39.1604 Q48.0938 39.2854 47.9062 39.3635 Q47.7031 39.4417 47.5938 39.4417 Q47.4375 39.4417 47.4375 39.2698 L47.4375 35.7073 ZM48.0938 38.5042 L51.5938 38.5042 L51.5938 36.5354 L48.0938 36.5354 L48.0938 38.5042 ZM60.4531 28.2229 L61.25 28.8167 L66.2969 28.8167 L66.7344 28.2229 Q67.2344 28.5354 67.4531 28.801 Q67.5469 28.8948 67.5469 28.9885 Q67.5469 29.1135 67 29.426 L67 32.2073 Q67.1875 32.3635 67.3594 32.4885 Q67.4531 32.551 67.4531 32.5979 Q67.4531 32.8167 67.3438 32.8167 L61.1406 32.8167 L61.1406 33.2542 Q61.1406 33.4104 60.8906 33.4104 Q60.7656 33.4104 60.5625 33.3479 Q60.4531 33.2385 60.4531 33.0354 Q60.4531 32.801 60.4688 32.3948 Q60.5469 32.0823 60.5469 31.0667 L60.5469 29.1604 Q60.5469 28.6292 60.4531 28.2229 ZM61.1406 32.4417 L66.3906 32.4417 L66.3906 29.2073 L61.1406 29.2073 L61.1406 32.4417 ZM58.0469 34.4104 L58.8438 35.0042 L62.0938 35.0042 L62.5156 34.4104 Q63 34.6917 63.2344 34.9885 Q63.3438 35.0823 63.3438 35.1604 Q63.3438 35.301 62.7969 35.6135 L62.7969 39.0198 Q63.0156 39.176 63.2031 39.3323 Q63.2969 39.3792 63.2969 39.4417 Q63.2969 39.6604 63.1875 39.6604 L58.75 39.6604 L58.75 40.301 Q58.75 40.4729 58.4844 40.4729 Q58.3594 40.4729 58.1562 40.3948 Q58.0469 40.2854 58.0469 40.0979 Q58.0469 39.8479 58.0625 39.4573 Q58.1562 39.1448 58.1562 38.1135 L58.1562 35.3323 Q58.1562 34.801 58.0469 34.4104 ZM58.75 39.2698 L62.2031 39.2698 L62.2031 35.3948 L58.75 35.3948 L58.75 39.2698 ZM64.8125 34.4104 L65.6406 35.0042 L69.0312 35.0042 L69.4531 34.4104 Q69.9531 34.6917 70.1875 34.9885 Q70.2969 35.0823 70.2969 35.1604 Q70.2969 35.301 69.75 35.6135 L69.75 39.0198 Q69.9688 39.176 70.1562 39.3323 Q70.2344 39.3792 70.2344 39.4417 Q70.2344 39.6604 70.1094 39.6604 L65.5312 39.6604 L65.5312 40.301 Q65.5312 40.4729 65.25 40.4729 Q65.1406 40.4729 64.9531 40.3948 Q64.8125 40.2854 64.8125 40.0979 Q64.8125 39.8479 64.8438 39.4573 Q64.9375 39.1448 64.9375 38.1135 L64.9375 35.3323 Q64.9375 34.801 64.8125 34.4104 ZM65.5312 39.2698 L69.1406 39.2698 L69.1406 35.3948 L65.5312 35.3948 L65.5312 39.2698 ZM72.2969 28.7073 L73.1406 29.1604 L74.8281 29.1604 L74.8281 29.0979 Q74.8281 28.3635 74.7656 28.0042 Q75.3594 28.1135 75.7656 28.2229 Q75.9062 28.2854 75.9062 28.3948 Q75.9062 28.4573 75.8125 28.5042 Q75.6562 28.5979 75.4844 28.6604 L75.4844 29.1604 L77.2969 29.1604 L77.6562 28.7073 Q78.3906 29.1448 78.3906 29.3167 Q78.3906 29.4573 78 29.7073 L78 30.5667 L78.0938 30.5667 L78.5938 30.0823 Q78.9844 30.3635 79.3281 30.6292 Q79.4062 30.6604 79.4062 30.7385 Q79.4062 30.9573 79.25 30.9573 L78 30.9573 L78 32.2073 Q78 32.4729 77.5469 32.551 Q77.3438 32.551 77.3438 32.4417 L77.3438 32.2698 L75.4844 32.2698 L75.4844 33.301 L77.4062 33.301 L77.7812 32.8635 Q78.5 33.301 78.5 33.4729 Q78.5 33.6135 78.0938 33.8635 L78.0938 34.9573 Q78.2031 35.051 78.3125 35.1292 Q78.3906 35.1604 78.3906 35.2229 Q78.3906 35.4417 78.2656 35.4417 L72.9531 35.4417 L72.9531 35.6135 Q72.9531 35.7229 72.7969 35.801 Q72.5938 35.8792 72.4844 35.8792 Q72.2969 35.8792 72.2969 35.7073 L72.2969 32.8635 L73.1406 33.301 L74.8281 33.301 L74.8281 32.2698 L72.9531 32.2698 Q72.9531 32.3792 72.7969 32.4729 Q72.5938 32.551 72.4844 32.551 Q72.2969 32.551 72.2969 32.3792 L72.2969 30.9573 Q71.8125 30.9729 71.5938 31.0042 L71.3281 30.4104 Q71.7188 30.5198 72.2969 30.551 L72.2969 28.7073 ZM72.9531 31.8948 L74.8281 31.8948 L74.8281 30.9573 L72.9531 30.9573 L72.9531 31.8948 ZM75.4844 30.9573 L75.4844 31.8948 L77.3438 31.8948 L77.3438 30.9573 L75.4844 30.9573 ZM72.9531 30.5667 L74.8281 30.5667 L74.8281 29.5354 L72.9531 29.5354 L72.9531 30.5667 ZM75.4844 29.5354 L75.4844 30.5667 L77.3438 30.5667 L77.3438 29.5354 L75.4844 29.5354 ZM72.9531 35.051 L74.8281 35.051 L74.8281 33.6917 L72.9531 33.6917 L72.9531 35.051 ZM75.4844 33.6917 L75.4844 35.051 L77.4375 35.051 L77.4375 33.6917 L75.4844 33.6917 ZM74.3906 35.5042 Q75.0625 35.7385 75.5469 35.9885 Q75.6562 36.0667 75.6562 36.1604 Q75.6562 36.2698 75.3594 36.3167 Q75.0781 36.3635 74.9375 36.3635 Q74.8281 36.5979 74.6875 36.801 L76.4844 36.801 Q76.5156 36.6604 76.5156 36.5354 Q76.5156 36.1604 76.4531 35.9417 Q77.0781 36.0354 77.5625 36.1917 Q77.7344 36.2229 77.7344 36.3167 Q77.7344 36.4104 77.5156 36.4729 Q77.3125 36.5354 77.1875 36.5354 Q77.1719 36.676 77.1406 36.801 L77.8906 36.801 L78.4375 36.2073 Q78.8594 36.5354 79.2656 36.8323 Q79.3594 36.8948 79.3594 36.9729 Q79.3594 37.1917 79.1875 37.1917 L77.0625 37.1917 Q76.9688 37.5198 76.8594 37.7542 Q76.6562 38.3479 76.3594 38.7073 Q76.25 38.8323 76.1406 38.926 Q76.4219 39.0198 76.6719 39.1135 Q77.3125 39.3479 77.5312 39.5042 Q77.7344 39.5823 77.8125 39.7073 Q77.8906 39.801 77.8906 39.926 Q77.8906 40.2698 77.6094 40.2698 Q77.5 40.2698 77.2031 40.0823 Q76.9688 39.8948 76.125 39.551 Q75.875 39.4417 75.6562 39.3479 Q75.5781 39.3948 75.5156 39.4729 Q74.7812 39.926 73.9688 40.1917 Q73.0781 40.5042 71.7031 40.7542 L71.5938 40.4729 Q73.2188 40.1135 73.8594 39.8167 Q74.4688 39.551 75.0625 39.1604 Q75.0781 39.1448 75.0938 39.1448 Q74.8125 39.051 74.5312 38.9729 Q73.6875 38.6917 72.75 38.551 L72.8594 38.4104 L72.8438 38.3948 Q73.2344 37.9729 73.4688 37.6292 Q73.5938 37.4104 73.7344 37.1917 L72.9062 37.1917 Q71.9375 37.2073 71.5938 37.2542 L71.3281 36.6448 Q71.9219 36.801 72.9062 36.801 L73.9219 36.801 Q74.0938 36.4729 74.2031 36.2073 Q74.3281 35.8792 74.3906 35.5042 ZM76.4062 37.1917 L74.4375 37.1917 Q74.4375 37.2073 74.4219 37.2229 Q74.1406 37.6135 73.8438 37.926 Q73.6562 38.0979 73.4219 38.2854 Q74.3594 38.426 75.0781 38.6292 Q75.3281 38.6917 75.5625 38.7385 Q75.7188 38.5979 75.8594 38.4104 Q76.125 38.0354 76.3125 37.4573 Q76.375 37.301 76.4062 37.1917 ZM80.7344 28.1604 Q81.4062 28.4104 81.8906 28.6448 Q82 28.7385 82 28.8167 Q82 28.9573 81.7188 28.9885 Q81.4219 29.051 81.2812 29.051 Q80.9688 30.176 80.5938 31.1917 Q80.5312 31.3948 80.4688 31.551 L82.9844 31.551 L83.6406 30.8479 Q84.1094 31.2073 84.5469 31.5667 Q84.6562 31.6292 84.6562 31.7229 Q84.6562 31.9417 84.5 31.9417 L83.4844 31.9417 Q83.375 33.2542 83.1406 34.3167 Q82.9219 35.4573 82.4531 36.3479 Q82.1562 37.0823 81.8125 37.6604 Q82.1094 38.1135 82.5312 38.551 Q83.0938 39.1917 83.6406 39.5198 Q84.1406 39.8792 84.6562 40.051 L84.6562 40.2073 Q83.8438 40.2073 83.6875 40.7073 Q82.9531 40.2073 82.5156 39.6135 Q81.8906 39.0042 81.4688 38.2073 Q80.9062 38.9885 80.1406 39.6135 Q79.2812 40.3323 78.0938 40.9104 L77.8906 40.6448 Q79.1562 39.8635 79.875 39.1292 Q80.6094 38.4104 81.1094 37.6292 L81.125 37.6135 Q80.7969 36.9573 80.5312 36.2542 Q80.1406 35.1917 79.8438 33.8635 L80.1875 33.7542 Q80.5312 35.0667 80.8438 35.8635 Q81.125 36.5354 81.4375 37.0823 Q81.7031 36.5979 81.9219 36.0979 Q82.2656 35.2698 82.5 34.1448 Q82.6719 33.2542 82.7812 31.9417 L80.3125 31.9417 Q80.0938 32.5042 79.8281 32.9573 Q79.4062 33.7542 78.8125 34.5667 L78.5938 34.4104 Q79.1094 33.5198 79.4531 32.7385 Q79.75 32.0667 80.0156 31.2229 Q80.2812 30.4104 80.4688 29.676 Q80.6406 28.9885 80.7344 28.1604 ZM88 28.2698 L88.8281 28.7073 L95.3906 28.7073 L95.7656 28.2698 Q96.4844 28.7073 96.4844 28.8792 Q96.4844 29.0198 96.0938 29.2542 L96.0938 31.6604 Q96.0938 31.926 95.6562 32.0042 Q95.4531 32.0042 95.4531 31.8948 L95.4531 31.7229 L88.6562 31.7229 L88.6562 31.7698 Q88.6562 31.9104 88.5 31.9729 Q88.2969 32.051 88.1562 32.051 Q88 32.051 88 31.8948 L88 28.2698 ZM88.6562 31.3479 L95.4531 31.3479 L95.4531 30.4104 L88.6562 30.4104 L88.6562 31.3479 ZM88.6562 30.0198 L95.4531 30.0198 L95.4531 29.0979 L88.6562 29.0979 L88.6562 30.0198 ZM85.6406 32.4885 Q86.25 32.6604 87.25 32.6604 L96.5469 32.6604 L97.2031 31.8948 Q97.7188 32.2698 98.1719 32.6604 Q98.2969 32.7073 98.2969 32.8167 Q98.2969 33.0354 98.0625 33.0354 L87.25 33.0354 Q86.2656 33.051 85.9375 33.0979 L85.6406 32.4885 ZM88.1094 33.5198 L88.9375 33.9573 L95.2812 33.9573 L95.6562 33.5198 Q96.3594 33.9573 96.3594 34.1292 Q96.3594 34.2698 96 34.5042 L96 37.1917 Q96 37.4417 95.5469 37.5198 Q95.3438 37.5198 95.3438 37.4104 L95.3438 37.2542 L92.3281 37.2542 L92.3281 38.4573 L95.6562 38.4573 L96.25 37.801 Q96.75 38.1292 97.1875 38.4729 Q97.2969 38.5354 97.2969 38.6135 Q97.2969 38.8323 97.1406 38.8323 L92.3281 38.8323 L92.3281 39.9729 L96.5469 39.9729 L97.2031 39.2073 Q97.7188 39.6135 98.1719 39.9729 Q98.2969 40.051 98.2969 40.1604 Q98.2969 40.3635 98.0625 40.3635 L87.25 40.3635 Q86.2656 40.3792 85.9375 40.4104 L85.6406 39.8167 Q86.25 39.9729 87.25 39.9729 L91.6562 39.9729 L91.6562 38.8323 L88.0469 38.8323 Q87.0938 38.8479 86.75 38.8948 L86.4844 38.2854 Q87.0625 38.4573 88.0469 38.4573 L91.6562 38.4573 L91.6562 37.2542 L88.7656 37.2542 L88.7656 37.3635 Q88.7656 37.4729 88.5938 37.551 Q88.4062 37.6292 88.2812 37.6292 Q88.1094 37.6292 88.1094 37.4573 L88.1094 33.5198 ZM88.7656 36.8635 L91.6562 36.8635 L91.6562 35.8167 L88.7656 35.8167 L88.7656 36.8635 ZM92.3281 35.8167 L92.3281 36.8635 L95.3438 36.8635 L95.3438 35.8167 L92.3281 35.8167 ZM88.7656 35.4417 L91.6562 35.4417 L91.6562 34.3479 L88.7656 34.3479 L88.7656 35.4417 ZM92.3281 34.3479 L92.3281 35.4417 L95.3438 35.4417 L95.3438 34.3479 L92.3281 34.3479 Z" style="clip-path:url(#clipPath33); stroke:none;" />
      <path d="M3.5938 55.0354 L4.8125 54.8635 Q5.0312 55.9104 5.5391 56.3714 Q6.0469 56.8323 6.7812 56.8323 Q7.6562 56.8323 8.25 56.2307 Q8.8438 55.6292 8.8438 54.7385 Q8.8438 53.8948 8.2891 53.3479 Q7.7344 52.801 6.8906 52.801 Q6.5312 52.801 6.0156 52.926 L6.1562 51.8479 Q6.2812 51.8635 6.3438 51.8635 Q7.1406 51.8635 7.7656 51.4573 Q8.3906 51.051 8.3906 50.1917 Q8.3906 49.5198 7.9375 49.0745 Q7.4844 48.6292 6.75 48.6292 Q6.0312 48.6292 5.5547 49.0745 Q5.0781 49.5198 4.9375 50.426 L3.7188 50.2073 Q3.9375 48.9729 4.7344 48.2932 Q5.5312 47.6135 6.7188 47.6135 Q7.5469 47.6135 8.2344 47.9651 Q8.9219 48.3167 9.2891 48.926 Q9.6562 49.5354 9.6562 50.2229 Q9.6562 50.8635 9.3125 51.3948 Q8.9688 51.926 8.2812 52.2542 Q9.1719 52.4573 9.6641 53.0979 Q10.1562 53.7385 10.1562 54.7229 Q10.1562 56.0354 9.1953 56.9417 Q8.2344 57.8479 6.7812 57.8479 Q5.4531 57.8479 4.5859 57.0667 Q3.7188 56.2854 3.5938 55.0354 ZM12.2656 57.676 L12.2656 56.2698 L13.6719 56.2698 L13.6719 57.676 L12.2656 57.676 ZM17.7344 47.0042 Q19 47.551 19 47.8167 Q19 48.0198 18.2812 48.051 Q17.8281 48.8635 17.1094 49.7854 Q16.5625 50.6135 15.8281 51.4104 Q16.5156 51.4104 17.1406 51.3479 Q17.7969 51.2698 18.3594 51.1917 Q18.4219 51.1292 18.4531 51.051 Q18.8906 50.176 19.1406 49.3635 Q20.3438 49.8792 20.3438 50.1135 Q20.3438 50.2698 19.6875 50.2854 Q19 51.3635 17.9062 52.5823 Q17.0156 53.7698 15.9219 54.8323 Q16.4844 54.7698 16.9219 54.7073 Q17.5156 54.6292 18.2344 54.4885 Q18.875 54.3635 19.6562 54.1604 Q19.6094 54.0667 19.5781 54.0042 Q19.3438 53.551 19 53.0667 L19.1406 52.8635 Q19.7031 53.3167 20.0469 53.801 Q20.3281 54.176 20.4688 54.5667 Q20.5781 54.8323 20.5781 55.0979 Q20.5781 55.5354 20.25 55.5354 Q20.1719 55.5354 20.0938 55.4417 Q20.0312 55.3792 19.9531 55.0979 Q19.8594 54.7385 19.7656 54.4417 Q19.1094 54.7073 18.6094 54.8635 Q18 55.0823 17.4375 55.2073 Q16.9219 55.3635 16.3594 55.4729 Q16.2188 55.9729 16.1562 55.9729 Q16.0469 55.9729 15.5 54.8792 Q15.5469 54.8792 15.6094 54.8635 Q16.6562 53.676 17.2812 52.801 Q17.7812 52.1448 18.125 51.5667 Q17.8438 51.676 17.5469 51.7385 Q16.9531 51.926 16.2969 52.0979 Q16.125 52.5198 16.0469 52.5198 Q16 52.5198 15.9375 52.4417 Q15.6562 51.9729 15.4375 51.4417 L15.5312 51.4417 Q16.1719 50.4885 16.5781 49.7698 Q17 49.0354 17.2812 48.3635 Q17.5625 47.6604 17.7344 47.0042 ZM15.7031 56.8479 Q16.25 57.2854 16.5625 57.7385 Q16.8281 58.1135 16.9688 58.4885 Q17.0781 58.7229 17.0781 58.9729 Q17.0781 59.4729 16.75 59.4729 Q16.6719 59.4729 16.5938 59.3948 Q16.5469 59.3167 16.4844 59.051 Q16.2812 58.3792 16.1094 57.9729 Q15.9062 57.5354 15.5469 57.0667 L15.7031 56.8479 ZM17.3438 56.301 Q18 56.7229 18.375 57.1448 Q18.7031 57.5042 18.875 57.8479 Q19 58.0823 19 58.3167 Q19 58.7542 18.6562 58.7542 Q18.5625 58.7542 18.4844 58.6917 Q18.4062 58.6135 18.3281 58.3635 Q18.1094 57.7385 17.875 57.3792 Q17.6094 56.9573 17.1875 56.5198 L17.3438 56.301 ZM19.0469 55.7073 Q19.6562 56.0667 20.0312 56.4573 Q20.3594 56.7698 20.5156 57.0667 Q20.6406 57.2854 20.6406 57.5042 Q20.6406 57.9573 20.3438 57.9573 Q20.25 57.9573 20.1875 57.8792 Q20.0938 57.8167 20.0156 57.5667 Q19.7969 57.0198 19.5625 56.6917 Q19.3125 56.301 18.8906 55.9104 L19.0469 55.7073 ZM20.6875 49.1917 Q21.2812 49.3635 22.2656 49.3635 L24.2969 49.3635 L24.2969 48.1604 Q24.2969 47.426 24.25 47.051 Q25.0156 47.1448 25.5312 47.3479 Q25.7031 47.4417 25.7031 47.551 Q25.7031 47.6604 25.5312 47.7229 Q25.2812 47.8479 24.9375 47.8792 L24.9375 49.3635 L27.0938 49.3635 L27.6875 48.7073 Q28.1875 49.0354 28.6094 49.3792 Q28.7344 49.426 28.7344 49.5198 Q28.7344 49.7385 28.5469 49.7385 L24.9375 49.7385 L24.9375 52.3635 L26.5469 52.3635 L27.1406 51.7073 Q27.6406 52.051 28.0625 52.3635 Q28.1875 52.4417 28.1875 52.5198 Q28.1875 52.7542 28 52.7542 L23.0469 52.7542 Q22.0625 52.7698 21.7344 52.801 L21.4375 52.2073 Q22.0469 52.3635 23.0469 52.3635 L24.2969 52.3635 L24.2969 49.7385 L22.2656 49.7385 Q21.2969 49.7542 20.9531 49.801 L20.6875 49.1917 ZM21.6562 54.3323 L22.5 54.7698 L26.75 54.7698 L27.1406 54.3323 Q27.8438 54.7698 27.8438 54.9417 Q27.8438 55.0823 27.4531 55.3167 L27.4531 58.3792 Q27.6562 58.5198 27.8281 58.6604 Q27.8906 58.7229 27.8906 58.7542 Q27.8906 58.9729 27.7969 58.9729 L22.3281 58.9729 L22.3281 59.4104 Q22.3281 59.5354 22.1562 59.6135 Q21.9531 59.7073 21.8438 59.7073 Q21.6562 59.7073 21.6562 59.5198 L21.6562 54.3323 ZM22.3281 58.6135 L26.7969 58.6135 L26.7969 55.1604 L22.3281 55.1604 L22.3281 58.6135 ZM29.5 49.0823 L30.2969 49.6917 L31.3906 49.6917 L31.3906 48.0979 Q31.3906 47.3635 31.3438 47.0042 Q32.125 47.0979 32.6406 47.301 Q32.8281 47.3792 32.8281 47.5042 Q32.8281 47.6292 32.6406 47.6604 Q32.3906 47.7854 32.0469 47.8167 L32.0469 49.6917 L33.25 49.6917 L33.6875 49.0823 Q34.2031 49.3792 34.4219 49.6604 Q34.5156 49.7698 34.5156 49.8479 Q34.5156 49.9729 33.9844 50.2854 L33.9844 55.5979 Q33.9844 56.051 33.7969 56.301 Q33.6562 56.5198 33.3906 56.6448 Q33.1562 56.801 33 56.801 Q33 56.4729 32.9219 56.3479 Q32.875 56.176 32.7031 56.0354 Q32.5469 55.8948 32.3438 55.8635 L32.3438 55.5354 Q32.75 55.7542 33.0938 55.7542 Q33.25 55.7542 33.3125 55.676 Q33.3594 55.6135 33.3594 55.3167 L33.3594 50.0667 L32.0469 50.0667 L32.0469 58.6604 Q32.0469 58.9573 32.0781 59.0667 Q32.1094 59.301 32.1094 59.4729 Q32.1094 59.9104 31.6875 59.9104 Q31.3438 59.9104 31.3438 59.7073 Q31.3438 59.3948 31.3594 58.9417 Q31.3906 58.4729 31.3906 58.1135 L31.3906 50.0667 L30.1875 50.0667 L30.1875 56.8479 Q30.1875 57.0042 29.9375 57.0042 Q29.8125 57.0042 29.6094 56.9417 Q29.5 56.8323 29.5 56.6292 Q29.5 56.3948 29.5156 55.9885 Q29.5938 55.676 29.5938 54.6604 L29.5938 50.0042 Q29.5938 49.4729 29.5 49.0823 ZM35.5 47.2229 L36.3281 47.8167 L40.25 47.8167 L40.8594 47.2229 Q41.2969 47.551 41.6875 47.8479 Q41.7969 47.9104 41.7969 47.9885 Q41.7969 48.2073 41.6406 48.2073 L36.2031 48.2073 L36.2031 49.5667 L39.8281 49.5667 L40.3594 49.0198 Q40.7812 49.3167 41.1562 49.6135 Q41.25 49.6604 41.25 49.7385 Q41.25 49.9573 41.0938 49.9573 L36.2031 49.9573 L36.2031 51.4417 L39.8281 51.4417 L40.3594 50.8948 Q40.7812 51.176 41.1562 51.4729 Q41.25 51.5198 41.25 51.5979 Q41.25 51.8167 41.0938 51.8167 L36.2031 51.8167 L36.2031 53.301 L40.7969 53.301 L41.4062 52.6448 Q41.8906 52.9729 42.3281 53.3167 Q42.4375 53.3792 42.4375 53.4573 Q42.4375 53.676 42.2969 53.676 L36.0469 53.676 L36.0469 58.4417 Q36.1562 58.3948 36.25 58.3792 Q36.6406 58.2854 37.1406 58.0823 Q37.6094 57.9104 38.25 57.6135 L38.2969 57.8948 Q37.8438 58.2542 37.5 58.4729 Q37.1406 58.7229 36.8125 58.8792 Q36.5 59.0667 36.1562 59.2073 Q36.0156 59.7073 35.9531 59.7073 Q35.8438 59.7073 35.2969 58.6135 Q35.3594 58.5979 35.4062 58.5823 L35.4062 53.676 Q34.75 53.6917 34.4531 53.7229 L34.2031 53.1292 Q34.75 53.2854 35.6094 53.301 L35.6094 48.1604 Q35.6094 47.6292 35.5 47.2229 ZM41.3438 55.3167 Q41.0469 55.5667 40.6562 55.7854 Q40.3281 55.9885 39.9688 56.1604 Q39.7188 56.2854 39.4844 56.3792 Q39.6719 56.6917 39.8594 56.9104 Q40.1562 57.301 40.6719 57.7385 Q41.1719 58.176 41.6562 58.3948 Q42.0781 58.6604 42.5469 58.7542 L42.5469 58.926 Q41.8281 58.926 41.6875 59.3635 Q41.0469 59.0354 40.6562 58.6135 Q40.0938 58.1604 39.6875 57.5667 Q39.2031 56.9573 38.9062 56.2385 Q38.5469 55.4885 38.2969 54.551 L38.6094 54.4417 Q38.9219 55.3479 39.2031 55.8792 Q39.2812 56.0198 39.3438 56.1448 Q39.5938 55.9729 39.7812 55.8323 Q40.0781 55.6135 40.3125 55.3479 Q40.5469 55.1135 40.7188 54.8792 Q40.9062 54.6292 41.0312 54.3948 Q42.0625 55.0354 42.0625 55.2073 Q42.0625 55.3635 41.7969 55.3635 Q41.6406 55.3635 41.3438 55.3167 Z" style="clip-path:url(#clipPath33); stroke:none;" />
    </g>
    <g transform="translate(28,8)" style="font-size:14; stroke-linecap:butt; text-rendering:geometricPrecision; font-family:sans-serif; stroke-linejoin:round;">
      <line x1="42" x2="42" y1="42" style="clip-path:url(#clipPath37); fill:none;" y2="63" />
      <line x1="42" x2="48" y1="63" style="clip-path:url(#clipPath37); fill:none;" y2="51" />
      <line x1="42" x2="36" y1="63" style="clip-path:url(#clipPath37); fill:none;" y2="51" />
    </g>
    <g transform="translate(68,128)" style="font-size:14; stroke-linecap:butt; text-rendering:geometricPrecision; font-family:sans-serif; stroke-linejoin:round;">
      <line x1="42" x2="42" y1="72" style="clip-path:url(#clipPath38); fill:none;" y2="42" />
      <line x1="42" x2="96" y1="42" style="clip-path:url(#clipPath38); fill:none;" y2="42" />
      <line x1="96" x2="84" y1="42" style="clip-path:url(#clipPath38); fill:none;" y2="36" />
      <line x1="96" x2="84" y1="42" style="clip-path:url(#clipPath38); fill:none;" y2="48" />
    </g>
    <g transform="translate(135,128)" style="font-size:14; stroke-linecap:butt; text-rendering:geometricPrecision; font-family:sans-serif; stroke-linejoin:round;">
      <line x1="42" x2="235" y1="42" style="clip-path:url(#clipPath39); fill:none;" y2="42" />
      <line x1="235" x2="223" y1="42" style="clip-path:url(#clipPath39); fill:none;" y2="36" />
      <line x1="235" x2="223" y1="42" style="clip-path:url(#clipPath39); fill:none;" y2="48" />
    </g>
    <g transform="translate(128,142)" style="font-size:14; stroke-linecap:butt; text-rendering:geometricPrecision; font-family:sans-serif; stroke-linejoin:round;">
      <line x1="42" x2="42" y1="42" style="clip-path:url(#clipPath40); fill:none;" y2="248" />
      <line x1="42" x2="242" y1="248" style="clip-path:url(#clipPath40); fill:none;" y2="248" />
      <line x1="242" x2="230" y1="248" style="clip-path:url(#clipPath40); fill:none;" y2="242" />
      <line x1="242" x2="230" y1="248" style="clip-path:url(#clipPath40); fill:none;" y2="254" />
    </g>
    <g transform="translate(28,68)" style="font-size:14; stroke-linecap:butt; text-rendering:geometricPrecision; font-family:sans-serif; stroke-linejoin:round;">
      <line x1="42" x2="42" y1="42" style="clip-path:url(#clipPath41); fill:none;" y2="132" />
      <line x1="42" x2="48" y1="132" style="clip-path:url(#clipPath41); fill:none;" y2="120" />
      <line x1="42" x2="36" y1="132" style="clip-path:url(#clipPath41); fill:none;" y2="120" />
    </g>
    <g transform="translate(78,198)" style="font-size:14; stroke-linecap:butt; text-rendering:geometricPrecision; font-family:sans-serif; stroke-linejoin:round; stroke-dasharray:4;">
      <line x1="42" x2="42" y1="42" style="clip-path:url(#clipPath42); fill:none;" y2="101" />
    </g>
    <g transform="translate(548,148)" style="font-size:14; stroke-linecap:butt; text-rendering:geometricPrecision; font-family:sans-serif; stroke-linejoin:round;">
      <line x1="42" x2="42" y1="42" style="clip-path:url(#clipPath43); fill:none;" y2="108" />
      <line x1="42" x2="48" y1="108" style="clip-path:url(#clipPath43); fill:none;" y2="96" />
      <line x1="42" x2="36" y1="108" style="clip-path:url(#clipPath43); fill:none;" y2="96" />
    </g>
    <g transform="translate(438,228)" style="font-size:14; stroke-linecap:butt; text-rendering:geometricPrecision; font-family:sans-serif; stroke-linejoin:round;">
      <line x1="137" x2="42" y1="42" style="clip-path:url(#clipPath44); fill:none;" y2="42" />
      <line x1="42" x2="42" y1="42" style="clip-path:url(#clipPath44); fill:none;" y2="72" />
      <line x1="42" x2="48" y1="72" style="clip-path:url(#clipPath44); fill:none;" y2="60" />
      <line x1="42" x2="36" y1="72" style="clip-path:url(#clipPath44); fill:none;" y2="60" />
    </g>
    <g transform="translate(564,228)" style="font-size:14; stroke-linecap:butt; text-rendering:geometricPrecision; font-family:sans-serif; stroke-linejoin:round;">
      <line x1="42" x2="87" y1="42" style="clip-path:url(#clipPath45); fill:none;" y2="42" />
      <line x1="87" x2="75" y1="42" style="clip-path:url(#clipPath45); fill:none;" y2="36" />
      <line x1="87" x2="75" y1="42" style="clip-path:url(#clipPath45); fill:none;" y2="48" />
    </g>
    <g transform="translate(298,158)" style="font-size:14; stroke-linecap:butt; text-rendering:geometricPrecision; font-family:sans-serif; stroke-linejoin:round;">
      <line x1="112" x2="42" y1="162" style="clip-path:url(#clipPath46); fill:none;" y2="162" />
      <line x1="42" x2="42" y1="162" style="clip-path:url(#clipPath46); fill:none;" y2="42" />
      <line x1="42" x2="71" y1="42" style="clip-path:url(#clipPath46); fill:none;" y2="42" />
      <line x1="71" x2="59" y1="42" style="clip-path:url(#clipPath46); fill:none;" y2="36" />
      <line x1="71" x2="59" y1="42" style="clip-path:url(#clipPath46); fill:none;" y2="48" />
    </g>
    <g transform="translate(338,128)" style="font-size:14; stroke-linecap:butt; text-rendering:geometricPrecision; font-family:sans-serif; stroke-linejoin:round;">
      <line x1="42" x2="72" y1="42" style="clip-path:url(#clipPath47); fill:none;" y2="42" />
      <line x1="72" x2="60" y1="42" style="clip-path:url(#clipPath47); fill:none;" y2="36" />
      <line x1="72" x2="60" y1="42" style="clip-path:url(#clipPath47); fill:none;" y2="48" />
    </g>
    <g transform="translate(128,38)" style="font-size:14; stroke-linecap:butt; text-rendering:geometricPrecision; font-family:sans-serif; stroke-linejoin:round;">
      <line x1="42" x2="42" y1="120" style="clip-path:url(#clipPath48); fill:none;" y2="42" />
      <line x1="42" x2="222" y1="42" style="clip-path:url(#clipPath48); fill:none;" y2="42" />
      <line x1="222" x2="210" y1="42" style="clip-path:url(#clipPath48); fill:none;" y2="36" />
      <line x1="222" x2="210" y1="42" style="clip-path:url(#clipPath48); fill:none;" y2="48" />
    </g>
    <g transform="translate(418,38)" style="font-size:11; stroke-linecap:butt; text-rendering:geometricPrecision; font-family:sans-serif; stroke-linejoin:round;">
      <line x1="42" x2="132" y1="42" style="clip-path:url(#clipPath49); fill:none;" y2="42" />
      <line x1="132" x2="120" y1="42" style="clip-path:url(#clipPath49); fill:none;" y2="36" />
      <line x1="132" x2="120" y1="42" style="clip-path:url(#clipPath49); fill:none;" y2="48" />
    </g>
    <g transform="translate(588,28)" style="font-size:11; stroke-linecap:butt; text-rendering:geometricPrecision; font-family:sans-serif; stroke-linejoin:round;">
      <line x1="42" x2="301" y1="42" style="clip-path:url(#clipPath50); fill:none;" y2="42" />
      <line x1="301" x2="289" y1="42" style="clip-path:url(#clipPath50); fill:none;" y2="36" />
      <line x1="301" x2="289" y1="42" style="clip-path:url(#clipPath50); fill:none;" y2="48" />
    </g>
    <g transform="translate(588,38)" style="font-size:11; stroke-linecap:butt; text-rendering:geometricPrecision; font-family:sans-serif; stroke-linejoin:round;">
      <line x1="42" x2="122" y1="42" style="clip-path:url(#clipPath51); fill:none;" y2="42" />
      <line x1="122" x2="122" y1="42" style="clip-path:url(#clipPath51); fill:none;" y2="172" />
      <line x1="122" x2="171" y1="172" style="clip-path:url(#clipPath51); fill:none;" y2="172" />
      <line x1="171" x2="159" y1="172" style="clip-path:url(#clipPath51); fill:none;" y2="166" />
      <line x1="171" x2="159" y1="172" style="clip-path:url(#clipPath51); fill:none;" y2="178" />
    </g>
    <g transform="translate(478,128)" style="font-size:11; stroke-linecap:butt; text-rendering:geometricPrecision; font-family:sans-serif; stroke-linejoin:round;">
      <line x1="42" x2="72" y1="42" style="clip-path:url(#clipPath47); fill:none;" y2="42" />
      <line x1="72" x2="60" y1="42" style="clip-path:url(#clipPath47); fill:none;" y2="36" />
      <line x1="72" x2="60" y1="42" style="clip-path:url(#clipPath47); fill:none;" y2="48" />
    </g>
    <g transform="translate(618,128)" style="font-size:11; stroke-linecap:butt; text-rendering:geometricPrecision; font-family:sans-serif; stroke-linejoin:round;">
      <line x1="271" x2="42" y1="42" style="clip-path:url(#clipPath52); fill:none;" y2="42" />
      <line x1="42" x2="54" y1="42" style="clip-path:url(#clipPath52); fill:none;" y2="48" />
      <line x1="42" x2="54" y1="42" style="clip-path:url(#clipPath52); fill:none;" y2="36" />
    </g>
    <g transform="translate(730,238)" style="font-size:11; stroke-linecap:butt; text-rendering:geometricPrecision; font-family:sans-serif; stroke-linejoin:round;">
      <line x1="42" x2="60" y1="42" style="clip-path:url(#clipPath53); fill:none;" y2="42" />
      <line x1="60" x2="60" y1="42" style="clip-path:url(#clipPath53); fill:none;" y2="153" />
      <line x1="60" x2="66" y1="153" style="clip-path:url(#clipPath53); fill:none;" y2="141" />
      <line x1="60" x2="54" y1="153" style="clip-path:url(#clipPath53); fill:none;" y2="141" />
    </g>
    <g transform="translate(438,288)" style="font-size:11; stroke-linecap:butt; text-rendering:geometricPrecision; font-family:sans-serif; stroke-linejoin:round;">
      <line x1="42" x2="282" y1="102" style="clip-path:url(#clipPath54); fill:none;" y2="102" />
      <line x1="282" x2="282" y1="102" style="clip-path:url(#clipPath54); fill:none;" y2="42" />
      <line x1="282" x2="321" y1="42" style="clip-path:url(#clipPath54); fill:none;" y2="42" />
      <line x1="321" x2="309" y1="42" style="clip-path:url(#clipPath54); fill:none;" y2="36" />
      <line x1="321" x2="309" y1="42" style="clip-path:url(#clipPath54); fill:none;" y2="48" />
    </g>
    <g transform="translate(678,238)" style="font-size:11; stroke-linecap:butt; text-rendering:geometricPrecision; font-family:sans-serif; stroke-linejoin:round;">
      <line x1="42" x2="81" y1="42" style="clip-path:url(#clipPath55); fill:none;" y2="42" />
      <line x1="81" x2="69" y1="42" style="clip-path:url(#clipPath55); fill:none;" y2="36" />
      <line x1="81" x2="69" y1="42" style="clip-path:url(#clipPath55); fill:none;" y2="48" />
    </g>
    <g style="text-rendering:geometricPrecision; font-size:14; font-family:sans-serif;" transform="translate(230,50)">
      <text x="10" y="17" style="clip-path:url(#clipPath56); stroke:none;" xml:space="preserve">[刪除]</text>
    </g>
    <g style="text-rendering:geometricPrecision; font-size:14; font-family:sans-serif;" transform="translate(600,230)">
      <text x="10" y="17" style="clip-path:url(#clipPath57); stroke:none;" xml:space="preserve">[修改後數量合理]</text>
    </g>
    <g style="text-rendering:geometricPrecision; font-size:14; font-family:sans-serif;" transform="translate(420,230)">
      <text x="10" y="17" style="clip-path:url(#clipPath58); stroke:none;" xml:space="preserve">[修改後數量&gt;庫存量]</text>
    </g>
    <g style="text-rendering:geometricPrecision; font-size:14; font-family:sans-serif;" transform="translate(230,360)">
      <text x="10" y="17" style="clip-path:url(#clipPath56); stroke:none;" xml:space="preserve">[結帳]</text>
    </g>
    <g style="text-rendering:geometricPrecision; font-size:14; font-family:sans-serif;" transform="translate(230,180)">
      <text x="10" y="17" style="clip-path:url(#clipPath56); stroke:none;" xml:space="preserve">[修改]</text>
    </g>
  </g>
</svg>
