<?xml version="1.0" encoding="UTF-8"?>

<!DOCTYPE svg PUBLIC '-//W3C//DTD SVG 1.0//EN' 'http://www.w3.org/TR/2001/REC-SVG-20010904/DTD/svg10.dtd'>
<svg style="fill-opacity:1; color-rendering:auto; color-interpolation:auto; stroke:black; text-rendering:auto; stroke-linecap:square; stroke-miterlimit:10; stroke-opacity:1; shape-rendering:auto; fill:black; stroke-dasharray:none; font-weight:normal; stroke-width:1; font-family:&apos;Dialog&apos;; font-style:normal; stroke-linejoin:miter; font-size:12; stroke-dashoffset:0; image-rendering:auto;" xmlns="http://www.w3.org/2000/svg" width="814" xmlns:xlink="http://www.w3.org/1999/xlink" height="494">
  <!--Generated by the Batik Graphics2D SVG Generator-->
  <defs id="genericDefs" />
  <g>
    <defs id="defs1">
      <clipPath clipPathUnits="userSpaceOnUse" id="clipPath1">
        <path d="M-3 -3 L817 -3 L817 497 L-3 497 L-3 -3 Z" />
      </clipPath>
      <clipPath clipPathUnits="userSpaceOnUse" id="clipPath2">
        <path d="M0 0 L0 476 L7 476 L7 0 Z" />
      </clipPath>
      <clipPath clipPathUnits="userSpaceOnUse" id="clipPath3">
        <path d="M-3 -3 L387 -3 L387 28 L-3 28 L-3 -3 Z" />
      </clipPath>
      <clipPath clipPathUnits="userSpaceOnUse" id="clipPath4">
        <path d="M0 0 L380 0 L380 21 L0 21 L0 0 Z" />
      </clipPath>
      <clipPath clipPathUnits="userSpaceOnUse" id="clipPath5">
        <path d="M-3 -3 L387 -3 L387 476 L-3 476 L-3 -3 Z" />
      </clipPath>
      <clipPath clipPathUnits="userSpaceOnUse" id="clipPath6">
        <path d="M-3 -3 L227 -3 L227 28 L-3 28 L-3 -3 Z" />
      </clipPath>
      <clipPath clipPathUnits="userSpaceOnUse" id="clipPath7">
        <path d="M0 0 L220 0 L220 21 L0 21 L0 0 Z" />
      </clipPath>
      <clipPath clipPathUnits="userSpaceOnUse" id="clipPath8">
        <path d="M-3 -3 L227 -3 L227 476 L-3 476 L-3 -3 Z" />
      </clipPath>
      <clipPath clipPathUnits="userSpaceOnUse" id="clipPath9">
        <path d="M-3 -3 L217 -3 L217 28 L-3 28 L-3 -3 Z" />
      </clipPath>
      <clipPath clipPathUnits="userSpaceOnUse" id="clipPath10">
        <path d="M0 0 L210 0 L210 21 L0 21 L0 0 Z" />
      </clipPath>
      <clipPath clipPathUnits="userSpaceOnUse" id="clipPath11">
        <path d="M-3 -3 L217 -3 L217 476 L-3 476 L-3 -3 Z" />
      </clipPath>
      <clipPath clipPathUnits="userSpaceOnUse" id="clipPath12">
        <path d="M-3 -3 L107 -3 L107 47 L-3 47 L-3 -3 Z" />
      </clipPath>
      <clipPath clipPathUnits="userSpaceOnUse" id="clipPath13">
        <path d="M0 0 L100 0 L100 40 L0 40 L0 0 Z" />
      </clipPath>
      <clipPath clipPathUnits="userSpaceOnUse" id="clipPath14">
        <path d="M-3 -3 L47 -3 L47 27 L-3 27 L-3 -3 Z" />
      </clipPath>
      <clipPath clipPathUnits="userSpaceOnUse" id="clipPath15">
        <path d="M-3 -3 L127 -3 L127 57 L-3 57 L-3 -3 Z" />
      </clipPath>
      <clipPath clipPathUnits="userSpaceOnUse" id="clipPath16">
        <path d="M0 0 L120 0 L120 50 L0 50 L0 0 Z" />
      </clipPath>
      <clipPath clipPathUnits="userSpaceOnUse" id="clipPath17">
        <path d="M-3 -3 L137 -3 L137 57 L-3 57 L-3 -3 Z" />
      </clipPath>
      <clipPath clipPathUnits="userSpaceOnUse" id="clipPath18">
        <path d="M0 0 L130 0 L130 50 L0 50 L0 0 Z" />
      </clipPath>
      <clipPath clipPathUnits="userSpaceOnUse" id="clipPath19">
        <path d="M-3 -3 L167 -3 L167 57 L-3 57 L-3 -3 Z" />
      </clipPath>
      <clipPath clipPathUnits="userSpaceOnUse" id="clipPath20">
        <path d="M0 0 L160 0 L160 50 L0 50 L0 0 Z" />
      </clipPath>
      <clipPath clipPathUnits="userSpaceOnUse" id="clipPath21">
        <path d="M-3 -3 L27 -3 L27 27 L-3 27 L-3 -3 Z" />
      </clipPath>
      <clipPath clipPathUnits="userSpaceOnUse" id="clipPath22">
        <path d="M-3 -3 L117 -3 L117 57 L-3 57 L-3 -3 Z" />
      </clipPath>
      <clipPath clipPathUnits="userSpaceOnUse" id="clipPath23">
        <path d="M0 0 L110 0 L110 50 L0 50 L0 0 Z" />
      </clipPath>
      <clipPath clipPathUnits="userSpaceOnUse" id="clipPath24">
        <path d="M0 0 L210 0 L210 469 L0 469 L0 0 Z" />
      </clipPath>
      <clipPath clipPathUnits="userSpaceOnUse" id="clipPath25">
        <path d="M0 0 L220 0 L220 469 L0 469 L0 0 Z" />
      </clipPath>
      <clipPath clipPathUnits="userSpaceOnUse" id="clipPath26">
        <path d="M0 0 L380 0 L380 469 L0 469 L0 0 Z" />
      </clipPath>
      <clipPath clipPathUnits="userSpaceOnUse" id="clipPath27">
        <path d="M0 0 L275 0 L275 155 L0 155 L0 0 Z" />
      </clipPath>
      <clipPath clipPathUnits="userSpaceOnUse" id="clipPath28">
        <path d="M0 0 L104 0 L104 125 L0 125 L0 0 Z" />
      </clipPath>
      <clipPath clipPathUnits="userSpaceOnUse" id="clipPath29">
        <path d="M0 0 L205 0 L205 104 L0 104 L0 0 Z" />
      </clipPath>
      <clipPath clipPathUnits="userSpaceOnUse" id="clipPath30">
        <path d="M0 0 L334 0 L334 185 L0 185 L0 0 Z" />
      </clipPath>
      <clipPath clipPathUnits="userSpaceOnUse" id="clipPath31">
        <path d="M0 0 L285 0 L285 155 L0 155 L0 0 Z" />
      </clipPath>
      <clipPath clipPathUnits="userSpaceOnUse" id="clipPath32">
        <path d="M0 0 L235 0 L235 104 L0 104 L0 0 Z" />
      </clipPath>
      <clipPath clipPathUnits="userSpaceOnUse" id="clipPath33">
        <path d="M0 0 L454 0 L454 135 L0 135 L0 0 Z" />
      </clipPath>
      <clipPath clipPathUnits="userSpaceOnUse" id="clipPath34">
        <path d="M0 0 L145 0 L145 104 L0 104 L0 0 Z" />
      </clipPath>
      <clipPath clipPathUnits="userSpaceOnUse" id="clipPath35">
        <path d="M0 0 L415 0 L415 104 L0 104 L0 0 Z" />
      </clipPath>
      <clipPath clipPathUnits="userSpaceOnUse" id="clipPath36">
        <path d="M0 0 L194 0 L194 104 L0 104 L0 0 Z" />
      </clipPath>
    </defs>
    <g style="fill:white; text-rendering:geometricPrecision; stroke:white;">
      <rect x="0" y="0" width="814" style="stroke:none;" height="494" />
    </g>
    <g style="text-rendering:geometricPrecision; stroke-width:2; font-size:14; font-family:sans-serif;">
      <rect x="0" y="0" width="380" style="clip-path:url(#clipPath3); fill:none;" height="21" />
    </g>
    <g style="text-rendering:geometricPrecision; font-size:14; font-family:sans-serif;">
      <text x="153" y="17" style="clip-path:url(#clipPath4); stroke:none;" xml:space="preserve">廠商/管理者</text>
    </g>
    <g transform="translate(0,21)" style="text-rendering:geometricPrecision; stroke-width:2; font-size:14; font-family:sans-serif;">
      <rect x="0" y="0" width="380" style="clip-path:url(#clipPath5); fill:none;" height="469" />
    </g>
    <g transform="translate(380,0)" style="text-rendering:geometricPrecision; stroke-width:2; font-size:14; font-family:sans-serif;">
      <rect x="0" y="0" width="220" style="clip-path:url(#clipPath6); fill:none;" height="21" />
    </g>
    <g style="text-rendering:geometricPrecision; font-size:14; font-family:sans-serif;" transform="translate(380,0)">
      <text x="96" y="17" style="clip-path:url(#clipPath7); stroke:none;" xml:space="preserve">系統</text>
    </g>
    <g transform="translate(380,21)" style="text-rendering:geometricPrecision; stroke-width:2; font-size:14; font-family:sans-serif;">
      <rect x="0" y="0" width="220" style="clip-path:url(#clipPath8); fill:none;" height="469" />
    </g>
    <g transform="translate(600,0)" style="text-rendering:geometricPrecision; stroke-width:2; font-size:14; font-family:sans-serif;">
      <rect x="0" y="0" width="210" style="clip-path:url(#clipPath9); fill:none;" height="21" />
    </g>
    <g style="text-rendering:geometricPrecision; font-size:14; font-family:sans-serif;" transform="translate(600,0)">
      <text x="84" y="17" style="clip-path:url(#clipPath10); stroke:none;" xml:space="preserve">資料庫</text>
    </g>
    <g transform="translate(600,21)" style="text-rendering:geometricPrecision; stroke-width:2; font-size:14; font-family:sans-serif;">
      <rect x="0" y="0" width="210" style="clip-path:url(#clipPath11); fill:none;" height="469" />
    </g>
    <g transform="translate(660,330)" style="font-size:14; fill:rgb(122,207,245); text-rendering:geometricPrecision; font-family:sans-serif; stroke:rgb(122,207,245);">
      <rect x="0" y="0" width="100" style="clip-path:url(#clipPath12); stroke:none;" height="40" />
    </g>
    <g transform="translate(660,330)" style="font-size:14; stroke-linecap:butt; text-rendering:geometricPrecision; font-family:sans-serif; stroke-linejoin:round; stroke-miterlimit:0;">
      <rect x="0" y="0" width="100" style="clip-path:url(#clipPath12); fill:none;" height="40" />
    </g>
    <g style="text-rendering:geometricPrecision; font-size:14; font-family:sans-serif;" transform="translate(660,330)">
      <text x="15" y="26" style="clip-path:url(#clipPath13); stroke:none;" xml:space="preserve">展覽資料表</text>
    </g>
    <g style="text-rendering:geometricPrecision; font-size:14; font-family:sans-serif;" transform="translate(60,30)">
      <circle style="clip-path:url(#clipPath14); stroke:none;" r="10" cx="20" cy="10" />
    </g>
    <g transform="translate(20,70)" style="font-size:14; fill:rgb(122,207,245); text-rendering:geometricPrecision; font-family:sans-serif; stroke:rgb(122,207,245);">
      <rect x="1" y="1" width="118" style="clip-path:url(#clipPath15); stroke:none;" rx="15" ry="15" height="48" />
    </g>
    <g transform="translate(20,70)" style="font-size:14; stroke-linecap:butt; text-rendering:geometricPrecision; font-family:sans-serif; stroke-linejoin:round; stroke-miterlimit:0;">
      <rect x="1" y="1" width="118" style="clip-path:url(#clipPath15); fill:none;" rx="15" ry="15" height="48" />
    </g>
    <g style="text-rendering:geometricPrecision; font-size:14; font-family:sans-serif;" transform="translate(20,70)">
      <text x="18" y="31" style="clip-path:url(#clipPath16); stroke:none;" xml:space="preserve">開啟管理商店</text>
    </g>
    <g transform="translate(450,70)" style="font-size:14; fill:rgb(122,207,245); text-rendering:geometricPrecision; font-family:sans-serif; stroke:rgb(122,207,245);">
      <rect x="1" y="1" width="128" style="clip-path:url(#clipPath17); stroke:none;" rx="15" ry="15" height="48" />
    </g>
    <g transform="translate(450,70)" style="font-size:14; stroke-linecap:butt; text-rendering:geometricPrecision; font-family:sans-serif; stroke-linejoin:round; stroke-miterlimit:0;">
      <rect x="1" y="1" width="128" style="clip-path:url(#clipPath17); fill:none;" rx="15" ry="15" height="48" />
    </g>
    <g style="text-rendering:geometricPrecision; font-size:14; font-family:sans-serif;" transform="translate(450,70)">
      <text x="16" y="31" style="clip-path:url(#clipPath18); stroke:none;" xml:space="preserve">顯示登入中商店</text>
    </g>
    <g transform="translate(220,140)" style="font-size:14; fill:rgb(122,207,245); text-rendering:geometricPrecision; font-family:sans-serif; stroke:rgb(122,207,245);">
      <rect x="1" y="1" width="128" style="clip-path:url(#clipPath17); stroke:none;" rx="15" ry="15" height="48" />
    </g>
    <g transform="translate(220,140)" style="font-size:14; stroke-linecap:butt; text-rendering:geometricPrecision; font-family:sans-serif; stroke-linejoin:round; stroke-miterlimit:0;">
      <rect x="1" y="1" width="128" style="clip-path:url(#clipPath17); fill:none;" rx="15" ry="15" height="48" />
    </g>
    <g style="text-rendering:geometricPrecision; font-size:14; font-family:sans-serif;" transform="translate(220,140)">
      <text x="16" y="31" style="clip-path:url(#clipPath18); stroke:none;" xml:space="preserve">點選欲管理商店</text>
    </g>
    <g transform="translate(20,140)" style="font-size:14; fill:rgb(122,207,245); text-rendering:geometricPrecision; font-family:sans-serif; stroke:rgb(122,207,245);">
      <rect x="1" y="1" width="158" style="clip-path:url(#clipPath19); stroke:none;" rx="15" ry="15" height="48" />
    </g>
    <g transform="translate(20,140)" style="font-size:14; stroke-linecap:butt; text-rendering:geometricPrecision; font-family:sans-serif; stroke-linejoin:round; stroke-miterlimit:0;">
      <rect x="1" y="1" width="158" style="clip-path:url(#clipPath19); fill:none;" rx="15" ry="15" height="48" />
    </g>
    <g style="text-rendering:geometricPrecision; font-size:14; font-family:sans-serif;" transform="translate(20,140)">
      <text x="24" y="31" style="clip-path:url(#clipPath20); stroke:none;" xml:space="preserve">點選管理商店操作</text>
    </g>
    <g transform="translate(220,320)" style="font-size:14; fill:rgb(122,207,245); text-rendering:geometricPrecision; font-family:sans-serif; stroke:rgb(122,207,245);">
      <rect x="1" y="1" width="128" style="clip-path:url(#clipPath17); stroke:none;" rx="15" ry="15" height="48" />
    </g>
    <g transform="translate(220,320)" style="font-size:14; stroke-linecap:butt; text-rendering:geometricPrecision; font-family:sans-serif; stroke-linejoin:round; stroke-miterlimit:0;">
      <rect x="1" y="1" width="128" style="clip-path:url(#clipPath17); fill:none;" rx="15" ry="15" height="48" />
    </g>
    <g style="text-rendering:geometricPrecision; font-size:14; font-family:sans-serif;" transform="translate(220,320)">
      <text x="16" y="31" style="clip-path:url(#clipPath18); stroke:none;" xml:space="preserve">輸入欲修改內容</text>
    </g>
    <g style="text-rendering:geometricPrecision; font-size:14; font-family:sans-serif;" transform="translate(80,410)">
      <circle style="clip-path:url(#clipPath21); stroke:none;" r="6.6667" cx="10" cy="10" />
      <circle style="stroke-linecap:butt; clip-path:url(#clipPath21); fill:none; stroke-linejoin:round; stroke-miterlimit:0;" r="10" cx="10" cy="10" />
    </g>
    <g transform="translate(450,320)" style="font-size:14; fill:rgb(122,207,245); text-rendering:geometricPrecision; font-family:sans-serif; stroke:rgb(122,207,245);">
      <rect x="1" y="1" width="118" style="clip-path:url(#clipPath15); stroke:none;" rx="15" ry="15" height="48" />
    </g>
    <g transform="translate(450,320)" style="font-size:14; stroke-linecap:butt; text-rendering:geometricPrecision; font-family:sans-serif; stroke-linejoin:round; stroke-miterlimit:0;">
      <rect x="1" y="1" width="118" style="clip-path:url(#clipPath15); fill:none;" rx="15" ry="15" height="48" />
    </g>
    <g style="text-rendering:geometricPrecision; font-size:14; font-family:sans-serif;" transform="translate(450,320)">
      <text x="18" y="31" style="clip-path:url(#clipPath16); stroke:none;" xml:space="preserve">回傳更新結果</text>
    </g>
    <g transform="translate(230,400)" style="font-size:14; fill:rgb(122,207,245); text-rendering:geometricPrecision; font-family:sans-serif; stroke:rgb(122,207,245);">
      <rect x="1" y="1" width="108" style="clip-path:url(#clipPath22); stroke:none;" rx="15" ry="15" height="48" />
    </g>
    <g transform="translate(230,400)" style="font-size:14; stroke-linecap:butt; text-rendering:geometricPrecision; font-family:sans-serif; stroke-linejoin:round; stroke-miterlimit:0;">
      <rect x="1" y="1" width="108" style="clip-path:url(#clipPath22); fill:none;" rx="15" ry="15" height="48" />
    </g>
    <g style="text-rendering:geometricPrecision; font-size:14; font-family:sans-serif;" transform="translate(230,400)">
      <text x="13" y="31" style="clip-path:url(#clipPath23); stroke:none;" xml:space="preserve">顯示更新結果</text>
    </g>
    <g transform="translate(450,190)" style="font-size:14; fill:rgb(122,207,245); text-rendering:geometricPrecision; font-family:sans-serif; stroke:rgb(122,207,245);">
      <rect x="1" y="1" width="128" style="clip-path:url(#clipPath17); stroke:none;" rx="15" ry="15" height="48" />
    </g>
    <g transform="translate(450,190)" style="font-size:14; stroke-linecap:butt; text-rendering:geometricPrecision; font-family:sans-serif; stroke-linejoin:round; stroke-miterlimit:0;">
      <rect x="1" y="1" width="128" style="clip-path:url(#clipPath17); fill:none;" rx="15" ry="15" height="48" />
    </g>
    <g style="text-rendering:geometricPrecision; font-size:14; font-family:sans-serif;" transform="translate(450,190)">
      <text x="23" y="31" style="clip-path:url(#clipPath18); stroke:none;" xml:space="preserve">顯示修改頁面</text>
    </g>
    <g transform="translate(299,69)" style="font-size:14; stroke-linecap:butt; text-rendering:geometricPrecision; font-family:sans-serif; stroke-linejoin:round;">
      <line x1="221" x2="221" y1="50" style="clip-path:url(#clipPath27); fill:none;" y2="101" />
      <line x1="221" x2="50" y1="101" style="clip-path:url(#clipPath27); fill:none;" y2="101" />
      <line x1="50" x2="62" y1="101" style="clip-path:url(#clipPath27); fill:none;" y2="107" />
      <line x1="50" x2="62" y1="101" style="clip-path:url(#clipPath27); fill:none;" y2="95" />
    </g>
    <g transform="translate(30,-1)" style="font-size:14; stroke-linecap:butt; text-rendering:geometricPrecision; font-family:sans-serif; stroke-linejoin:round;">
      <line x1="50" x2="50" y1="50" style="clip-path:url(#clipPath28); fill:none;" y2="71" />
      <line x1="50" x2="56" y1="71" style="clip-path:url(#clipPath28); fill:none;" y2="59" />
      <line x1="50" x2="44" y1="71" style="clip-path:url(#clipPath28); fill:none;" y2="59" />
    </g>
    <g transform="translate(299,290)" style="font-size:14; stroke-linecap:butt; text-rendering:geometricPrecision; font-family:sans-serif; stroke-linejoin:round;">
      <line x1="50" x2="151" y1="50" style="clip-path:url(#clipPath29); fill:none;" y2="50" />
      <line x1="151" x2="139" y1="50" style="clip-path:url(#clipPath29); fill:none;" y2="44" />
      <line x1="151" x2="139" y1="50" style="clip-path:url(#clipPath29); fill:none;" y2="56" />
    </g>
    <g transform="translate(240,189)" style="font-size:14; stroke-linecap:butt; text-rendering:geometricPrecision; font-family:sans-serif; stroke-linejoin:round;">
      <line x1="280" x2="280" y1="50" style="clip-path:url(#clipPath30); fill:none;" y2="91" />
      <line x1="280" x2="50" y1="91" style="clip-path:url(#clipPath30); fill:none;" y2="91" />
      <line x1="50" x2="50" y1="91" style="clip-path:url(#clipPath30); fill:none;" y2="131" />
      <line x1="50" x2="56" y1="131" style="clip-path:url(#clipPath30); fill:none;" y2="119" />
      <line x1="50" x2="44" y1="131" style="clip-path:url(#clipPath30); fill:none;" y2="119" />
    </g>
    <g transform="translate(289,319)" style="font-size:11; stroke-linecap:butt; text-rendering:geometricPrecision; font-family:sans-serif; stroke-linejoin:round;">
      <line x1="231" x2="231" y1="50" style="clip-path:url(#clipPath31); fill:none;" y2="101" />
      <line x1="231" x2="50" y1="101" style="clip-path:url(#clipPath31); fill:none;" y2="101" />
      <line x1="50" x2="62" y1="101" style="clip-path:url(#clipPath31); fill:none;" y2="107" />
      <line x1="50" x2="62" y1="101" style="clip-path:url(#clipPath31); fill:none;" y2="95" />
    </g>
    <g transform="translate(49,370)" style="font-size:11; stroke-linecap:butt; text-rendering:geometricPrecision; font-family:sans-serif; stroke-linejoin:round;">
      <line x1="181" x2="50" y1="50" style="clip-path:url(#clipPath32); fill:none;" y2="50" />
      <line x1="50" x2="62" y1="50" style="clip-path:url(#clipPath32); fill:none;" y2="56" />
      <line x1="50" x2="62" y1="50" style="clip-path:url(#clipPath32); fill:none;" y2="44" />
    </g>
    <g transform="translate(50,139)" style="font-size:11; stroke-linecap:butt; text-rendering:geometricPrecision; font-family:sans-serif; stroke-linejoin:round;">
      <line x1="50" x2="50" y1="50" style="clip-path:url(#clipPath33); fill:none;" y2="81" />
      <line x1="50" x2="400" y1="81" style="clip-path:url(#clipPath33); fill:none;" y2="81" />
      <line x1="400" x2="388" y1="81" style="clip-path:url(#clipPath33); fill:none;" y2="75" />
      <line x1="400" x2="388" y1="81" style="clip-path:url(#clipPath33); fill:none;" y2="87" />
    </g>
    <g transform="translate(129,120)" style="font-size:11; stroke-linecap:butt; text-rendering:geometricPrecision; font-family:sans-serif; stroke-linejoin:round;">
      <line x1="91" x2="50" y1="50" style="clip-path:url(#clipPath34); fill:none;" y2="50" />
      <line x1="50" x2="62" y1="50" style="clip-path:url(#clipPath34); fill:none;" y2="56" />
      <line x1="50" x2="62" y1="50" style="clip-path:url(#clipPath34); fill:none;" y2="44" />
    </g>
    <g transform="translate(89,40)" style="font-size:11; stroke-linecap:butt; text-rendering:geometricPrecision; font-family:sans-serif; stroke-linejoin:round;">
      <line x1="50" x2="361" y1="50" style="clip-path:url(#clipPath35); fill:none;" y2="50" />
      <line x1="361" x2="349" y1="50" style="clip-path:url(#clipPath35); fill:none;" y2="44" />
      <line x1="361" x2="349" y1="50" style="clip-path:url(#clipPath35); fill:none;" y2="56" />
    </g>
    <g transform="translate(519,300)" style="font-size:11; stroke-linecap:butt; text-rendering:geometricPrecision; font-family:sans-serif; stroke-linejoin:round;">
      <line x1="50" x2="140" y1="50" style="clip-path:url(#clipPath36); fill:none;" y2="50" />
      <line x1="140" x2="128" y1="50" style="clip-path:url(#clipPath36); fill:none;" y2="44" />
      <line x1="140" x2="128" y1="50" style="clip-path:url(#clipPath36); fill:none;" y2="56" />
    </g>
  </g>
</svg>
