<?xml version="1.0" encoding="UTF-8"?>

<!DOCTYPE svg PUBLIC '-//W3C//DTD SVG 1.0//EN' 'http://www.w3.org/TR/2001/REC-SVG-20010904/DTD/svg10.dtd'>
<svg style="fill-opacity:1; color-rendering:auto; color-interpolation:auto; stroke:black; text-rendering:auto; stroke-linecap:square; stroke-miterlimit:10; stroke-opacity:1; shape-rendering:auto; fill:black; stroke-dasharray:none; font-weight:normal; stroke-width:1; font-family:&apos;Dialog&apos;; font-style:normal; stroke-linejoin:miter; font-size:12; stroke-dashoffset:0; image-rendering:auto;" xmlns="http://www.w3.org/2000/svg" width="994" xmlns:xlink="http://www.w3.org/1999/xlink" height="444">
  <!--Generated by the Batik Graphics2D SVG Generator-->
  <defs id="genericDefs" />
  <g>
    <defs id="defs1">
      <clipPath clipPathUnits="userSpaceOnUse" id="clipPath1">
        <path d="M-3 -3 L997 -3 L997 447 L-3 447 L-3 -3 Z" />
      </clipPath>
      <clipPath clipPathUnits="userSpaceOnUse" id="clipPath2">
        <path d="M0 0 L0 426 L7 426 L7 0 Z" />
      </clipPath>
      <clipPath clipPathUnits="userSpaceOnUse" id="clipPath3">
        <path d="M-3 -3 L407 -3 L407 28 L-3 28 L-3 -3 Z" />
      </clipPath>
      <clipPath clipPathUnits="userSpaceOnUse" id="clipPath4">
        <path d="M0 0 L400 0 L400 21 L0 21 L0 0 Z" />
      </clipPath>
      <clipPath clipPathUnits="userSpaceOnUse" id="clipPath5">
        <path d="M-3 -3 L407 -3 L407 425 L-3 425 L-3 -3 Z" />
      </clipPath>
      <clipPath clipPathUnits="userSpaceOnUse" id="clipPath6">
        <path d="M-3 -3 L397 -3 L397 28 L-3 28 L-3 -3 Z" />
      </clipPath>
      <clipPath clipPathUnits="userSpaceOnUse" id="clipPath7">
        <path d="M0 0 L390 0 L390 21 L0 21 L0 0 Z" />
      </clipPath>
      <clipPath clipPathUnits="userSpaceOnUse" id="clipPath8">
        <path d="M-3 -3 L397 -3 L397 425 L-3 425 L-3 -3 Z" />
      </clipPath>
      <clipPath clipPathUnits="userSpaceOnUse" id="clipPath9">
        <path d="M-3 -3 L19 -3 L19 87 L-3 87 L-3 -3 Z" />
      </clipPath>
      <clipPath clipPathUnits="userSpaceOnUse" id="clipPath10">
        <path d="M-3 -3 L207 -3 L207 28 L-3 28 L-3 -3 Z" />
      </clipPath>
      <clipPath clipPathUnits="userSpaceOnUse" id="clipPath11">
        <path d="M0 0 L200 0 L200 21 L0 21 L0 0 Z" />
      </clipPath>
      <clipPath clipPathUnits="userSpaceOnUse" id="clipPath12">
        <path d="M-3 -3 L207 -3 L207 425 L-3 425 L-3 -3 Z" />
      </clipPath>
      <clipPath clipPathUnits="userSpaceOnUse" id="clipPath13">
        <path d="M-3 -3 L97 -3 L97 47 L-3 47 L-3 -3 Z" />
      </clipPath>
      <clipPath clipPathUnits="userSpaceOnUse" id="clipPath14">
        <path d="M0 0 L90 0 L90 40 L0 40 L0 0 Z" />
      </clipPath>
      <clipPath clipPathUnits="userSpaceOnUse" id="clipPath15">
        <path d="M-3 -3 L47 -3 L47 27 L-3 27 L-3 -3 Z" />
      </clipPath>
      <clipPath clipPathUnits="userSpaceOnUse" id="clipPath16">
        <path d="M-3 -3 L127 -3 L127 55 L-3 55 L-3 -3 Z" />
      </clipPath>
      <clipPath clipPathUnits="userSpaceOnUse" id="clipPath17">
        <path d="M0 0 L120 0 L120 48 L0 48 L0 0 Z" />
      </clipPath>
      <clipPath clipPathUnits="userSpaceOnUse" id="clipPath18">
        <path d="M-3 -3 L127 -3 L127 56 L-3 56 L-3 -3 Z" />
      </clipPath>
      <clipPath clipPathUnits="userSpaceOnUse" id="clipPath19">
        <path d="M0 0 L120 0 L120 49 L0 49 L0 0 Z" />
      </clipPath>
      <clipPath clipPathUnits="userSpaceOnUse" id="clipPath20">
        <path d="M-3 -3 L127 -3 L127 47 L-3 47 L-3 -3 Z" />
      </clipPath>
      <clipPath clipPathUnits="userSpaceOnUse" id="clipPath21">
        <path d="M0 0 L120 0 L120 40 L0 40 L0 0 Z" />
      </clipPath>
      <clipPath clipPathUnits="userSpaceOnUse" id="clipPath22">
        <path d="M-3 -3 L117 -3 L117 56 L-3 56 L-3 -3 Z" />
      </clipPath>
      <clipPath clipPathUnits="userSpaceOnUse" id="clipPath23">
        <path d="M0 0 L110 0 L110 49 L0 49 L0 0 Z" />
      </clipPath>
      <clipPath clipPathUnits="userSpaceOnUse" id="clipPath24">
        <path d="M-3 -3 L37 -3 L37 47 L-3 47 L-3 -3 Z" />
      </clipPath>
      <clipPath clipPathUnits="userSpaceOnUse" id="clipPath25">
        <path d="M-3 -3 L147 -3 L147 56 L-3 56 L-3 -3 Z" />
      </clipPath>
      <clipPath clipPathUnits="userSpaceOnUse" id="clipPath26">
        <path d="M0 0 L140 0 L140 49 L0 49 L0 0 Z" />
      </clipPath>
      <clipPath clipPathUnits="userSpaceOnUse" id="clipPath27">
        <path d="M-3 -3 L27 -3 L27 27 L-3 27 L-3 -3 Z" />
      </clipPath>
      <clipPath clipPathUnits="userSpaceOnUse" id="clipPath28">
        <path d="M-3 -3 L106 -3 L106 56 L-3 56 L-3 -3 Z" />
      </clipPath>
      <clipPath clipPathUnits="userSpaceOnUse" id="clipPath29">
        <path d="M0 0 L99 0 L99 49 L0 49 L0 0 Z" />
      </clipPath>
      <clipPath clipPathUnits="userSpaceOnUse" id="clipPath30">
        <path d="M0 0 L200 0 L200 418 L0 418 L0 0 Z" />
      </clipPath>
      <clipPath clipPathUnits="userSpaceOnUse" id="clipPath31">
        <path d="M0 0 L390 0 L390 418 L0 418 L0 0 Z" />
      </clipPath>
      <clipPath clipPathUnits="userSpaceOnUse" id="clipPath32">
        <path d="M0 0 L400 0 L400 418 L0 418 L0 0 Z" />
      </clipPath>
      <clipPath clipPathUnits="userSpaceOnUse" id="clipPath33">
        <path d="M0 0 L156 0 L156 157 L0 157 L0 0 Z" />
      </clipPath>
      <clipPath clipPathUnits="userSpaceOnUse" id="clipPath34">
        <path d="M0 0 L87 0 L87 132 L0 132 L0 0 Z" />
      </clipPath>
      <clipPath clipPathUnits="userSpaceOnUse" id="clipPath35">
        <path d="M0 0 L407 0 L407 257 L0 257 L0 0 Z" />
      </clipPath>
      <clipPath clipPathUnits="userSpaceOnUse" id="clipPath36">
        <path d="M0 0 L87 0 L87 147 L0 147 L0 0 Z" />
      </clipPath>
      <clipPath clipPathUnits="userSpaceOnUse" id="clipPath37">
        <path d="M0 0 L272 0 L272 141 L0 141 L0 0 Z" />
      </clipPath>
      <clipPath clipPathUnits="userSpaceOnUse" id="clipPath38">
        <path d="M0 0 L106 0 L106 87 L0 87 L0 0 Z" />
      </clipPath>
      <clipPath clipPathUnits="userSpaceOnUse" id="clipPath39">
        <path d="M0 0 L187 0 L187 87 L0 87 L0 0 Z" />
      </clipPath>
      <clipPath clipPathUnits="userSpaceOnUse" id="clipPath40">
        <path d="M0 0 L127 0 L127 87 L0 87 L0 0 Z" />
      </clipPath>
      <clipPath clipPathUnits="userSpaceOnUse" id="clipPath41">
        <path d="M0 0 L138 0 L138 87 L0 87 L0 0 Z" />
      </clipPath>
      <clipPath clipPathUnits="userSpaceOnUse" id="clipPath42">
        <path d="M0 0 L192 0 L192 127 L0 127 L0 0 Z" />
      </clipPath>
      <clipPath clipPathUnits="userSpaceOnUse" id="clipPath43">
        <path d="M0 0 L181 0 L181 127 L0 127 L0 0 Z" />
      </clipPath>
      <clipPath clipPathUnits="userSpaceOnUse" id="clipPath44">
        <path d="M0 0 L87 0 L87 136 L0 136 L0 0 Z" />
      </clipPath>
      <clipPath clipPathUnits="userSpaceOnUse" id="clipPath45">
        <path d="M0 0 L438 0 L438 87 L0 87 L0 0 Z" />
      </clipPath>
      <clipPath clipPathUnits="userSpaceOnUse" id="clipPath46">
        <path d="M0 0 L238 0 L238 87 L0 87 L0 0 Z" />
      </clipPath>
      <clipPath clipPathUnits="userSpaceOnUse" id="clipPath47">
        <path d="M0 0 L55 0 L55 21 L0 21 L0 0 Z" />
      </clipPath>
    </defs>
    <g style="fill:white; text-rendering:geometricPrecision; stroke:white;">
      <rect x="0" y="0" width="994" style="stroke:none;" height="444" />
    </g>
    <g style="text-rendering:geometricPrecision; stroke-width:2; font-size:14; font-family:sans-serif;">
      <rect x="0" y="0" width="400" style="clip-path:url(#clipPath3); fill:none;" height="21" />
    </g>
    <g style="text-rendering:geometricPrecision; font-size:14; font-family:sans-serif;">
      <text x="186" y="17" style="clip-path:url(#clipPath4); stroke:none;" xml:space="preserve">會員</text>
    </g>
    <g transform="translate(0,21)" style="text-rendering:geometricPrecision; stroke-width:2; font-size:14; font-family:sans-serif;">
      <rect x="0" y="0" width="400" style="clip-path:url(#clipPath5); fill:none;" height="418" />
    </g>
    <g transform="translate(400,0)" style="text-rendering:geometricPrecision; stroke-width:2; font-size:14; font-family:sans-serif;">
      <rect x="0" y="0" width="390" style="clip-path:url(#clipPath6); fill:none;" height="21" />
    </g>
    <g style="text-rendering:geometricPrecision; font-size:14; font-family:sans-serif;" transform="translate(400,0)">
      <text x="181" y="17" style="clip-path:url(#clipPath7); stroke:none;" xml:space="preserve">系統</text>
    </g>
    <g transform="translate(400,21)" style="text-rendering:geometricPrecision; stroke-width:2; font-size:14; font-family:sans-serif;">
      <rect x="0" y="0" width="390" style="clip-path:url(#clipPath8); fill:none;" height="418" />
    </g>
    <g style="text-rendering:geometricPrecision; font-size:14; font-family:sans-serif;" transform="translate(230,110)">
      <rect x="0" y="0" width="12" style="clip-path:url(#clipPath9); stroke:none;" height="80" />
      <rect x="0" y="0" width="12" style="stroke-linecap:butt; clip-path:url(#clipPath9); fill:none; stroke-linejoin:round; stroke-miterlimit:0;" height="80" />
    </g>
    <g transform="translate(790,0)" style="text-rendering:geometricPrecision; stroke-width:2; font-size:14; font-family:sans-serif;">
      <rect x="0" y="0" width="200" style="clip-path:url(#clipPath10); fill:none;" height="21" />
    </g>
    <g style="text-rendering:geometricPrecision; font-size:14; font-family:sans-serif;" transform="translate(790,0)">
      <text x="79" y="17" style="clip-path:url(#clipPath11); stroke:none;" xml:space="preserve">資料庫</text>
    </g>
    <g transform="translate(790,21)" style="text-rendering:geometricPrecision; stroke-width:2; font-size:14; font-family:sans-serif;">
      <rect x="0" y="0" width="200" style="clip-path:url(#clipPath12); fill:none;" height="418" />
    </g>
    <g transform="translate(860,330)" style="font-size:14; fill:rgb(122,207,245); text-rendering:geometricPrecision; font-family:sans-serif; stroke:rgb(122,207,245);">
      <rect x="0" y="0" width="90" style="clip-path:url(#clipPath13); stroke:none;" height="40" />
    </g>
    <g transform="translate(860,330)" style="font-size:14; stroke-linecap:butt; text-rendering:geometricPrecision; font-family:sans-serif; stroke-linejoin:round; stroke-miterlimit:0;">
      <rect x="0" y="0" width="90" style="clip-path:url(#clipPath13); fill:none;" height="40" />
    </g>
    <g style="text-rendering:geometricPrecision; font-size:14; font-family:sans-serif;" transform="translate(860,330)">
      <text x="10" y="26" style="clip-path:url(#clipPath14); stroke:none;" xml:space="preserve">訂單資料表</text>
    </g>
    <g style="text-rendering:geometricPrecision; font-size:14; font-family:sans-serif;" transform="translate(10,40)">
      <circle style="clip-path:url(#clipPath15); stroke:none;" r="10" cx="20" cy="10" />
    </g>
    <g transform="translate(90,22)" style="font-size:14; fill:rgb(122,207,245); text-rendering:geometricPrecision; font-family:sans-serif; stroke:rgb(122,207,245);">
      <rect x="1" y="1" width="118" style="clip-path:url(#clipPath16); stroke:none;" rx="15" ry="15" height="46" />
    </g>
    <g transform="translate(90,22)" style="font-size:14; stroke-linecap:butt; text-rendering:geometricPrecision; font-family:sans-serif; stroke-linejoin:round; stroke-miterlimit:0;">
      <rect x="1" y="1" width="118" style="clip-path:url(#clipPath16); fill:none;" rx="15" ry="15" height="46" />
    </g>
    <g style="text-rendering:geometricPrecision; font-size:14; font-family:sans-serif;" transform="translate(90,22)">
      <text x="18" y="30" style="clip-path:url(#clipPath17); stroke:none;" xml:space="preserve">開啟結帳畫面</text>
    </g>
    <g transform="translate(90,130)" style="font-size:14; fill:rgb(122,207,245); text-rendering:geometricPrecision; font-family:sans-serif; stroke:rgb(122,207,245);">
      <rect x="1" y="1" width="118" style="clip-path:url(#clipPath18); stroke:none;" rx="15" ry="15" height="47" />
    </g>
    <g transform="translate(90,130)" style="font-size:14; stroke-linecap:butt; text-rendering:geometricPrecision; font-family:sans-serif; stroke-linejoin:round; stroke-miterlimit:0;">
      <rect x="1" y="1" width="118" style="clip-path:url(#clipPath18); fill:none;" rx="15" ry="15" height="47" />
    </g>
    <g style="text-rendering:geometricPrecision; font-size:14; font-family:sans-serif;" transform="translate(90,130)">
      <text x="18" y="31" style="clip-path:url(#clipPath19); stroke:none;" xml:space="preserve">選擇付款方式</text>
    </g>
    <g transform="translate(90,224)" style="font-size:14; fill:rgb(122,207,245); text-rendering:geometricPrecision; font-family:sans-serif; stroke:rgb(122,207,245);">
      <rect x="1" y="1" width="118" style="clip-path:url(#clipPath20); stroke:none;" rx="15" ry="15" height="38" />
    </g>
    <g transform="translate(90,224)" style="font-size:14; stroke-linecap:butt; text-rendering:geometricPrecision; font-family:sans-serif; stroke-linejoin:round; stroke-miterlimit:0;">
      <rect x="1" y="1" width="118" style="clip-path:url(#clipPath20); fill:none;" rx="15" ry="15" height="38" />
    </g>
    <g style="text-rendering:geometricPrecision; font-size:14; font-family:sans-serif;" transform="translate(90,224)">
      <text x="32" y="26" style="clip-path:url(#clipPath21); stroke:none;" xml:space="preserve">支付款項</text>
    </g>
    <g transform="translate(530,60)" style="font-size:14; fill:rgb(122,207,245); text-rendering:geometricPrecision; font-family:sans-serif; stroke:rgb(122,207,245);">
      <rect x="1" y="1" width="118" style="clip-path:url(#clipPath18); stroke:none;" rx="15" ry="15" height="47" />
    </g>
    <g transform="translate(530,60)" style="font-size:14; stroke-linecap:butt; text-rendering:geometricPrecision; font-family:sans-serif; stroke-linejoin:round; stroke-miterlimit:0;">
      <rect x="1" y="1" width="118" style="clip-path:url(#clipPath18); fill:none;" rx="15" ry="15" height="47" />
    </g>
    <g style="text-rendering:geometricPrecision; font-size:14; font-family:sans-serif;" transform="translate(530,60)">
      <text x="18" y="31" style="clip-path:url(#clipPath19); stroke:none;" xml:space="preserve">驗證款項狀態</text>
    </g>
    <g transform="translate(250,20)" style="font-size:14; fill:rgb(122,207,245); text-rendering:geometricPrecision; font-family:sans-serif; stroke:rgb(122,207,245);">
      <rect x="1" y="1" width="108" style="clip-path:url(#clipPath22); stroke:none;" rx="15" ry="15" height="47" />
    </g>
    <g transform="translate(250,20)" style="font-size:14; stroke-linecap:butt; text-rendering:geometricPrecision; font-family:sans-serif; stroke-linejoin:round; stroke-miterlimit:0;">
      <rect x="1" y="1" width="108" style="clip-path:url(#clipPath22); fill:none;" rx="15" ry="15" height="47" />
    </g>
    <g style="text-rendering:geometricPrecision; font-size:14; font-family:sans-serif;" transform="translate(250,20)">
      <text x="13" y="31" style="clip-path:url(#clipPath23); stroke:none;" xml:space="preserve">填寫訂貨資料</text>
    </g>
    <g transform="translate(580,150)" style="font-size:14; fill:rgb(122,207,245); text-rendering:geometricPrecision; font-family:sans-serif; stroke:rgb(122,207,245);">
      <polygon style="clip-path:url(#clipPath24); stroke:none;" points=" 15 7 27 20 15 32 3 20" />
    </g>
    <g transform="translate(580,150)" style="font-size:14; stroke-linecap:butt; text-rendering:geometricPrecision; font-family:sans-serif; stroke-linejoin:round; stroke-miterlimit:0;">
      <polygon style="fill:none; clip-path:url(#clipPath24);" points=" 15 7 27 20 15 32 3 20" />
    </g>
    <g transform="translate(419,209)" style="font-size:14; fill:rgb(122,207,245); text-rendering:geometricPrecision; font-family:sans-serif; stroke:rgb(122,207,245);">
      <rect x="1" y="1" width="138" style="clip-path:url(#clipPath25); stroke:none;" rx="15" ry="15" height="47" />
    </g>
    <g transform="translate(419,209)" style="font-size:14; stroke-linecap:butt; text-rendering:geometricPrecision; font-family:sans-serif; stroke-linejoin:round; stroke-miterlimit:0;">
      <rect x="1" y="1" width="138" style="clip-path:url(#clipPath25); fill:none;" rx="15" ry="15" height="47" />
    </g>
    <g style="text-rendering:geometricPrecision; font-size:14; font-family:sans-serif;" transform="translate(419,209)">
      <text x="14" y="31" style="clip-path:url(#clipPath26); stroke:none;" xml:space="preserve">傳送支付錯誤訊息</text>
    </g>
    <g transform="translate(640,209)" style="font-size:14; fill:rgb(122,207,245); text-rendering:geometricPrecision; font-family:sans-serif; stroke:rgb(122,207,245);">
      <rect x="1" y="1" width="118" style="clip-path:url(#clipPath18); stroke:none;" rx="15" ry="15" height="47" />
    </g>
    <g transform="translate(640,209)" style="font-size:14; stroke-linecap:butt; text-rendering:geometricPrecision; font-family:sans-serif; stroke-linejoin:round; stroke-miterlimit:0;">
      <rect x="1" y="1" width="118" style="clip-path:url(#clipPath18); fill:none;" rx="15" ry="15" height="47" />
    </g>
    <g style="text-rendering:geometricPrecision; font-size:14; font-family:sans-serif;" transform="translate(640,209)">
      <text x="18" y="31" style="clip-path:url(#clipPath19); stroke:none;" xml:space="preserve">建立訂單明細</text>
    </g>
    <g transform="translate(640,320)" style="font-size:14; fill:rgb(122,207,245); text-rendering:geometricPrecision; font-family:sans-serif; stroke:rgb(122,207,245);">
      <rect x="1" y="1" width="118" style="clip-path:url(#clipPath18); stroke:none;" rx="15" ry="15" height="47" />
    </g>
    <g transform="translate(640,320)" style="font-size:14; stroke-linecap:butt; text-rendering:geometricPrecision; font-family:sans-serif; stroke-linejoin:round; stroke-miterlimit:0;">
      <rect x="1" y="1" width="118" style="clip-path:url(#clipPath18); fill:none;" rx="15" ry="15" height="47" />
    </g>
    <g style="text-rendering:geometricPrecision; font-size:14; font-family:sans-serif;" transform="translate(640,320)">
      <text x="18" y="31" style="clip-path:url(#clipPath19); stroke:none;" xml:space="preserve">儲存訂單紀錄</text>
    </g>
    <g style="text-rendering:geometricPrecision; font-size:14; font-family:sans-serif;" transform="translate(20,340)">
      <circle style="clip-path:url(#clipPath27); stroke:none;" r="6.6667" cx="10" cy="10" />
      <circle style="stroke-linecap:butt; clip-path:url(#clipPath27); fill:none; stroke-linejoin:round; stroke-miterlimit:0;" r="10" cx="10" cy="10" />
    </g>
    <g transform="translate(190,320)" style="font-size:14; fill:rgb(122,207,245); text-rendering:geometricPrecision; font-family:sans-serif; stroke:rgb(122,207,245);">
      <rect x="1" y="1" width="97" style="clip-path:url(#clipPath28); stroke:none;" rx="15" ry="15" height="47" />
    </g>
    <g transform="translate(190,320)" style="font-size:14; stroke-linecap:butt; text-rendering:geometricPrecision; font-family:sans-serif; stroke-linejoin:round; stroke-miterlimit:0;">
      <rect x="1" y="1" width="97" style="clip-path:url(#clipPath28); fill:none;" rx="15" ry="15" height="47" />
    </g>
    <g style="text-rendering:geometricPrecision; font-size:14; font-family:sans-serif;" transform="translate(190,320)">
      <text x="7" y="31" style="clip-path:url(#clipPath29); stroke:none;" xml:space="preserve">顯示購買成功</text>
    </g>
    <g transform="translate(200,28)" style="font-size:14; stroke-linecap:butt; text-rendering:geometricPrecision; font-family:sans-serif; stroke-linejoin:round;">
      <line x1="110" x2="110" y1="42" style="clip-path:url(#clipPath33); fill:none;" y2="112" />
      <line x1="110" x2="42" y1="112" style="clip-path:url(#clipPath33); fill:none;" y2="112" />
      <line x1="42" x2="54" y1="112" style="clip-path:url(#clipPath33); fill:none;" y2="118" />
      <line x1="42" x2="54" y1="112" style="clip-path:url(#clipPath33); fill:none;" y2="106" />
    </g>
    <g transform="translate(108,138)" style="font-size:14; stroke-linecap:butt; text-rendering:geometricPrecision; font-family:sans-serif; stroke-linejoin:round;">
      <line x1="42" x2="42" y1="42" style="clip-path:url(#clipPath34); fill:none;" y2="87" />
      <line x1="42" x2="48" y1="87" style="clip-path:url(#clipPath34); fill:none;" y2="75" />
      <line x1="42" x2="36" y1="87" style="clip-path:url(#clipPath34); fill:none;" y2="75" />
    </g>
    <g transform="translate(168,38)" style="font-size:14; stroke-linecap:butt; text-rendering:geometricPrecision; font-family:sans-serif; stroke-linejoin:round;">
      <line x1="42" x2="192" y1="212" style="clip-path:url(#clipPath35); fill:none;" y2="212" />
      <line x1="192" x2="192" y1="212" style="clip-path:url(#clipPath35); fill:none;" y2="42" />
      <line x1="192" x2="362" y1="42" style="clip-path:url(#clipPath35); fill:none;" y2="42" />
      <line x1="362" x2="350" y1="42" style="clip-path:url(#clipPath35); fill:none;" y2="36" />
      <line x1="362" x2="350" y1="42" style="clip-path:url(#clipPath35); fill:none;" y2="48" />
    </g>
    <g transform="translate(658,218)" style="font-size:14; stroke-linecap:butt; text-rendering:geometricPrecision; font-family:sans-serif; stroke-linejoin:round;">
      <line x1="42" x2="42" y1="42" style="clip-path:url(#clipPath36); fill:none;" y2="102" />
      <line x1="42" x2="48" y1="102" style="clip-path:url(#clipPath36); fill:none;" y2="90" />
      <line x1="42" x2="36" y1="102" style="clip-path:url(#clipPath36); fill:none;" y2="90" />
    </g>
    <g transform="translate(200,118)" style="font-size:14; stroke-linecap:butt; text-rendering:geometricPrecision; font-family:sans-serif; stroke-linejoin:round;">
      <line x1="226" x2="110" y1="95" style="clip-path:url(#clipPath37); fill:none;" y2="42" />
      <line x1="110" x2="42" y1="42" style="clip-path:url(#clipPath37); fill:none;" y2="42" />
      <line x1="42" x2="54" y1="42" style="clip-path:url(#clipPath37); fill:none;" y2="48" />
      <line x1="42" x2="54" y1="42" style="clip-path:url(#clipPath37); fill:none;" y2="36" />
    </g>
    <g transform="translate(168,108)" style="font-size:14; stroke-linecap:butt; text-rendering:geometricPrecision; font-family:sans-serif; stroke-linejoin:round;">
      <line x1="61" x2="42" y1="42" style="clip-path:url(#clipPath38); fill:none;" y2="42" />
      <line x1="42" x2="54" y1="42" style="clip-path:url(#clipPath38); fill:none;" y2="48" />
      <line x1="42" x2="54" y1="42" style="clip-path:url(#clipPath38); fill:none;" y2="36" />
    </g>
    <g transform="translate(717,308)" style="font-size:14; stroke-linecap:butt; text-rendering:geometricPrecision; font-family:sans-serif; stroke-linejoin:round;">
      <line x1="42" x2="142" y1="42" style="clip-path:url(#clipPath39); fill:none;" y2="42" />
      <line x1="142" x2="130" y1="42" style="clip-path:url(#clipPath39); fill:none;" y2="36" />
      <line x1="142" x2="130" y1="42" style="clip-path:url(#clipPath39); fill:none;" y2="48" />
    </g>
    <g transform="translate(168,8)" style="font-size:11; stroke-linecap:butt; text-rendering:geometricPrecision; font-family:sans-serif; stroke-linejoin:round;">
      <line x1="42" x2="82" y1="42" style="clip-path:url(#clipPath40); fill:none;" y2="42" />
      <line x1="82" x2="70" y1="42" style="clip-path:url(#clipPath40); fill:none;" y2="36" />
      <line x1="82" x2="70" y1="42" style="clip-path:url(#clipPath40); fill:none;" y2="48" />
    </g>
    <g transform="translate(-2,8)" style="font-size:11; stroke-linecap:butt; text-rendering:geometricPrecision; font-family:sans-serif; stroke-linejoin:round;">
      <line x1="42" x2="93" y1="42" style="clip-path:url(#clipPath41); fill:none;" y2="42" />
      <line x1="93" x2="81" y1="42" style="clip-path:url(#clipPath41); fill:none;" y2="36" />
      <line x1="93" x2="81" y1="42" style="clip-path:url(#clipPath41); fill:none;" y2="48" />
    </g>
    <g transform="translate(438,128)" style="font-size:14; stroke-linecap:butt; text-rendering:geometricPrecision; font-family:sans-serif; stroke-linejoin:round;">
      <line x1="146" x2="42" y1="42" style="clip-path:url(#clipPath42); fill:none;" y2="42" />
      <line x1="42" x2="42" y1="42" style="clip-path:url(#clipPath42); fill:none;" y2="82" />
      <line x1="42" x2="48" y1="82" style="clip-path:url(#clipPath42); fill:none;" y2="70" />
      <line x1="42" x2="36" y1="82" style="clip-path:url(#clipPath42); fill:none;" y2="70" />
    </g>
    <g transform="translate(565,128)" style="font-size:14; stroke-linecap:butt; text-rendering:geometricPrecision; font-family:sans-serif; stroke-linejoin:round;">
      <line x1="42" x2="135" y1="42" style="clip-path:url(#clipPath43); fill:none;" y2="42" />
      <line x1="135" x2="135" y1="42" style="clip-path:url(#clipPath43); fill:none;" y2="82" />
      <line x1="135" x2="141" y1="82" style="clip-path:url(#clipPath43); fill:none;" y2="70" />
      <line x1="135" x2="129" y1="82" style="clip-path:url(#clipPath43); fill:none;" y2="70" />
    </g>
    <g transform="translate(552,68)" style="font-size:11; stroke-linecap:butt; text-rendering:geometricPrecision; font-family:sans-serif; stroke-linejoin:round;">
      <line x1="42" x2="42" y1="42" style="clip-path:url(#clipPath44); fill:none;" y2="90" />
      <line x1="42" x2="48" y1="90" style="clip-path:url(#clipPath44); fill:none;" y2="78" />
      <line x1="42" x2="36" y1="90" style="clip-path:url(#clipPath44); fill:none;" y2="78" />
    </g>
    <g transform="translate(248,308)" style="font-size:11; stroke-linecap:butt; text-rendering:geometricPrecision; font-family:sans-serif; stroke-linejoin:round;">
      <line x1="393" x2="42" y1="42" style="clip-path:url(#clipPath45); fill:none;" y2="42" />
      <line x1="42" x2="54" y1="42" style="clip-path:url(#clipPath45); fill:none;" y2="48" />
      <line x1="42" x2="54" y1="42" style="clip-path:url(#clipPath45); fill:none;" y2="36" />
    </g>
    <g transform="translate(-2,308)" style="font-size:11; stroke-linecap:butt; text-rendering:geometricPrecision; font-family:sans-serif; stroke-linejoin:round;">
      <line x1="193" x2="42" y1="42" style="clip-path:url(#clipPath46); fill:none;" y2="42" />
      <line x1="42" x2="54" y1="42" style="clip-path:url(#clipPath46); fill:none;" y2="48" />
      <line x1="42" x2="54" y1="42" style="clip-path:url(#clipPath46); fill:none;" y2="36" />
    </g>
    <g style="text-rendering:geometricPrecision; font-size:14; font-family:sans-serif;" transform="translate(658,139)">
      <text x="9" y="17" style="clip-path:url(#clipPath47); stroke:none;" xml:space="preserve">[成功]</text>
    </g>
    <g style="text-rendering:geometricPrecision; font-size:14; font-family:sans-serif;" transform="translate(481,139)">
      <text x="9" y="17" style="clip-path:url(#clipPath47); stroke:none;" xml:space="preserve">[失敗]</text>
    </g>
  </g>
</svg>
